G04 MADE WITH FRITZING*
G04 WWW.FRITZING.ORG*
G04 DOUBLE SIDED*
G04 HOLES PLATED*
G04 CONTOUR ON CENTER OF CONTOUR VECTOR*
%ASAXBY*%
%FSLAX23Y23*%
%MOIN*%
%OFA0B0*%
%SFA1.0B1.0*%
%ADD10C,0.067717*%
%ADD11C,0.075000*%
%ADD12R,0.067716X0.067716*%
%ADD13R,0.075000X0.075000*%
%ADD14R,0.001000X0.001000*%
%LNCOPPER0*%
G90*
G70*
G54D10*
X1034Y572D03*
X1034Y872D03*
X934Y572D03*
X934Y872D03*
X834Y572D03*
X834Y872D03*
X734Y572D03*
X734Y872D03*
X634Y572D03*
X634Y872D03*
X534Y572D03*
X534Y872D03*
X434Y572D03*
X434Y872D03*
X334Y572D03*
X334Y872D03*
X234Y572D03*
X234Y872D03*
X134Y572D03*
X134Y872D03*
X1034Y572D03*
X1034Y872D03*
X934Y572D03*
X934Y872D03*
X834Y572D03*
X834Y872D03*
X734Y572D03*
X734Y872D03*
X634Y572D03*
X634Y872D03*
X534Y572D03*
X534Y872D03*
X434Y572D03*
X434Y872D03*
X334Y572D03*
X334Y872D03*
X234Y572D03*
X234Y872D03*
X134Y572D03*
X134Y872D03*
X1634Y672D03*
X1634Y772D03*
X1634Y872D03*
X1634Y672D03*
X1634Y772D03*
X1634Y872D03*
X534Y1372D03*
X534Y1272D03*
X534Y1172D03*
X534Y1372D03*
X534Y1272D03*
X534Y1172D03*
X134Y1372D03*
X134Y1272D03*
X134Y1172D03*
X134Y1372D03*
X134Y1272D03*
X134Y1172D03*
G54D11*
X934Y972D03*
X1234Y972D03*
X934Y972D03*
X1234Y972D03*
X1134Y1372D03*
X1134Y1072D03*
X1134Y1372D03*
X1134Y1072D03*
X334Y1672D03*
X334Y1372D03*
X334Y1672D03*
X334Y1372D03*
X734Y1672D03*
X734Y1372D03*
X734Y1672D03*
X734Y1372D03*
G54D10*
X75Y187D03*
X175Y187D03*
X275Y187D03*
X375Y187D03*
X475Y187D03*
X575Y187D03*
X75Y187D03*
X175Y187D03*
X275Y187D03*
X375Y187D03*
X475Y187D03*
X575Y187D03*
X76Y73D03*
X176Y73D03*
X276Y73D03*
X376Y73D03*
X476Y73D03*
X576Y73D03*
X76Y73D03*
X176Y73D03*
X276Y73D03*
X376Y73D03*
X476Y73D03*
X576Y73D03*
X774Y72D03*
X874Y72D03*
X974Y72D03*
X1074Y72D03*
X1174Y72D03*
X1274Y72D03*
X1374Y72D03*
X1474Y72D03*
X774Y72D03*
X874Y72D03*
X974Y72D03*
X1074Y72D03*
X1174Y72D03*
X1274Y72D03*
X1374Y72D03*
X1474Y72D03*
X73Y1972D03*
X173Y1972D03*
X273Y1972D03*
X373Y1972D03*
X473Y1972D03*
X573Y1972D03*
X673Y1972D03*
X773Y1972D03*
X73Y1972D03*
X173Y1972D03*
X273Y1972D03*
X373Y1972D03*
X473Y1972D03*
X573Y1972D03*
X673Y1972D03*
X773Y1972D03*
X773Y189D03*
X873Y189D03*
X973Y189D03*
X1073Y189D03*
X1173Y189D03*
X1273Y189D03*
X1373Y189D03*
X1473Y189D03*
X773Y189D03*
X873Y189D03*
X973Y189D03*
X1073Y189D03*
X1173Y189D03*
X1273Y189D03*
X1373Y189D03*
X1473Y189D03*
X70Y1854D03*
X170Y1854D03*
X270Y1854D03*
X370Y1854D03*
X470Y1854D03*
X570Y1854D03*
X670Y1854D03*
X770Y1854D03*
X70Y1854D03*
X170Y1854D03*
X270Y1854D03*
X370Y1854D03*
X470Y1854D03*
X570Y1854D03*
X670Y1854D03*
X770Y1854D03*
X935Y1855D03*
X1035Y1855D03*
X1135Y1855D03*
X1235Y1855D03*
X1335Y1855D03*
X1435Y1855D03*
X1535Y1855D03*
X1635Y1855D03*
X935Y1855D03*
X1035Y1855D03*
X1135Y1855D03*
X1235Y1855D03*
X1335Y1855D03*
X1435Y1855D03*
X1535Y1855D03*
X1635Y1855D03*
X934Y1972D03*
X1034Y1972D03*
X1134Y1972D03*
X1234Y1972D03*
X1334Y1972D03*
X1434Y1972D03*
X1534Y1972D03*
X1634Y1972D03*
X934Y1972D03*
X1034Y1972D03*
X1134Y1972D03*
X1234Y1972D03*
X1334Y1972D03*
X1434Y1972D03*
X1534Y1972D03*
X1634Y1972D03*
G54D11*
X1434Y672D03*
X1434Y872D03*
X1434Y672D03*
X1434Y872D03*
X1234Y872D03*
X1234Y672D03*
X1234Y872D03*
X1234Y672D03*
X1534Y372D03*
X1534Y572D03*
X1534Y372D03*
X1534Y572D03*
G54D12*
X1034Y572D03*
X1034Y572D03*
G54D13*
X1434Y672D03*
X1434Y672D03*
X1234Y872D03*
X1234Y872D03*
X1534Y372D03*
X1534Y372D03*
G54D14*
X1546Y1626D02*
X1550Y1626D01*
X1586Y1626D02*
X1590Y1626D01*
X1619Y1626D02*
X1655Y1626D01*
X1545Y1625D02*
X1551Y1625D01*
X1585Y1625D02*
X1591Y1625D01*
X1617Y1625D02*
X1655Y1625D01*
X1544Y1624D02*
X1552Y1624D01*
X1584Y1624D02*
X1592Y1624D01*
X1617Y1624D02*
X1655Y1624D01*
X1544Y1623D02*
X1552Y1623D01*
X1584Y1623D02*
X1592Y1623D01*
X1616Y1623D02*
X1655Y1623D01*
X1544Y1622D02*
X1553Y1622D01*
X1583Y1622D02*
X1592Y1622D01*
X1616Y1622D02*
X1655Y1622D01*
X1544Y1621D02*
X1553Y1621D01*
X1583Y1621D02*
X1592Y1621D01*
X1616Y1621D02*
X1655Y1621D01*
X1544Y1620D02*
X1553Y1620D01*
X1583Y1620D02*
X1592Y1620D01*
X1616Y1620D02*
X1655Y1620D01*
X1544Y1619D02*
X1553Y1619D01*
X1583Y1619D02*
X1592Y1619D01*
X1617Y1619D02*
X1655Y1619D01*
X1544Y1618D02*
X1553Y1618D01*
X1583Y1618D02*
X1592Y1618D01*
X1618Y1618D02*
X1655Y1618D01*
X1544Y1617D02*
X1553Y1617D01*
X1583Y1617D02*
X1592Y1617D01*
X1619Y1617D02*
X1655Y1617D01*
X1544Y1616D02*
X1553Y1616D01*
X1583Y1616D02*
X1592Y1616D01*
X1646Y1616D02*
X1655Y1616D01*
X1544Y1615D02*
X1553Y1615D01*
X1583Y1615D02*
X1592Y1615D01*
X1646Y1615D02*
X1655Y1615D01*
X1544Y1614D02*
X1553Y1614D01*
X1583Y1614D02*
X1592Y1614D01*
X1646Y1614D02*
X1655Y1614D01*
X1544Y1613D02*
X1553Y1613D01*
X1583Y1613D02*
X1592Y1613D01*
X1646Y1613D02*
X1655Y1613D01*
X1544Y1612D02*
X1553Y1612D01*
X1583Y1612D02*
X1592Y1612D01*
X1646Y1612D02*
X1655Y1612D01*
X1544Y1611D02*
X1553Y1611D01*
X1583Y1611D02*
X1592Y1611D01*
X1646Y1611D02*
X1655Y1611D01*
X1544Y1610D02*
X1553Y1610D01*
X1583Y1610D02*
X1592Y1610D01*
X1646Y1610D02*
X1655Y1610D01*
X1544Y1609D02*
X1553Y1609D01*
X1583Y1609D02*
X1592Y1609D01*
X1646Y1609D02*
X1655Y1609D01*
X1544Y1608D02*
X1553Y1608D01*
X1583Y1608D02*
X1592Y1608D01*
X1646Y1608D02*
X1655Y1608D01*
X1544Y1607D02*
X1553Y1607D01*
X1583Y1607D02*
X1592Y1607D01*
X1646Y1607D02*
X1655Y1607D01*
X1544Y1606D02*
X1553Y1606D01*
X1583Y1606D02*
X1592Y1606D01*
X1646Y1606D02*
X1655Y1606D01*
X1544Y1605D02*
X1553Y1605D01*
X1583Y1605D02*
X1592Y1605D01*
X1646Y1605D02*
X1655Y1605D01*
X1544Y1604D02*
X1553Y1604D01*
X1583Y1604D02*
X1592Y1604D01*
X1646Y1604D02*
X1655Y1604D01*
X1544Y1603D02*
X1554Y1603D01*
X1582Y1603D02*
X1592Y1603D01*
X1646Y1603D02*
X1655Y1603D01*
X1544Y1602D02*
X1554Y1602D01*
X1582Y1602D02*
X1592Y1602D01*
X1646Y1602D02*
X1655Y1602D01*
X1545Y1601D02*
X1555Y1601D01*
X1581Y1601D02*
X1591Y1601D01*
X1646Y1601D02*
X1655Y1601D01*
X1545Y1600D02*
X1555Y1600D01*
X1581Y1600D02*
X1591Y1600D01*
X1646Y1600D02*
X1655Y1600D01*
X1545Y1599D02*
X1555Y1599D01*
X1581Y1599D02*
X1591Y1599D01*
X1646Y1599D02*
X1655Y1599D01*
X1546Y1598D02*
X1556Y1598D01*
X1580Y1598D02*
X1590Y1598D01*
X1646Y1598D02*
X1655Y1598D01*
X1546Y1597D02*
X1556Y1597D01*
X1580Y1597D02*
X1590Y1597D01*
X1646Y1597D02*
X1655Y1597D01*
X1547Y1596D02*
X1556Y1596D01*
X1580Y1596D02*
X1589Y1596D01*
X1646Y1596D02*
X1655Y1596D01*
X1547Y1595D02*
X1557Y1595D01*
X1579Y1595D02*
X1589Y1595D01*
X1646Y1595D02*
X1655Y1595D01*
X1547Y1594D02*
X1557Y1594D01*
X1579Y1594D02*
X1589Y1594D01*
X1646Y1594D02*
X1655Y1594D01*
X1548Y1593D02*
X1558Y1593D01*
X1578Y1593D02*
X1588Y1593D01*
X1645Y1593D02*
X1655Y1593D01*
X1548Y1592D02*
X1558Y1592D01*
X1578Y1592D02*
X1588Y1592D01*
X1622Y1592D02*
X1655Y1592D01*
X1549Y1591D02*
X1558Y1591D01*
X1578Y1591D02*
X1587Y1591D01*
X1620Y1591D02*
X1655Y1591D01*
X1549Y1590D02*
X1559Y1590D01*
X1577Y1590D02*
X1587Y1590D01*
X1619Y1590D02*
X1655Y1590D01*
X1549Y1589D02*
X1559Y1589D01*
X1577Y1589D02*
X1587Y1589D01*
X1618Y1589D02*
X1655Y1589D01*
X1550Y1588D02*
X1560Y1588D01*
X1576Y1588D02*
X1586Y1588D01*
X1617Y1588D02*
X1655Y1588D01*
X1550Y1587D02*
X1560Y1587D01*
X1576Y1587D02*
X1586Y1587D01*
X1617Y1587D02*
X1655Y1587D01*
X1551Y1586D02*
X1560Y1586D01*
X1576Y1586D02*
X1586Y1586D01*
X1616Y1586D02*
X1655Y1586D01*
X1551Y1585D02*
X1561Y1585D01*
X1575Y1585D02*
X1585Y1585D01*
X1616Y1585D02*
X1655Y1585D01*
X1551Y1584D02*
X1561Y1584D01*
X1575Y1584D02*
X1585Y1584D01*
X1616Y1584D02*
X1655Y1584D01*
X1552Y1583D02*
X1562Y1583D01*
X1574Y1583D02*
X1584Y1583D01*
X1616Y1583D02*
X1655Y1583D01*
X1552Y1582D02*
X1562Y1582D01*
X1574Y1582D02*
X1584Y1582D01*
X1616Y1582D02*
X1625Y1582D01*
X1552Y1581D02*
X1562Y1581D01*
X1574Y1581D02*
X1584Y1581D01*
X1616Y1581D02*
X1625Y1581D01*
X1553Y1580D02*
X1563Y1580D01*
X1573Y1580D02*
X1583Y1580D01*
X1616Y1580D02*
X1625Y1580D01*
X1553Y1579D02*
X1563Y1579D01*
X1573Y1579D02*
X1583Y1579D01*
X1616Y1579D02*
X1625Y1579D01*
X1554Y1578D02*
X1564Y1578D01*
X1572Y1578D02*
X1582Y1578D01*
X1616Y1578D02*
X1625Y1578D01*
X1554Y1577D02*
X1564Y1577D01*
X1572Y1577D02*
X1582Y1577D01*
X1616Y1577D02*
X1625Y1577D01*
X1554Y1576D02*
X1564Y1576D01*
X1572Y1576D02*
X1582Y1576D01*
X1616Y1576D02*
X1625Y1576D01*
X1555Y1575D02*
X1565Y1575D01*
X1571Y1575D02*
X1581Y1575D01*
X1616Y1575D02*
X1625Y1575D01*
X1555Y1574D02*
X1565Y1574D01*
X1571Y1574D02*
X1581Y1574D01*
X1616Y1574D02*
X1625Y1574D01*
X1556Y1573D02*
X1565Y1573D01*
X1571Y1573D02*
X1580Y1573D01*
X1616Y1573D02*
X1625Y1573D01*
X1556Y1572D02*
X1566Y1572D01*
X1570Y1572D02*
X1580Y1572D01*
X1616Y1572D02*
X1625Y1572D01*
X1556Y1571D02*
X1566Y1571D01*
X1570Y1571D02*
X1580Y1571D01*
X1616Y1571D02*
X1625Y1571D01*
X1557Y1570D02*
X1567Y1570D01*
X1569Y1570D02*
X1579Y1570D01*
X1616Y1570D02*
X1625Y1570D01*
X1557Y1569D02*
X1567Y1569D01*
X1569Y1569D02*
X1579Y1569D01*
X1616Y1569D02*
X1625Y1569D01*
X1558Y1568D02*
X1579Y1568D01*
X1616Y1568D02*
X1625Y1568D01*
X1558Y1567D02*
X1578Y1567D01*
X1616Y1567D02*
X1625Y1567D01*
X1558Y1566D02*
X1578Y1566D01*
X1616Y1566D02*
X1625Y1566D01*
X1559Y1565D02*
X1577Y1565D01*
X1616Y1565D02*
X1625Y1565D01*
X1559Y1564D02*
X1577Y1564D01*
X1616Y1564D02*
X1625Y1564D01*
X1559Y1563D02*
X1577Y1563D01*
X1616Y1563D02*
X1625Y1563D01*
X1660Y1563D02*
X1660Y1563D01*
X1560Y1562D02*
X1576Y1562D01*
X1616Y1562D02*
X1625Y1562D01*
X1657Y1562D02*
X1663Y1562D01*
X1560Y1561D02*
X1576Y1561D01*
X1616Y1561D02*
X1625Y1561D01*
X1655Y1561D02*
X1664Y1561D01*
X1561Y1560D02*
X1575Y1560D01*
X1616Y1560D02*
X1625Y1560D01*
X1652Y1560D02*
X1664Y1560D01*
X1561Y1559D02*
X1575Y1559D01*
X1616Y1559D02*
X1625Y1559D01*
X1650Y1559D02*
X1665Y1559D01*
X1561Y1558D02*
X1575Y1558D01*
X1616Y1558D02*
X1665Y1558D01*
X1562Y1557D02*
X1574Y1557D01*
X1616Y1557D02*
X1665Y1557D01*
X1562Y1556D02*
X1574Y1556D01*
X1616Y1556D02*
X1664Y1556D01*
X1563Y1555D02*
X1573Y1555D01*
X1617Y1555D02*
X1664Y1555D01*
X1563Y1554D02*
X1573Y1554D01*
X1617Y1554D02*
X1663Y1554D01*
X1563Y1553D02*
X1573Y1553D01*
X1618Y1553D02*
X1661Y1553D01*
X1564Y1552D02*
X1572Y1552D01*
X1619Y1552D02*
X1659Y1552D01*
X1564Y1551D02*
X1572Y1551D01*
X1620Y1551D02*
X1657Y1551D01*
X1565Y1550D02*
X1571Y1550D01*
X1621Y1550D02*
X1654Y1550D01*
X1567Y1549D02*
X1569Y1549D01*
X1624Y1549D02*
X1650Y1549D01*
X1367Y1057D02*
X1370Y1057D01*
X1406Y1057D02*
X1410Y1057D01*
X1443Y1057D02*
X1482Y1057D01*
X1588Y1057D02*
X1627Y1057D01*
X1365Y1056D02*
X1371Y1056D01*
X1405Y1056D02*
X1411Y1056D01*
X1441Y1056D02*
X1483Y1056D01*
X1586Y1056D02*
X1628Y1056D01*
X1365Y1055D02*
X1372Y1055D01*
X1404Y1055D02*
X1412Y1055D01*
X1440Y1055D02*
X1484Y1055D01*
X1584Y1055D02*
X1629Y1055D01*
X1364Y1054D02*
X1373Y1054D01*
X1404Y1054D02*
X1412Y1054D01*
X1439Y1054D02*
X1485Y1054D01*
X1583Y1054D02*
X1629Y1054D01*
X1364Y1053D02*
X1373Y1053D01*
X1404Y1053D02*
X1413Y1053D01*
X1438Y1053D02*
X1485Y1053D01*
X1582Y1053D02*
X1629Y1053D01*
X1364Y1052D02*
X1373Y1052D01*
X1403Y1052D02*
X1413Y1052D01*
X1437Y1052D02*
X1485Y1052D01*
X1582Y1052D02*
X1629Y1052D01*
X1364Y1051D02*
X1373Y1051D01*
X1403Y1051D02*
X1413Y1051D01*
X1437Y1051D02*
X1485Y1051D01*
X1581Y1051D02*
X1629Y1051D01*
X1364Y1050D02*
X1373Y1050D01*
X1403Y1050D02*
X1413Y1050D01*
X1436Y1050D02*
X1484Y1050D01*
X1581Y1050D02*
X1629Y1050D01*
X1364Y1049D02*
X1373Y1049D01*
X1403Y1049D02*
X1413Y1049D01*
X1436Y1049D02*
X1483Y1049D01*
X1581Y1049D02*
X1628Y1049D01*
X1364Y1048D02*
X1373Y1048D01*
X1403Y1048D02*
X1413Y1048D01*
X1436Y1048D02*
X1482Y1048D01*
X1581Y1048D02*
X1627Y1048D01*
X1364Y1047D02*
X1373Y1047D01*
X1403Y1047D02*
X1413Y1047D01*
X1436Y1047D02*
X1445Y1047D01*
X1581Y1047D02*
X1590Y1047D01*
X1364Y1046D02*
X1373Y1046D01*
X1403Y1046D02*
X1413Y1046D01*
X1436Y1046D02*
X1445Y1046D01*
X1581Y1046D02*
X1590Y1046D01*
X1364Y1045D02*
X1373Y1045D01*
X1403Y1045D02*
X1413Y1045D01*
X1436Y1045D02*
X1445Y1045D01*
X1581Y1045D02*
X1590Y1045D01*
X1364Y1044D02*
X1373Y1044D01*
X1403Y1044D02*
X1413Y1044D01*
X1436Y1044D02*
X1445Y1044D01*
X1581Y1044D02*
X1590Y1044D01*
X1364Y1043D02*
X1373Y1043D01*
X1403Y1043D02*
X1413Y1043D01*
X1436Y1043D02*
X1445Y1043D01*
X1581Y1043D02*
X1590Y1043D01*
X1364Y1042D02*
X1373Y1042D01*
X1403Y1042D02*
X1413Y1042D01*
X1436Y1042D02*
X1445Y1042D01*
X1581Y1042D02*
X1590Y1042D01*
X1364Y1041D02*
X1373Y1041D01*
X1403Y1041D02*
X1413Y1041D01*
X1436Y1041D02*
X1445Y1041D01*
X1581Y1041D02*
X1590Y1041D01*
X1364Y1040D02*
X1373Y1040D01*
X1403Y1040D02*
X1413Y1040D01*
X1436Y1040D02*
X1445Y1040D01*
X1581Y1040D02*
X1590Y1040D01*
X1364Y1039D02*
X1373Y1039D01*
X1403Y1039D02*
X1413Y1039D01*
X1436Y1039D02*
X1445Y1039D01*
X1581Y1039D02*
X1590Y1039D01*
X1364Y1038D02*
X1373Y1038D01*
X1403Y1038D02*
X1413Y1038D01*
X1436Y1038D02*
X1445Y1038D01*
X1581Y1038D02*
X1590Y1038D01*
X1364Y1037D02*
X1373Y1037D01*
X1403Y1037D02*
X1413Y1037D01*
X1436Y1037D02*
X1445Y1037D01*
X1581Y1037D02*
X1590Y1037D01*
X1364Y1036D02*
X1373Y1036D01*
X1403Y1036D02*
X1413Y1036D01*
X1436Y1036D02*
X1445Y1036D01*
X1581Y1036D02*
X1590Y1036D01*
X1364Y1035D02*
X1373Y1035D01*
X1403Y1035D02*
X1413Y1035D01*
X1436Y1035D02*
X1445Y1035D01*
X1581Y1035D02*
X1590Y1035D01*
X1364Y1034D02*
X1374Y1034D01*
X1403Y1034D02*
X1412Y1034D01*
X1436Y1034D02*
X1445Y1034D01*
X1581Y1034D02*
X1590Y1034D01*
X1364Y1033D02*
X1374Y1033D01*
X1402Y1033D02*
X1412Y1033D01*
X1436Y1033D02*
X1445Y1033D01*
X1581Y1033D02*
X1590Y1033D01*
X1365Y1032D02*
X1375Y1032D01*
X1402Y1032D02*
X1412Y1032D01*
X1436Y1032D02*
X1445Y1032D01*
X1581Y1032D02*
X1590Y1032D01*
X1365Y1031D02*
X1375Y1031D01*
X1401Y1031D02*
X1411Y1031D01*
X1436Y1031D02*
X1445Y1031D01*
X1581Y1031D02*
X1590Y1031D01*
X1366Y1030D02*
X1375Y1030D01*
X1401Y1030D02*
X1411Y1030D01*
X1436Y1030D02*
X1445Y1030D01*
X1581Y1030D02*
X1590Y1030D01*
X1366Y1029D02*
X1376Y1029D01*
X1401Y1029D02*
X1410Y1029D01*
X1436Y1029D02*
X1445Y1029D01*
X1581Y1029D02*
X1590Y1029D01*
X1366Y1028D02*
X1376Y1028D01*
X1400Y1028D02*
X1410Y1028D01*
X1436Y1028D02*
X1445Y1028D01*
X1581Y1028D02*
X1590Y1028D01*
X1367Y1027D02*
X1377Y1027D01*
X1400Y1027D02*
X1410Y1027D01*
X1436Y1027D02*
X1446Y1027D01*
X1581Y1027D02*
X1590Y1027D01*
X1367Y1026D02*
X1377Y1026D01*
X1399Y1026D02*
X1409Y1026D01*
X1436Y1026D02*
X1446Y1026D01*
X1581Y1026D02*
X1591Y1026D01*
X1368Y1025D02*
X1377Y1025D01*
X1399Y1025D02*
X1409Y1025D01*
X1437Y1025D02*
X1447Y1025D01*
X1581Y1025D02*
X1592Y1025D01*
X1368Y1024D02*
X1378Y1024D01*
X1399Y1024D02*
X1409Y1024D01*
X1437Y1024D02*
X1449Y1024D01*
X1581Y1024D02*
X1593Y1024D01*
X1368Y1023D02*
X1378Y1023D01*
X1398Y1023D02*
X1408Y1023D01*
X1437Y1023D02*
X1472Y1023D01*
X1582Y1023D02*
X1617Y1023D01*
X1369Y1022D02*
X1379Y1022D01*
X1398Y1022D02*
X1408Y1022D01*
X1438Y1022D02*
X1474Y1022D01*
X1582Y1022D02*
X1618Y1022D01*
X1369Y1021D02*
X1379Y1021D01*
X1397Y1021D02*
X1407Y1021D01*
X1438Y1021D02*
X1474Y1021D01*
X1583Y1021D02*
X1619Y1021D01*
X1369Y1020D02*
X1379Y1020D01*
X1397Y1020D02*
X1407Y1020D01*
X1439Y1020D02*
X1475Y1020D01*
X1584Y1020D02*
X1619Y1020D01*
X1370Y1019D02*
X1380Y1019D01*
X1397Y1019D02*
X1407Y1019D01*
X1440Y1019D02*
X1475Y1019D01*
X1584Y1019D02*
X1619Y1019D01*
X1370Y1018D02*
X1380Y1018D01*
X1396Y1018D02*
X1406Y1018D01*
X1440Y1018D02*
X1475Y1018D01*
X1584Y1018D02*
X1619Y1018D01*
X1371Y1017D02*
X1381Y1017D01*
X1396Y1017D02*
X1406Y1017D01*
X1439Y1017D02*
X1475Y1017D01*
X1583Y1017D02*
X1619Y1017D01*
X1371Y1016D02*
X1381Y1016D01*
X1395Y1016D02*
X1405Y1016D01*
X1438Y1016D02*
X1474Y1016D01*
X1583Y1016D02*
X1619Y1016D01*
X1371Y1015D02*
X1381Y1015D01*
X1395Y1015D02*
X1405Y1015D01*
X1438Y1015D02*
X1473Y1015D01*
X1582Y1015D02*
X1618Y1015D01*
X1372Y1014D02*
X1382Y1014D01*
X1395Y1014D02*
X1405Y1014D01*
X1437Y1014D02*
X1472Y1014D01*
X1582Y1014D02*
X1616Y1014D01*
X1372Y1013D02*
X1382Y1013D01*
X1394Y1013D02*
X1404Y1013D01*
X1437Y1013D02*
X1448Y1013D01*
X1581Y1013D02*
X1593Y1013D01*
X1373Y1012D02*
X1382Y1012D01*
X1394Y1012D02*
X1404Y1012D01*
X1437Y1012D02*
X1447Y1012D01*
X1581Y1012D02*
X1591Y1012D01*
X1373Y1011D02*
X1383Y1011D01*
X1394Y1011D02*
X1403Y1011D01*
X1436Y1011D02*
X1446Y1011D01*
X1581Y1011D02*
X1591Y1011D01*
X1373Y1010D02*
X1383Y1010D01*
X1393Y1010D02*
X1403Y1010D01*
X1436Y1010D02*
X1446Y1010D01*
X1526Y1010D02*
X1540Y1010D01*
X1581Y1010D02*
X1590Y1010D01*
X1374Y1009D02*
X1384Y1009D01*
X1393Y1009D02*
X1403Y1009D01*
X1436Y1009D02*
X1445Y1009D01*
X1524Y1009D02*
X1541Y1009D01*
X1581Y1009D02*
X1590Y1009D01*
X1374Y1008D02*
X1384Y1008D01*
X1392Y1008D02*
X1402Y1008D01*
X1436Y1008D02*
X1445Y1008D01*
X1524Y1008D02*
X1542Y1008D01*
X1581Y1008D02*
X1590Y1008D01*
X1375Y1007D02*
X1384Y1007D01*
X1392Y1007D02*
X1402Y1007D01*
X1436Y1007D02*
X1445Y1007D01*
X1523Y1007D02*
X1542Y1007D01*
X1581Y1007D02*
X1590Y1007D01*
X1375Y1006D02*
X1385Y1006D01*
X1392Y1006D02*
X1402Y1006D01*
X1436Y1006D02*
X1445Y1006D01*
X1523Y1006D02*
X1542Y1006D01*
X1581Y1006D02*
X1590Y1006D01*
X1375Y1005D02*
X1385Y1005D01*
X1391Y1005D02*
X1401Y1005D01*
X1436Y1005D02*
X1445Y1005D01*
X1523Y1005D02*
X1542Y1005D01*
X1581Y1005D02*
X1590Y1005D01*
X1376Y1004D02*
X1386Y1004D01*
X1391Y1004D02*
X1401Y1004D01*
X1436Y1004D02*
X1445Y1004D01*
X1523Y1004D02*
X1542Y1004D01*
X1581Y1004D02*
X1590Y1004D01*
X1376Y1003D02*
X1386Y1003D01*
X1390Y1003D02*
X1400Y1003D01*
X1436Y1003D02*
X1445Y1003D01*
X1523Y1003D02*
X1542Y1003D01*
X1581Y1003D02*
X1590Y1003D01*
X1377Y1002D02*
X1386Y1002D01*
X1390Y1002D02*
X1400Y1002D01*
X1436Y1002D02*
X1445Y1002D01*
X1523Y1002D02*
X1542Y1002D01*
X1581Y1002D02*
X1590Y1002D01*
X1377Y1001D02*
X1387Y1001D01*
X1390Y1001D02*
X1400Y1001D01*
X1436Y1001D02*
X1445Y1001D01*
X1523Y1001D02*
X1542Y1001D01*
X1581Y1001D02*
X1590Y1001D01*
X1377Y1000D02*
X1387Y1000D01*
X1389Y1000D02*
X1399Y1000D01*
X1436Y1000D02*
X1445Y1000D01*
X1523Y1000D02*
X1542Y1000D01*
X1581Y1000D02*
X1590Y1000D01*
X1378Y999D02*
X1399Y999D01*
X1436Y999D02*
X1445Y999D01*
X1523Y999D02*
X1542Y999D01*
X1581Y999D02*
X1590Y999D01*
X1378Y998D02*
X1398Y998D01*
X1436Y998D02*
X1445Y998D01*
X1523Y998D02*
X1542Y998D01*
X1581Y998D02*
X1590Y998D01*
X1378Y997D02*
X1398Y997D01*
X1436Y997D02*
X1445Y997D01*
X1523Y997D02*
X1542Y997D01*
X1581Y997D02*
X1590Y997D01*
X1379Y996D02*
X1398Y996D01*
X1436Y996D02*
X1445Y996D01*
X1524Y996D02*
X1542Y996D01*
X1581Y996D02*
X1590Y996D01*
X1379Y995D02*
X1397Y995D01*
X1436Y995D02*
X1445Y995D01*
X1524Y995D02*
X1542Y995D01*
X1581Y995D02*
X1590Y995D01*
X1380Y994D02*
X1397Y994D01*
X1436Y994D02*
X1445Y994D01*
X1525Y994D02*
X1541Y994D01*
X1581Y994D02*
X1590Y994D01*
X1380Y993D02*
X1396Y993D01*
X1436Y993D02*
X1445Y993D01*
X1526Y993D02*
X1540Y993D01*
X1581Y993D02*
X1590Y993D01*
X1380Y992D02*
X1396Y992D01*
X1436Y992D02*
X1445Y992D01*
X1581Y992D02*
X1590Y992D01*
X1381Y991D02*
X1396Y991D01*
X1436Y991D02*
X1445Y991D01*
X1581Y991D02*
X1590Y991D01*
X1381Y990D02*
X1395Y990D01*
X1436Y990D02*
X1445Y990D01*
X1581Y990D02*
X1590Y990D01*
X1382Y989D02*
X1395Y989D01*
X1436Y989D02*
X1482Y989D01*
X1581Y989D02*
X1627Y989D01*
X1382Y988D02*
X1395Y988D01*
X1436Y988D02*
X1484Y988D01*
X1581Y988D02*
X1628Y988D01*
X1382Y987D02*
X1394Y987D01*
X1436Y987D02*
X1484Y987D01*
X1581Y987D02*
X1629Y987D01*
X1383Y986D02*
X1394Y986D01*
X1437Y986D02*
X1485Y986D01*
X1581Y986D02*
X1629Y986D01*
X1383Y985D02*
X1393Y985D01*
X1437Y985D02*
X1485Y985D01*
X1582Y985D02*
X1629Y985D01*
X1384Y984D02*
X1393Y984D01*
X1438Y984D02*
X1485Y984D01*
X1583Y984D02*
X1629Y984D01*
X1384Y983D02*
X1393Y983D01*
X1439Y983D02*
X1485Y983D01*
X1583Y983D02*
X1629Y983D01*
X1384Y982D02*
X1392Y982D01*
X1440Y982D02*
X1484Y982D01*
X1584Y982D02*
X1629Y982D01*
X1385Y981D02*
X1391Y981D01*
X1441Y981D02*
X1483Y981D01*
X1586Y981D02*
X1628Y981D01*
X1387Y980D02*
X1390Y980D01*
X1444Y980D02*
X1482Y980D01*
X1588Y980D02*
X1626Y980D01*
D02*
G04 End of Copper0*
M02*