; NON-PLATED HOLES START AT T1
; THROUGH (PLATED) HOLES START AT T100
M48
INCH
T100C0.039370
T101C0.035000
%
T100
X008740Y000715
X012351Y018546
X010340Y005715
X001746Y001867
X004340Y005715
X000725Y019715
X013351Y018546
X001340Y008715
X002746Y001867
X009340Y005715
X001725Y019715
X016340Y006715
X001755Y000729
X014351Y018546
X010740Y000715
X004703Y018544
X015340Y019715
X012728Y001889
X005340Y011715
X006725Y019715
X002755Y000729
X011740Y000715
X005703Y018544
X007340Y008715
X016340Y019715
X013728Y001889
X009740Y000715
X007725Y019715
X010340Y019715
X016340Y007715
X005340Y005715
X008340Y008715
X014728Y001889
X005340Y012715
X000703Y018544
X002340Y008715
X011340Y019715
X003746Y001867
X001340Y011715
X006340Y005715
X009340Y019715
X002725Y019715
X015351Y018546
X001703Y018544
X003340Y008715
X004746Y001867
X016340Y008715
X003725Y019715
X007728Y001889
X010340Y008715
X001340Y005715
X003755Y000729
X016351Y018546
X005340Y013715
X004340Y008715
X012740Y000715
X006703Y018544
X001340Y012715
X010351Y018546
X008728Y001889
X004755Y000729
X013740Y000715
X007703Y018544
X009340Y008715
X011351Y018546
X012340Y019715
X000746Y001867
X005755Y000729
X009351Y018546
X007340Y005715
X001340Y013715
X002703Y018544
X013340Y019715
X010728Y001889
X005746Y001867
X008340Y005715
X004725Y019715
X000755Y000729
X002340Y005715
X003703Y018544
X005340Y008715
X014340Y019715
X011728Y001889
X007740Y000715
X005725Y019715
X009728Y001889
X003340Y005715
X006340Y008715
X014740Y000715
T101
X003340Y016715
X003340Y013715
X009340Y009715
X014340Y006715
X012340Y009715
X015340Y003715
X012340Y006715
X011340Y013715
X011340Y010715
X014340Y008715
X015340Y005715
X012340Y008715
X007340Y016715
X007340Y013715
T00
M30
