G04 MADE WITH FRITZING*
G04 WWW.FRITZING.ORG*
G04 DOUBLE SIDED*
G04 HOLES PLATED*
G04 CONTOUR ON CENTER OF CONTOUR VECTOR*
%ASAXBY*%
%FSLAX23Y23*%
%MOIN*%
%OFA0B0*%
%SFA1.0B1.0*%
%ADD10R,0.001000X0.001000*%
%LNSILK1*%
G90*
G70*
G54D10*
X0Y2051D02*
X1773Y2051D01*
X0Y2050D02*
X1773Y2050D01*
X0Y2049D02*
X1773Y2049D01*
X0Y2048D02*
X1773Y2048D01*
X0Y2047D02*
X1773Y2047D01*
X0Y2046D02*
X1773Y2046D01*
X0Y2045D02*
X1773Y2045D01*
X0Y2044D02*
X1773Y2044D01*
X0Y2043D02*
X7Y2043D01*
X1766Y2043D02*
X1773Y2043D01*
X0Y2042D02*
X7Y2042D01*
X1766Y2042D02*
X1773Y2042D01*
X0Y2041D02*
X7Y2041D01*
X1766Y2041D02*
X1773Y2041D01*
X0Y2040D02*
X7Y2040D01*
X1766Y2040D02*
X1773Y2040D01*
X0Y2039D02*
X7Y2039D01*
X1766Y2039D02*
X1773Y2039D01*
X0Y2038D02*
X7Y2038D01*
X1766Y2038D02*
X1773Y2038D01*
X0Y2037D02*
X7Y2037D01*
X1766Y2037D02*
X1773Y2037D01*
X0Y2036D02*
X7Y2036D01*
X1766Y2036D02*
X1773Y2036D01*
X0Y2035D02*
X7Y2035D01*
X1766Y2035D02*
X1773Y2035D01*
X0Y2034D02*
X7Y2034D01*
X1766Y2034D02*
X1773Y2034D01*
X0Y2033D02*
X7Y2033D01*
X1766Y2033D02*
X1773Y2033D01*
X0Y2032D02*
X7Y2032D01*
X1766Y2032D02*
X1773Y2032D01*
X0Y2031D02*
X7Y2031D01*
X1766Y2031D02*
X1773Y2031D01*
X0Y2030D02*
X7Y2030D01*
X1766Y2030D02*
X1773Y2030D01*
X0Y2029D02*
X7Y2029D01*
X1766Y2029D02*
X1773Y2029D01*
X0Y2028D02*
X7Y2028D01*
X1766Y2028D02*
X1773Y2028D01*
X0Y2027D02*
X7Y2027D01*
X1766Y2027D02*
X1773Y2027D01*
X0Y2026D02*
X7Y2026D01*
X1766Y2026D02*
X1773Y2026D01*
X0Y2025D02*
X7Y2025D01*
X1766Y2025D02*
X1773Y2025D01*
X0Y2024D02*
X7Y2024D01*
X1766Y2024D02*
X1773Y2024D01*
X0Y2023D02*
X7Y2023D01*
X1766Y2023D02*
X1773Y2023D01*
X0Y2022D02*
X7Y2022D01*
X1766Y2022D02*
X1773Y2022D01*
X0Y2021D02*
X7Y2021D01*
X1766Y2021D02*
X1773Y2021D01*
X0Y2020D02*
X7Y2020D01*
X1766Y2020D02*
X1773Y2020D01*
X0Y2019D02*
X7Y2019D01*
X1766Y2019D02*
X1773Y2019D01*
X0Y2018D02*
X7Y2018D01*
X1766Y2018D02*
X1773Y2018D01*
X0Y2017D02*
X7Y2017D01*
X1766Y2017D02*
X1773Y2017D01*
X0Y2016D02*
X7Y2016D01*
X1766Y2016D02*
X1773Y2016D01*
X0Y2015D02*
X7Y2015D01*
X1766Y2015D02*
X1773Y2015D01*
X0Y2014D02*
X7Y2014D01*
X1766Y2014D02*
X1773Y2014D01*
X0Y2013D02*
X7Y2013D01*
X1766Y2013D02*
X1773Y2013D01*
X0Y2012D02*
X7Y2012D01*
X1766Y2012D02*
X1773Y2012D01*
X0Y2011D02*
X7Y2011D01*
X1766Y2011D02*
X1773Y2011D01*
X0Y2010D02*
X7Y2010D01*
X1766Y2010D02*
X1773Y2010D01*
X0Y2009D02*
X7Y2009D01*
X1766Y2009D02*
X1773Y2009D01*
X0Y2008D02*
X7Y2008D01*
X1766Y2008D02*
X1773Y2008D01*
X0Y2007D02*
X7Y2007D01*
X1766Y2007D02*
X1773Y2007D01*
X0Y2006D02*
X7Y2006D01*
X1766Y2006D02*
X1773Y2006D01*
X0Y2005D02*
X7Y2005D01*
X1766Y2005D02*
X1773Y2005D01*
X0Y2004D02*
X7Y2004D01*
X1766Y2004D02*
X1773Y2004D01*
X0Y2003D02*
X7Y2003D01*
X1766Y2003D02*
X1773Y2003D01*
X0Y2002D02*
X7Y2002D01*
X1766Y2002D02*
X1773Y2002D01*
X0Y2001D02*
X7Y2001D01*
X1766Y2001D02*
X1773Y2001D01*
X0Y2000D02*
X7Y2000D01*
X1766Y2000D02*
X1773Y2000D01*
X0Y1999D02*
X7Y1999D01*
X1766Y1999D02*
X1773Y1999D01*
X0Y1998D02*
X7Y1998D01*
X1766Y1998D02*
X1773Y1998D01*
X0Y1997D02*
X7Y1997D01*
X1766Y1997D02*
X1773Y1997D01*
X0Y1996D02*
X7Y1996D01*
X1766Y1996D02*
X1773Y1996D01*
X0Y1995D02*
X7Y1995D01*
X1766Y1995D02*
X1773Y1995D01*
X0Y1994D02*
X7Y1994D01*
X1766Y1994D02*
X1773Y1994D01*
X0Y1993D02*
X7Y1993D01*
X1766Y1993D02*
X1773Y1993D01*
X0Y1992D02*
X7Y1992D01*
X1766Y1992D02*
X1773Y1992D01*
X0Y1991D02*
X7Y1991D01*
X1766Y1991D02*
X1773Y1991D01*
X0Y1990D02*
X7Y1990D01*
X1766Y1990D02*
X1773Y1990D01*
X0Y1989D02*
X7Y1989D01*
X1766Y1989D02*
X1773Y1989D01*
X0Y1988D02*
X7Y1988D01*
X1766Y1988D02*
X1773Y1988D01*
X0Y1987D02*
X7Y1987D01*
X1766Y1987D02*
X1773Y1987D01*
X0Y1986D02*
X7Y1986D01*
X1766Y1986D02*
X1773Y1986D01*
X0Y1985D02*
X7Y1985D01*
X1766Y1985D02*
X1773Y1985D01*
X0Y1984D02*
X7Y1984D01*
X1766Y1984D02*
X1773Y1984D01*
X0Y1983D02*
X7Y1983D01*
X1766Y1983D02*
X1773Y1983D01*
X0Y1982D02*
X7Y1982D01*
X1766Y1982D02*
X1773Y1982D01*
X0Y1981D02*
X7Y1981D01*
X1766Y1981D02*
X1773Y1981D01*
X0Y1980D02*
X7Y1980D01*
X1766Y1980D02*
X1773Y1980D01*
X0Y1979D02*
X7Y1979D01*
X1766Y1979D02*
X1773Y1979D01*
X0Y1978D02*
X7Y1978D01*
X1766Y1978D02*
X1773Y1978D01*
X0Y1977D02*
X7Y1977D01*
X1766Y1977D02*
X1773Y1977D01*
X0Y1976D02*
X7Y1976D01*
X1766Y1976D02*
X1773Y1976D01*
X0Y1975D02*
X7Y1975D01*
X1766Y1975D02*
X1773Y1975D01*
X0Y1974D02*
X7Y1974D01*
X1766Y1974D02*
X1773Y1974D01*
X0Y1973D02*
X7Y1973D01*
X1766Y1973D02*
X1773Y1973D01*
X0Y1972D02*
X7Y1972D01*
X1766Y1972D02*
X1773Y1972D01*
X0Y1971D02*
X7Y1971D01*
X1766Y1971D02*
X1773Y1971D01*
X0Y1970D02*
X7Y1970D01*
X1766Y1970D02*
X1773Y1970D01*
X0Y1969D02*
X7Y1969D01*
X1766Y1969D02*
X1773Y1969D01*
X0Y1968D02*
X7Y1968D01*
X1766Y1968D02*
X1773Y1968D01*
X0Y1967D02*
X7Y1967D01*
X1766Y1967D02*
X1773Y1967D01*
X0Y1966D02*
X7Y1966D01*
X1766Y1966D02*
X1773Y1966D01*
X0Y1965D02*
X7Y1965D01*
X1766Y1965D02*
X1773Y1965D01*
X0Y1964D02*
X7Y1964D01*
X1766Y1964D02*
X1773Y1964D01*
X0Y1963D02*
X7Y1963D01*
X1766Y1963D02*
X1773Y1963D01*
X0Y1962D02*
X7Y1962D01*
X1766Y1962D02*
X1773Y1962D01*
X0Y1961D02*
X7Y1961D01*
X1766Y1961D02*
X1773Y1961D01*
X0Y1960D02*
X7Y1960D01*
X1766Y1960D02*
X1773Y1960D01*
X0Y1959D02*
X7Y1959D01*
X1766Y1959D02*
X1773Y1959D01*
X0Y1958D02*
X7Y1958D01*
X1766Y1958D02*
X1773Y1958D01*
X0Y1957D02*
X7Y1957D01*
X1766Y1957D02*
X1773Y1957D01*
X0Y1956D02*
X7Y1956D01*
X1766Y1956D02*
X1773Y1956D01*
X0Y1955D02*
X7Y1955D01*
X1766Y1955D02*
X1773Y1955D01*
X0Y1954D02*
X7Y1954D01*
X1766Y1954D02*
X1773Y1954D01*
X0Y1953D02*
X7Y1953D01*
X1766Y1953D02*
X1773Y1953D01*
X0Y1952D02*
X7Y1952D01*
X1766Y1952D02*
X1773Y1952D01*
X0Y1951D02*
X7Y1951D01*
X1766Y1951D02*
X1773Y1951D01*
X0Y1950D02*
X7Y1950D01*
X1766Y1950D02*
X1773Y1950D01*
X0Y1949D02*
X7Y1949D01*
X1766Y1949D02*
X1773Y1949D01*
X0Y1948D02*
X7Y1948D01*
X1766Y1948D02*
X1773Y1948D01*
X0Y1947D02*
X7Y1947D01*
X1766Y1947D02*
X1773Y1947D01*
X0Y1946D02*
X7Y1946D01*
X1766Y1946D02*
X1773Y1946D01*
X0Y1945D02*
X7Y1945D01*
X1766Y1945D02*
X1773Y1945D01*
X0Y1944D02*
X7Y1944D01*
X1766Y1944D02*
X1773Y1944D01*
X0Y1943D02*
X7Y1943D01*
X1766Y1943D02*
X1773Y1943D01*
X0Y1942D02*
X7Y1942D01*
X1766Y1942D02*
X1773Y1942D01*
X0Y1941D02*
X7Y1941D01*
X1766Y1941D02*
X1773Y1941D01*
X0Y1940D02*
X7Y1940D01*
X1766Y1940D02*
X1773Y1940D01*
X0Y1939D02*
X7Y1939D01*
X1766Y1939D02*
X1773Y1939D01*
X0Y1938D02*
X7Y1938D01*
X1766Y1938D02*
X1773Y1938D01*
X0Y1937D02*
X7Y1937D01*
X1766Y1937D02*
X1773Y1937D01*
X0Y1936D02*
X7Y1936D01*
X1766Y1936D02*
X1773Y1936D01*
X0Y1935D02*
X7Y1935D01*
X1766Y1935D02*
X1773Y1935D01*
X0Y1934D02*
X7Y1934D01*
X1766Y1934D02*
X1773Y1934D01*
X0Y1933D02*
X7Y1933D01*
X1766Y1933D02*
X1773Y1933D01*
X0Y1932D02*
X7Y1932D01*
X1766Y1932D02*
X1773Y1932D01*
X0Y1931D02*
X7Y1931D01*
X1766Y1931D02*
X1773Y1931D01*
X0Y1930D02*
X7Y1930D01*
X1766Y1930D02*
X1773Y1930D01*
X0Y1929D02*
X7Y1929D01*
X1766Y1929D02*
X1773Y1929D01*
X0Y1928D02*
X7Y1928D01*
X1766Y1928D02*
X1773Y1928D01*
X0Y1927D02*
X7Y1927D01*
X1766Y1927D02*
X1773Y1927D01*
X0Y1926D02*
X7Y1926D01*
X1766Y1926D02*
X1773Y1926D01*
X0Y1925D02*
X7Y1925D01*
X1766Y1925D02*
X1773Y1925D01*
X0Y1924D02*
X7Y1924D01*
X1766Y1924D02*
X1773Y1924D01*
X0Y1923D02*
X7Y1923D01*
X1766Y1923D02*
X1773Y1923D01*
X0Y1922D02*
X7Y1922D01*
X1766Y1922D02*
X1773Y1922D01*
X0Y1921D02*
X7Y1921D01*
X1766Y1921D02*
X1773Y1921D01*
X0Y1920D02*
X7Y1920D01*
X1766Y1920D02*
X1773Y1920D01*
X0Y1919D02*
X7Y1919D01*
X1766Y1919D02*
X1773Y1919D01*
X0Y1918D02*
X7Y1918D01*
X1766Y1918D02*
X1773Y1918D01*
X0Y1917D02*
X7Y1917D01*
X1766Y1917D02*
X1773Y1917D01*
X0Y1916D02*
X7Y1916D01*
X1766Y1916D02*
X1773Y1916D01*
X0Y1915D02*
X7Y1915D01*
X1766Y1915D02*
X1773Y1915D01*
X0Y1914D02*
X7Y1914D01*
X1766Y1914D02*
X1773Y1914D01*
X0Y1913D02*
X7Y1913D01*
X1766Y1913D02*
X1773Y1913D01*
X0Y1912D02*
X7Y1912D01*
X1766Y1912D02*
X1773Y1912D01*
X0Y1911D02*
X7Y1911D01*
X1766Y1911D02*
X1773Y1911D01*
X0Y1910D02*
X7Y1910D01*
X1766Y1910D02*
X1773Y1910D01*
X0Y1909D02*
X7Y1909D01*
X1766Y1909D02*
X1773Y1909D01*
X0Y1908D02*
X7Y1908D01*
X1766Y1908D02*
X1773Y1908D01*
X0Y1907D02*
X7Y1907D01*
X1766Y1907D02*
X1773Y1907D01*
X0Y1906D02*
X7Y1906D01*
X1766Y1906D02*
X1773Y1906D01*
X0Y1905D02*
X7Y1905D01*
X1766Y1905D02*
X1773Y1905D01*
X0Y1904D02*
X7Y1904D01*
X1766Y1904D02*
X1773Y1904D01*
X0Y1903D02*
X7Y1903D01*
X1766Y1903D02*
X1773Y1903D01*
X0Y1902D02*
X7Y1902D01*
X1766Y1902D02*
X1773Y1902D01*
X0Y1901D02*
X7Y1901D01*
X1766Y1901D02*
X1773Y1901D01*
X0Y1900D02*
X7Y1900D01*
X1766Y1900D02*
X1773Y1900D01*
X0Y1899D02*
X7Y1899D01*
X1766Y1899D02*
X1773Y1899D01*
X0Y1898D02*
X7Y1898D01*
X1766Y1898D02*
X1773Y1898D01*
X0Y1897D02*
X7Y1897D01*
X1766Y1897D02*
X1773Y1897D01*
X0Y1896D02*
X7Y1896D01*
X1766Y1896D02*
X1773Y1896D01*
X0Y1895D02*
X7Y1895D01*
X1766Y1895D02*
X1773Y1895D01*
X0Y1894D02*
X7Y1894D01*
X1766Y1894D02*
X1773Y1894D01*
X0Y1893D02*
X7Y1893D01*
X1766Y1893D02*
X1773Y1893D01*
X0Y1892D02*
X7Y1892D01*
X1766Y1892D02*
X1773Y1892D01*
X0Y1891D02*
X7Y1891D01*
X1766Y1891D02*
X1773Y1891D01*
X0Y1890D02*
X7Y1890D01*
X1766Y1890D02*
X1773Y1890D01*
X0Y1889D02*
X7Y1889D01*
X1766Y1889D02*
X1773Y1889D01*
X0Y1888D02*
X7Y1888D01*
X1766Y1888D02*
X1773Y1888D01*
X0Y1887D02*
X7Y1887D01*
X1766Y1887D02*
X1773Y1887D01*
X0Y1886D02*
X7Y1886D01*
X1766Y1886D02*
X1773Y1886D01*
X0Y1885D02*
X7Y1885D01*
X1766Y1885D02*
X1773Y1885D01*
X0Y1884D02*
X7Y1884D01*
X1766Y1884D02*
X1773Y1884D01*
X0Y1883D02*
X7Y1883D01*
X1766Y1883D02*
X1773Y1883D01*
X0Y1882D02*
X7Y1882D01*
X1766Y1882D02*
X1773Y1882D01*
X0Y1881D02*
X7Y1881D01*
X1766Y1881D02*
X1773Y1881D01*
X0Y1880D02*
X7Y1880D01*
X1766Y1880D02*
X1773Y1880D01*
X0Y1879D02*
X7Y1879D01*
X1766Y1879D02*
X1773Y1879D01*
X0Y1878D02*
X7Y1878D01*
X1766Y1878D02*
X1773Y1878D01*
X0Y1877D02*
X7Y1877D01*
X1766Y1877D02*
X1773Y1877D01*
X0Y1876D02*
X7Y1876D01*
X1766Y1876D02*
X1773Y1876D01*
X0Y1875D02*
X7Y1875D01*
X1766Y1875D02*
X1773Y1875D01*
X0Y1874D02*
X7Y1874D01*
X1766Y1874D02*
X1773Y1874D01*
X0Y1873D02*
X7Y1873D01*
X1766Y1873D02*
X1773Y1873D01*
X0Y1872D02*
X7Y1872D01*
X1766Y1872D02*
X1773Y1872D01*
X0Y1871D02*
X7Y1871D01*
X1766Y1871D02*
X1773Y1871D01*
X0Y1870D02*
X7Y1870D01*
X1766Y1870D02*
X1773Y1870D01*
X0Y1869D02*
X7Y1869D01*
X1766Y1869D02*
X1773Y1869D01*
X0Y1868D02*
X7Y1868D01*
X1766Y1868D02*
X1773Y1868D01*
X0Y1867D02*
X7Y1867D01*
X1766Y1867D02*
X1773Y1867D01*
X0Y1866D02*
X7Y1866D01*
X1766Y1866D02*
X1773Y1866D01*
X0Y1865D02*
X7Y1865D01*
X1766Y1865D02*
X1773Y1865D01*
X0Y1864D02*
X7Y1864D01*
X1766Y1864D02*
X1773Y1864D01*
X0Y1863D02*
X7Y1863D01*
X1766Y1863D02*
X1773Y1863D01*
X0Y1862D02*
X7Y1862D01*
X1766Y1862D02*
X1773Y1862D01*
X0Y1861D02*
X7Y1861D01*
X1766Y1861D02*
X1773Y1861D01*
X0Y1860D02*
X7Y1860D01*
X1766Y1860D02*
X1773Y1860D01*
X0Y1859D02*
X7Y1859D01*
X1766Y1859D02*
X1773Y1859D01*
X0Y1858D02*
X7Y1858D01*
X1766Y1858D02*
X1773Y1858D01*
X0Y1857D02*
X7Y1857D01*
X1766Y1857D02*
X1773Y1857D01*
X0Y1856D02*
X7Y1856D01*
X1766Y1856D02*
X1773Y1856D01*
X0Y1855D02*
X7Y1855D01*
X1766Y1855D02*
X1773Y1855D01*
X0Y1854D02*
X7Y1854D01*
X1766Y1854D02*
X1773Y1854D01*
X0Y1853D02*
X7Y1853D01*
X1766Y1853D02*
X1773Y1853D01*
X0Y1852D02*
X7Y1852D01*
X1766Y1852D02*
X1773Y1852D01*
X0Y1851D02*
X7Y1851D01*
X1766Y1851D02*
X1773Y1851D01*
X0Y1850D02*
X7Y1850D01*
X1766Y1850D02*
X1773Y1850D01*
X0Y1849D02*
X7Y1849D01*
X1766Y1849D02*
X1773Y1849D01*
X0Y1848D02*
X7Y1848D01*
X1766Y1848D02*
X1773Y1848D01*
X0Y1847D02*
X7Y1847D01*
X1766Y1847D02*
X1773Y1847D01*
X0Y1846D02*
X7Y1846D01*
X1766Y1846D02*
X1773Y1846D01*
X0Y1845D02*
X7Y1845D01*
X1766Y1845D02*
X1773Y1845D01*
X0Y1844D02*
X7Y1844D01*
X1766Y1844D02*
X1773Y1844D01*
X0Y1843D02*
X7Y1843D01*
X1766Y1843D02*
X1773Y1843D01*
X0Y1842D02*
X7Y1842D01*
X1766Y1842D02*
X1773Y1842D01*
X0Y1841D02*
X7Y1841D01*
X1766Y1841D02*
X1773Y1841D01*
X0Y1840D02*
X7Y1840D01*
X1766Y1840D02*
X1773Y1840D01*
X0Y1839D02*
X7Y1839D01*
X1766Y1839D02*
X1773Y1839D01*
X0Y1838D02*
X7Y1838D01*
X1766Y1838D02*
X1773Y1838D01*
X0Y1837D02*
X7Y1837D01*
X1766Y1837D02*
X1773Y1837D01*
X0Y1836D02*
X7Y1836D01*
X1766Y1836D02*
X1773Y1836D01*
X0Y1835D02*
X7Y1835D01*
X1766Y1835D02*
X1773Y1835D01*
X0Y1834D02*
X7Y1834D01*
X1766Y1834D02*
X1773Y1834D01*
X0Y1833D02*
X7Y1833D01*
X1766Y1833D02*
X1773Y1833D01*
X0Y1832D02*
X7Y1832D01*
X1766Y1832D02*
X1773Y1832D01*
X0Y1831D02*
X7Y1831D01*
X1766Y1831D02*
X1773Y1831D01*
X0Y1830D02*
X7Y1830D01*
X1766Y1830D02*
X1773Y1830D01*
X0Y1829D02*
X7Y1829D01*
X1766Y1829D02*
X1773Y1829D01*
X0Y1828D02*
X7Y1828D01*
X1766Y1828D02*
X1773Y1828D01*
X0Y1827D02*
X7Y1827D01*
X1766Y1827D02*
X1773Y1827D01*
X0Y1826D02*
X7Y1826D01*
X1766Y1826D02*
X1773Y1826D01*
X0Y1825D02*
X7Y1825D01*
X1766Y1825D02*
X1773Y1825D01*
X0Y1824D02*
X7Y1824D01*
X1766Y1824D02*
X1773Y1824D01*
X0Y1823D02*
X7Y1823D01*
X1766Y1823D02*
X1773Y1823D01*
X0Y1822D02*
X7Y1822D01*
X1766Y1822D02*
X1773Y1822D01*
X0Y1821D02*
X7Y1821D01*
X1766Y1821D02*
X1773Y1821D01*
X0Y1820D02*
X7Y1820D01*
X1766Y1820D02*
X1773Y1820D01*
X0Y1819D02*
X7Y1819D01*
X1766Y1819D02*
X1773Y1819D01*
X0Y1818D02*
X7Y1818D01*
X1766Y1818D02*
X1773Y1818D01*
X0Y1817D02*
X7Y1817D01*
X1766Y1817D02*
X1773Y1817D01*
X0Y1816D02*
X7Y1816D01*
X1766Y1816D02*
X1773Y1816D01*
X0Y1815D02*
X7Y1815D01*
X1766Y1815D02*
X1773Y1815D01*
X0Y1814D02*
X7Y1814D01*
X1766Y1814D02*
X1773Y1814D01*
X0Y1813D02*
X7Y1813D01*
X1766Y1813D02*
X1773Y1813D01*
X0Y1812D02*
X7Y1812D01*
X1766Y1812D02*
X1773Y1812D01*
X0Y1811D02*
X7Y1811D01*
X1766Y1811D02*
X1773Y1811D01*
X0Y1810D02*
X7Y1810D01*
X1766Y1810D02*
X1773Y1810D01*
X0Y1809D02*
X7Y1809D01*
X1766Y1809D02*
X1773Y1809D01*
X0Y1808D02*
X7Y1808D01*
X1766Y1808D02*
X1773Y1808D01*
X0Y1807D02*
X7Y1807D01*
X1766Y1807D02*
X1773Y1807D01*
X0Y1806D02*
X7Y1806D01*
X1766Y1806D02*
X1773Y1806D01*
X0Y1805D02*
X7Y1805D01*
X1766Y1805D02*
X1773Y1805D01*
X0Y1804D02*
X7Y1804D01*
X1766Y1804D02*
X1773Y1804D01*
X0Y1803D02*
X7Y1803D01*
X1766Y1803D02*
X1773Y1803D01*
X0Y1802D02*
X7Y1802D01*
X1766Y1802D02*
X1773Y1802D01*
X0Y1801D02*
X7Y1801D01*
X1766Y1801D02*
X1773Y1801D01*
X0Y1800D02*
X7Y1800D01*
X1766Y1800D02*
X1773Y1800D01*
X0Y1799D02*
X7Y1799D01*
X1766Y1799D02*
X1773Y1799D01*
X0Y1798D02*
X7Y1798D01*
X1766Y1798D02*
X1773Y1798D01*
X0Y1797D02*
X7Y1797D01*
X1766Y1797D02*
X1773Y1797D01*
X0Y1796D02*
X7Y1796D01*
X1766Y1796D02*
X1773Y1796D01*
X0Y1795D02*
X7Y1795D01*
X1766Y1795D02*
X1773Y1795D01*
X0Y1794D02*
X7Y1794D01*
X1766Y1794D02*
X1773Y1794D01*
X0Y1793D02*
X7Y1793D01*
X1766Y1793D02*
X1773Y1793D01*
X0Y1792D02*
X7Y1792D01*
X1766Y1792D02*
X1773Y1792D01*
X0Y1791D02*
X7Y1791D01*
X1766Y1791D02*
X1773Y1791D01*
X0Y1790D02*
X7Y1790D01*
X1766Y1790D02*
X1773Y1790D01*
X0Y1789D02*
X7Y1789D01*
X1766Y1789D02*
X1773Y1789D01*
X0Y1788D02*
X7Y1788D01*
X1766Y1788D02*
X1773Y1788D01*
X0Y1787D02*
X7Y1787D01*
X1766Y1787D02*
X1773Y1787D01*
X0Y1786D02*
X7Y1786D01*
X1766Y1786D02*
X1773Y1786D01*
X0Y1785D02*
X7Y1785D01*
X1766Y1785D02*
X1773Y1785D01*
X0Y1784D02*
X7Y1784D01*
X1766Y1784D02*
X1773Y1784D01*
X0Y1783D02*
X7Y1783D01*
X1766Y1783D02*
X1773Y1783D01*
X0Y1782D02*
X7Y1782D01*
X1766Y1782D02*
X1773Y1782D01*
X0Y1781D02*
X7Y1781D01*
X1766Y1781D02*
X1773Y1781D01*
X0Y1780D02*
X7Y1780D01*
X1766Y1780D02*
X1773Y1780D01*
X0Y1779D02*
X7Y1779D01*
X1766Y1779D02*
X1773Y1779D01*
X0Y1778D02*
X7Y1778D01*
X1766Y1778D02*
X1773Y1778D01*
X0Y1777D02*
X7Y1777D01*
X1766Y1777D02*
X1773Y1777D01*
X0Y1776D02*
X7Y1776D01*
X1766Y1776D02*
X1773Y1776D01*
X0Y1775D02*
X7Y1775D01*
X1766Y1775D02*
X1773Y1775D01*
X0Y1774D02*
X7Y1774D01*
X1766Y1774D02*
X1773Y1774D01*
X0Y1773D02*
X7Y1773D01*
X1766Y1773D02*
X1773Y1773D01*
X0Y1772D02*
X7Y1772D01*
X1766Y1772D02*
X1773Y1772D01*
X0Y1771D02*
X7Y1771D01*
X1766Y1771D02*
X1773Y1771D01*
X0Y1770D02*
X7Y1770D01*
X1766Y1770D02*
X1773Y1770D01*
X0Y1769D02*
X7Y1769D01*
X1766Y1769D02*
X1773Y1769D01*
X0Y1768D02*
X7Y1768D01*
X1766Y1768D02*
X1773Y1768D01*
X0Y1767D02*
X7Y1767D01*
X1766Y1767D02*
X1773Y1767D01*
X0Y1766D02*
X7Y1766D01*
X1766Y1766D02*
X1773Y1766D01*
X0Y1765D02*
X7Y1765D01*
X1766Y1765D02*
X1773Y1765D01*
X0Y1764D02*
X7Y1764D01*
X1766Y1764D02*
X1773Y1764D01*
X0Y1763D02*
X7Y1763D01*
X1766Y1763D02*
X1773Y1763D01*
X0Y1762D02*
X7Y1762D01*
X1766Y1762D02*
X1773Y1762D01*
X0Y1761D02*
X7Y1761D01*
X1766Y1761D02*
X1773Y1761D01*
X0Y1760D02*
X7Y1760D01*
X1766Y1760D02*
X1773Y1760D01*
X0Y1759D02*
X7Y1759D01*
X1766Y1759D02*
X1773Y1759D01*
X0Y1758D02*
X7Y1758D01*
X1766Y1758D02*
X1773Y1758D01*
X0Y1757D02*
X7Y1757D01*
X1766Y1757D02*
X1773Y1757D01*
X0Y1756D02*
X7Y1756D01*
X1766Y1756D02*
X1773Y1756D01*
X0Y1755D02*
X7Y1755D01*
X1766Y1755D02*
X1773Y1755D01*
X0Y1754D02*
X7Y1754D01*
X1766Y1754D02*
X1773Y1754D01*
X0Y1753D02*
X7Y1753D01*
X1766Y1753D02*
X1773Y1753D01*
X0Y1752D02*
X7Y1752D01*
X1766Y1752D02*
X1773Y1752D01*
X0Y1751D02*
X7Y1751D01*
X1766Y1751D02*
X1773Y1751D01*
X0Y1750D02*
X7Y1750D01*
X1766Y1750D02*
X1773Y1750D01*
X0Y1749D02*
X7Y1749D01*
X1766Y1749D02*
X1773Y1749D01*
X0Y1748D02*
X7Y1748D01*
X1766Y1748D02*
X1773Y1748D01*
X0Y1747D02*
X7Y1747D01*
X1766Y1747D02*
X1773Y1747D01*
X0Y1746D02*
X7Y1746D01*
X1766Y1746D02*
X1773Y1746D01*
X0Y1745D02*
X7Y1745D01*
X1766Y1745D02*
X1773Y1745D01*
X0Y1744D02*
X7Y1744D01*
X1766Y1744D02*
X1773Y1744D01*
X0Y1743D02*
X7Y1743D01*
X1766Y1743D02*
X1773Y1743D01*
X0Y1742D02*
X7Y1742D01*
X1766Y1742D02*
X1773Y1742D01*
X0Y1741D02*
X7Y1741D01*
X1766Y1741D02*
X1773Y1741D01*
X0Y1740D02*
X7Y1740D01*
X1766Y1740D02*
X1773Y1740D01*
X0Y1739D02*
X7Y1739D01*
X1766Y1739D02*
X1773Y1739D01*
X0Y1738D02*
X7Y1738D01*
X1766Y1738D02*
X1773Y1738D01*
X0Y1737D02*
X7Y1737D01*
X1766Y1737D02*
X1773Y1737D01*
X0Y1736D02*
X7Y1736D01*
X1766Y1736D02*
X1773Y1736D01*
X0Y1735D02*
X7Y1735D01*
X1766Y1735D02*
X1773Y1735D01*
X0Y1734D02*
X7Y1734D01*
X1766Y1734D02*
X1773Y1734D01*
X0Y1733D02*
X7Y1733D01*
X1766Y1733D02*
X1773Y1733D01*
X0Y1732D02*
X7Y1732D01*
X1766Y1732D02*
X1773Y1732D01*
X0Y1731D02*
X7Y1731D01*
X1766Y1731D02*
X1773Y1731D01*
X0Y1730D02*
X7Y1730D01*
X1766Y1730D02*
X1773Y1730D01*
X0Y1729D02*
X7Y1729D01*
X1766Y1729D02*
X1773Y1729D01*
X0Y1728D02*
X7Y1728D01*
X1766Y1728D02*
X1773Y1728D01*
X0Y1727D02*
X7Y1727D01*
X1766Y1727D02*
X1773Y1727D01*
X0Y1726D02*
X7Y1726D01*
X1766Y1726D02*
X1773Y1726D01*
X0Y1725D02*
X7Y1725D01*
X1766Y1725D02*
X1773Y1725D01*
X0Y1724D02*
X7Y1724D01*
X1766Y1724D02*
X1773Y1724D01*
X0Y1723D02*
X7Y1723D01*
X1766Y1723D02*
X1773Y1723D01*
X0Y1722D02*
X7Y1722D01*
X1766Y1722D02*
X1773Y1722D01*
X0Y1721D02*
X7Y1721D01*
X1766Y1721D02*
X1773Y1721D01*
X0Y1720D02*
X7Y1720D01*
X1766Y1720D02*
X1773Y1720D01*
X0Y1719D02*
X7Y1719D01*
X1766Y1719D02*
X1773Y1719D01*
X0Y1718D02*
X7Y1718D01*
X1766Y1718D02*
X1773Y1718D01*
X0Y1717D02*
X7Y1717D01*
X1766Y1717D02*
X1773Y1717D01*
X0Y1716D02*
X7Y1716D01*
X1766Y1716D02*
X1773Y1716D01*
X0Y1715D02*
X7Y1715D01*
X1766Y1715D02*
X1773Y1715D01*
X0Y1714D02*
X7Y1714D01*
X1766Y1714D02*
X1773Y1714D01*
X0Y1713D02*
X7Y1713D01*
X1766Y1713D02*
X1773Y1713D01*
X0Y1712D02*
X7Y1712D01*
X1766Y1712D02*
X1773Y1712D01*
X0Y1711D02*
X7Y1711D01*
X1766Y1711D02*
X1773Y1711D01*
X0Y1710D02*
X7Y1710D01*
X1766Y1710D02*
X1773Y1710D01*
X0Y1709D02*
X7Y1709D01*
X1766Y1709D02*
X1773Y1709D01*
X0Y1708D02*
X7Y1708D01*
X1766Y1708D02*
X1773Y1708D01*
X0Y1707D02*
X7Y1707D01*
X1766Y1707D02*
X1773Y1707D01*
X0Y1706D02*
X7Y1706D01*
X1766Y1706D02*
X1773Y1706D01*
X0Y1705D02*
X7Y1705D01*
X1766Y1705D02*
X1773Y1705D01*
X0Y1704D02*
X7Y1704D01*
X1766Y1704D02*
X1773Y1704D01*
X0Y1703D02*
X7Y1703D01*
X1766Y1703D02*
X1773Y1703D01*
X0Y1702D02*
X7Y1702D01*
X1766Y1702D02*
X1773Y1702D01*
X0Y1701D02*
X7Y1701D01*
X1766Y1701D02*
X1773Y1701D01*
X0Y1700D02*
X7Y1700D01*
X1766Y1700D02*
X1773Y1700D01*
X0Y1699D02*
X7Y1699D01*
X1766Y1699D02*
X1773Y1699D01*
X0Y1698D02*
X7Y1698D01*
X1766Y1698D02*
X1773Y1698D01*
X0Y1697D02*
X7Y1697D01*
X1766Y1697D02*
X1773Y1697D01*
X0Y1696D02*
X7Y1696D01*
X1766Y1696D02*
X1773Y1696D01*
X0Y1695D02*
X7Y1695D01*
X1766Y1695D02*
X1773Y1695D01*
X0Y1694D02*
X7Y1694D01*
X1766Y1694D02*
X1773Y1694D01*
X0Y1693D02*
X7Y1693D01*
X1766Y1693D02*
X1773Y1693D01*
X0Y1692D02*
X7Y1692D01*
X1766Y1692D02*
X1773Y1692D01*
X0Y1691D02*
X7Y1691D01*
X1766Y1691D02*
X1773Y1691D01*
X0Y1690D02*
X7Y1690D01*
X1766Y1690D02*
X1773Y1690D01*
X0Y1689D02*
X7Y1689D01*
X1766Y1689D02*
X1773Y1689D01*
X0Y1688D02*
X7Y1688D01*
X1766Y1688D02*
X1773Y1688D01*
X0Y1687D02*
X7Y1687D01*
X1766Y1687D02*
X1773Y1687D01*
X0Y1686D02*
X7Y1686D01*
X1766Y1686D02*
X1773Y1686D01*
X0Y1685D02*
X7Y1685D01*
X1766Y1685D02*
X1773Y1685D01*
X0Y1684D02*
X7Y1684D01*
X1766Y1684D02*
X1773Y1684D01*
X0Y1683D02*
X7Y1683D01*
X1766Y1683D02*
X1773Y1683D01*
X0Y1682D02*
X7Y1682D01*
X1766Y1682D02*
X1773Y1682D01*
X0Y1681D02*
X7Y1681D01*
X1766Y1681D02*
X1773Y1681D01*
X0Y1680D02*
X7Y1680D01*
X1766Y1680D02*
X1773Y1680D01*
X0Y1679D02*
X7Y1679D01*
X1766Y1679D02*
X1773Y1679D01*
X0Y1678D02*
X7Y1678D01*
X1766Y1678D02*
X1773Y1678D01*
X0Y1677D02*
X7Y1677D01*
X1766Y1677D02*
X1773Y1677D01*
X0Y1676D02*
X7Y1676D01*
X1766Y1676D02*
X1773Y1676D01*
X0Y1675D02*
X7Y1675D01*
X1766Y1675D02*
X1773Y1675D01*
X0Y1674D02*
X7Y1674D01*
X1766Y1674D02*
X1773Y1674D01*
X0Y1673D02*
X7Y1673D01*
X1766Y1673D02*
X1773Y1673D01*
X0Y1672D02*
X7Y1672D01*
X1766Y1672D02*
X1773Y1672D01*
X0Y1671D02*
X7Y1671D01*
X1766Y1671D02*
X1773Y1671D01*
X0Y1670D02*
X7Y1670D01*
X1766Y1670D02*
X1773Y1670D01*
X0Y1669D02*
X7Y1669D01*
X1766Y1669D02*
X1773Y1669D01*
X0Y1668D02*
X7Y1668D01*
X1766Y1668D02*
X1773Y1668D01*
X0Y1667D02*
X7Y1667D01*
X1766Y1667D02*
X1773Y1667D01*
X0Y1666D02*
X7Y1666D01*
X1766Y1666D02*
X1773Y1666D01*
X0Y1665D02*
X7Y1665D01*
X1766Y1665D02*
X1773Y1665D01*
X0Y1664D02*
X7Y1664D01*
X1766Y1664D02*
X1773Y1664D01*
X0Y1663D02*
X7Y1663D01*
X1766Y1663D02*
X1773Y1663D01*
X0Y1662D02*
X7Y1662D01*
X1766Y1662D02*
X1773Y1662D01*
X0Y1661D02*
X7Y1661D01*
X1766Y1661D02*
X1773Y1661D01*
X0Y1660D02*
X7Y1660D01*
X1766Y1660D02*
X1773Y1660D01*
X0Y1659D02*
X7Y1659D01*
X1766Y1659D02*
X1773Y1659D01*
X0Y1658D02*
X7Y1658D01*
X1766Y1658D02*
X1773Y1658D01*
X0Y1657D02*
X7Y1657D01*
X1766Y1657D02*
X1773Y1657D01*
X0Y1656D02*
X7Y1656D01*
X1766Y1656D02*
X1773Y1656D01*
X0Y1655D02*
X7Y1655D01*
X1766Y1655D02*
X1773Y1655D01*
X0Y1654D02*
X7Y1654D01*
X1766Y1654D02*
X1773Y1654D01*
X0Y1653D02*
X7Y1653D01*
X1766Y1653D02*
X1773Y1653D01*
X0Y1652D02*
X7Y1652D01*
X1766Y1652D02*
X1773Y1652D01*
X0Y1651D02*
X7Y1651D01*
X1766Y1651D02*
X1773Y1651D01*
X0Y1650D02*
X7Y1650D01*
X1766Y1650D02*
X1773Y1650D01*
X0Y1649D02*
X7Y1649D01*
X1766Y1649D02*
X1773Y1649D01*
X0Y1648D02*
X7Y1648D01*
X1766Y1648D02*
X1773Y1648D01*
X0Y1647D02*
X7Y1647D01*
X1766Y1647D02*
X1773Y1647D01*
X0Y1646D02*
X7Y1646D01*
X1766Y1646D02*
X1773Y1646D01*
X0Y1645D02*
X7Y1645D01*
X1766Y1645D02*
X1773Y1645D01*
X0Y1644D02*
X7Y1644D01*
X1766Y1644D02*
X1773Y1644D01*
X0Y1643D02*
X7Y1643D01*
X1766Y1643D02*
X1773Y1643D01*
X0Y1642D02*
X7Y1642D01*
X1766Y1642D02*
X1773Y1642D01*
X0Y1641D02*
X7Y1641D01*
X1766Y1641D02*
X1773Y1641D01*
X0Y1640D02*
X7Y1640D01*
X1766Y1640D02*
X1773Y1640D01*
X0Y1639D02*
X7Y1639D01*
X1766Y1639D02*
X1773Y1639D01*
X0Y1638D02*
X7Y1638D01*
X1766Y1638D02*
X1773Y1638D01*
X0Y1637D02*
X7Y1637D01*
X1766Y1637D02*
X1773Y1637D01*
X0Y1636D02*
X7Y1636D01*
X1766Y1636D02*
X1773Y1636D01*
X0Y1635D02*
X7Y1635D01*
X1766Y1635D02*
X1773Y1635D01*
X0Y1634D02*
X7Y1634D01*
X1766Y1634D02*
X1773Y1634D01*
X0Y1633D02*
X7Y1633D01*
X1766Y1633D02*
X1773Y1633D01*
X0Y1632D02*
X7Y1632D01*
X1766Y1632D02*
X1773Y1632D01*
X0Y1631D02*
X7Y1631D01*
X1766Y1631D02*
X1773Y1631D01*
X0Y1630D02*
X7Y1630D01*
X1766Y1630D02*
X1773Y1630D01*
X0Y1629D02*
X7Y1629D01*
X1766Y1629D02*
X1773Y1629D01*
X0Y1628D02*
X7Y1628D01*
X1766Y1628D02*
X1773Y1628D01*
X0Y1627D02*
X7Y1627D01*
X1766Y1627D02*
X1773Y1627D01*
X0Y1626D02*
X7Y1626D01*
X1766Y1626D02*
X1773Y1626D01*
X0Y1625D02*
X7Y1625D01*
X1766Y1625D02*
X1773Y1625D01*
X0Y1624D02*
X7Y1624D01*
X1766Y1624D02*
X1773Y1624D01*
X0Y1623D02*
X7Y1623D01*
X1766Y1623D02*
X1773Y1623D01*
X0Y1622D02*
X7Y1622D01*
X1766Y1622D02*
X1773Y1622D01*
X0Y1621D02*
X7Y1621D01*
X1766Y1621D02*
X1773Y1621D01*
X0Y1620D02*
X7Y1620D01*
X1766Y1620D02*
X1773Y1620D01*
X0Y1619D02*
X7Y1619D01*
X1766Y1619D02*
X1773Y1619D01*
X0Y1618D02*
X7Y1618D01*
X1766Y1618D02*
X1773Y1618D01*
X0Y1617D02*
X7Y1617D01*
X1766Y1617D02*
X1773Y1617D01*
X0Y1616D02*
X7Y1616D01*
X1766Y1616D02*
X1773Y1616D01*
X0Y1615D02*
X7Y1615D01*
X1766Y1615D02*
X1773Y1615D01*
X0Y1614D02*
X7Y1614D01*
X1766Y1614D02*
X1773Y1614D01*
X0Y1613D02*
X7Y1613D01*
X1766Y1613D02*
X1773Y1613D01*
X0Y1612D02*
X7Y1612D01*
X1766Y1612D02*
X1773Y1612D01*
X0Y1611D02*
X7Y1611D01*
X1766Y1611D02*
X1773Y1611D01*
X0Y1610D02*
X7Y1610D01*
X1766Y1610D02*
X1773Y1610D01*
X0Y1609D02*
X7Y1609D01*
X1766Y1609D02*
X1773Y1609D01*
X0Y1608D02*
X7Y1608D01*
X1766Y1608D02*
X1773Y1608D01*
X0Y1607D02*
X7Y1607D01*
X1766Y1607D02*
X1773Y1607D01*
X0Y1606D02*
X7Y1606D01*
X1766Y1606D02*
X1773Y1606D01*
X0Y1605D02*
X7Y1605D01*
X1766Y1605D02*
X1773Y1605D01*
X0Y1604D02*
X7Y1604D01*
X1766Y1604D02*
X1773Y1604D01*
X0Y1603D02*
X7Y1603D01*
X1766Y1603D02*
X1773Y1603D01*
X0Y1602D02*
X7Y1602D01*
X1766Y1602D02*
X1773Y1602D01*
X0Y1601D02*
X7Y1601D01*
X1766Y1601D02*
X1773Y1601D01*
X0Y1600D02*
X7Y1600D01*
X1766Y1600D02*
X1773Y1600D01*
X0Y1599D02*
X7Y1599D01*
X1766Y1599D02*
X1773Y1599D01*
X0Y1598D02*
X7Y1598D01*
X1766Y1598D02*
X1773Y1598D01*
X0Y1597D02*
X7Y1597D01*
X1766Y1597D02*
X1773Y1597D01*
X0Y1596D02*
X7Y1596D01*
X1766Y1596D02*
X1773Y1596D01*
X0Y1595D02*
X7Y1595D01*
X1766Y1595D02*
X1773Y1595D01*
X0Y1594D02*
X7Y1594D01*
X1766Y1594D02*
X1773Y1594D01*
X0Y1593D02*
X7Y1593D01*
X1766Y1593D02*
X1773Y1593D01*
X0Y1592D02*
X7Y1592D01*
X1766Y1592D02*
X1773Y1592D01*
X0Y1591D02*
X7Y1591D01*
X1766Y1591D02*
X1773Y1591D01*
X0Y1590D02*
X7Y1590D01*
X1766Y1590D02*
X1773Y1590D01*
X0Y1589D02*
X7Y1589D01*
X1766Y1589D02*
X1773Y1589D01*
X0Y1588D02*
X7Y1588D01*
X1766Y1588D02*
X1773Y1588D01*
X0Y1587D02*
X7Y1587D01*
X1766Y1587D02*
X1773Y1587D01*
X0Y1586D02*
X7Y1586D01*
X1766Y1586D02*
X1773Y1586D01*
X0Y1585D02*
X7Y1585D01*
X1766Y1585D02*
X1773Y1585D01*
X0Y1584D02*
X7Y1584D01*
X1766Y1584D02*
X1773Y1584D01*
X0Y1583D02*
X7Y1583D01*
X1766Y1583D02*
X1773Y1583D01*
X0Y1582D02*
X7Y1582D01*
X1766Y1582D02*
X1773Y1582D01*
X0Y1581D02*
X7Y1581D01*
X1766Y1581D02*
X1773Y1581D01*
X0Y1580D02*
X7Y1580D01*
X1766Y1580D02*
X1773Y1580D01*
X0Y1579D02*
X7Y1579D01*
X1766Y1579D02*
X1773Y1579D01*
X0Y1578D02*
X7Y1578D01*
X1766Y1578D02*
X1773Y1578D01*
X0Y1577D02*
X7Y1577D01*
X1766Y1577D02*
X1773Y1577D01*
X0Y1576D02*
X7Y1576D01*
X1766Y1576D02*
X1773Y1576D01*
X0Y1575D02*
X7Y1575D01*
X1766Y1575D02*
X1773Y1575D01*
X0Y1574D02*
X7Y1574D01*
X1766Y1574D02*
X1773Y1574D01*
X0Y1573D02*
X7Y1573D01*
X1766Y1573D02*
X1773Y1573D01*
X0Y1572D02*
X7Y1572D01*
X1766Y1572D02*
X1773Y1572D01*
X0Y1571D02*
X7Y1571D01*
X1766Y1571D02*
X1773Y1571D01*
X0Y1570D02*
X7Y1570D01*
X1766Y1570D02*
X1773Y1570D01*
X0Y1569D02*
X7Y1569D01*
X1766Y1569D02*
X1773Y1569D01*
X0Y1568D02*
X7Y1568D01*
X1766Y1568D02*
X1773Y1568D01*
X0Y1567D02*
X7Y1567D01*
X1766Y1567D02*
X1773Y1567D01*
X0Y1566D02*
X7Y1566D01*
X1766Y1566D02*
X1773Y1566D01*
X0Y1565D02*
X7Y1565D01*
X1766Y1565D02*
X1773Y1565D01*
X0Y1564D02*
X7Y1564D01*
X1766Y1564D02*
X1773Y1564D01*
X0Y1563D02*
X7Y1563D01*
X1766Y1563D02*
X1773Y1563D01*
X0Y1562D02*
X7Y1562D01*
X1766Y1562D02*
X1773Y1562D01*
X0Y1561D02*
X7Y1561D01*
X1766Y1561D02*
X1773Y1561D01*
X0Y1560D02*
X7Y1560D01*
X1766Y1560D02*
X1773Y1560D01*
X0Y1559D02*
X7Y1559D01*
X1766Y1559D02*
X1773Y1559D01*
X0Y1558D02*
X7Y1558D01*
X1766Y1558D02*
X1773Y1558D01*
X0Y1557D02*
X7Y1557D01*
X1766Y1557D02*
X1773Y1557D01*
X0Y1556D02*
X7Y1556D01*
X1766Y1556D02*
X1773Y1556D01*
X0Y1555D02*
X7Y1555D01*
X1766Y1555D02*
X1773Y1555D01*
X0Y1554D02*
X7Y1554D01*
X1766Y1554D02*
X1773Y1554D01*
X0Y1553D02*
X7Y1553D01*
X1766Y1553D02*
X1773Y1553D01*
X0Y1552D02*
X7Y1552D01*
X1766Y1552D02*
X1773Y1552D01*
X0Y1551D02*
X7Y1551D01*
X1766Y1551D02*
X1773Y1551D01*
X0Y1550D02*
X7Y1550D01*
X1766Y1550D02*
X1773Y1550D01*
X0Y1549D02*
X7Y1549D01*
X1766Y1549D02*
X1773Y1549D01*
X0Y1548D02*
X7Y1548D01*
X1766Y1548D02*
X1773Y1548D01*
X0Y1547D02*
X7Y1547D01*
X1766Y1547D02*
X1773Y1547D01*
X0Y1546D02*
X7Y1546D01*
X1766Y1546D02*
X1773Y1546D01*
X0Y1545D02*
X7Y1545D01*
X1766Y1545D02*
X1773Y1545D01*
X0Y1544D02*
X7Y1544D01*
X1766Y1544D02*
X1773Y1544D01*
X0Y1543D02*
X7Y1543D01*
X1766Y1543D02*
X1773Y1543D01*
X0Y1542D02*
X7Y1542D01*
X1766Y1542D02*
X1773Y1542D01*
X0Y1541D02*
X7Y1541D01*
X1766Y1541D02*
X1773Y1541D01*
X0Y1540D02*
X7Y1540D01*
X1766Y1540D02*
X1773Y1540D01*
X0Y1539D02*
X7Y1539D01*
X1766Y1539D02*
X1773Y1539D01*
X0Y1538D02*
X7Y1538D01*
X1766Y1538D02*
X1773Y1538D01*
X0Y1537D02*
X7Y1537D01*
X1766Y1537D02*
X1773Y1537D01*
X0Y1536D02*
X7Y1536D01*
X1766Y1536D02*
X1773Y1536D01*
X0Y1535D02*
X7Y1535D01*
X1766Y1535D02*
X1773Y1535D01*
X0Y1534D02*
X7Y1534D01*
X1766Y1534D02*
X1773Y1534D01*
X0Y1533D02*
X7Y1533D01*
X1766Y1533D02*
X1773Y1533D01*
X0Y1532D02*
X7Y1532D01*
X1766Y1532D02*
X1773Y1532D01*
X0Y1531D02*
X7Y1531D01*
X1766Y1531D02*
X1773Y1531D01*
X0Y1530D02*
X7Y1530D01*
X1766Y1530D02*
X1773Y1530D01*
X0Y1529D02*
X7Y1529D01*
X1766Y1529D02*
X1773Y1529D01*
X0Y1528D02*
X7Y1528D01*
X1766Y1528D02*
X1773Y1528D01*
X0Y1527D02*
X7Y1527D01*
X1766Y1527D02*
X1773Y1527D01*
X0Y1526D02*
X7Y1526D01*
X1766Y1526D02*
X1773Y1526D01*
X0Y1525D02*
X7Y1525D01*
X1766Y1525D02*
X1773Y1525D01*
X0Y1524D02*
X7Y1524D01*
X1766Y1524D02*
X1773Y1524D01*
X0Y1523D02*
X7Y1523D01*
X1766Y1523D02*
X1773Y1523D01*
X0Y1522D02*
X7Y1522D01*
X1766Y1522D02*
X1773Y1522D01*
X0Y1521D02*
X7Y1521D01*
X1766Y1521D02*
X1773Y1521D01*
X0Y1520D02*
X7Y1520D01*
X1766Y1520D02*
X1773Y1520D01*
X0Y1519D02*
X7Y1519D01*
X1766Y1519D02*
X1773Y1519D01*
X0Y1518D02*
X7Y1518D01*
X1766Y1518D02*
X1773Y1518D01*
X0Y1517D02*
X7Y1517D01*
X1766Y1517D02*
X1773Y1517D01*
X0Y1516D02*
X7Y1516D01*
X1766Y1516D02*
X1773Y1516D01*
X0Y1515D02*
X7Y1515D01*
X1766Y1515D02*
X1773Y1515D01*
X0Y1514D02*
X7Y1514D01*
X1766Y1514D02*
X1773Y1514D01*
X0Y1513D02*
X7Y1513D01*
X1766Y1513D02*
X1773Y1513D01*
X0Y1512D02*
X7Y1512D01*
X1766Y1512D02*
X1773Y1512D01*
X0Y1511D02*
X7Y1511D01*
X1766Y1511D02*
X1773Y1511D01*
X0Y1510D02*
X7Y1510D01*
X1766Y1510D02*
X1773Y1510D01*
X0Y1509D02*
X7Y1509D01*
X1766Y1509D02*
X1773Y1509D01*
X0Y1508D02*
X7Y1508D01*
X1766Y1508D02*
X1773Y1508D01*
X0Y1507D02*
X7Y1507D01*
X1766Y1507D02*
X1773Y1507D01*
X0Y1506D02*
X7Y1506D01*
X1766Y1506D02*
X1773Y1506D01*
X0Y1505D02*
X7Y1505D01*
X1766Y1505D02*
X1773Y1505D01*
X0Y1504D02*
X7Y1504D01*
X1766Y1504D02*
X1773Y1504D01*
X0Y1503D02*
X7Y1503D01*
X1766Y1503D02*
X1773Y1503D01*
X0Y1502D02*
X7Y1502D01*
X1766Y1502D02*
X1773Y1502D01*
X0Y1501D02*
X7Y1501D01*
X1766Y1501D02*
X1773Y1501D01*
X0Y1500D02*
X7Y1500D01*
X1766Y1500D02*
X1773Y1500D01*
X0Y1499D02*
X7Y1499D01*
X1766Y1499D02*
X1773Y1499D01*
X0Y1498D02*
X7Y1498D01*
X1766Y1498D02*
X1773Y1498D01*
X0Y1497D02*
X7Y1497D01*
X1766Y1497D02*
X1773Y1497D01*
X0Y1496D02*
X7Y1496D01*
X1766Y1496D02*
X1773Y1496D01*
X0Y1495D02*
X7Y1495D01*
X1766Y1495D02*
X1773Y1495D01*
X0Y1494D02*
X7Y1494D01*
X1766Y1494D02*
X1773Y1494D01*
X0Y1493D02*
X7Y1493D01*
X1766Y1493D02*
X1773Y1493D01*
X0Y1492D02*
X7Y1492D01*
X1766Y1492D02*
X1773Y1492D01*
X0Y1491D02*
X7Y1491D01*
X1766Y1491D02*
X1773Y1491D01*
X0Y1490D02*
X7Y1490D01*
X1766Y1490D02*
X1773Y1490D01*
X0Y1489D02*
X7Y1489D01*
X1766Y1489D02*
X1773Y1489D01*
X0Y1488D02*
X7Y1488D01*
X1766Y1488D02*
X1773Y1488D01*
X0Y1487D02*
X7Y1487D01*
X1766Y1487D02*
X1773Y1487D01*
X0Y1486D02*
X7Y1486D01*
X1766Y1486D02*
X1773Y1486D01*
X0Y1485D02*
X7Y1485D01*
X1766Y1485D02*
X1773Y1485D01*
X0Y1484D02*
X7Y1484D01*
X1766Y1484D02*
X1773Y1484D01*
X0Y1483D02*
X7Y1483D01*
X1766Y1483D02*
X1773Y1483D01*
X0Y1482D02*
X7Y1482D01*
X1766Y1482D02*
X1773Y1482D01*
X0Y1481D02*
X7Y1481D01*
X1766Y1481D02*
X1773Y1481D01*
X0Y1480D02*
X7Y1480D01*
X1766Y1480D02*
X1773Y1480D01*
X0Y1479D02*
X7Y1479D01*
X1766Y1479D02*
X1773Y1479D01*
X0Y1478D02*
X7Y1478D01*
X1766Y1478D02*
X1773Y1478D01*
X0Y1477D02*
X7Y1477D01*
X1766Y1477D02*
X1773Y1477D01*
X0Y1476D02*
X7Y1476D01*
X1766Y1476D02*
X1773Y1476D01*
X0Y1475D02*
X7Y1475D01*
X1766Y1475D02*
X1773Y1475D01*
X0Y1474D02*
X7Y1474D01*
X1766Y1474D02*
X1773Y1474D01*
X0Y1473D02*
X7Y1473D01*
X1766Y1473D02*
X1773Y1473D01*
X0Y1472D02*
X7Y1472D01*
X1766Y1472D02*
X1773Y1472D01*
X0Y1471D02*
X7Y1471D01*
X1766Y1471D02*
X1773Y1471D01*
X0Y1470D02*
X7Y1470D01*
X1766Y1470D02*
X1773Y1470D01*
X0Y1469D02*
X7Y1469D01*
X1766Y1469D02*
X1773Y1469D01*
X0Y1468D02*
X7Y1468D01*
X1766Y1468D02*
X1773Y1468D01*
X0Y1467D02*
X7Y1467D01*
X1766Y1467D02*
X1773Y1467D01*
X0Y1466D02*
X7Y1466D01*
X1766Y1466D02*
X1773Y1466D01*
X0Y1465D02*
X7Y1465D01*
X1766Y1465D02*
X1773Y1465D01*
X0Y1464D02*
X7Y1464D01*
X1766Y1464D02*
X1773Y1464D01*
X0Y1463D02*
X7Y1463D01*
X1766Y1463D02*
X1773Y1463D01*
X0Y1462D02*
X7Y1462D01*
X1766Y1462D02*
X1773Y1462D01*
X0Y1461D02*
X7Y1461D01*
X1766Y1461D02*
X1773Y1461D01*
X0Y1460D02*
X7Y1460D01*
X1766Y1460D02*
X1773Y1460D01*
X0Y1459D02*
X7Y1459D01*
X1766Y1459D02*
X1773Y1459D01*
X0Y1458D02*
X7Y1458D01*
X1766Y1458D02*
X1773Y1458D01*
X0Y1457D02*
X7Y1457D01*
X1766Y1457D02*
X1773Y1457D01*
X0Y1456D02*
X7Y1456D01*
X1766Y1456D02*
X1773Y1456D01*
X0Y1455D02*
X7Y1455D01*
X1766Y1455D02*
X1773Y1455D01*
X0Y1454D02*
X7Y1454D01*
X1766Y1454D02*
X1773Y1454D01*
X0Y1453D02*
X7Y1453D01*
X1766Y1453D02*
X1773Y1453D01*
X0Y1452D02*
X7Y1452D01*
X1766Y1452D02*
X1773Y1452D01*
X0Y1451D02*
X7Y1451D01*
X1766Y1451D02*
X1773Y1451D01*
X0Y1450D02*
X7Y1450D01*
X1766Y1450D02*
X1773Y1450D01*
X0Y1449D02*
X7Y1449D01*
X1766Y1449D02*
X1773Y1449D01*
X0Y1448D02*
X7Y1448D01*
X1766Y1448D02*
X1773Y1448D01*
X0Y1447D02*
X7Y1447D01*
X1766Y1447D02*
X1773Y1447D01*
X0Y1446D02*
X7Y1446D01*
X1766Y1446D02*
X1773Y1446D01*
X0Y1445D02*
X7Y1445D01*
X1766Y1445D02*
X1773Y1445D01*
X0Y1444D02*
X7Y1444D01*
X1766Y1444D02*
X1773Y1444D01*
X0Y1443D02*
X7Y1443D01*
X1766Y1443D02*
X1773Y1443D01*
X0Y1442D02*
X7Y1442D01*
X1766Y1442D02*
X1773Y1442D01*
X0Y1441D02*
X7Y1441D01*
X1766Y1441D02*
X1773Y1441D01*
X0Y1440D02*
X7Y1440D01*
X1766Y1440D02*
X1773Y1440D01*
X0Y1439D02*
X7Y1439D01*
X1766Y1439D02*
X1773Y1439D01*
X0Y1438D02*
X7Y1438D01*
X1766Y1438D02*
X1773Y1438D01*
X0Y1437D02*
X7Y1437D01*
X1766Y1437D02*
X1773Y1437D01*
X0Y1436D02*
X7Y1436D01*
X1766Y1436D02*
X1773Y1436D01*
X0Y1435D02*
X7Y1435D01*
X1766Y1435D02*
X1773Y1435D01*
X0Y1434D02*
X7Y1434D01*
X1766Y1434D02*
X1773Y1434D01*
X0Y1433D02*
X7Y1433D01*
X1766Y1433D02*
X1773Y1433D01*
X0Y1432D02*
X7Y1432D01*
X1766Y1432D02*
X1773Y1432D01*
X0Y1431D02*
X7Y1431D01*
X1766Y1431D02*
X1773Y1431D01*
X0Y1430D02*
X7Y1430D01*
X1766Y1430D02*
X1773Y1430D01*
X0Y1429D02*
X7Y1429D01*
X1766Y1429D02*
X1773Y1429D01*
X0Y1428D02*
X7Y1428D01*
X1766Y1428D02*
X1773Y1428D01*
X0Y1427D02*
X7Y1427D01*
X1766Y1427D02*
X1773Y1427D01*
X0Y1426D02*
X7Y1426D01*
X1766Y1426D02*
X1773Y1426D01*
X0Y1425D02*
X7Y1425D01*
X1766Y1425D02*
X1773Y1425D01*
X0Y1424D02*
X7Y1424D01*
X1766Y1424D02*
X1773Y1424D01*
X0Y1423D02*
X7Y1423D01*
X1766Y1423D02*
X1773Y1423D01*
X0Y1422D02*
X7Y1422D01*
X1766Y1422D02*
X1773Y1422D01*
X0Y1421D02*
X7Y1421D01*
X1766Y1421D02*
X1773Y1421D01*
X0Y1420D02*
X7Y1420D01*
X1766Y1420D02*
X1773Y1420D01*
X0Y1419D02*
X7Y1419D01*
X1766Y1419D02*
X1773Y1419D01*
X0Y1418D02*
X7Y1418D01*
X1766Y1418D02*
X1773Y1418D01*
X0Y1417D02*
X7Y1417D01*
X1766Y1417D02*
X1773Y1417D01*
X0Y1416D02*
X7Y1416D01*
X1766Y1416D02*
X1773Y1416D01*
X0Y1415D02*
X7Y1415D01*
X1766Y1415D02*
X1773Y1415D01*
X0Y1414D02*
X7Y1414D01*
X1766Y1414D02*
X1773Y1414D01*
X0Y1413D02*
X7Y1413D01*
X1766Y1413D02*
X1773Y1413D01*
X0Y1412D02*
X7Y1412D01*
X1766Y1412D02*
X1773Y1412D01*
X0Y1411D02*
X7Y1411D01*
X1766Y1411D02*
X1773Y1411D01*
X0Y1410D02*
X7Y1410D01*
X1766Y1410D02*
X1773Y1410D01*
X0Y1409D02*
X7Y1409D01*
X1766Y1409D02*
X1773Y1409D01*
X0Y1408D02*
X7Y1408D01*
X1766Y1408D02*
X1773Y1408D01*
X0Y1407D02*
X7Y1407D01*
X1766Y1407D02*
X1773Y1407D01*
X0Y1406D02*
X7Y1406D01*
X1766Y1406D02*
X1773Y1406D01*
X0Y1405D02*
X7Y1405D01*
X1766Y1405D02*
X1773Y1405D01*
X0Y1404D02*
X7Y1404D01*
X1766Y1404D02*
X1773Y1404D01*
X0Y1403D02*
X7Y1403D01*
X1766Y1403D02*
X1773Y1403D01*
X0Y1402D02*
X7Y1402D01*
X1766Y1402D02*
X1773Y1402D01*
X0Y1401D02*
X7Y1401D01*
X1766Y1401D02*
X1773Y1401D01*
X0Y1400D02*
X7Y1400D01*
X1766Y1400D02*
X1773Y1400D01*
X0Y1399D02*
X7Y1399D01*
X1766Y1399D02*
X1773Y1399D01*
X0Y1398D02*
X7Y1398D01*
X1766Y1398D02*
X1773Y1398D01*
X0Y1397D02*
X7Y1397D01*
X1766Y1397D02*
X1773Y1397D01*
X0Y1396D02*
X7Y1396D01*
X1766Y1396D02*
X1773Y1396D01*
X0Y1395D02*
X7Y1395D01*
X1766Y1395D02*
X1773Y1395D01*
X0Y1394D02*
X7Y1394D01*
X1766Y1394D02*
X1773Y1394D01*
X0Y1393D02*
X7Y1393D01*
X1766Y1393D02*
X1773Y1393D01*
X0Y1392D02*
X7Y1392D01*
X1766Y1392D02*
X1773Y1392D01*
X0Y1391D02*
X7Y1391D01*
X1766Y1391D02*
X1773Y1391D01*
X0Y1390D02*
X7Y1390D01*
X1766Y1390D02*
X1773Y1390D01*
X0Y1389D02*
X7Y1389D01*
X1766Y1389D02*
X1773Y1389D01*
X0Y1388D02*
X7Y1388D01*
X1766Y1388D02*
X1773Y1388D01*
X0Y1387D02*
X7Y1387D01*
X1766Y1387D02*
X1773Y1387D01*
X0Y1386D02*
X7Y1386D01*
X1766Y1386D02*
X1773Y1386D01*
X0Y1385D02*
X7Y1385D01*
X1766Y1385D02*
X1773Y1385D01*
X0Y1384D02*
X7Y1384D01*
X1766Y1384D02*
X1773Y1384D01*
X0Y1383D02*
X7Y1383D01*
X1766Y1383D02*
X1773Y1383D01*
X0Y1382D02*
X7Y1382D01*
X1766Y1382D02*
X1773Y1382D01*
X0Y1381D02*
X7Y1381D01*
X1766Y1381D02*
X1773Y1381D01*
X0Y1380D02*
X7Y1380D01*
X1766Y1380D02*
X1773Y1380D01*
X0Y1379D02*
X7Y1379D01*
X1766Y1379D02*
X1773Y1379D01*
X0Y1378D02*
X7Y1378D01*
X1766Y1378D02*
X1773Y1378D01*
X0Y1377D02*
X7Y1377D01*
X1766Y1377D02*
X1773Y1377D01*
X0Y1376D02*
X7Y1376D01*
X1766Y1376D02*
X1773Y1376D01*
X0Y1375D02*
X7Y1375D01*
X1766Y1375D02*
X1773Y1375D01*
X0Y1374D02*
X7Y1374D01*
X1766Y1374D02*
X1773Y1374D01*
X0Y1373D02*
X7Y1373D01*
X1766Y1373D02*
X1773Y1373D01*
X0Y1372D02*
X7Y1372D01*
X1766Y1372D02*
X1773Y1372D01*
X0Y1371D02*
X7Y1371D01*
X1766Y1371D02*
X1773Y1371D01*
X0Y1370D02*
X7Y1370D01*
X1766Y1370D02*
X1773Y1370D01*
X0Y1369D02*
X7Y1369D01*
X1766Y1369D02*
X1773Y1369D01*
X0Y1368D02*
X7Y1368D01*
X1766Y1368D02*
X1773Y1368D01*
X0Y1367D02*
X7Y1367D01*
X1766Y1367D02*
X1773Y1367D01*
X0Y1366D02*
X7Y1366D01*
X1766Y1366D02*
X1773Y1366D01*
X0Y1365D02*
X7Y1365D01*
X1766Y1365D02*
X1773Y1365D01*
X0Y1364D02*
X7Y1364D01*
X1766Y1364D02*
X1773Y1364D01*
X0Y1363D02*
X7Y1363D01*
X1766Y1363D02*
X1773Y1363D01*
X0Y1362D02*
X7Y1362D01*
X1766Y1362D02*
X1773Y1362D01*
X0Y1361D02*
X7Y1361D01*
X1766Y1361D02*
X1773Y1361D01*
X0Y1360D02*
X7Y1360D01*
X1766Y1360D02*
X1773Y1360D01*
X0Y1359D02*
X7Y1359D01*
X1766Y1359D02*
X1773Y1359D01*
X0Y1358D02*
X7Y1358D01*
X1766Y1358D02*
X1773Y1358D01*
X0Y1357D02*
X7Y1357D01*
X1766Y1357D02*
X1773Y1357D01*
X0Y1356D02*
X7Y1356D01*
X1766Y1356D02*
X1773Y1356D01*
X0Y1355D02*
X7Y1355D01*
X1766Y1355D02*
X1773Y1355D01*
X0Y1354D02*
X7Y1354D01*
X1766Y1354D02*
X1773Y1354D01*
X0Y1353D02*
X7Y1353D01*
X1766Y1353D02*
X1773Y1353D01*
X0Y1352D02*
X7Y1352D01*
X1766Y1352D02*
X1773Y1352D01*
X0Y1351D02*
X7Y1351D01*
X1766Y1351D02*
X1773Y1351D01*
X0Y1350D02*
X7Y1350D01*
X1766Y1350D02*
X1773Y1350D01*
X0Y1349D02*
X7Y1349D01*
X1766Y1349D02*
X1773Y1349D01*
X0Y1348D02*
X7Y1348D01*
X1766Y1348D02*
X1773Y1348D01*
X0Y1347D02*
X7Y1347D01*
X1766Y1347D02*
X1773Y1347D01*
X0Y1346D02*
X7Y1346D01*
X1766Y1346D02*
X1773Y1346D01*
X0Y1345D02*
X7Y1345D01*
X1766Y1345D02*
X1773Y1345D01*
X0Y1344D02*
X7Y1344D01*
X1766Y1344D02*
X1773Y1344D01*
X0Y1343D02*
X7Y1343D01*
X1766Y1343D02*
X1773Y1343D01*
X0Y1342D02*
X7Y1342D01*
X1766Y1342D02*
X1773Y1342D01*
X0Y1341D02*
X7Y1341D01*
X1766Y1341D02*
X1773Y1341D01*
X0Y1340D02*
X7Y1340D01*
X1766Y1340D02*
X1773Y1340D01*
X0Y1339D02*
X7Y1339D01*
X1766Y1339D02*
X1773Y1339D01*
X0Y1338D02*
X7Y1338D01*
X1766Y1338D02*
X1773Y1338D01*
X0Y1337D02*
X7Y1337D01*
X1766Y1337D02*
X1773Y1337D01*
X0Y1336D02*
X7Y1336D01*
X1766Y1336D02*
X1773Y1336D01*
X0Y1335D02*
X7Y1335D01*
X1766Y1335D02*
X1773Y1335D01*
X0Y1334D02*
X7Y1334D01*
X1766Y1334D02*
X1773Y1334D01*
X0Y1333D02*
X7Y1333D01*
X1766Y1333D02*
X1773Y1333D01*
X0Y1332D02*
X7Y1332D01*
X1766Y1332D02*
X1773Y1332D01*
X0Y1331D02*
X7Y1331D01*
X1766Y1331D02*
X1773Y1331D01*
X0Y1330D02*
X7Y1330D01*
X1766Y1330D02*
X1773Y1330D01*
X0Y1329D02*
X7Y1329D01*
X1766Y1329D02*
X1773Y1329D01*
X0Y1328D02*
X7Y1328D01*
X1766Y1328D02*
X1773Y1328D01*
X0Y1327D02*
X7Y1327D01*
X1766Y1327D02*
X1773Y1327D01*
X0Y1326D02*
X7Y1326D01*
X1766Y1326D02*
X1773Y1326D01*
X0Y1325D02*
X7Y1325D01*
X1766Y1325D02*
X1773Y1325D01*
X0Y1324D02*
X7Y1324D01*
X1766Y1324D02*
X1773Y1324D01*
X0Y1323D02*
X7Y1323D01*
X1766Y1323D02*
X1773Y1323D01*
X0Y1322D02*
X7Y1322D01*
X1766Y1322D02*
X1773Y1322D01*
X0Y1321D02*
X7Y1321D01*
X1766Y1321D02*
X1773Y1321D01*
X0Y1320D02*
X7Y1320D01*
X1766Y1320D02*
X1773Y1320D01*
X0Y1319D02*
X7Y1319D01*
X1766Y1319D02*
X1773Y1319D01*
X0Y1318D02*
X7Y1318D01*
X1766Y1318D02*
X1773Y1318D01*
X0Y1317D02*
X7Y1317D01*
X1766Y1317D02*
X1773Y1317D01*
X0Y1316D02*
X7Y1316D01*
X1766Y1316D02*
X1773Y1316D01*
X0Y1315D02*
X7Y1315D01*
X1766Y1315D02*
X1773Y1315D01*
X0Y1314D02*
X7Y1314D01*
X1766Y1314D02*
X1773Y1314D01*
X0Y1313D02*
X7Y1313D01*
X1766Y1313D02*
X1773Y1313D01*
X0Y1312D02*
X7Y1312D01*
X1766Y1312D02*
X1773Y1312D01*
X0Y1311D02*
X7Y1311D01*
X1766Y1311D02*
X1773Y1311D01*
X0Y1310D02*
X7Y1310D01*
X1766Y1310D02*
X1773Y1310D01*
X0Y1309D02*
X7Y1309D01*
X1766Y1309D02*
X1773Y1309D01*
X0Y1308D02*
X7Y1308D01*
X1766Y1308D02*
X1773Y1308D01*
X0Y1307D02*
X7Y1307D01*
X1766Y1307D02*
X1773Y1307D01*
X0Y1306D02*
X7Y1306D01*
X1766Y1306D02*
X1773Y1306D01*
X0Y1305D02*
X7Y1305D01*
X1766Y1305D02*
X1773Y1305D01*
X0Y1304D02*
X7Y1304D01*
X1766Y1304D02*
X1773Y1304D01*
X0Y1303D02*
X7Y1303D01*
X1766Y1303D02*
X1773Y1303D01*
X0Y1302D02*
X7Y1302D01*
X1766Y1302D02*
X1773Y1302D01*
X0Y1301D02*
X7Y1301D01*
X1766Y1301D02*
X1773Y1301D01*
X0Y1300D02*
X7Y1300D01*
X1766Y1300D02*
X1773Y1300D01*
X0Y1299D02*
X7Y1299D01*
X1766Y1299D02*
X1773Y1299D01*
X0Y1298D02*
X7Y1298D01*
X1766Y1298D02*
X1773Y1298D01*
X0Y1297D02*
X7Y1297D01*
X1766Y1297D02*
X1773Y1297D01*
X0Y1296D02*
X7Y1296D01*
X1766Y1296D02*
X1773Y1296D01*
X0Y1295D02*
X7Y1295D01*
X1766Y1295D02*
X1773Y1295D01*
X0Y1294D02*
X7Y1294D01*
X1766Y1294D02*
X1773Y1294D01*
X0Y1293D02*
X7Y1293D01*
X1766Y1293D02*
X1773Y1293D01*
X0Y1292D02*
X7Y1292D01*
X1766Y1292D02*
X1773Y1292D01*
X0Y1291D02*
X7Y1291D01*
X1766Y1291D02*
X1773Y1291D01*
X0Y1290D02*
X7Y1290D01*
X1766Y1290D02*
X1773Y1290D01*
X0Y1289D02*
X7Y1289D01*
X1766Y1289D02*
X1773Y1289D01*
X0Y1288D02*
X7Y1288D01*
X1766Y1288D02*
X1773Y1288D01*
X0Y1287D02*
X7Y1287D01*
X1766Y1287D02*
X1773Y1287D01*
X0Y1286D02*
X7Y1286D01*
X1766Y1286D02*
X1773Y1286D01*
X0Y1285D02*
X7Y1285D01*
X1766Y1285D02*
X1773Y1285D01*
X0Y1284D02*
X7Y1284D01*
X1766Y1284D02*
X1773Y1284D01*
X0Y1283D02*
X7Y1283D01*
X1766Y1283D02*
X1773Y1283D01*
X0Y1282D02*
X7Y1282D01*
X1766Y1282D02*
X1773Y1282D01*
X0Y1281D02*
X7Y1281D01*
X1766Y1281D02*
X1773Y1281D01*
X0Y1280D02*
X7Y1280D01*
X1766Y1280D02*
X1773Y1280D01*
X0Y1279D02*
X7Y1279D01*
X1766Y1279D02*
X1773Y1279D01*
X0Y1278D02*
X7Y1278D01*
X1766Y1278D02*
X1773Y1278D01*
X0Y1277D02*
X7Y1277D01*
X1766Y1277D02*
X1773Y1277D01*
X0Y1276D02*
X7Y1276D01*
X1766Y1276D02*
X1773Y1276D01*
X0Y1275D02*
X7Y1275D01*
X1766Y1275D02*
X1773Y1275D01*
X0Y1274D02*
X7Y1274D01*
X1766Y1274D02*
X1773Y1274D01*
X0Y1273D02*
X7Y1273D01*
X1766Y1273D02*
X1773Y1273D01*
X0Y1272D02*
X7Y1272D01*
X1766Y1272D02*
X1773Y1272D01*
X0Y1271D02*
X7Y1271D01*
X1766Y1271D02*
X1773Y1271D01*
X0Y1270D02*
X7Y1270D01*
X1766Y1270D02*
X1773Y1270D01*
X0Y1269D02*
X7Y1269D01*
X1766Y1269D02*
X1773Y1269D01*
X0Y1268D02*
X7Y1268D01*
X1766Y1268D02*
X1773Y1268D01*
X0Y1267D02*
X7Y1267D01*
X1766Y1267D02*
X1773Y1267D01*
X0Y1266D02*
X7Y1266D01*
X1766Y1266D02*
X1773Y1266D01*
X0Y1265D02*
X7Y1265D01*
X1766Y1265D02*
X1773Y1265D01*
X0Y1264D02*
X7Y1264D01*
X1766Y1264D02*
X1773Y1264D01*
X0Y1263D02*
X7Y1263D01*
X1766Y1263D02*
X1773Y1263D01*
X0Y1262D02*
X7Y1262D01*
X1766Y1262D02*
X1773Y1262D01*
X0Y1261D02*
X7Y1261D01*
X1766Y1261D02*
X1773Y1261D01*
X0Y1260D02*
X7Y1260D01*
X1766Y1260D02*
X1773Y1260D01*
X0Y1259D02*
X7Y1259D01*
X1766Y1259D02*
X1773Y1259D01*
X0Y1258D02*
X7Y1258D01*
X1766Y1258D02*
X1773Y1258D01*
X0Y1257D02*
X7Y1257D01*
X1766Y1257D02*
X1773Y1257D01*
X0Y1256D02*
X7Y1256D01*
X1766Y1256D02*
X1773Y1256D01*
X0Y1255D02*
X7Y1255D01*
X1766Y1255D02*
X1773Y1255D01*
X0Y1254D02*
X7Y1254D01*
X1766Y1254D02*
X1773Y1254D01*
X0Y1253D02*
X7Y1253D01*
X1766Y1253D02*
X1773Y1253D01*
X0Y1252D02*
X7Y1252D01*
X1766Y1252D02*
X1773Y1252D01*
X0Y1251D02*
X7Y1251D01*
X1766Y1251D02*
X1773Y1251D01*
X0Y1250D02*
X7Y1250D01*
X1766Y1250D02*
X1773Y1250D01*
X0Y1249D02*
X7Y1249D01*
X1766Y1249D02*
X1773Y1249D01*
X0Y1248D02*
X7Y1248D01*
X1766Y1248D02*
X1773Y1248D01*
X0Y1247D02*
X7Y1247D01*
X1766Y1247D02*
X1773Y1247D01*
X0Y1246D02*
X7Y1246D01*
X1766Y1246D02*
X1773Y1246D01*
X0Y1245D02*
X7Y1245D01*
X1766Y1245D02*
X1773Y1245D01*
X0Y1244D02*
X7Y1244D01*
X1766Y1244D02*
X1773Y1244D01*
X0Y1243D02*
X7Y1243D01*
X1766Y1243D02*
X1773Y1243D01*
X0Y1242D02*
X7Y1242D01*
X1766Y1242D02*
X1773Y1242D01*
X0Y1241D02*
X7Y1241D01*
X1766Y1241D02*
X1773Y1241D01*
X0Y1240D02*
X7Y1240D01*
X1766Y1240D02*
X1773Y1240D01*
X0Y1239D02*
X7Y1239D01*
X1766Y1239D02*
X1773Y1239D01*
X0Y1238D02*
X7Y1238D01*
X1766Y1238D02*
X1773Y1238D01*
X0Y1237D02*
X7Y1237D01*
X1766Y1237D02*
X1773Y1237D01*
X0Y1236D02*
X7Y1236D01*
X1766Y1236D02*
X1773Y1236D01*
X0Y1235D02*
X7Y1235D01*
X1766Y1235D02*
X1773Y1235D01*
X0Y1234D02*
X7Y1234D01*
X1766Y1234D02*
X1773Y1234D01*
X0Y1233D02*
X7Y1233D01*
X1766Y1233D02*
X1773Y1233D01*
X0Y1232D02*
X7Y1232D01*
X1766Y1232D02*
X1773Y1232D01*
X0Y1231D02*
X7Y1231D01*
X1766Y1231D02*
X1773Y1231D01*
X0Y1230D02*
X7Y1230D01*
X1766Y1230D02*
X1773Y1230D01*
X0Y1229D02*
X7Y1229D01*
X1766Y1229D02*
X1773Y1229D01*
X0Y1228D02*
X7Y1228D01*
X1766Y1228D02*
X1773Y1228D01*
X0Y1227D02*
X7Y1227D01*
X1766Y1227D02*
X1773Y1227D01*
X0Y1226D02*
X7Y1226D01*
X1766Y1226D02*
X1773Y1226D01*
X0Y1225D02*
X7Y1225D01*
X1766Y1225D02*
X1773Y1225D01*
X0Y1224D02*
X7Y1224D01*
X1766Y1224D02*
X1773Y1224D01*
X0Y1223D02*
X7Y1223D01*
X1766Y1223D02*
X1773Y1223D01*
X0Y1222D02*
X7Y1222D01*
X1766Y1222D02*
X1773Y1222D01*
X0Y1221D02*
X7Y1221D01*
X1766Y1221D02*
X1773Y1221D01*
X0Y1220D02*
X7Y1220D01*
X1766Y1220D02*
X1773Y1220D01*
X0Y1219D02*
X7Y1219D01*
X1766Y1219D02*
X1773Y1219D01*
X0Y1218D02*
X7Y1218D01*
X1766Y1218D02*
X1773Y1218D01*
X0Y1217D02*
X7Y1217D01*
X1766Y1217D02*
X1773Y1217D01*
X0Y1216D02*
X7Y1216D01*
X1766Y1216D02*
X1773Y1216D01*
X0Y1215D02*
X7Y1215D01*
X1766Y1215D02*
X1773Y1215D01*
X0Y1214D02*
X7Y1214D01*
X1766Y1214D02*
X1773Y1214D01*
X0Y1213D02*
X7Y1213D01*
X1766Y1213D02*
X1773Y1213D01*
X0Y1212D02*
X7Y1212D01*
X1766Y1212D02*
X1773Y1212D01*
X0Y1211D02*
X7Y1211D01*
X1766Y1211D02*
X1773Y1211D01*
X0Y1210D02*
X7Y1210D01*
X1766Y1210D02*
X1773Y1210D01*
X0Y1209D02*
X7Y1209D01*
X1766Y1209D02*
X1773Y1209D01*
X0Y1208D02*
X7Y1208D01*
X1766Y1208D02*
X1773Y1208D01*
X0Y1207D02*
X7Y1207D01*
X1766Y1207D02*
X1773Y1207D01*
X0Y1206D02*
X7Y1206D01*
X1766Y1206D02*
X1773Y1206D01*
X0Y1205D02*
X7Y1205D01*
X1766Y1205D02*
X1773Y1205D01*
X0Y1204D02*
X7Y1204D01*
X1766Y1204D02*
X1773Y1204D01*
X0Y1203D02*
X7Y1203D01*
X1766Y1203D02*
X1773Y1203D01*
X0Y1202D02*
X7Y1202D01*
X1766Y1202D02*
X1773Y1202D01*
X0Y1201D02*
X7Y1201D01*
X1766Y1201D02*
X1773Y1201D01*
X0Y1200D02*
X7Y1200D01*
X1766Y1200D02*
X1773Y1200D01*
X0Y1199D02*
X7Y1199D01*
X1766Y1199D02*
X1773Y1199D01*
X0Y1198D02*
X7Y1198D01*
X1766Y1198D02*
X1773Y1198D01*
X0Y1197D02*
X7Y1197D01*
X1766Y1197D02*
X1773Y1197D01*
X0Y1196D02*
X7Y1196D01*
X1766Y1196D02*
X1773Y1196D01*
X0Y1195D02*
X7Y1195D01*
X1766Y1195D02*
X1773Y1195D01*
X0Y1194D02*
X7Y1194D01*
X1766Y1194D02*
X1773Y1194D01*
X0Y1193D02*
X7Y1193D01*
X1766Y1193D02*
X1773Y1193D01*
X0Y1192D02*
X7Y1192D01*
X1766Y1192D02*
X1773Y1192D01*
X0Y1191D02*
X7Y1191D01*
X1766Y1191D02*
X1773Y1191D01*
X0Y1190D02*
X7Y1190D01*
X1766Y1190D02*
X1773Y1190D01*
X0Y1189D02*
X7Y1189D01*
X1766Y1189D02*
X1773Y1189D01*
X0Y1188D02*
X7Y1188D01*
X1766Y1188D02*
X1773Y1188D01*
X0Y1187D02*
X7Y1187D01*
X1766Y1187D02*
X1773Y1187D01*
X0Y1186D02*
X7Y1186D01*
X1766Y1186D02*
X1773Y1186D01*
X0Y1185D02*
X7Y1185D01*
X1766Y1185D02*
X1773Y1185D01*
X0Y1184D02*
X7Y1184D01*
X1766Y1184D02*
X1773Y1184D01*
X0Y1183D02*
X7Y1183D01*
X1766Y1183D02*
X1773Y1183D01*
X0Y1182D02*
X7Y1182D01*
X1766Y1182D02*
X1773Y1182D01*
X0Y1181D02*
X7Y1181D01*
X1766Y1181D02*
X1773Y1181D01*
X0Y1180D02*
X7Y1180D01*
X1766Y1180D02*
X1773Y1180D01*
X0Y1179D02*
X7Y1179D01*
X1766Y1179D02*
X1773Y1179D01*
X0Y1178D02*
X7Y1178D01*
X1766Y1178D02*
X1773Y1178D01*
X0Y1177D02*
X7Y1177D01*
X1766Y1177D02*
X1773Y1177D01*
X0Y1176D02*
X7Y1176D01*
X1766Y1176D02*
X1773Y1176D01*
X0Y1175D02*
X7Y1175D01*
X1766Y1175D02*
X1773Y1175D01*
X0Y1174D02*
X7Y1174D01*
X1766Y1174D02*
X1773Y1174D01*
X0Y1173D02*
X7Y1173D01*
X1766Y1173D02*
X1773Y1173D01*
X0Y1172D02*
X7Y1172D01*
X1766Y1172D02*
X1773Y1172D01*
X0Y1171D02*
X7Y1171D01*
X1766Y1171D02*
X1773Y1171D01*
X0Y1170D02*
X7Y1170D01*
X1766Y1170D02*
X1773Y1170D01*
X0Y1169D02*
X7Y1169D01*
X1766Y1169D02*
X1773Y1169D01*
X0Y1168D02*
X7Y1168D01*
X1766Y1168D02*
X1773Y1168D01*
X0Y1167D02*
X7Y1167D01*
X1766Y1167D02*
X1773Y1167D01*
X0Y1166D02*
X7Y1166D01*
X1766Y1166D02*
X1773Y1166D01*
X0Y1165D02*
X7Y1165D01*
X1766Y1165D02*
X1773Y1165D01*
X0Y1164D02*
X7Y1164D01*
X1766Y1164D02*
X1773Y1164D01*
X0Y1163D02*
X7Y1163D01*
X1766Y1163D02*
X1773Y1163D01*
X0Y1162D02*
X7Y1162D01*
X1766Y1162D02*
X1773Y1162D01*
X0Y1161D02*
X7Y1161D01*
X1766Y1161D02*
X1773Y1161D01*
X0Y1160D02*
X7Y1160D01*
X1766Y1160D02*
X1773Y1160D01*
X0Y1159D02*
X7Y1159D01*
X1766Y1159D02*
X1773Y1159D01*
X0Y1158D02*
X7Y1158D01*
X1766Y1158D02*
X1773Y1158D01*
X0Y1157D02*
X7Y1157D01*
X1766Y1157D02*
X1773Y1157D01*
X0Y1156D02*
X7Y1156D01*
X1766Y1156D02*
X1773Y1156D01*
X0Y1155D02*
X7Y1155D01*
X1766Y1155D02*
X1773Y1155D01*
X0Y1154D02*
X7Y1154D01*
X1766Y1154D02*
X1773Y1154D01*
X0Y1153D02*
X7Y1153D01*
X1766Y1153D02*
X1773Y1153D01*
X0Y1152D02*
X7Y1152D01*
X1766Y1152D02*
X1773Y1152D01*
X0Y1151D02*
X7Y1151D01*
X1766Y1151D02*
X1773Y1151D01*
X0Y1150D02*
X7Y1150D01*
X1766Y1150D02*
X1773Y1150D01*
X0Y1149D02*
X7Y1149D01*
X1766Y1149D02*
X1773Y1149D01*
X0Y1148D02*
X7Y1148D01*
X1766Y1148D02*
X1773Y1148D01*
X0Y1147D02*
X7Y1147D01*
X1766Y1147D02*
X1773Y1147D01*
X0Y1146D02*
X7Y1146D01*
X1766Y1146D02*
X1773Y1146D01*
X0Y1145D02*
X7Y1145D01*
X1766Y1145D02*
X1773Y1145D01*
X0Y1144D02*
X7Y1144D01*
X1766Y1144D02*
X1773Y1144D01*
X0Y1143D02*
X7Y1143D01*
X1766Y1143D02*
X1773Y1143D01*
X0Y1142D02*
X7Y1142D01*
X1766Y1142D02*
X1773Y1142D01*
X0Y1141D02*
X7Y1141D01*
X1766Y1141D02*
X1773Y1141D01*
X0Y1140D02*
X7Y1140D01*
X1766Y1140D02*
X1773Y1140D01*
X0Y1139D02*
X7Y1139D01*
X1766Y1139D02*
X1773Y1139D01*
X0Y1138D02*
X7Y1138D01*
X1766Y1138D02*
X1773Y1138D01*
X0Y1137D02*
X7Y1137D01*
X1766Y1137D02*
X1773Y1137D01*
X0Y1136D02*
X7Y1136D01*
X1766Y1136D02*
X1773Y1136D01*
X0Y1135D02*
X7Y1135D01*
X1766Y1135D02*
X1773Y1135D01*
X0Y1134D02*
X7Y1134D01*
X1766Y1134D02*
X1773Y1134D01*
X0Y1133D02*
X7Y1133D01*
X1766Y1133D02*
X1773Y1133D01*
X0Y1132D02*
X7Y1132D01*
X1766Y1132D02*
X1773Y1132D01*
X0Y1131D02*
X7Y1131D01*
X1766Y1131D02*
X1773Y1131D01*
X0Y1130D02*
X7Y1130D01*
X1766Y1130D02*
X1773Y1130D01*
X0Y1129D02*
X7Y1129D01*
X1766Y1129D02*
X1773Y1129D01*
X0Y1128D02*
X7Y1128D01*
X1766Y1128D02*
X1773Y1128D01*
X0Y1127D02*
X7Y1127D01*
X1766Y1127D02*
X1773Y1127D01*
X0Y1126D02*
X7Y1126D01*
X1766Y1126D02*
X1773Y1126D01*
X0Y1125D02*
X7Y1125D01*
X1766Y1125D02*
X1773Y1125D01*
X0Y1124D02*
X7Y1124D01*
X1766Y1124D02*
X1773Y1124D01*
X0Y1123D02*
X7Y1123D01*
X1766Y1123D02*
X1773Y1123D01*
X0Y1122D02*
X7Y1122D01*
X1766Y1122D02*
X1773Y1122D01*
X0Y1121D02*
X7Y1121D01*
X1766Y1121D02*
X1773Y1121D01*
X0Y1120D02*
X7Y1120D01*
X1766Y1120D02*
X1773Y1120D01*
X0Y1119D02*
X7Y1119D01*
X1766Y1119D02*
X1773Y1119D01*
X0Y1118D02*
X7Y1118D01*
X1766Y1118D02*
X1773Y1118D01*
X0Y1117D02*
X7Y1117D01*
X1766Y1117D02*
X1773Y1117D01*
X0Y1116D02*
X7Y1116D01*
X1766Y1116D02*
X1773Y1116D01*
X0Y1115D02*
X7Y1115D01*
X1766Y1115D02*
X1773Y1115D01*
X0Y1114D02*
X7Y1114D01*
X1766Y1114D02*
X1773Y1114D01*
X0Y1113D02*
X7Y1113D01*
X1766Y1113D02*
X1773Y1113D01*
X0Y1112D02*
X7Y1112D01*
X1766Y1112D02*
X1773Y1112D01*
X0Y1111D02*
X7Y1111D01*
X1766Y1111D02*
X1773Y1111D01*
X0Y1110D02*
X7Y1110D01*
X1766Y1110D02*
X1773Y1110D01*
X0Y1109D02*
X7Y1109D01*
X1766Y1109D02*
X1773Y1109D01*
X0Y1108D02*
X7Y1108D01*
X1766Y1108D02*
X1773Y1108D01*
X0Y1107D02*
X7Y1107D01*
X1766Y1107D02*
X1773Y1107D01*
X0Y1106D02*
X7Y1106D01*
X1766Y1106D02*
X1773Y1106D01*
X0Y1105D02*
X7Y1105D01*
X1766Y1105D02*
X1773Y1105D01*
X0Y1104D02*
X7Y1104D01*
X1766Y1104D02*
X1773Y1104D01*
X0Y1103D02*
X7Y1103D01*
X1766Y1103D02*
X1773Y1103D01*
X0Y1102D02*
X7Y1102D01*
X1766Y1102D02*
X1773Y1102D01*
X0Y1101D02*
X7Y1101D01*
X1766Y1101D02*
X1773Y1101D01*
X0Y1100D02*
X7Y1100D01*
X1766Y1100D02*
X1773Y1100D01*
X0Y1099D02*
X7Y1099D01*
X1766Y1099D02*
X1773Y1099D01*
X0Y1098D02*
X7Y1098D01*
X1766Y1098D02*
X1773Y1098D01*
X0Y1097D02*
X7Y1097D01*
X1766Y1097D02*
X1773Y1097D01*
X0Y1096D02*
X7Y1096D01*
X1766Y1096D02*
X1773Y1096D01*
X0Y1095D02*
X7Y1095D01*
X1766Y1095D02*
X1773Y1095D01*
X0Y1094D02*
X7Y1094D01*
X1766Y1094D02*
X1773Y1094D01*
X0Y1093D02*
X7Y1093D01*
X1766Y1093D02*
X1773Y1093D01*
X0Y1092D02*
X7Y1092D01*
X1766Y1092D02*
X1773Y1092D01*
X0Y1091D02*
X7Y1091D01*
X1766Y1091D02*
X1773Y1091D01*
X0Y1090D02*
X7Y1090D01*
X1766Y1090D02*
X1773Y1090D01*
X0Y1089D02*
X7Y1089D01*
X1766Y1089D02*
X1773Y1089D01*
X0Y1088D02*
X7Y1088D01*
X1766Y1088D02*
X1773Y1088D01*
X0Y1087D02*
X7Y1087D01*
X1766Y1087D02*
X1773Y1087D01*
X0Y1086D02*
X7Y1086D01*
X1766Y1086D02*
X1773Y1086D01*
X0Y1085D02*
X7Y1085D01*
X1766Y1085D02*
X1773Y1085D01*
X0Y1084D02*
X7Y1084D01*
X1766Y1084D02*
X1773Y1084D01*
X0Y1083D02*
X7Y1083D01*
X1766Y1083D02*
X1773Y1083D01*
X0Y1082D02*
X7Y1082D01*
X1766Y1082D02*
X1773Y1082D01*
X0Y1081D02*
X7Y1081D01*
X1766Y1081D02*
X1773Y1081D01*
X0Y1080D02*
X7Y1080D01*
X1766Y1080D02*
X1773Y1080D01*
X0Y1079D02*
X7Y1079D01*
X1766Y1079D02*
X1773Y1079D01*
X0Y1078D02*
X7Y1078D01*
X1766Y1078D02*
X1773Y1078D01*
X0Y1077D02*
X7Y1077D01*
X1766Y1077D02*
X1773Y1077D01*
X0Y1076D02*
X7Y1076D01*
X1766Y1076D02*
X1773Y1076D01*
X0Y1075D02*
X7Y1075D01*
X1766Y1075D02*
X1773Y1075D01*
X0Y1074D02*
X7Y1074D01*
X1766Y1074D02*
X1773Y1074D01*
X0Y1073D02*
X7Y1073D01*
X1766Y1073D02*
X1773Y1073D01*
X0Y1072D02*
X7Y1072D01*
X1766Y1072D02*
X1773Y1072D01*
X0Y1071D02*
X7Y1071D01*
X1766Y1071D02*
X1773Y1071D01*
X0Y1070D02*
X7Y1070D01*
X1766Y1070D02*
X1773Y1070D01*
X0Y1069D02*
X7Y1069D01*
X1766Y1069D02*
X1773Y1069D01*
X0Y1068D02*
X7Y1068D01*
X1766Y1068D02*
X1773Y1068D01*
X0Y1067D02*
X7Y1067D01*
X1766Y1067D02*
X1773Y1067D01*
X0Y1066D02*
X7Y1066D01*
X1766Y1066D02*
X1773Y1066D01*
X0Y1065D02*
X7Y1065D01*
X1766Y1065D02*
X1773Y1065D01*
X0Y1064D02*
X7Y1064D01*
X1766Y1064D02*
X1773Y1064D01*
X0Y1063D02*
X7Y1063D01*
X1766Y1063D02*
X1773Y1063D01*
X0Y1062D02*
X7Y1062D01*
X1766Y1062D02*
X1773Y1062D01*
X0Y1061D02*
X7Y1061D01*
X1766Y1061D02*
X1773Y1061D01*
X0Y1060D02*
X7Y1060D01*
X1766Y1060D02*
X1773Y1060D01*
X0Y1059D02*
X7Y1059D01*
X1766Y1059D02*
X1773Y1059D01*
X0Y1058D02*
X7Y1058D01*
X1766Y1058D02*
X1773Y1058D01*
X0Y1057D02*
X7Y1057D01*
X1766Y1057D02*
X1773Y1057D01*
X0Y1056D02*
X7Y1056D01*
X1766Y1056D02*
X1773Y1056D01*
X0Y1055D02*
X7Y1055D01*
X1766Y1055D02*
X1773Y1055D01*
X0Y1054D02*
X7Y1054D01*
X1766Y1054D02*
X1773Y1054D01*
X0Y1053D02*
X7Y1053D01*
X1766Y1053D02*
X1773Y1053D01*
X0Y1052D02*
X7Y1052D01*
X1766Y1052D02*
X1773Y1052D01*
X0Y1051D02*
X7Y1051D01*
X1766Y1051D02*
X1773Y1051D01*
X0Y1050D02*
X7Y1050D01*
X1766Y1050D02*
X1773Y1050D01*
X0Y1049D02*
X7Y1049D01*
X1766Y1049D02*
X1773Y1049D01*
X0Y1048D02*
X7Y1048D01*
X1766Y1048D02*
X1773Y1048D01*
X0Y1047D02*
X7Y1047D01*
X1766Y1047D02*
X1773Y1047D01*
X0Y1046D02*
X7Y1046D01*
X1766Y1046D02*
X1773Y1046D01*
X0Y1045D02*
X7Y1045D01*
X1766Y1045D02*
X1773Y1045D01*
X0Y1044D02*
X7Y1044D01*
X1766Y1044D02*
X1773Y1044D01*
X0Y1043D02*
X7Y1043D01*
X1766Y1043D02*
X1773Y1043D01*
X0Y1042D02*
X7Y1042D01*
X1766Y1042D02*
X1773Y1042D01*
X0Y1041D02*
X7Y1041D01*
X1766Y1041D02*
X1773Y1041D01*
X0Y1040D02*
X7Y1040D01*
X1766Y1040D02*
X1773Y1040D01*
X0Y1039D02*
X7Y1039D01*
X1766Y1039D02*
X1773Y1039D01*
X0Y1038D02*
X7Y1038D01*
X1766Y1038D02*
X1773Y1038D01*
X0Y1037D02*
X7Y1037D01*
X1766Y1037D02*
X1773Y1037D01*
X0Y1036D02*
X7Y1036D01*
X1766Y1036D02*
X1773Y1036D01*
X0Y1035D02*
X7Y1035D01*
X1766Y1035D02*
X1773Y1035D01*
X0Y1034D02*
X7Y1034D01*
X1766Y1034D02*
X1773Y1034D01*
X0Y1033D02*
X7Y1033D01*
X1766Y1033D02*
X1773Y1033D01*
X0Y1032D02*
X7Y1032D01*
X1766Y1032D02*
X1773Y1032D01*
X0Y1031D02*
X7Y1031D01*
X1766Y1031D02*
X1773Y1031D01*
X0Y1030D02*
X7Y1030D01*
X1766Y1030D02*
X1773Y1030D01*
X0Y1029D02*
X7Y1029D01*
X1766Y1029D02*
X1773Y1029D01*
X0Y1028D02*
X7Y1028D01*
X1766Y1028D02*
X1773Y1028D01*
X0Y1027D02*
X7Y1027D01*
X1766Y1027D02*
X1773Y1027D01*
X0Y1026D02*
X7Y1026D01*
X1766Y1026D02*
X1773Y1026D01*
X0Y1025D02*
X7Y1025D01*
X1766Y1025D02*
X1773Y1025D01*
X0Y1024D02*
X7Y1024D01*
X1766Y1024D02*
X1773Y1024D01*
X0Y1023D02*
X7Y1023D01*
X1766Y1023D02*
X1773Y1023D01*
X0Y1022D02*
X7Y1022D01*
X1766Y1022D02*
X1773Y1022D01*
X0Y1021D02*
X7Y1021D01*
X1766Y1021D02*
X1773Y1021D01*
X0Y1020D02*
X7Y1020D01*
X1766Y1020D02*
X1773Y1020D01*
X0Y1019D02*
X7Y1019D01*
X1766Y1019D02*
X1773Y1019D01*
X0Y1018D02*
X7Y1018D01*
X1766Y1018D02*
X1773Y1018D01*
X0Y1017D02*
X7Y1017D01*
X1766Y1017D02*
X1773Y1017D01*
X0Y1016D02*
X7Y1016D01*
X1766Y1016D02*
X1773Y1016D01*
X0Y1015D02*
X7Y1015D01*
X1766Y1015D02*
X1773Y1015D01*
X0Y1014D02*
X7Y1014D01*
X1766Y1014D02*
X1773Y1014D01*
X0Y1013D02*
X7Y1013D01*
X1766Y1013D02*
X1773Y1013D01*
X0Y1012D02*
X7Y1012D01*
X1766Y1012D02*
X1773Y1012D01*
X0Y1011D02*
X7Y1011D01*
X1766Y1011D02*
X1773Y1011D01*
X0Y1010D02*
X7Y1010D01*
X1766Y1010D02*
X1773Y1010D01*
X0Y1009D02*
X7Y1009D01*
X1766Y1009D02*
X1773Y1009D01*
X0Y1008D02*
X7Y1008D01*
X1766Y1008D02*
X1773Y1008D01*
X0Y1007D02*
X7Y1007D01*
X1766Y1007D02*
X1773Y1007D01*
X0Y1006D02*
X7Y1006D01*
X1766Y1006D02*
X1773Y1006D01*
X0Y1005D02*
X7Y1005D01*
X1766Y1005D02*
X1773Y1005D01*
X0Y1004D02*
X7Y1004D01*
X1766Y1004D02*
X1773Y1004D01*
X0Y1003D02*
X7Y1003D01*
X1766Y1003D02*
X1773Y1003D01*
X0Y1002D02*
X7Y1002D01*
X1766Y1002D02*
X1773Y1002D01*
X0Y1001D02*
X7Y1001D01*
X1766Y1001D02*
X1773Y1001D01*
X0Y1000D02*
X7Y1000D01*
X1766Y1000D02*
X1773Y1000D01*
X0Y999D02*
X7Y999D01*
X1766Y999D02*
X1773Y999D01*
X0Y998D02*
X7Y998D01*
X1766Y998D02*
X1773Y998D01*
X0Y997D02*
X7Y997D01*
X1766Y997D02*
X1773Y997D01*
X0Y996D02*
X7Y996D01*
X1766Y996D02*
X1773Y996D01*
X0Y995D02*
X7Y995D01*
X1766Y995D02*
X1773Y995D01*
X0Y994D02*
X7Y994D01*
X1766Y994D02*
X1773Y994D01*
X0Y993D02*
X7Y993D01*
X1766Y993D02*
X1773Y993D01*
X0Y992D02*
X7Y992D01*
X1766Y992D02*
X1773Y992D01*
X0Y991D02*
X7Y991D01*
X1766Y991D02*
X1773Y991D01*
X0Y990D02*
X7Y990D01*
X1766Y990D02*
X1773Y990D01*
X0Y989D02*
X7Y989D01*
X1766Y989D02*
X1773Y989D01*
X0Y988D02*
X7Y988D01*
X1766Y988D02*
X1773Y988D01*
X0Y987D02*
X7Y987D01*
X1766Y987D02*
X1773Y987D01*
X0Y986D02*
X7Y986D01*
X1766Y986D02*
X1773Y986D01*
X0Y985D02*
X7Y985D01*
X1766Y985D02*
X1773Y985D01*
X0Y984D02*
X7Y984D01*
X1766Y984D02*
X1773Y984D01*
X0Y983D02*
X7Y983D01*
X1766Y983D02*
X1773Y983D01*
X0Y982D02*
X7Y982D01*
X1766Y982D02*
X1773Y982D01*
X0Y981D02*
X7Y981D01*
X1766Y981D02*
X1773Y981D01*
X0Y980D02*
X7Y980D01*
X1766Y980D02*
X1773Y980D01*
X0Y979D02*
X7Y979D01*
X1766Y979D02*
X1773Y979D01*
X0Y978D02*
X7Y978D01*
X1766Y978D02*
X1773Y978D01*
X0Y977D02*
X7Y977D01*
X1766Y977D02*
X1773Y977D01*
X0Y976D02*
X7Y976D01*
X1766Y976D02*
X1773Y976D01*
X0Y975D02*
X7Y975D01*
X1766Y975D02*
X1773Y975D01*
X0Y974D02*
X7Y974D01*
X1766Y974D02*
X1773Y974D01*
X0Y973D02*
X7Y973D01*
X1276Y973D02*
X1276Y973D01*
X1766Y973D02*
X1773Y973D01*
X0Y972D02*
X7Y972D01*
X1187Y972D02*
X1190Y972D01*
X1276Y972D02*
X1280Y972D01*
X1766Y972D02*
X1773Y972D01*
X0Y971D02*
X7Y971D01*
X1182Y971D02*
X1190Y971D01*
X1276Y971D02*
X1284Y971D01*
X1766Y971D02*
X1773Y971D01*
X0Y970D02*
X7Y970D01*
X1179Y970D02*
X1190Y970D01*
X1276Y970D02*
X1288Y970D01*
X1766Y970D02*
X1773Y970D01*
X0Y969D02*
X7Y969D01*
X1175Y969D02*
X1190Y969D01*
X1276Y969D02*
X1291Y969D01*
X1766Y969D02*
X1773Y969D01*
X0Y968D02*
X7Y968D01*
X1172Y968D02*
X1191Y968D01*
X1276Y968D02*
X1294Y968D01*
X1766Y968D02*
X1773Y968D01*
X0Y967D02*
X7Y967D01*
X1169Y967D02*
X1191Y967D01*
X1276Y967D02*
X1297Y967D01*
X1766Y967D02*
X1773Y967D01*
X0Y966D02*
X7Y966D01*
X1166Y966D02*
X1191Y966D01*
X1276Y966D02*
X1300Y966D01*
X1766Y966D02*
X1773Y966D01*
X0Y965D02*
X7Y965D01*
X1163Y965D02*
X1191Y965D01*
X1275Y965D02*
X1303Y965D01*
X1766Y965D02*
X1773Y965D01*
X0Y964D02*
X7Y964D01*
X1161Y964D02*
X1191Y964D01*
X1275Y964D02*
X1306Y964D01*
X1766Y964D02*
X1773Y964D01*
X0Y963D02*
X7Y963D01*
X1158Y963D02*
X1190Y963D01*
X1276Y963D02*
X1308Y963D01*
X1766Y963D02*
X1773Y963D01*
X0Y962D02*
X7Y962D01*
X1156Y962D02*
X1186Y962D01*
X1281Y962D02*
X1311Y962D01*
X1766Y962D02*
X1773Y962D01*
X0Y961D02*
X7Y961D01*
X1153Y961D02*
X1182Y961D01*
X1284Y961D02*
X1313Y961D01*
X1766Y961D02*
X1773Y961D01*
X0Y960D02*
X7Y960D01*
X1151Y960D02*
X1178Y960D01*
X1288Y960D02*
X1315Y960D01*
X1766Y960D02*
X1773Y960D01*
X0Y959D02*
X7Y959D01*
X1149Y959D02*
X1175Y959D01*
X1292Y959D02*
X1317Y959D01*
X1766Y959D02*
X1773Y959D01*
X0Y958D02*
X7Y958D01*
X1147Y958D02*
X1172Y958D01*
X1295Y958D02*
X1320Y958D01*
X1766Y958D02*
X1773Y958D01*
X0Y957D02*
X7Y957D01*
X1145Y957D02*
X1169Y957D01*
X1298Y957D02*
X1322Y957D01*
X1766Y957D02*
X1773Y957D01*
X0Y956D02*
X7Y956D01*
X1143Y956D02*
X1166Y956D01*
X1301Y956D02*
X1324Y956D01*
X1766Y956D02*
X1773Y956D01*
X0Y955D02*
X7Y955D01*
X1141Y955D02*
X1163Y955D01*
X1303Y955D02*
X1326Y955D01*
X1766Y955D02*
X1773Y955D01*
X0Y954D02*
X7Y954D01*
X1139Y954D02*
X1161Y954D01*
X1306Y954D02*
X1328Y954D01*
X1766Y954D02*
X1773Y954D01*
X0Y953D02*
X7Y953D01*
X1137Y953D02*
X1158Y953D01*
X1308Y953D02*
X1330Y953D01*
X1766Y953D02*
X1773Y953D01*
X0Y952D02*
X7Y952D01*
X1135Y952D02*
X1156Y952D01*
X1311Y952D02*
X1331Y952D01*
X1766Y952D02*
X1773Y952D01*
X0Y951D02*
X7Y951D01*
X1133Y951D02*
X1153Y951D01*
X1313Y951D02*
X1333Y951D01*
X1766Y951D02*
X1773Y951D01*
X0Y950D02*
X7Y950D01*
X1132Y950D02*
X1151Y950D01*
X1315Y950D02*
X1335Y950D01*
X1766Y950D02*
X1773Y950D01*
X0Y949D02*
X7Y949D01*
X1130Y949D02*
X1149Y949D01*
X1317Y949D02*
X1337Y949D01*
X1766Y949D02*
X1773Y949D01*
X0Y948D02*
X7Y948D01*
X1128Y948D02*
X1147Y948D01*
X1320Y948D02*
X1338Y948D01*
X1766Y948D02*
X1773Y948D01*
X0Y947D02*
X7Y947D01*
X1127Y947D02*
X1145Y947D01*
X1322Y947D02*
X1340Y947D01*
X1766Y947D02*
X1773Y947D01*
X0Y946D02*
X7Y946D01*
X1125Y946D02*
X1143Y946D01*
X1323Y946D02*
X1341Y946D01*
X1766Y946D02*
X1773Y946D01*
X0Y945D02*
X7Y945D01*
X1123Y945D02*
X1141Y945D01*
X1325Y945D02*
X1343Y945D01*
X1766Y945D02*
X1773Y945D01*
X0Y944D02*
X7Y944D01*
X1122Y944D02*
X1139Y944D01*
X1327Y944D02*
X1345Y944D01*
X1766Y944D02*
X1773Y944D01*
X0Y943D02*
X7Y943D01*
X1120Y943D02*
X1137Y943D01*
X1329Y943D02*
X1346Y943D01*
X1766Y943D02*
X1773Y943D01*
X0Y942D02*
X7Y942D01*
X1119Y942D02*
X1136Y942D01*
X1331Y942D02*
X1348Y942D01*
X1766Y942D02*
X1773Y942D01*
X0Y941D02*
X7Y941D01*
X1117Y941D02*
X1134Y941D01*
X1333Y941D02*
X1349Y941D01*
X1766Y941D02*
X1773Y941D01*
X0Y940D02*
X7Y940D01*
X1116Y940D02*
X1132Y940D01*
X1334Y940D02*
X1350Y940D01*
X1766Y940D02*
X1773Y940D01*
X0Y939D02*
X7Y939D01*
X1115Y939D02*
X1130Y939D01*
X1336Y939D02*
X1352Y939D01*
X1766Y939D02*
X1773Y939D01*
X0Y938D02*
X7Y938D01*
X1113Y938D02*
X1129Y938D01*
X1338Y938D02*
X1353Y938D01*
X1766Y938D02*
X1773Y938D01*
X0Y937D02*
X7Y937D01*
X1112Y937D02*
X1127Y937D01*
X1339Y937D02*
X1355Y937D01*
X1766Y937D02*
X1773Y937D01*
X0Y936D02*
X7Y936D01*
X1111Y936D02*
X1126Y936D01*
X1341Y936D02*
X1356Y936D01*
X1766Y936D02*
X1773Y936D01*
X0Y935D02*
X7Y935D01*
X1109Y935D02*
X1124Y935D01*
X1342Y935D02*
X1357Y935D01*
X1766Y935D02*
X1773Y935D01*
X0Y934D02*
X7Y934D01*
X1108Y934D02*
X1123Y934D01*
X1344Y934D02*
X1358Y934D01*
X1766Y934D02*
X1773Y934D01*
X0Y933D02*
X7Y933D01*
X1107Y933D02*
X1121Y933D01*
X1345Y933D02*
X1360Y933D01*
X1766Y933D02*
X1773Y933D01*
X0Y932D02*
X7Y932D01*
X1105Y932D02*
X1120Y932D01*
X1347Y932D02*
X1361Y932D01*
X1766Y932D02*
X1773Y932D01*
X0Y931D02*
X7Y931D01*
X1104Y931D02*
X1119Y931D01*
X1348Y931D02*
X1362Y931D01*
X1766Y931D02*
X1773Y931D01*
X0Y930D02*
X7Y930D01*
X1103Y930D02*
X1117Y930D01*
X1349Y930D02*
X1363Y930D01*
X1766Y930D02*
X1773Y930D01*
X0Y929D02*
X7Y929D01*
X1102Y929D02*
X1116Y929D01*
X1351Y929D02*
X1365Y929D01*
X1766Y929D02*
X1773Y929D01*
X0Y928D02*
X7Y928D01*
X1101Y928D02*
X1114Y928D01*
X1352Y928D02*
X1366Y928D01*
X1766Y928D02*
X1773Y928D01*
X0Y927D02*
X7Y927D01*
X1100Y927D02*
X1113Y927D01*
X1353Y927D02*
X1367Y927D01*
X1766Y927D02*
X1773Y927D01*
X0Y926D02*
X7Y926D01*
X1098Y926D02*
X1112Y926D01*
X1355Y926D02*
X1368Y926D01*
X1766Y926D02*
X1773Y926D01*
X0Y925D02*
X7Y925D01*
X1097Y925D02*
X1111Y925D01*
X1356Y925D02*
X1369Y925D01*
X1766Y925D02*
X1773Y925D01*
X0Y924D02*
X7Y924D01*
X1096Y924D02*
X1109Y924D01*
X1357Y924D02*
X1370Y924D01*
X1766Y924D02*
X1773Y924D01*
X0Y923D02*
X7Y923D01*
X1095Y923D02*
X1108Y923D01*
X1358Y923D02*
X1371Y923D01*
X1766Y923D02*
X1773Y923D01*
X0Y922D02*
X7Y922D01*
X1094Y922D02*
X1107Y922D01*
X1360Y922D02*
X1373Y922D01*
X1766Y922D02*
X1773Y922D01*
X0Y921D02*
X7Y921D01*
X1093Y921D02*
X1106Y921D01*
X1361Y921D02*
X1374Y921D01*
X1766Y921D02*
X1773Y921D01*
X0Y920D02*
X7Y920D01*
X1092Y920D02*
X1105Y920D01*
X1362Y920D02*
X1375Y920D01*
X1766Y920D02*
X1773Y920D01*
X0Y919D02*
X7Y919D01*
X1091Y919D02*
X1103Y919D01*
X1363Y919D02*
X1376Y919D01*
X1766Y919D02*
X1773Y919D01*
X0Y918D02*
X7Y918D01*
X1090Y918D02*
X1102Y918D01*
X1364Y918D02*
X1377Y918D01*
X1766Y918D02*
X1773Y918D01*
X0Y917D02*
X7Y917D01*
X1089Y917D02*
X1101Y917D01*
X1365Y917D02*
X1378Y917D01*
X1766Y917D02*
X1773Y917D01*
X0Y916D02*
X7Y916D01*
X1088Y916D02*
X1100Y916D01*
X1366Y916D02*
X1379Y916D01*
X1766Y916D02*
X1773Y916D01*
X0Y915D02*
X7Y915D01*
X1087Y915D02*
X1099Y915D01*
X1367Y915D02*
X1380Y915D01*
X1766Y915D02*
X1773Y915D01*
X0Y914D02*
X7Y914D01*
X1086Y914D02*
X1098Y914D01*
X1368Y914D02*
X1381Y914D01*
X1766Y914D02*
X1773Y914D01*
X0Y913D02*
X7Y913D01*
X1085Y913D02*
X1097Y913D01*
X1370Y913D02*
X1382Y913D01*
X1766Y913D02*
X1773Y913D01*
X0Y912D02*
X7Y912D01*
X1084Y912D02*
X1096Y912D01*
X1371Y912D02*
X1382Y912D01*
X1766Y912D02*
X1773Y912D01*
X0Y911D02*
X7Y911D01*
X1083Y911D02*
X1095Y911D01*
X1372Y911D02*
X1383Y911D01*
X1766Y911D02*
X1773Y911D01*
X0Y910D02*
X7Y910D01*
X1082Y910D02*
X1094Y910D01*
X1373Y910D02*
X1384Y910D01*
X1766Y910D02*
X1773Y910D01*
X0Y909D02*
X7Y909D01*
X1081Y909D02*
X1093Y909D01*
X1374Y909D02*
X1385Y909D01*
X1766Y909D02*
X1773Y909D01*
X0Y908D02*
X7Y908D01*
X1080Y908D02*
X1092Y908D01*
X1374Y908D02*
X1386Y908D01*
X1766Y908D02*
X1773Y908D01*
X0Y907D02*
X7Y907D01*
X1080Y907D02*
X1091Y907D01*
X1375Y907D02*
X1387Y907D01*
X1766Y907D02*
X1773Y907D01*
X0Y906D02*
X7Y906D01*
X1079Y906D02*
X1090Y906D01*
X1376Y906D02*
X1388Y906D01*
X1766Y906D02*
X1773Y906D01*
X0Y905D02*
X7Y905D01*
X1078Y905D02*
X1089Y905D01*
X1377Y905D02*
X1389Y905D01*
X1766Y905D02*
X1773Y905D01*
X0Y904D02*
X7Y904D01*
X1077Y904D02*
X1088Y904D01*
X1378Y904D02*
X1390Y904D01*
X1766Y904D02*
X1773Y904D01*
X0Y903D02*
X7Y903D01*
X1076Y903D02*
X1087Y903D01*
X1379Y903D02*
X1390Y903D01*
X1766Y903D02*
X1773Y903D01*
X0Y902D02*
X7Y902D01*
X1075Y902D02*
X1086Y902D01*
X1380Y902D02*
X1391Y902D01*
X1766Y902D02*
X1773Y902D01*
X0Y901D02*
X7Y901D01*
X1074Y901D02*
X1086Y901D01*
X1381Y901D02*
X1392Y901D01*
X1766Y901D02*
X1773Y901D01*
X0Y900D02*
X7Y900D01*
X1074Y900D02*
X1085Y900D01*
X1382Y900D02*
X1393Y900D01*
X1766Y900D02*
X1773Y900D01*
X0Y899D02*
X7Y899D01*
X1073Y899D02*
X1084Y899D01*
X1383Y899D02*
X1394Y899D01*
X1766Y899D02*
X1773Y899D01*
X0Y898D02*
X7Y898D01*
X1072Y898D02*
X1083Y898D01*
X1383Y898D02*
X1394Y898D01*
X1766Y898D02*
X1773Y898D01*
X0Y897D02*
X7Y897D01*
X1071Y897D02*
X1082Y897D01*
X1384Y897D02*
X1395Y897D01*
X1766Y897D02*
X1773Y897D01*
X0Y896D02*
X7Y896D01*
X1070Y896D02*
X1081Y896D01*
X1385Y896D02*
X1396Y896D01*
X1766Y896D02*
X1773Y896D01*
X0Y895D02*
X7Y895D01*
X1070Y895D02*
X1081Y895D01*
X1386Y895D02*
X1397Y895D01*
X1766Y895D02*
X1773Y895D01*
X0Y894D02*
X7Y894D01*
X1069Y894D02*
X1080Y894D01*
X1387Y894D02*
X1397Y894D01*
X1766Y894D02*
X1773Y894D01*
X0Y893D02*
X7Y893D01*
X1068Y893D02*
X1079Y893D01*
X1388Y893D02*
X1396Y893D01*
X1766Y893D02*
X1773Y893D01*
X0Y892D02*
X7Y892D01*
X1068Y892D02*
X1078Y892D01*
X1388Y892D02*
X1396Y892D01*
X1766Y892D02*
X1773Y892D01*
X0Y891D02*
X7Y891D01*
X1067Y891D02*
X1077Y891D01*
X1389Y891D02*
X1395Y891D01*
X1766Y891D02*
X1773Y891D01*
X0Y890D02*
X7Y890D01*
X1068Y890D02*
X1077Y890D01*
X1390Y890D02*
X1395Y890D01*
X1766Y890D02*
X1773Y890D01*
X0Y889D02*
X7Y889D01*
X1068Y889D02*
X1076Y889D01*
X1391Y889D02*
X1394Y889D01*
X1766Y889D02*
X1773Y889D01*
X0Y888D02*
X7Y888D01*
X1069Y888D02*
X1075Y888D01*
X1391Y888D02*
X1394Y888D01*
X1766Y888D02*
X1773Y888D01*
X0Y887D02*
X7Y887D01*
X1069Y887D02*
X1074Y887D01*
X1392Y887D02*
X1393Y887D01*
X1766Y887D02*
X1773Y887D01*
X0Y886D02*
X7Y886D01*
X1070Y886D02*
X1074Y886D01*
X1393Y886D02*
X1393Y886D01*
X1766Y886D02*
X1773Y886D01*
X0Y885D02*
X7Y885D01*
X1070Y885D02*
X1073Y885D01*
X1766Y885D02*
X1773Y885D01*
X0Y884D02*
X7Y884D01*
X1071Y884D02*
X1072Y884D01*
X1766Y884D02*
X1773Y884D01*
X0Y883D02*
X7Y883D01*
X1071Y883D02*
X1072Y883D01*
X1766Y883D02*
X1773Y883D01*
X0Y882D02*
X7Y882D01*
X1071Y882D02*
X1071Y882D01*
X1766Y882D02*
X1773Y882D01*
X0Y881D02*
X7Y881D01*
X1766Y881D02*
X1773Y881D01*
X0Y880D02*
X7Y880D01*
X1766Y880D02*
X1773Y880D01*
X0Y879D02*
X7Y879D01*
X1766Y879D02*
X1773Y879D01*
X0Y878D02*
X7Y878D01*
X1766Y878D02*
X1773Y878D01*
X0Y877D02*
X7Y877D01*
X1766Y877D02*
X1773Y877D01*
X0Y876D02*
X7Y876D01*
X1766Y876D02*
X1773Y876D01*
X0Y875D02*
X7Y875D01*
X1766Y875D02*
X1773Y875D01*
X0Y874D02*
X7Y874D01*
X1766Y874D02*
X1773Y874D01*
X0Y873D02*
X7Y873D01*
X1766Y873D02*
X1773Y873D01*
X0Y872D02*
X7Y872D01*
X1766Y872D02*
X1773Y872D01*
X0Y871D02*
X7Y871D01*
X1766Y871D02*
X1773Y871D01*
X0Y870D02*
X7Y870D01*
X1766Y870D02*
X1773Y870D01*
X0Y869D02*
X7Y869D01*
X1766Y869D02*
X1773Y869D01*
X0Y868D02*
X7Y868D01*
X1766Y868D02*
X1773Y868D01*
X0Y867D02*
X7Y867D01*
X1766Y867D02*
X1773Y867D01*
X0Y866D02*
X7Y866D01*
X1766Y866D02*
X1773Y866D01*
X0Y865D02*
X7Y865D01*
X1766Y865D02*
X1773Y865D01*
X0Y864D02*
X7Y864D01*
X1766Y864D02*
X1773Y864D01*
X0Y863D02*
X7Y863D01*
X1766Y863D02*
X1773Y863D01*
X0Y862D02*
X7Y862D01*
X1766Y862D02*
X1773Y862D01*
X0Y861D02*
X7Y861D01*
X1766Y861D02*
X1773Y861D01*
X0Y860D02*
X7Y860D01*
X1766Y860D02*
X1773Y860D01*
X0Y859D02*
X7Y859D01*
X1766Y859D02*
X1773Y859D01*
X0Y858D02*
X7Y858D01*
X1766Y858D02*
X1773Y858D01*
X0Y857D02*
X7Y857D01*
X1766Y857D02*
X1773Y857D01*
X0Y856D02*
X7Y856D01*
X1766Y856D02*
X1773Y856D01*
X0Y855D02*
X7Y855D01*
X1766Y855D02*
X1773Y855D01*
X0Y854D02*
X7Y854D01*
X1766Y854D02*
X1773Y854D01*
X0Y853D02*
X7Y853D01*
X1766Y853D02*
X1773Y853D01*
X0Y852D02*
X7Y852D01*
X1766Y852D02*
X1773Y852D01*
X0Y851D02*
X7Y851D01*
X1766Y851D02*
X1773Y851D01*
X0Y850D02*
X7Y850D01*
X1766Y850D02*
X1773Y850D01*
X0Y849D02*
X7Y849D01*
X1766Y849D02*
X1773Y849D01*
X0Y848D02*
X7Y848D01*
X1766Y848D02*
X1773Y848D01*
X0Y847D02*
X7Y847D01*
X1766Y847D02*
X1773Y847D01*
X0Y846D02*
X7Y846D01*
X1766Y846D02*
X1773Y846D01*
X0Y845D02*
X7Y845D01*
X1766Y845D02*
X1773Y845D01*
X0Y844D02*
X7Y844D01*
X1766Y844D02*
X1773Y844D01*
X0Y843D02*
X7Y843D01*
X1766Y843D02*
X1773Y843D01*
X0Y842D02*
X7Y842D01*
X1766Y842D02*
X1773Y842D01*
X0Y841D02*
X7Y841D01*
X1766Y841D02*
X1773Y841D01*
X0Y840D02*
X7Y840D01*
X1766Y840D02*
X1773Y840D01*
X0Y839D02*
X7Y839D01*
X1766Y839D02*
X1773Y839D01*
X0Y838D02*
X7Y838D01*
X1766Y838D02*
X1773Y838D01*
X0Y837D02*
X7Y837D01*
X1048Y837D02*
X1049Y837D01*
X1766Y837D02*
X1773Y837D01*
X0Y836D02*
X7Y836D01*
X1045Y836D02*
X1048Y836D01*
X1766Y836D02*
X1773Y836D01*
X0Y835D02*
X7Y835D01*
X1042Y835D02*
X1048Y835D01*
X1766Y835D02*
X1773Y835D01*
X0Y834D02*
X7Y834D01*
X1038Y834D02*
X1048Y834D01*
X1766Y834D02*
X1773Y834D01*
X0Y833D02*
X7Y833D01*
X1038Y833D02*
X1047Y833D01*
X1419Y833D02*
X1419Y833D01*
X1766Y833D02*
X1773Y833D01*
X0Y832D02*
X7Y832D01*
X1038Y832D02*
X1047Y832D01*
X1420Y832D02*
X1422Y832D01*
X1766Y832D02*
X1773Y832D01*
X0Y831D02*
X7Y831D01*
X1037Y831D02*
X1047Y831D01*
X1420Y831D02*
X1425Y831D01*
X1766Y831D02*
X1773Y831D01*
X0Y830D02*
X7Y830D01*
X1037Y830D02*
X1046Y830D01*
X1420Y830D02*
X1429Y830D01*
X1766Y830D02*
X1773Y830D01*
X0Y829D02*
X7Y829D01*
X1037Y829D02*
X1046Y829D01*
X1421Y829D02*
X1430Y829D01*
X1766Y829D02*
X1773Y829D01*
X0Y828D02*
X7Y828D01*
X1037Y828D02*
X1046Y828D01*
X1421Y828D02*
X1430Y828D01*
X1766Y828D02*
X1773Y828D01*
X0Y827D02*
X7Y827D01*
X1036Y827D02*
X1045Y827D01*
X1421Y827D02*
X1430Y827D01*
X1766Y827D02*
X1773Y827D01*
X0Y826D02*
X7Y826D01*
X1036Y826D02*
X1045Y826D01*
X1421Y826D02*
X1431Y826D01*
X1766Y826D02*
X1773Y826D01*
X0Y825D02*
X7Y825D01*
X1036Y825D02*
X1045Y825D01*
X1422Y825D02*
X1431Y825D01*
X1766Y825D02*
X1773Y825D01*
X0Y824D02*
X7Y824D01*
X1035Y824D02*
X1045Y824D01*
X1422Y824D02*
X1431Y824D01*
X1766Y824D02*
X1773Y824D01*
X0Y823D02*
X7Y823D01*
X1035Y823D02*
X1044Y823D01*
X1422Y823D02*
X1431Y823D01*
X1766Y823D02*
X1773Y823D01*
X0Y822D02*
X7Y822D01*
X1035Y822D02*
X1044Y822D01*
X1422Y822D02*
X1432Y822D01*
X1766Y822D02*
X1773Y822D01*
X0Y821D02*
X7Y821D01*
X1035Y821D02*
X1044Y821D01*
X1423Y821D02*
X1432Y821D01*
X1766Y821D02*
X1773Y821D01*
X0Y820D02*
X7Y820D01*
X1034Y820D02*
X1044Y820D01*
X1423Y820D02*
X1432Y820D01*
X1766Y820D02*
X1773Y820D01*
X0Y819D02*
X7Y819D01*
X1034Y819D02*
X1043Y819D01*
X1423Y819D02*
X1432Y819D01*
X1766Y819D02*
X1773Y819D01*
X0Y818D02*
X7Y818D01*
X1034Y818D02*
X1043Y818D01*
X1423Y818D02*
X1433Y818D01*
X1766Y818D02*
X1773Y818D01*
X0Y817D02*
X7Y817D01*
X1034Y817D02*
X1043Y817D01*
X1424Y817D02*
X1433Y817D01*
X1766Y817D02*
X1773Y817D01*
X0Y816D02*
X7Y816D01*
X1033Y816D02*
X1043Y816D01*
X1424Y816D02*
X1433Y816D01*
X1766Y816D02*
X1773Y816D01*
X0Y815D02*
X7Y815D01*
X1033Y815D02*
X1042Y815D01*
X1424Y815D02*
X1433Y815D01*
X1766Y815D02*
X1773Y815D01*
X0Y814D02*
X7Y814D01*
X1033Y814D02*
X1042Y814D01*
X1424Y814D02*
X1433Y814D01*
X1766Y814D02*
X1773Y814D01*
X0Y813D02*
X7Y813D01*
X1033Y813D02*
X1042Y813D01*
X1425Y813D02*
X1434Y813D01*
X1766Y813D02*
X1773Y813D01*
X0Y812D02*
X7Y812D01*
X1033Y812D02*
X1042Y812D01*
X1425Y812D02*
X1434Y812D01*
X1766Y812D02*
X1773Y812D01*
X0Y811D02*
X7Y811D01*
X1032Y811D02*
X1042Y811D01*
X1425Y811D02*
X1434Y811D01*
X1766Y811D02*
X1773Y811D01*
X0Y810D02*
X7Y810D01*
X1032Y810D02*
X1041Y810D01*
X1425Y810D02*
X1434Y810D01*
X1766Y810D02*
X1773Y810D01*
X0Y809D02*
X7Y809D01*
X1032Y809D02*
X1041Y809D01*
X1425Y809D02*
X1434Y809D01*
X1766Y809D02*
X1773Y809D01*
X0Y808D02*
X7Y808D01*
X1032Y808D02*
X1041Y808D01*
X1425Y808D02*
X1435Y808D01*
X1766Y808D02*
X1773Y808D01*
X0Y807D02*
X7Y807D01*
X1032Y807D02*
X1041Y807D01*
X1426Y807D02*
X1435Y807D01*
X1766Y807D02*
X1773Y807D01*
X0Y806D02*
X7Y806D01*
X1032Y806D02*
X1041Y806D01*
X1426Y806D02*
X1435Y806D01*
X1766Y806D02*
X1773Y806D01*
X0Y805D02*
X7Y805D01*
X1031Y805D02*
X1040Y805D01*
X1426Y805D02*
X1435Y805D01*
X1766Y805D02*
X1773Y805D01*
X0Y804D02*
X7Y804D01*
X1031Y804D02*
X1040Y804D01*
X1426Y804D02*
X1435Y804D01*
X1766Y804D02*
X1773Y804D01*
X0Y803D02*
X7Y803D01*
X1031Y803D02*
X1040Y803D01*
X1426Y803D02*
X1435Y803D01*
X1766Y803D02*
X1773Y803D01*
X0Y802D02*
X7Y802D01*
X1031Y802D02*
X1040Y802D01*
X1427Y802D02*
X1436Y802D01*
X1766Y802D02*
X1773Y802D01*
X0Y801D02*
X7Y801D01*
X1031Y801D02*
X1040Y801D01*
X1427Y801D02*
X1436Y801D01*
X1766Y801D02*
X1773Y801D01*
X0Y800D02*
X7Y800D01*
X1031Y800D02*
X1040Y800D01*
X1427Y800D02*
X1436Y800D01*
X1766Y800D02*
X1773Y800D01*
X0Y799D02*
X7Y799D01*
X1031Y799D02*
X1040Y799D01*
X1427Y799D02*
X1436Y799D01*
X1766Y799D02*
X1773Y799D01*
X0Y798D02*
X7Y798D01*
X1030Y798D02*
X1039Y798D01*
X1427Y798D02*
X1436Y798D01*
X1766Y798D02*
X1773Y798D01*
X0Y797D02*
X7Y797D01*
X1030Y797D02*
X1039Y797D01*
X1427Y797D02*
X1436Y797D01*
X1766Y797D02*
X1773Y797D01*
X0Y796D02*
X7Y796D01*
X1030Y796D02*
X1039Y796D01*
X1427Y796D02*
X1436Y796D01*
X1766Y796D02*
X1773Y796D01*
X0Y795D02*
X7Y795D01*
X1030Y795D02*
X1039Y795D01*
X1427Y795D02*
X1436Y795D01*
X1766Y795D02*
X1773Y795D01*
X0Y794D02*
X7Y794D01*
X1030Y794D02*
X1039Y794D01*
X1428Y794D02*
X1437Y794D01*
X1766Y794D02*
X1773Y794D01*
X0Y793D02*
X7Y793D01*
X1030Y793D02*
X1039Y793D01*
X1428Y793D02*
X1437Y793D01*
X1766Y793D02*
X1773Y793D01*
X0Y792D02*
X7Y792D01*
X1030Y792D02*
X1039Y792D01*
X1428Y792D02*
X1437Y792D01*
X1766Y792D02*
X1773Y792D01*
X0Y791D02*
X7Y791D01*
X1030Y791D02*
X1039Y791D01*
X1428Y791D02*
X1437Y791D01*
X1766Y791D02*
X1773Y791D01*
X0Y790D02*
X7Y790D01*
X1030Y790D02*
X1039Y790D01*
X1428Y790D02*
X1437Y790D01*
X1766Y790D02*
X1773Y790D01*
X0Y789D02*
X7Y789D01*
X1030Y789D02*
X1039Y789D01*
X1428Y789D02*
X1437Y789D01*
X1766Y789D02*
X1773Y789D01*
X0Y788D02*
X7Y788D01*
X1029Y788D02*
X1038Y788D01*
X1428Y788D02*
X1437Y788D01*
X1766Y788D02*
X1773Y788D01*
X0Y787D02*
X7Y787D01*
X1029Y787D02*
X1038Y787D01*
X1428Y787D02*
X1437Y787D01*
X1766Y787D02*
X1773Y787D01*
X0Y786D02*
X7Y786D01*
X1029Y786D02*
X1038Y786D01*
X1428Y786D02*
X1437Y786D01*
X1766Y786D02*
X1773Y786D01*
X0Y785D02*
X7Y785D01*
X1029Y785D02*
X1038Y785D01*
X1428Y785D02*
X1437Y785D01*
X1766Y785D02*
X1773Y785D01*
X0Y784D02*
X7Y784D01*
X1029Y784D02*
X1038Y784D01*
X1428Y784D02*
X1437Y784D01*
X1766Y784D02*
X1773Y784D01*
X0Y783D02*
X7Y783D01*
X1029Y783D02*
X1038Y783D01*
X1428Y783D02*
X1437Y783D01*
X1766Y783D02*
X1773Y783D01*
X0Y782D02*
X7Y782D01*
X1029Y782D02*
X1038Y782D01*
X1428Y782D02*
X1437Y782D01*
X1766Y782D02*
X1773Y782D01*
X0Y781D02*
X7Y781D01*
X1029Y781D02*
X1038Y781D01*
X1428Y781D02*
X1437Y781D01*
X1766Y781D02*
X1773Y781D01*
X0Y780D02*
X7Y780D01*
X1029Y780D02*
X1038Y780D01*
X1429Y780D02*
X1438Y780D01*
X1766Y780D02*
X1773Y780D01*
X0Y779D02*
X7Y779D01*
X1029Y779D02*
X1038Y779D01*
X1429Y779D02*
X1438Y779D01*
X1766Y779D02*
X1773Y779D01*
X0Y778D02*
X7Y778D01*
X1029Y778D02*
X1038Y778D01*
X1429Y778D02*
X1438Y778D01*
X1766Y778D02*
X1773Y778D01*
X0Y777D02*
X7Y777D01*
X1029Y777D02*
X1038Y777D01*
X1429Y777D02*
X1438Y777D01*
X1766Y777D02*
X1773Y777D01*
X0Y776D02*
X7Y776D01*
X1029Y776D02*
X1038Y776D01*
X1429Y776D02*
X1438Y776D01*
X1766Y776D02*
X1773Y776D01*
X0Y775D02*
X7Y775D01*
X1029Y775D02*
X1038Y775D01*
X1429Y775D02*
X1438Y775D01*
X1766Y775D02*
X1773Y775D01*
X0Y774D02*
X7Y774D01*
X1029Y774D02*
X1038Y774D01*
X1429Y774D02*
X1438Y774D01*
X1766Y774D02*
X1773Y774D01*
X0Y773D02*
X7Y773D01*
X1029Y773D02*
X1038Y773D01*
X1429Y773D02*
X1438Y773D01*
X1766Y773D02*
X1773Y773D01*
X0Y772D02*
X7Y772D01*
X1029Y772D02*
X1038Y772D01*
X1429Y772D02*
X1438Y772D01*
X1766Y772D02*
X1773Y772D01*
X0Y771D02*
X7Y771D01*
X1029Y771D02*
X1038Y771D01*
X1429Y771D02*
X1438Y771D01*
X1766Y771D02*
X1773Y771D01*
X0Y770D02*
X7Y770D01*
X1029Y770D02*
X1038Y770D01*
X1429Y770D02*
X1438Y770D01*
X1766Y770D02*
X1773Y770D01*
X0Y769D02*
X7Y769D01*
X1029Y769D02*
X1038Y769D01*
X1429Y769D02*
X1438Y769D01*
X1766Y769D02*
X1773Y769D01*
X0Y768D02*
X7Y768D01*
X1029Y768D02*
X1038Y768D01*
X1429Y768D02*
X1438Y768D01*
X1766Y768D02*
X1773Y768D01*
X0Y767D02*
X7Y767D01*
X1029Y767D02*
X1038Y767D01*
X1429Y767D02*
X1438Y767D01*
X1766Y767D02*
X1773Y767D01*
X0Y766D02*
X7Y766D01*
X1029Y766D02*
X1038Y766D01*
X1429Y766D02*
X1438Y766D01*
X1766Y766D02*
X1773Y766D01*
X0Y765D02*
X7Y765D01*
X1029Y765D02*
X1038Y765D01*
X1429Y765D02*
X1437Y765D01*
X1766Y765D02*
X1773Y765D01*
X0Y764D02*
X7Y764D01*
X1029Y764D02*
X1038Y764D01*
X1428Y764D02*
X1437Y764D01*
X1766Y764D02*
X1773Y764D01*
X0Y763D02*
X7Y763D01*
X1029Y763D02*
X1038Y763D01*
X1428Y763D02*
X1437Y763D01*
X1766Y763D02*
X1773Y763D01*
X0Y762D02*
X7Y762D01*
X1029Y762D02*
X1038Y762D01*
X1428Y762D02*
X1437Y762D01*
X1766Y762D02*
X1773Y762D01*
X0Y761D02*
X7Y761D01*
X1029Y761D02*
X1038Y761D01*
X1428Y761D02*
X1437Y761D01*
X1766Y761D02*
X1773Y761D01*
X0Y760D02*
X7Y760D01*
X1029Y760D02*
X1038Y760D01*
X1428Y760D02*
X1437Y760D01*
X1766Y760D02*
X1773Y760D01*
X0Y759D02*
X7Y759D01*
X1029Y759D02*
X1038Y759D01*
X1428Y759D02*
X1437Y759D01*
X1766Y759D02*
X1773Y759D01*
X0Y758D02*
X7Y758D01*
X1029Y758D02*
X1038Y758D01*
X1428Y758D02*
X1437Y758D01*
X1766Y758D02*
X1773Y758D01*
X0Y757D02*
X7Y757D01*
X1029Y757D02*
X1038Y757D01*
X1428Y757D02*
X1437Y757D01*
X1766Y757D02*
X1773Y757D01*
X0Y756D02*
X7Y756D01*
X1030Y756D02*
X1039Y756D01*
X1428Y756D02*
X1437Y756D01*
X1766Y756D02*
X1773Y756D01*
X0Y755D02*
X7Y755D01*
X1030Y755D02*
X1039Y755D01*
X1428Y755D02*
X1437Y755D01*
X1766Y755D02*
X1773Y755D01*
X0Y754D02*
X7Y754D01*
X1030Y754D02*
X1039Y754D01*
X1428Y754D02*
X1437Y754D01*
X1766Y754D02*
X1773Y754D01*
X0Y753D02*
X7Y753D01*
X1030Y753D02*
X1039Y753D01*
X1428Y753D02*
X1437Y753D01*
X1766Y753D02*
X1773Y753D01*
X0Y752D02*
X7Y752D01*
X1030Y752D02*
X1039Y752D01*
X1428Y752D02*
X1437Y752D01*
X1766Y752D02*
X1773Y752D01*
X0Y751D02*
X7Y751D01*
X1030Y751D02*
X1039Y751D01*
X1427Y751D02*
X1437Y751D01*
X1766Y751D02*
X1773Y751D01*
X0Y750D02*
X7Y750D01*
X1030Y750D02*
X1039Y750D01*
X1427Y750D02*
X1436Y750D01*
X1766Y750D02*
X1773Y750D01*
X0Y749D02*
X7Y749D01*
X1030Y749D02*
X1039Y749D01*
X1427Y749D02*
X1436Y749D01*
X1766Y749D02*
X1773Y749D01*
X0Y748D02*
X7Y748D01*
X1030Y748D02*
X1039Y748D01*
X1427Y748D02*
X1436Y748D01*
X1766Y748D02*
X1773Y748D01*
X0Y747D02*
X7Y747D01*
X1030Y747D02*
X1039Y747D01*
X1427Y747D02*
X1436Y747D01*
X1766Y747D02*
X1773Y747D01*
X0Y746D02*
X7Y746D01*
X1031Y746D02*
X1040Y746D01*
X1427Y746D02*
X1436Y746D01*
X1766Y746D02*
X1773Y746D01*
X0Y745D02*
X7Y745D01*
X1031Y745D02*
X1040Y745D01*
X1427Y745D02*
X1436Y745D01*
X1766Y745D02*
X1773Y745D01*
X0Y744D02*
X7Y744D01*
X1031Y744D02*
X1040Y744D01*
X1427Y744D02*
X1436Y744D01*
X1766Y744D02*
X1773Y744D01*
X0Y743D02*
X7Y743D01*
X1031Y743D02*
X1040Y743D01*
X1426Y743D02*
X1435Y743D01*
X1766Y743D02*
X1773Y743D01*
X0Y742D02*
X7Y742D01*
X1031Y742D02*
X1040Y742D01*
X1426Y742D02*
X1435Y742D01*
X1766Y742D02*
X1773Y742D01*
X0Y741D02*
X7Y741D01*
X1031Y741D02*
X1040Y741D01*
X1426Y741D02*
X1435Y741D01*
X1766Y741D02*
X1773Y741D01*
X0Y740D02*
X7Y740D01*
X1031Y740D02*
X1041Y740D01*
X1426Y740D02*
X1435Y740D01*
X1766Y740D02*
X1773Y740D01*
X0Y739D02*
X7Y739D01*
X1032Y739D02*
X1041Y739D01*
X1426Y739D02*
X1435Y739D01*
X1766Y739D02*
X1773Y739D01*
X0Y738D02*
X7Y738D01*
X1032Y738D02*
X1041Y738D01*
X1426Y738D02*
X1435Y738D01*
X1766Y738D02*
X1773Y738D01*
X0Y737D02*
X7Y737D01*
X1032Y737D02*
X1041Y737D01*
X1425Y737D02*
X1434Y737D01*
X1766Y737D02*
X1773Y737D01*
X0Y736D02*
X7Y736D01*
X1032Y736D02*
X1041Y736D01*
X1425Y736D02*
X1434Y736D01*
X1766Y736D02*
X1773Y736D01*
X0Y735D02*
X7Y735D01*
X1032Y735D02*
X1041Y735D01*
X1425Y735D02*
X1434Y735D01*
X1766Y735D02*
X1773Y735D01*
X0Y734D02*
X7Y734D01*
X1033Y734D02*
X1042Y734D01*
X1425Y734D02*
X1434Y734D01*
X1766Y734D02*
X1773Y734D01*
X0Y733D02*
X7Y733D01*
X1033Y733D02*
X1042Y733D01*
X1425Y733D02*
X1434Y733D01*
X1766Y733D02*
X1773Y733D01*
X0Y732D02*
X7Y732D01*
X1033Y732D02*
X1042Y732D01*
X1424Y732D02*
X1434Y732D01*
X1766Y732D02*
X1773Y732D01*
X0Y731D02*
X7Y731D01*
X1033Y731D02*
X1042Y731D01*
X1424Y731D02*
X1433Y731D01*
X1766Y731D02*
X1773Y731D01*
X0Y730D02*
X7Y730D01*
X1033Y730D02*
X1042Y730D01*
X1424Y730D02*
X1433Y730D01*
X1766Y730D02*
X1773Y730D01*
X0Y729D02*
X7Y729D01*
X1034Y729D02*
X1043Y729D01*
X1424Y729D02*
X1433Y729D01*
X1766Y729D02*
X1773Y729D01*
X0Y728D02*
X7Y728D01*
X1034Y728D02*
X1043Y728D01*
X1424Y728D02*
X1433Y728D01*
X1766Y728D02*
X1773Y728D01*
X0Y727D02*
X7Y727D01*
X1034Y727D02*
X1043Y727D01*
X1423Y727D02*
X1432Y727D01*
X1766Y727D02*
X1773Y727D01*
X0Y726D02*
X7Y726D01*
X1034Y726D02*
X1043Y726D01*
X1423Y726D02*
X1432Y726D01*
X1766Y726D02*
X1773Y726D01*
X0Y725D02*
X7Y725D01*
X1035Y725D02*
X1044Y725D01*
X1423Y725D02*
X1432Y725D01*
X1766Y725D02*
X1773Y725D01*
X0Y724D02*
X7Y724D01*
X1035Y724D02*
X1044Y724D01*
X1423Y724D02*
X1432Y724D01*
X1766Y724D02*
X1773Y724D01*
X0Y723D02*
X7Y723D01*
X1035Y723D02*
X1044Y723D01*
X1422Y723D02*
X1432Y723D01*
X1766Y723D02*
X1773Y723D01*
X0Y722D02*
X7Y722D01*
X1035Y722D02*
X1044Y722D01*
X1422Y722D02*
X1431Y722D01*
X1766Y722D02*
X1773Y722D01*
X0Y721D02*
X7Y721D01*
X1035Y721D02*
X1045Y721D01*
X1422Y721D02*
X1431Y721D01*
X1766Y721D02*
X1773Y721D01*
X0Y720D02*
X7Y720D01*
X1036Y720D02*
X1045Y720D01*
X1422Y720D02*
X1431Y720D01*
X1766Y720D02*
X1773Y720D01*
X0Y719D02*
X7Y719D01*
X1036Y719D02*
X1045Y719D01*
X1421Y719D02*
X1430Y719D01*
X1766Y719D02*
X1773Y719D01*
X0Y718D02*
X7Y718D01*
X1036Y718D02*
X1045Y718D01*
X1421Y718D02*
X1430Y718D01*
X1766Y718D02*
X1773Y718D01*
X0Y717D02*
X7Y717D01*
X1037Y717D02*
X1046Y717D01*
X1421Y717D02*
X1430Y717D01*
X1766Y717D02*
X1773Y717D01*
X0Y716D02*
X7Y716D01*
X1037Y716D02*
X1046Y716D01*
X1420Y716D02*
X1430Y716D01*
X1766Y716D02*
X1773Y716D01*
X0Y715D02*
X7Y715D01*
X1037Y715D02*
X1046Y715D01*
X1766Y715D02*
X1773Y715D01*
X0Y714D02*
X7Y714D01*
X1037Y714D02*
X1047Y714D01*
X1766Y714D02*
X1773Y714D01*
X0Y713D02*
X7Y713D01*
X1038Y713D02*
X1047Y713D01*
X1766Y713D02*
X1773Y713D01*
X0Y712D02*
X7Y712D01*
X1038Y712D02*
X1047Y712D01*
X1766Y712D02*
X1773Y712D01*
X0Y711D02*
X7Y711D01*
X1038Y711D02*
X1048Y711D01*
X1766Y711D02*
X1773Y711D01*
X0Y710D02*
X7Y710D01*
X1039Y710D02*
X1048Y710D01*
X1766Y710D02*
X1773Y710D01*
X0Y709D02*
X7Y709D01*
X1039Y709D02*
X1048Y709D01*
X1766Y709D02*
X1773Y709D01*
X0Y708D02*
X7Y708D01*
X1039Y708D02*
X1049Y708D01*
X1766Y708D02*
X1773Y708D01*
X0Y707D02*
X7Y707D01*
X1040Y707D02*
X1049Y707D01*
X1766Y707D02*
X1773Y707D01*
X0Y706D02*
X7Y706D01*
X1040Y706D02*
X1049Y706D01*
X1766Y706D02*
X1773Y706D01*
X0Y705D02*
X7Y705D01*
X1040Y705D02*
X1050Y705D01*
X1766Y705D02*
X1773Y705D01*
X0Y704D02*
X7Y704D01*
X1041Y704D02*
X1050Y704D01*
X1766Y704D02*
X1773Y704D01*
X0Y703D02*
X7Y703D01*
X1041Y703D02*
X1050Y703D01*
X1137Y703D02*
X1139Y703D01*
X1327Y703D02*
X1329Y703D01*
X1766Y703D02*
X1773Y703D01*
X0Y702D02*
X7Y702D01*
X1041Y702D02*
X1051Y702D01*
X1135Y702D02*
X1141Y702D01*
X1325Y702D02*
X1331Y702D01*
X1766Y702D02*
X1773Y702D01*
X0Y701D02*
X7Y701D01*
X1042Y701D02*
X1051Y701D01*
X1134Y701D02*
X1142Y701D01*
X1324Y701D02*
X1332Y701D01*
X1766Y701D02*
X1773Y701D01*
X0Y700D02*
X7Y700D01*
X1042Y700D02*
X1052Y700D01*
X1134Y700D02*
X1143Y700D01*
X1324Y700D02*
X1333Y700D01*
X1766Y700D02*
X1773Y700D01*
X0Y699D02*
X7Y699D01*
X1043Y699D02*
X1052Y699D01*
X1133Y699D02*
X1143Y699D01*
X1323Y699D02*
X1333Y699D01*
X1766Y699D02*
X1773Y699D01*
X0Y698D02*
X7Y698D01*
X1043Y698D02*
X1052Y698D01*
X1133Y698D02*
X1143Y698D01*
X1323Y698D02*
X1333Y698D01*
X1766Y698D02*
X1773Y698D01*
X0Y697D02*
X7Y697D01*
X1043Y697D02*
X1053Y697D01*
X1133Y697D02*
X1143Y697D01*
X1323Y697D02*
X1333Y697D01*
X1766Y697D02*
X1773Y697D01*
X0Y696D02*
X7Y696D01*
X1044Y696D02*
X1053Y696D01*
X1133Y696D02*
X1143Y696D01*
X1323Y696D02*
X1333Y696D01*
X1766Y696D02*
X1773Y696D01*
X0Y695D02*
X7Y695D01*
X1044Y695D02*
X1054Y695D01*
X1133Y695D02*
X1143Y695D01*
X1323Y695D02*
X1333Y695D01*
X1766Y695D02*
X1773Y695D01*
X0Y694D02*
X7Y694D01*
X1045Y694D02*
X1054Y694D01*
X1133Y694D02*
X1143Y694D01*
X1323Y694D02*
X1333Y694D01*
X1766Y694D02*
X1773Y694D01*
X0Y693D02*
X7Y693D01*
X1045Y693D02*
X1055Y693D01*
X1133Y693D02*
X1143Y693D01*
X1323Y693D02*
X1333Y693D01*
X1766Y693D02*
X1773Y693D01*
X0Y692D02*
X7Y692D01*
X1046Y692D02*
X1055Y692D01*
X1133Y692D02*
X1143Y692D01*
X1323Y692D02*
X1333Y692D01*
X1766Y692D02*
X1773Y692D01*
X0Y691D02*
X7Y691D01*
X1046Y691D02*
X1055Y691D01*
X1133Y691D02*
X1143Y691D01*
X1323Y691D02*
X1333Y691D01*
X1766Y691D02*
X1773Y691D01*
X0Y690D02*
X7Y690D01*
X1046Y690D02*
X1056Y690D01*
X1133Y690D02*
X1143Y690D01*
X1323Y690D02*
X1333Y690D01*
X1766Y690D02*
X1773Y690D01*
X0Y689D02*
X7Y689D01*
X1047Y689D02*
X1056Y689D01*
X1133Y689D02*
X1143Y689D01*
X1323Y689D02*
X1333Y689D01*
X1766Y689D02*
X1773Y689D01*
X0Y688D02*
X7Y688D01*
X1047Y688D02*
X1057Y688D01*
X1133Y688D02*
X1143Y688D01*
X1323Y688D02*
X1333Y688D01*
X1766Y688D02*
X1773Y688D01*
X0Y687D02*
X7Y687D01*
X1048Y687D02*
X1057Y687D01*
X1133Y687D02*
X1143Y687D01*
X1323Y687D02*
X1333Y687D01*
X1766Y687D02*
X1773Y687D01*
X0Y686D02*
X7Y686D01*
X1048Y686D02*
X1058Y686D01*
X1133Y686D02*
X1143Y686D01*
X1323Y686D02*
X1333Y686D01*
X1766Y686D02*
X1773Y686D01*
X0Y685D02*
X7Y685D01*
X1049Y685D02*
X1058Y685D01*
X1133Y685D02*
X1143Y685D01*
X1323Y685D02*
X1333Y685D01*
X1766Y685D02*
X1773Y685D01*
X0Y684D02*
X7Y684D01*
X1049Y684D02*
X1059Y684D01*
X1133Y684D02*
X1143Y684D01*
X1323Y684D02*
X1333Y684D01*
X1766Y684D02*
X1773Y684D01*
X0Y683D02*
X7Y683D01*
X1050Y683D02*
X1059Y683D01*
X1133Y683D02*
X1143Y683D01*
X1323Y683D02*
X1333Y683D01*
X1766Y683D02*
X1773Y683D01*
X0Y682D02*
X7Y682D01*
X1050Y682D02*
X1060Y682D01*
X1133Y682D02*
X1143Y682D01*
X1323Y682D02*
X1333Y682D01*
X1766Y682D02*
X1773Y682D01*
X0Y681D02*
X7Y681D01*
X1051Y681D02*
X1060Y681D01*
X1133Y681D02*
X1143Y681D01*
X1323Y681D02*
X1333Y681D01*
X1766Y681D02*
X1773Y681D01*
X0Y680D02*
X7Y680D01*
X1051Y680D02*
X1061Y680D01*
X1133Y680D02*
X1143Y680D01*
X1323Y680D02*
X1333Y680D01*
X1766Y680D02*
X1773Y680D01*
X0Y679D02*
X7Y679D01*
X1052Y679D02*
X1061Y679D01*
X1133Y679D02*
X1143Y679D01*
X1323Y679D02*
X1333Y679D01*
X1766Y679D02*
X1773Y679D01*
X0Y678D02*
X7Y678D01*
X1052Y678D02*
X1062Y678D01*
X1133Y678D02*
X1143Y678D01*
X1323Y678D02*
X1333Y678D01*
X1766Y678D02*
X1773Y678D01*
X0Y677D02*
X7Y677D01*
X1053Y677D02*
X1063Y677D01*
X1133Y677D02*
X1143Y677D01*
X1323Y677D02*
X1333Y677D01*
X1517Y677D02*
X1549Y677D01*
X1766Y677D02*
X1773Y677D01*
X0Y676D02*
X7Y676D01*
X1053Y676D02*
X1063Y676D01*
X1133Y676D02*
X1143Y676D01*
X1323Y676D02*
X1333Y676D01*
X1508Y676D02*
X1559Y676D01*
X1766Y676D02*
X1773Y676D01*
X0Y675D02*
X7Y675D01*
X1054Y675D02*
X1064Y675D01*
X1133Y675D02*
X1143Y675D01*
X1323Y675D02*
X1333Y675D01*
X1501Y675D02*
X1566Y675D01*
X1766Y675D02*
X1773Y675D01*
X0Y674D02*
X7Y674D01*
X1054Y674D02*
X1064Y674D01*
X1133Y674D02*
X1143Y674D01*
X1323Y674D02*
X1333Y674D01*
X1495Y674D02*
X1571Y674D01*
X1766Y674D02*
X1773Y674D01*
X0Y673D02*
X7Y673D01*
X1055Y673D02*
X1065Y673D01*
X1133Y673D02*
X1143Y673D01*
X1323Y673D02*
X1333Y673D01*
X1490Y673D02*
X1576Y673D01*
X1766Y673D02*
X1773Y673D01*
X0Y672D02*
X7Y672D01*
X1056Y672D02*
X1065Y672D01*
X1133Y672D02*
X1143Y672D01*
X1323Y672D02*
X1333Y672D01*
X1486Y672D02*
X1580Y672D01*
X1766Y672D02*
X1773Y672D01*
X0Y671D02*
X7Y671D01*
X1056Y671D02*
X1066Y671D01*
X1133Y671D02*
X1143Y671D01*
X1323Y671D02*
X1333Y671D01*
X1482Y671D02*
X1585Y671D01*
X1766Y671D02*
X1773Y671D01*
X0Y670D02*
X7Y670D01*
X1057Y670D02*
X1067Y670D01*
X1133Y670D02*
X1143Y670D01*
X1323Y670D02*
X1333Y670D01*
X1478Y670D02*
X1588Y670D01*
X1766Y670D02*
X1773Y670D01*
X0Y669D02*
X7Y669D01*
X1057Y669D02*
X1067Y669D01*
X1133Y669D02*
X1143Y669D01*
X1323Y669D02*
X1333Y669D01*
X1476Y669D02*
X1591Y669D01*
X1766Y669D02*
X1773Y669D01*
X0Y668D02*
X7Y668D01*
X1058Y668D02*
X1068Y668D01*
X1133Y668D02*
X1143Y668D01*
X1323Y668D02*
X1333Y668D01*
X1476Y668D02*
X1594Y668D01*
X1766Y668D02*
X1773Y668D01*
X0Y667D02*
X7Y667D01*
X1058Y667D02*
X1069Y667D01*
X1133Y667D02*
X1143Y667D01*
X1323Y667D02*
X1333Y667D01*
X1476Y667D02*
X1516Y667D01*
X1550Y667D02*
X1594Y667D01*
X1766Y667D02*
X1773Y667D01*
X0Y666D02*
X7Y666D01*
X1059Y666D02*
X1069Y666D01*
X1133Y666D02*
X1143Y666D01*
X1323Y666D02*
X1333Y666D01*
X1476Y666D02*
X1507Y666D01*
X1560Y666D02*
X1595Y666D01*
X1766Y666D02*
X1773Y666D01*
X0Y665D02*
X7Y665D01*
X1060Y665D02*
X1070Y665D01*
X1133Y665D02*
X1143Y665D01*
X1323Y665D02*
X1333Y665D01*
X1476Y665D02*
X1500Y665D01*
X1566Y665D02*
X1595Y665D01*
X1766Y665D02*
X1773Y665D01*
X0Y664D02*
X7Y664D01*
X1060Y664D02*
X1071Y664D01*
X1133Y664D02*
X1143Y664D01*
X1323Y664D02*
X1333Y664D01*
X1476Y664D02*
X1494Y664D01*
X1572Y664D02*
X1595Y664D01*
X1766Y664D02*
X1773Y664D01*
X0Y663D02*
X7Y663D01*
X1061Y663D02*
X1071Y663D01*
X1133Y663D02*
X1143Y663D01*
X1323Y663D02*
X1333Y663D01*
X1476Y663D02*
X1490Y663D01*
X1577Y663D02*
X1595Y663D01*
X1766Y663D02*
X1773Y663D01*
X0Y662D02*
X7Y662D01*
X1062Y662D02*
X1072Y662D01*
X1133Y662D02*
X1143Y662D01*
X1323Y662D02*
X1333Y662D01*
X1476Y662D02*
X1485Y662D01*
X1581Y662D02*
X1596Y662D01*
X1766Y662D02*
X1773Y662D01*
X0Y661D02*
X7Y661D01*
X1062Y661D02*
X1073Y661D01*
X1133Y661D02*
X1143Y661D01*
X1323Y661D02*
X1333Y661D01*
X1476Y661D02*
X1481Y661D01*
X1585Y661D02*
X1596Y661D01*
X1766Y661D02*
X1773Y661D01*
X0Y660D02*
X7Y660D01*
X1063Y660D02*
X1073Y660D01*
X1133Y660D02*
X1143Y660D01*
X1323Y660D02*
X1333Y660D01*
X1476Y660D02*
X1478Y660D01*
X1588Y660D02*
X1596Y660D01*
X1766Y660D02*
X1773Y660D01*
X0Y659D02*
X7Y659D01*
X1064Y659D02*
X1074Y659D01*
X1133Y659D02*
X1143Y659D01*
X1323Y659D02*
X1333Y659D01*
X1592Y659D02*
X1597Y659D01*
X1766Y659D02*
X1773Y659D01*
X0Y658D02*
X7Y658D01*
X1064Y658D02*
X1075Y658D01*
X1133Y658D02*
X1143Y658D01*
X1323Y658D02*
X1333Y658D01*
X1595Y658D02*
X1597Y658D01*
X1766Y658D02*
X1773Y658D01*
X0Y657D02*
X7Y657D01*
X1065Y657D02*
X1075Y657D01*
X1133Y657D02*
X1143Y657D01*
X1323Y657D02*
X1333Y657D01*
X1598Y657D02*
X1598Y657D01*
X1766Y657D02*
X1773Y657D01*
X0Y656D02*
X7Y656D01*
X1066Y656D02*
X1076Y656D01*
X1133Y656D02*
X1143Y656D01*
X1323Y656D02*
X1333Y656D01*
X1390Y656D02*
X1390Y656D01*
X1766Y656D02*
X1773Y656D01*
X0Y655D02*
X7Y655D01*
X1066Y655D02*
X1077Y655D01*
X1133Y655D02*
X1143Y655D01*
X1323Y655D02*
X1333Y655D01*
X1390Y655D02*
X1390Y655D01*
X1766Y655D02*
X1773Y655D01*
X0Y654D02*
X7Y654D01*
X1067Y654D02*
X1078Y654D01*
X1133Y654D02*
X1143Y654D01*
X1323Y654D02*
X1333Y654D01*
X1389Y654D02*
X1390Y654D01*
X1766Y654D02*
X1773Y654D01*
X0Y653D02*
X7Y653D01*
X1068Y653D02*
X1078Y653D01*
X1133Y653D02*
X1143Y653D01*
X1323Y653D02*
X1333Y653D01*
X1388Y653D02*
X1390Y653D01*
X1766Y653D02*
X1773Y653D01*
X0Y652D02*
X7Y652D01*
X1069Y652D02*
X1079Y652D01*
X1133Y652D02*
X1143Y652D01*
X1323Y652D02*
X1333Y652D01*
X1387Y652D02*
X1390Y652D01*
X1766Y652D02*
X1773Y652D01*
X0Y651D02*
X7Y651D01*
X1069Y651D02*
X1080Y651D01*
X1133Y651D02*
X1143Y651D01*
X1323Y651D02*
X1333Y651D01*
X1386Y651D02*
X1390Y651D01*
X1766Y651D02*
X1773Y651D01*
X0Y650D02*
X7Y650D01*
X1070Y650D02*
X1081Y650D01*
X1133Y650D02*
X1143Y650D01*
X1323Y650D02*
X1333Y650D01*
X1386Y650D02*
X1390Y650D01*
X1766Y650D02*
X1773Y650D01*
X0Y649D02*
X7Y649D01*
X1071Y649D02*
X1082Y649D01*
X1133Y649D02*
X1143Y649D01*
X1323Y649D02*
X1333Y649D01*
X1385Y649D02*
X1390Y649D01*
X1766Y649D02*
X1773Y649D01*
X0Y648D02*
X7Y648D01*
X1072Y648D02*
X1082Y648D01*
X1133Y648D02*
X1143Y648D01*
X1323Y648D02*
X1333Y648D01*
X1384Y648D02*
X1390Y648D01*
X1766Y648D02*
X1773Y648D01*
X0Y647D02*
X7Y647D01*
X1072Y647D02*
X1083Y647D01*
X1133Y647D02*
X1143Y647D01*
X1323Y647D02*
X1333Y647D01*
X1383Y647D02*
X1390Y647D01*
X1766Y647D02*
X1773Y647D01*
X0Y646D02*
X7Y646D01*
X1073Y646D02*
X1084Y646D01*
X1133Y646D02*
X1143Y646D01*
X1323Y646D02*
X1333Y646D01*
X1382Y646D02*
X1390Y646D01*
X1766Y646D02*
X1773Y646D01*
X0Y645D02*
X7Y645D01*
X1074Y645D02*
X1085Y645D01*
X1134Y645D02*
X1143Y645D01*
X1324Y645D02*
X1333Y645D01*
X1381Y645D02*
X1390Y645D01*
X1766Y645D02*
X1773Y645D01*
X0Y644D02*
X7Y644D01*
X1075Y644D02*
X1086Y644D01*
X1135Y644D02*
X1142Y644D01*
X1325Y644D02*
X1332Y644D01*
X1381Y644D02*
X1390Y644D01*
X1766Y644D02*
X1773Y644D01*
X0Y643D02*
X7Y643D01*
X1076Y643D02*
X1087Y643D01*
X1136Y643D02*
X1141Y643D01*
X1326Y643D02*
X1331Y643D01*
X1380Y643D02*
X1390Y643D01*
X1766Y643D02*
X1773Y643D01*
X0Y642D02*
X7Y642D01*
X1076Y642D02*
X1088Y642D01*
X1379Y642D02*
X1390Y642D01*
X1766Y642D02*
X1773Y642D01*
X0Y641D02*
X7Y641D01*
X1077Y641D02*
X1089Y641D01*
X1378Y641D02*
X1389Y641D01*
X1766Y641D02*
X1773Y641D01*
X0Y640D02*
X7Y640D01*
X1078Y640D02*
X1089Y640D01*
X1377Y640D02*
X1388Y640D01*
X1766Y640D02*
X1773Y640D01*
X0Y639D02*
X7Y639D01*
X1079Y639D02*
X1090Y639D01*
X1376Y639D02*
X1388Y639D01*
X1652Y639D02*
X1652Y639D01*
X1766Y639D02*
X1773Y639D01*
X0Y638D02*
X7Y638D01*
X1080Y638D02*
X1091Y638D01*
X1375Y638D02*
X1387Y638D01*
X1650Y638D02*
X1653Y638D01*
X1766Y638D02*
X1773Y638D01*
X0Y637D02*
X7Y637D01*
X1081Y637D02*
X1092Y637D01*
X1374Y637D02*
X1386Y637D01*
X1648Y637D02*
X1655Y637D01*
X1766Y637D02*
X1773Y637D01*
X0Y636D02*
X7Y636D01*
X1082Y636D02*
X1093Y636D01*
X1373Y636D02*
X1385Y636D01*
X1645Y636D02*
X1656Y636D01*
X1766Y636D02*
X1773Y636D01*
X0Y635D02*
X7Y635D01*
X1082Y635D02*
X1094Y635D01*
X1372Y635D02*
X1384Y635D01*
X1642Y635D02*
X1657Y635D01*
X1766Y635D02*
X1773Y635D01*
X0Y634D02*
X7Y634D01*
X1083Y634D02*
X1095Y634D01*
X1371Y634D02*
X1383Y634D01*
X1644Y634D02*
X1659Y634D01*
X1766Y634D02*
X1773Y634D01*
X0Y633D02*
X7Y633D01*
X1084Y633D02*
X1096Y633D01*
X1370Y633D02*
X1382Y633D01*
X1645Y633D02*
X1660Y633D01*
X1766Y633D02*
X1773Y633D01*
X0Y632D02*
X7Y632D01*
X1085Y632D02*
X1097Y632D01*
X1369Y632D02*
X1381Y632D01*
X1647Y632D02*
X1661Y632D01*
X1766Y632D02*
X1773Y632D01*
X0Y631D02*
X7Y631D01*
X1086Y631D02*
X1098Y631D01*
X1368Y631D02*
X1380Y631D01*
X1648Y631D02*
X1662Y631D01*
X1766Y631D02*
X1773Y631D01*
X0Y630D02*
X7Y630D01*
X1087Y630D02*
X1099Y630D01*
X1367Y630D02*
X1379Y630D01*
X1403Y630D02*
X1417Y630D01*
X1650Y630D02*
X1664Y630D01*
X1766Y630D02*
X1773Y630D01*
X0Y629D02*
X7Y629D01*
X1088Y629D02*
X1101Y629D01*
X1366Y629D02*
X1378Y629D01*
X1402Y629D02*
X1415Y629D01*
X1651Y629D02*
X1665Y629D01*
X1766Y629D02*
X1773Y629D01*
X0Y628D02*
X7Y628D01*
X1089Y628D02*
X1102Y628D01*
X1365Y628D02*
X1377Y628D01*
X1400Y628D02*
X1414Y628D01*
X1652Y628D02*
X1666Y628D01*
X1766Y628D02*
X1773Y628D01*
X0Y627D02*
X7Y627D01*
X1090Y627D02*
X1103Y627D01*
X1364Y627D02*
X1376Y627D01*
X1399Y627D02*
X1413Y627D01*
X1653Y627D02*
X1667Y627D01*
X1766Y627D02*
X1773Y627D01*
X0Y626D02*
X7Y626D01*
X1091Y626D02*
X1104Y626D01*
X1363Y626D02*
X1375Y626D01*
X1398Y626D02*
X1412Y626D01*
X1655Y626D02*
X1668Y626D01*
X1766Y626D02*
X1773Y626D01*
X0Y625D02*
X7Y625D01*
X1092Y625D02*
X1105Y625D01*
X1361Y625D02*
X1374Y625D01*
X1397Y625D02*
X1410Y625D01*
X1656Y625D02*
X1669Y625D01*
X1766Y625D02*
X1773Y625D01*
X0Y624D02*
X7Y624D01*
X1093Y624D02*
X1106Y624D01*
X1360Y624D02*
X1373Y624D01*
X1396Y624D02*
X1409Y624D01*
X1657Y624D02*
X1670Y624D01*
X1766Y624D02*
X1773Y624D01*
X0Y623D02*
X7Y623D01*
X1094Y623D02*
X1107Y623D01*
X1359Y623D02*
X1372Y623D01*
X1395Y623D02*
X1408Y623D01*
X1658Y623D02*
X1672Y623D01*
X1766Y623D02*
X1773Y623D01*
X0Y622D02*
X7Y622D01*
X1095Y622D02*
X1109Y622D01*
X1358Y622D02*
X1371Y622D01*
X1394Y622D02*
X1407Y622D01*
X1660Y622D02*
X1673Y622D01*
X1766Y622D02*
X1773Y622D01*
X0Y621D02*
X7Y621D01*
X1096Y621D02*
X1110Y621D01*
X1357Y621D02*
X1370Y621D01*
X1393Y621D02*
X1406Y621D01*
X1661Y621D02*
X1674Y621D01*
X1766Y621D02*
X1773Y621D01*
X0Y620D02*
X7Y620D01*
X1098Y620D02*
X1111Y620D01*
X1355Y620D02*
X1369Y620D01*
X1392Y620D02*
X1404Y620D01*
X1662Y620D02*
X1675Y620D01*
X1766Y620D02*
X1773Y620D01*
X0Y619D02*
X7Y619D01*
X1099Y619D02*
X1112Y619D01*
X1354Y619D02*
X1368Y619D01*
X1391Y619D02*
X1403Y619D01*
X1663Y619D02*
X1676Y619D01*
X1766Y619D02*
X1773Y619D01*
X0Y618D02*
X7Y618D01*
X1100Y618D02*
X1114Y618D01*
X1353Y618D02*
X1367Y618D01*
X1390Y618D02*
X1402Y618D01*
X1664Y618D02*
X1677Y618D01*
X1766Y618D02*
X1773Y618D01*
X0Y617D02*
X7Y617D01*
X1101Y617D02*
X1115Y617D01*
X1352Y617D02*
X1365Y617D01*
X1389Y617D02*
X1401Y617D01*
X1665Y617D02*
X1678Y617D01*
X1766Y617D02*
X1773Y617D01*
X0Y616D02*
X7Y616D01*
X1102Y616D02*
X1116Y616D01*
X1350Y616D02*
X1364Y616D01*
X1388Y616D02*
X1400Y616D01*
X1666Y616D02*
X1679Y616D01*
X1766Y616D02*
X1773Y616D01*
X0Y615D02*
X7Y615D01*
X1103Y615D02*
X1118Y615D01*
X1349Y615D02*
X1363Y615D01*
X1387Y615D02*
X1399Y615D01*
X1667Y615D02*
X1680Y615D01*
X1766Y615D02*
X1773Y615D01*
X0Y614D02*
X7Y614D01*
X1105Y614D02*
X1119Y614D01*
X1347Y614D02*
X1362Y614D01*
X1386Y614D02*
X1398Y614D01*
X1669Y614D02*
X1681Y614D01*
X1766Y614D02*
X1773Y614D01*
X0Y613D02*
X7Y613D01*
X1106Y613D02*
X1120Y613D01*
X1346Y613D02*
X1361Y613D01*
X1385Y613D02*
X1397Y613D01*
X1670Y613D02*
X1682Y613D01*
X1766Y613D02*
X1773Y613D01*
X0Y612D02*
X7Y612D01*
X1107Y612D02*
X1122Y612D01*
X1345Y612D02*
X1359Y612D01*
X1384Y612D02*
X1396Y612D01*
X1671Y612D02*
X1683Y612D01*
X1766Y612D02*
X1773Y612D01*
X0Y611D02*
X7Y611D01*
X1108Y611D02*
X1123Y611D01*
X1343Y611D02*
X1358Y611D01*
X1383Y611D02*
X1395Y611D01*
X1672Y611D02*
X1684Y611D01*
X1766Y611D02*
X1773Y611D01*
X0Y610D02*
X7Y610D01*
X1110Y610D02*
X1125Y610D01*
X1342Y610D02*
X1357Y610D01*
X1382Y610D02*
X1394Y610D01*
X1673Y610D02*
X1684Y610D01*
X1766Y610D02*
X1773Y610D01*
X0Y609D02*
X7Y609D01*
X1111Y609D02*
X1126Y609D01*
X1340Y609D02*
X1355Y609D01*
X1381Y609D02*
X1393Y609D01*
X1674Y609D02*
X1685Y609D01*
X1766Y609D02*
X1773Y609D01*
X0Y608D02*
X7Y608D01*
X1112Y608D02*
X1128Y608D01*
X1339Y608D02*
X1354Y608D01*
X1380Y608D02*
X1392Y608D01*
X1675Y608D02*
X1686Y608D01*
X1766Y608D02*
X1773Y608D01*
X0Y607D02*
X7Y607D01*
X1114Y607D02*
X1130Y607D01*
X1337Y607D02*
X1353Y607D01*
X1379Y607D02*
X1391Y607D01*
X1676Y607D02*
X1687Y607D01*
X1766Y607D02*
X1773Y607D01*
X0Y606D02*
X7Y606D01*
X1115Y606D02*
X1131Y606D01*
X1335Y606D02*
X1351Y606D01*
X1378Y606D02*
X1390Y606D01*
X1676Y606D02*
X1688Y606D01*
X1766Y606D02*
X1773Y606D01*
X0Y605D02*
X7Y605D01*
X1117Y605D02*
X1133Y605D01*
X1334Y605D02*
X1350Y605D01*
X1378Y605D02*
X1389Y605D01*
X1677Y605D02*
X1689Y605D01*
X1766Y605D02*
X1773Y605D01*
X0Y604D02*
X7Y604D01*
X1118Y604D02*
X1135Y604D01*
X1332Y604D02*
X1348Y604D01*
X1377Y604D02*
X1388Y604D01*
X1678Y604D02*
X1690Y604D01*
X1766Y604D02*
X1773Y604D01*
X0Y603D02*
X7Y603D01*
X1119Y603D02*
X1136Y603D01*
X1330Y603D02*
X1347Y603D01*
X1376Y603D02*
X1387Y603D01*
X1437Y603D02*
X1440Y603D01*
X1627Y603D02*
X1629Y603D01*
X1679Y603D02*
X1690Y603D01*
X1766Y603D02*
X1773Y603D01*
X0Y602D02*
X7Y602D01*
X1121Y602D02*
X1138Y602D01*
X1328Y602D02*
X1346Y602D01*
X1375Y602D02*
X1386Y602D01*
X1435Y602D02*
X1441Y602D01*
X1625Y602D02*
X1631Y602D01*
X1680Y602D02*
X1691Y602D01*
X1766Y602D02*
X1773Y602D01*
X0Y601D02*
X7Y601D01*
X1122Y601D02*
X1140Y601D01*
X1327Y601D02*
X1344Y601D01*
X1374Y601D02*
X1385Y601D01*
X1434Y601D02*
X1442Y601D01*
X1624Y601D02*
X1632Y601D01*
X1681Y601D02*
X1692Y601D01*
X1766Y601D02*
X1773Y601D01*
X0Y600D02*
X7Y600D01*
X1124Y600D02*
X1142Y600D01*
X1325Y600D02*
X1342Y600D01*
X1373Y600D02*
X1385Y600D01*
X1434Y600D02*
X1443Y600D01*
X1624Y600D02*
X1633Y600D01*
X1682Y600D02*
X1693Y600D01*
X1766Y600D02*
X1773Y600D01*
X0Y599D02*
X7Y599D01*
X1126Y599D02*
X1144Y599D01*
X1323Y599D02*
X1341Y599D01*
X1373Y599D02*
X1384Y599D01*
X1433Y599D02*
X1443Y599D01*
X1623Y599D02*
X1633Y599D01*
X1683Y599D02*
X1694Y599D01*
X1766Y599D02*
X1773Y599D01*
X0Y598D02*
X7Y598D01*
X1127Y598D02*
X1146Y598D01*
X1321Y598D02*
X1339Y598D01*
X1372Y598D02*
X1383Y598D01*
X1433Y598D02*
X1443Y598D01*
X1623Y598D02*
X1633Y598D01*
X1684Y598D02*
X1694Y598D01*
X1766Y598D02*
X1773Y598D01*
X0Y597D02*
X7Y597D01*
X1129Y597D02*
X1148Y597D01*
X1319Y597D02*
X1338Y597D01*
X1371Y597D02*
X1382Y597D01*
X1433Y597D02*
X1443Y597D01*
X1623Y597D02*
X1633Y597D01*
X1684Y597D02*
X1695Y597D01*
X1766Y597D02*
X1773Y597D01*
X0Y596D02*
X7Y596D01*
X1131Y596D02*
X1150Y596D01*
X1317Y596D02*
X1336Y596D01*
X1370Y596D02*
X1381Y596D01*
X1433Y596D02*
X1443Y596D01*
X1623Y596D02*
X1633Y596D01*
X1685Y596D02*
X1696Y596D01*
X1766Y596D02*
X1773Y596D01*
X0Y595D02*
X7Y595D01*
X1132Y595D02*
X1152Y595D01*
X1314Y595D02*
X1334Y595D01*
X1370Y595D02*
X1380Y595D01*
X1433Y595D02*
X1443Y595D01*
X1623Y595D02*
X1633Y595D01*
X1686Y595D02*
X1697Y595D01*
X1766Y595D02*
X1773Y595D01*
X0Y594D02*
X7Y594D01*
X1134Y594D02*
X1154Y594D01*
X1312Y594D02*
X1332Y594D01*
X1369Y594D02*
X1380Y594D01*
X1433Y594D02*
X1443Y594D01*
X1623Y594D02*
X1633Y594D01*
X1687Y594D02*
X1698Y594D01*
X1766Y594D02*
X1773Y594D01*
X0Y593D02*
X7Y593D01*
X1136Y593D02*
X1157Y593D01*
X1310Y593D02*
X1331Y593D01*
X1368Y593D02*
X1379Y593D01*
X1433Y593D02*
X1443Y593D01*
X1623Y593D02*
X1633Y593D01*
X1688Y593D02*
X1698Y593D01*
X1766Y593D02*
X1773Y593D01*
X0Y592D02*
X7Y592D01*
X1138Y592D02*
X1159Y592D01*
X1307Y592D02*
X1329Y592D01*
X1367Y592D02*
X1378Y592D01*
X1433Y592D02*
X1443Y592D01*
X1623Y592D02*
X1633Y592D01*
X1688Y592D02*
X1699Y592D01*
X1766Y592D02*
X1773Y592D01*
X0Y591D02*
X7Y591D01*
X1140Y591D02*
X1162Y591D01*
X1305Y591D02*
X1327Y591D01*
X1367Y591D02*
X1377Y591D01*
X1433Y591D02*
X1443Y591D01*
X1623Y591D02*
X1633Y591D01*
X1689Y591D02*
X1700Y591D01*
X1766Y591D02*
X1773Y591D01*
X0Y590D02*
X7Y590D01*
X1141Y590D02*
X1164Y590D01*
X1302Y590D02*
X1325Y590D01*
X1366Y590D02*
X1376Y590D01*
X1433Y590D02*
X1443Y590D01*
X1623Y590D02*
X1633Y590D01*
X1690Y590D02*
X1700Y590D01*
X1766Y590D02*
X1773Y590D01*
X0Y589D02*
X7Y589D01*
X1143Y589D02*
X1167Y589D01*
X1299Y589D02*
X1323Y589D01*
X1365Y589D02*
X1376Y589D01*
X1433Y589D02*
X1443Y589D01*
X1623Y589D02*
X1633Y589D01*
X1691Y589D02*
X1701Y589D01*
X1766Y589D02*
X1773Y589D01*
X0Y588D02*
X7Y588D01*
X1145Y588D02*
X1170Y588D01*
X1297Y588D02*
X1321Y588D01*
X1365Y588D02*
X1375Y588D01*
X1433Y588D02*
X1443Y588D01*
X1623Y588D02*
X1633Y588D01*
X1691Y588D02*
X1702Y588D01*
X1766Y588D02*
X1773Y588D01*
X0Y587D02*
X7Y587D01*
X1148Y587D02*
X1173Y587D01*
X1294Y587D02*
X1319Y587D01*
X1364Y587D02*
X1374Y587D01*
X1433Y587D02*
X1443Y587D01*
X1623Y587D02*
X1633Y587D01*
X1692Y587D02*
X1702Y587D01*
X1766Y587D02*
X1773Y587D01*
X0Y586D02*
X7Y586D01*
X1150Y586D02*
X1176Y586D01*
X1290Y586D02*
X1317Y586D01*
X1363Y586D02*
X1374Y586D01*
X1433Y586D02*
X1443Y586D01*
X1623Y586D02*
X1633Y586D01*
X1693Y586D02*
X1703Y586D01*
X1766Y586D02*
X1773Y586D01*
X0Y585D02*
X7Y585D01*
X1152Y585D02*
X1180Y585D01*
X1287Y585D02*
X1314Y585D01*
X1363Y585D02*
X1373Y585D01*
X1433Y585D02*
X1443Y585D01*
X1623Y585D02*
X1633Y585D01*
X1693Y585D02*
X1704Y585D01*
X1766Y585D02*
X1773Y585D01*
X0Y584D02*
X7Y584D01*
X1154Y584D02*
X1183Y584D01*
X1283Y584D02*
X1312Y584D01*
X1362Y584D02*
X1372Y584D01*
X1433Y584D02*
X1443Y584D01*
X1623Y584D02*
X1633Y584D01*
X1694Y584D02*
X1704Y584D01*
X1766Y584D02*
X1773Y584D01*
X0Y583D02*
X7Y583D01*
X1157Y583D02*
X1188Y583D01*
X1279Y583D02*
X1310Y583D01*
X1361Y583D02*
X1371Y583D01*
X1433Y583D02*
X1443Y583D01*
X1623Y583D02*
X1633Y583D01*
X1695Y583D02*
X1705Y583D01*
X1766Y583D02*
X1773Y583D01*
X0Y582D02*
X7Y582D01*
X1159Y582D02*
X1192Y582D01*
X1275Y582D02*
X1307Y582D01*
X1361Y582D02*
X1371Y582D01*
X1433Y582D02*
X1443Y582D01*
X1623Y582D02*
X1633Y582D01*
X1696Y582D02*
X1706Y582D01*
X1766Y582D02*
X1773Y582D01*
X0Y581D02*
X7Y581D01*
X1162Y581D02*
X1197Y581D01*
X1269Y581D02*
X1305Y581D01*
X1360Y581D02*
X1370Y581D01*
X1433Y581D02*
X1443Y581D01*
X1623Y581D02*
X1633Y581D01*
X1696Y581D02*
X1706Y581D01*
X1766Y581D02*
X1773Y581D01*
X0Y580D02*
X7Y580D01*
X1164Y580D02*
X1203Y580D01*
X1264Y580D02*
X1302Y580D01*
X1359Y580D02*
X1369Y580D01*
X1433Y580D02*
X1443Y580D01*
X1623Y580D02*
X1633Y580D01*
X1697Y580D02*
X1707Y580D01*
X1766Y580D02*
X1773Y580D01*
X0Y579D02*
X7Y579D01*
X1167Y579D02*
X1211Y579D01*
X1256Y579D02*
X1299Y579D01*
X1359Y579D02*
X1369Y579D01*
X1433Y579D02*
X1443Y579D01*
X1623Y579D02*
X1633Y579D01*
X1697Y579D02*
X1708Y579D01*
X1766Y579D02*
X1773Y579D01*
X0Y578D02*
X7Y578D01*
X1170Y578D02*
X1224Y578D01*
X1242Y578D02*
X1296Y578D01*
X1358Y578D02*
X1368Y578D01*
X1433Y578D02*
X1443Y578D01*
X1623Y578D02*
X1633Y578D01*
X1698Y578D02*
X1708Y578D01*
X1766Y578D02*
X1773Y578D01*
X0Y577D02*
X7Y577D01*
X1173Y577D02*
X1293Y577D01*
X1358Y577D02*
X1368Y577D01*
X1433Y577D02*
X1443Y577D01*
X1623Y577D02*
X1633Y577D01*
X1699Y577D02*
X1709Y577D01*
X1766Y577D02*
X1773Y577D01*
X0Y576D02*
X7Y576D01*
X1177Y576D02*
X1290Y576D01*
X1357Y576D02*
X1367Y576D01*
X1433Y576D02*
X1443Y576D01*
X1623Y576D02*
X1633Y576D01*
X1699Y576D02*
X1709Y576D01*
X1766Y576D02*
X1773Y576D01*
X0Y575D02*
X7Y575D01*
X1180Y575D02*
X1286Y575D01*
X1356Y575D02*
X1366Y575D01*
X1433Y575D02*
X1443Y575D01*
X1623Y575D02*
X1633Y575D01*
X1700Y575D02*
X1710Y575D01*
X1766Y575D02*
X1773Y575D01*
X0Y574D02*
X7Y574D01*
X1184Y574D02*
X1283Y574D01*
X1356Y574D02*
X1366Y574D01*
X1433Y574D02*
X1443Y574D01*
X1623Y574D02*
X1633Y574D01*
X1701Y574D02*
X1711Y574D01*
X1766Y574D02*
X1773Y574D01*
X0Y573D02*
X7Y573D01*
X1188Y573D02*
X1278Y573D01*
X1355Y573D02*
X1365Y573D01*
X1433Y573D02*
X1443Y573D01*
X1623Y573D02*
X1633Y573D01*
X1701Y573D02*
X1711Y573D01*
X1766Y573D02*
X1773Y573D01*
X0Y572D02*
X7Y572D01*
X1193Y572D02*
X1274Y572D01*
X1355Y572D02*
X1365Y572D01*
X1433Y572D02*
X1443Y572D01*
X1623Y572D02*
X1633Y572D01*
X1702Y572D02*
X1712Y572D01*
X1766Y572D02*
X1773Y572D01*
X0Y571D02*
X7Y571D01*
X1198Y571D02*
X1268Y571D01*
X1354Y571D02*
X1364Y571D01*
X1433Y571D02*
X1443Y571D01*
X1623Y571D02*
X1633Y571D01*
X1702Y571D02*
X1712Y571D01*
X1766Y571D02*
X1773Y571D01*
X0Y570D02*
X7Y570D01*
X1204Y570D02*
X1263Y570D01*
X1353Y570D02*
X1363Y570D01*
X1433Y570D02*
X1443Y570D01*
X1623Y570D02*
X1633Y570D01*
X1703Y570D02*
X1713Y570D01*
X1766Y570D02*
X1773Y570D01*
X0Y569D02*
X7Y569D01*
X1212Y569D02*
X1255Y569D01*
X1353Y569D02*
X1363Y569D01*
X1433Y569D02*
X1443Y569D01*
X1623Y569D02*
X1633Y569D01*
X1704Y569D02*
X1713Y569D01*
X1766Y569D02*
X1773Y569D01*
X0Y568D02*
X7Y568D01*
X1225Y568D02*
X1241Y568D01*
X1352Y568D02*
X1362Y568D01*
X1433Y568D02*
X1443Y568D01*
X1623Y568D02*
X1633Y568D01*
X1704Y568D02*
X1714Y568D01*
X1766Y568D02*
X1773Y568D01*
X0Y567D02*
X7Y567D01*
X1352Y567D02*
X1362Y567D01*
X1433Y567D02*
X1443Y567D01*
X1623Y567D02*
X1633Y567D01*
X1705Y567D02*
X1714Y567D01*
X1766Y567D02*
X1773Y567D01*
X0Y566D02*
X7Y566D01*
X1351Y566D02*
X1361Y566D01*
X1433Y566D02*
X1443Y566D01*
X1623Y566D02*
X1633Y566D01*
X1705Y566D02*
X1715Y566D01*
X1766Y566D02*
X1773Y566D01*
X0Y565D02*
X7Y565D01*
X1351Y565D02*
X1361Y565D01*
X1433Y565D02*
X1443Y565D01*
X1623Y565D02*
X1633Y565D01*
X1706Y565D02*
X1715Y565D01*
X1766Y565D02*
X1773Y565D01*
X0Y564D02*
X7Y564D01*
X1350Y564D02*
X1360Y564D01*
X1433Y564D02*
X1443Y564D01*
X1623Y564D02*
X1633Y564D01*
X1706Y564D02*
X1716Y564D01*
X1766Y564D02*
X1773Y564D01*
X0Y563D02*
X7Y563D01*
X1350Y563D02*
X1360Y563D01*
X1433Y563D02*
X1443Y563D01*
X1623Y563D02*
X1633Y563D01*
X1707Y563D02*
X1716Y563D01*
X1766Y563D02*
X1773Y563D01*
X0Y562D02*
X7Y562D01*
X1349Y562D02*
X1359Y562D01*
X1433Y562D02*
X1443Y562D01*
X1623Y562D02*
X1633Y562D01*
X1707Y562D02*
X1717Y562D01*
X1766Y562D02*
X1773Y562D01*
X0Y561D02*
X7Y561D01*
X1349Y561D02*
X1359Y561D01*
X1433Y561D02*
X1443Y561D01*
X1623Y561D02*
X1633Y561D01*
X1708Y561D02*
X1717Y561D01*
X1766Y561D02*
X1773Y561D01*
X0Y560D02*
X7Y560D01*
X1348Y560D02*
X1358Y560D01*
X1433Y560D02*
X1443Y560D01*
X1623Y560D02*
X1633Y560D01*
X1708Y560D02*
X1718Y560D01*
X1766Y560D02*
X1773Y560D01*
X0Y559D02*
X7Y559D01*
X1348Y559D02*
X1358Y559D01*
X1433Y559D02*
X1443Y559D01*
X1623Y559D02*
X1633Y559D01*
X1709Y559D02*
X1718Y559D01*
X1766Y559D02*
X1773Y559D01*
X0Y558D02*
X7Y558D01*
X1348Y558D02*
X1357Y558D01*
X1433Y558D02*
X1443Y558D01*
X1623Y558D02*
X1633Y558D01*
X1709Y558D02*
X1719Y558D01*
X1766Y558D02*
X1773Y558D01*
X0Y557D02*
X7Y557D01*
X1347Y557D02*
X1357Y557D01*
X1433Y557D02*
X1443Y557D01*
X1623Y557D02*
X1633Y557D01*
X1710Y557D02*
X1719Y557D01*
X1766Y557D02*
X1773Y557D01*
X0Y556D02*
X7Y556D01*
X1347Y556D02*
X1356Y556D01*
X1433Y556D02*
X1443Y556D01*
X1623Y556D02*
X1633Y556D01*
X1710Y556D02*
X1720Y556D01*
X1766Y556D02*
X1773Y556D01*
X0Y555D02*
X7Y555D01*
X1346Y555D02*
X1356Y555D01*
X1433Y555D02*
X1443Y555D01*
X1623Y555D02*
X1633Y555D01*
X1711Y555D02*
X1720Y555D01*
X1766Y555D02*
X1773Y555D01*
X0Y554D02*
X7Y554D01*
X1346Y554D02*
X1355Y554D01*
X1433Y554D02*
X1443Y554D01*
X1623Y554D02*
X1633Y554D01*
X1711Y554D02*
X1721Y554D01*
X1766Y554D02*
X1773Y554D01*
X0Y553D02*
X7Y553D01*
X1345Y553D02*
X1355Y553D01*
X1433Y553D02*
X1443Y553D01*
X1623Y553D02*
X1633Y553D01*
X1712Y553D02*
X1721Y553D01*
X1766Y553D02*
X1773Y553D01*
X0Y552D02*
X7Y552D01*
X1345Y552D02*
X1354Y552D01*
X1433Y552D02*
X1443Y552D01*
X1623Y552D02*
X1633Y552D01*
X1712Y552D02*
X1722Y552D01*
X1766Y552D02*
X1773Y552D01*
X0Y551D02*
X7Y551D01*
X1344Y551D02*
X1354Y551D01*
X1433Y551D02*
X1443Y551D01*
X1623Y551D02*
X1633Y551D01*
X1712Y551D02*
X1722Y551D01*
X1766Y551D02*
X1773Y551D01*
X0Y550D02*
X7Y550D01*
X1344Y550D02*
X1353Y550D01*
X1433Y550D02*
X1443Y550D01*
X1623Y550D02*
X1633Y550D01*
X1713Y550D02*
X1722Y550D01*
X1766Y550D02*
X1773Y550D01*
X0Y549D02*
X7Y549D01*
X1344Y549D02*
X1353Y549D01*
X1433Y549D02*
X1443Y549D01*
X1623Y549D02*
X1633Y549D01*
X1713Y549D02*
X1723Y549D01*
X1766Y549D02*
X1773Y549D01*
X0Y548D02*
X7Y548D01*
X1343Y548D02*
X1353Y548D01*
X1433Y548D02*
X1443Y548D01*
X1623Y548D02*
X1633Y548D01*
X1714Y548D02*
X1723Y548D01*
X1766Y548D02*
X1773Y548D01*
X0Y547D02*
X7Y547D01*
X1343Y547D02*
X1352Y547D01*
X1433Y547D02*
X1443Y547D01*
X1623Y547D02*
X1633Y547D01*
X1714Y547D02*
X1724Y547D01*
X1766Y547D02*
X1773Y547D01*
X0Y546D02*
X7Y546D01*
X1342Y546D02*
X1352Y546D01*
X1433Y546D02*
X1443Y546D01*
X1623Y546D02*
X1633Y546D01*
X1715Y546D02*
X1724Y546D01*
X1766Y546D02*
X1773Y546D01*
X0Y545D02*
X7Y545D01*
X1342Y545D02*
X1351Y545D01*
X1434Y545D02*
X1442Y545D01*
X1624Y545D02*
X1632Y545D01*
X1715Y545D02*
X1724Y545D01*
X1766Y545D02*
X1773Y545D01*
X0Y544D02*
X7Y544D01*
X1342Y544D02*
X1351Y544D01*
X1435Y544D02*
X1442Y544D01*
X1625Y544D02*
X1632Y544D01*
X1715Y544D02*
X1725Y544D01*
X1766Y544D02*
X1773Y544D01*
X0Y543D02*
X7Y543D01*
X1341Y543D02*
X1351Y543D01*
X1436Y543D02*
X1440Y543D01*
X1626Y543D02*
X1630Y543D01*
X1716Y543D02*
X1725Y543D01*
X1766Y543D02*
X1773Y543D01*
X0Y542D02*
X7Y542D01*
X1341Y542D02*
X1350Y542D01*
X1716Y542D02*
X1725Y542D01*
X1766Y542D02*
X1773Y542D01*
X0Y541D02*
X7Y541D01*
X1341Y541D02*
X1350Y541D01*
X1717Y541D02*
X1726Y541D01*
X1766Y541D02*
X1773Y541D01*
X0Y540D02*
X7Y540D01*
X1340Y540D02*
X1349Y540D01*
X1717Y540D02*
X1726Y540D01*
X1766Y540D02*
X1773Y540D01*
X0Y539D02*
X7Y539D01*
X1340Y539D02*
X1349Y539D01*
X1717Y539D02*
X1726Y539D01*
X1766Y539D02*
X1773Y539D01*
X0Y538D02*
X7Y538D01*
X1340Y538D02*
X1349Y538D01*
X1718Y538D02*
X1727Y538D01*
X1766Y538D02*
X1773Y538D01*
X0Y537D02*
X7Y537D01*
X1339Y537D02*
X1348Y537D01*
X1718Y537D02*
X1727Y537D01*
X1766Y537D02*
X1773Y537D01*
X0Y536D02*
X7Y536D01*
X1339Y536D02*
X1348Y536D01*
X1718Y536D02*
X1728Y536D01*
X1766Y536D02*
X1773Y536D01*
X0Y535D02*
X7Y535D01*
X1339Y535D02*
X1348Y535D01*
X1719Y535D02*
X1728Y535D01*
X1766Y535D02*
X1773Y535D01*
X0Y534D02*
X7Y534D01*
X1338Y534D02*
X1347Y534D01*
X1719Y534D02*
X1728Y534D01*
X1766Y534D02*
X1773Y534D01*
X0Y533D02*
X7Y533D01*
X1338Y533D02*
X1347Y533D01*
X1719Y533D02*
X1729Y533D01*
X1766Y533D02*
X1773Y533D01*
X0Y532D02*
X7Y532D01*
X1338Y532D02*
X1347Y532D01*
X1720Y532D02*
X1729Y532D01*
X1766Y532D02*
X1773Y532D01*
X0Y531D02*
X7Y531D01*
X1337Y531D02*
X1346Y531D01*
X1720Y531D02*
X1729Y531D01*
X1766Y531D02*
X1773Y531D01*
X0Y530D02*
X7Y530D01*
X1337Y530D02*
X1346Y530D01*
X1720Y530D02*
X1729Y530D01*
X1766Y530D02*
X1773Y530D01*
X0Y529D02*
X7Y529D01*
X1337Y529D02*
X1346Y529D01*
X1720Y529D02*
X1730Y529D01*
X1766Y529D02*
X1773Y529D01*
X0Y528D02*
X7Y528D01*
X1336Y528D02*
X1346Y528D01*
X1721Y528D02*
X1730Y528D01*
X1766Y528D02*
X1773Y528D01*
X0Y527D02*
X7Y527D01*
X1336Y527D02*
X1345Y527D01*
X1721Y527D02*
X1730Y527D01*
X1766Y527D02*
X1773Y527D01*
X0Y526D02*
X7Y526D01*
X1336Y526D02*
X1345Y526D01*
X1721Y526D02*
X1731Y526D01*
X1766Y526D02*
X1773Y526D01*
X0Y525D02*
X7Y525D01*
X1336Y525D02*
X1345Y525D01*
X1722Y525D02*
X1731Y525D01*
X1766Y525D02*
X1773Y525D01*
X0Y524D02*
X7Y524D01*
X1335Y524D02*
X1344Y524D01*
X1722Y524D02*
X1731Y524D01*
X1766Y524D02*
X1773Y524D01*
X0Y523D02*
X7Y523D01*
X1335Y523D02*
X1344Y523D01*
X1722Y523D02*
X1731Y523D01*
X1766Y523D02*
X1773Y523D01*
X0Y522D02*
X7Y522D01*
X1335Y522D02*
X1344Y522D01*
X1722Y522D02*
X1732Y522D01*
X1766Y522D02*
X1773Y522D01*
X0Y521D02*
X7Y521D01*
X1335Y521D02*
X1344Y521D01*
X1723Y521D02*
X1732Y521D01*
X1766Y521D02*
X1773Y521D01*
X0Y520D02*
X7Y520D01*
X1334Y520D02*
X1343Y520D01*
X1723Y520D02*
X1732Y520D01*
X1766Y520D02*
X1773Y520D01*
X0Y519D02*
X7Y519D01*
X1334Y519D02*
X1343Y519D01*
X1723Y519D02*
X1732Y519D01*
X1766Y519D02*
X1773Y519D01*
X0Y518D02*
X7Y518D01*
X1334Y518D02*
X1343Y518D01*
X1723Y518D02*
X1732Y518D01*
X1766Y518D02*
X1773Y518D01*
X0Y517D02*
X7Y517D01*
X1334Y517D02*
X1343Y517D01*
X1724Y517D02*
X1733Y517D01*
X1766Y517D02*
X1773Y517D01*
X0Y516D02*
X7Y516D01*
X1333Y516D02*
X1343Y516D01*
X1724Y516D02*
X1733Y516D01*
X1766Y516D02*
X1773Y516D01*
X0Y515D02*
X7Y515D01*
X1333Y515D02*
X1342Y515D01*
X1724Y515D02*
X1733Y515D01*
X1766Y515D02*
X1773Y515D01*
X0Y514D02*
X7Y514D01*
X1333Y514D02*
X1342Y514D01*
X1724Y514D02*
X1733Y514D01*
X1766Y514D02*
X1773Y514D01*
X0Y513D02*
X7Y513D01*
X1333Y513D02*
X1342Y513D01*
X1725Y513D02*
X1734Y513D01*
X1766Y513D02*
X1773Y513D01*
X0Y512D02*
X7Y512D01*
X1333Y512D02*
X1342Y512D01*
X1725Y512D02*
X1734Y512D01*
X1766Y512D02*
X1773Y512D01*
X0Y511D02*
X7Y511D01*
X1332Y511D02*
X1341Y511D01*
X1725Y511D02*
X1734Y511D01*
X1766Y511D02*
X1773Y511D01*
X0Y510D02*
X7Y510D01*
X1332Y510D02*
X1341Y510D01*
X1725Y510D02*
X1734Y510D01*
X1766Y510D02*
X1773Y510D01*
X0Y509D02*
X7Y509D01*
X1332Y509D02*
X1341Y509D01*
X1725Y509D02*
X1734Y509D01*
X1766Y509D02*
X1773Y509D01*
X0Y508D02*
X7Y508D01*
X1332Y508D02*
X1341Y508D01*
X1725Y508D02*
X1735Y508D01*
X1766Y508D02*
X1773Y508D01*
X0Y507D02*
X7Y507D01*
X1332Y507D02*
X1341Y507D01*
X1726Y507D02*
X1735Y507D01*
X1766Y507D02*
X1773Y507D01*
X0Y506D02*
X7Y506D01*
X1331Y506D02*
X1341Y506D01*
X1726Y506D02*
X1735Y506D01*
X1766Y506D02*
X1773Y506D01*
X0Y505D02*
X7Y505D01*
X1331Y505D02*
X1340Y505D01*
X1726Y505D02*
X1735Y505D01*
X1766Y505D02*
X1773Y505D01*
X0Y504D02*
X7Y504D01*
X1331Y504D02*
X1340Y504D01*
X1726Y504D02*
X1735Y504D01*
X1766Y504D02*
X1773Y504D01*
X0Y503D02*
X7Y503D01*
X1331Y503D02*
X1340Y503D01*
X1726Y503D02*
X1735Y503D01*
X1766Y503D02*
X1773Y503D01*
X0Y502D02*
X7Y502D01*
X1331Y502D02*
X1340Y502D01*
X1726Y502D02*
X1735Y502D01*
X1766Y502D02*
X1773Y502D01*
X0Y501D02*
X7Y501D01*
X1331Y501D02*
X1340Y501D01*
X1727Y501D02*
X1736Y501D01*
X1766Y501D02*
X1773Y501D01*
X0Y500D02*
X7Y500D01*
X1331Y500D02*
X1340Y500D01*
X1727Y500D02*
X1736Y500D01*
X1766Y500D02*
X1773Y500D01*
X0Y499D02*
X7Y499D01*
X1330Y499D02*
X1339Y499D01*
X1727Y499D02*
X1736Y499D01*
X1766Y499D02*
X1773Y499D01*
X0Y498D02*
X7Y498D01*
X1330Y498D02*
X1339Y498D01*
X1727Y498D02*
X1736Y498D01*
X1766Y498D02*
X1773Y498D01*
X0Y497D02*
X7Y497D01*
X1330Y497D02*
X1339Y497D01*
X1727Y497D02*
X1736Y497D01*
X1766Y497D02*
X1773Y497D01*
X0Y496D02*
X7Y496D01*
X1330Y496D02*
X1339Y496D01*
X1727Y496D02*
X1736Y496D01*
X1766Y496D02*
X1773Y496D01*
X0Y495D02*
X7Y495D01*
X1330Y495D02*
X1339Y495D01*
X1727Y495D02*
X1736Y495D01*
X1766Y495D02*
X1773Y495D01*
X0Y494D02*
X7Y494D01*
X1330Y494D02*
X1339Y494D01*
X1727Y494D02*
X1737Y494D01*
X1766Y494D02*
X1773Y494D01*
X0Y493D02*
X7Y493D01*
X1330Y493D02*
X1339Y493D01*
X1728Y493D02*
X1737Y493D01*
X1766Y493D02*
X1773Y493D01*
X0Y492D02*
X7Y492D01*
X1330Y492D02*
X1339Y492D01*
X1728Y492D02*
X1737Y492D01*
X1766Y492D02*
X1773Y492D01*
X0Y491D02*
X7Y491D01*
X1330Y491D02*
X1339Y491D01*
X1728Y491D02*
X1737Y491D01*
X1766Y491D02*
X1773Y491D01*
X0Y490D02*
X7Y490D01*
X1329Y490D02*
X1339Y490D01*
X1728Y490D02*
X1737Y490D01*
X1766Y490D02*
X1773Y490D01*
X0Y489D02*
X7Y489D01*
X1329Y489D02*
X1338Y489D01*
X1728Y489D02*
X1737Y489D01*
X1766Y489D02*
X1773Y489D01*
X0Y488D02*
X7Y488D01*
X1329Y488D02*
X1338Y488D01*
X1728Y488D02*
X1737Y488D01*
X1766Y488D02*
X1773Y488D01*
X0Y487D02*
X7Y487D01*
X1329Y487D02*
X1338Y487D01*
X1728Y487D02*
X1737Y487D01*
X1766Y487D02*
X1773Y487D01*
X0Y486D02*
X7Y486D01*
X1329Y486D02*
X1338Y486D01*
X1728Y486D02*
X1737Y486D01*
X1766Y486D02*
X1773Y486D01*
X0Y485D02*
X7Y485D01*
X1329Y485D02*
X1338Y485D01*
X1728Y485D02*
X1737Y485D01*
X1766Y485D02*
X1773Y485D01*
X0Y484D02*
X7Y484D01*
X1329Y484D02*
X1338Y484D01*
X1728Y484D02*
X1737Y484D01*
X1766Y484D02*
X1773Y484D01*
X0Y483D02*
X7Y483D01*
X1329Y483D02*
X1338Y483D01*
X1728Y483D02*
X1737Y483D01*
X1766Y483D02*
X1773Y483D01*
X0Y482D02*
X7Y482D01*
X1329Y482D02*
X1338Y482D01*
X1728Y482D02*
X1737Y482D01*
X1766Y482D02*
X1773Y482D01*
X0Y481D02*
X7Y481D01*
X1329Y481D02*
X1338Y481D01*
X1728Y481D02*
X1737Y481D01*
X1766Y481D02*
X1773Y481D01*
X0Y480D02*
X7Y480D01*
X1329Y480D02*
X1338Y480D01*
X1728Y480D02*
X1737Y480D01*
X1766Y480D02*
X1773Y480D01*
X0Y479D02*
X7Y479D01*
X1329Y479D02*
X1338Y479D01*
X1728Y479D02*
X1737Y479D01*
X1766Y479D02*
X1773Y479D01*
X0Y478D02*
X7Y478D01*
X1329Y478D02*
X1338Y478D01*
X1728Y478D02*
X1737Y478D01*
X1766Y478D02*
X1773Y478D01*
X0Y477D02*
X7Y477D01*
X1329Y477D02*
X1338Y477D01*
X1729Y477D02*
X1738Y477D01*
X1766Y477D02*
X1773Y477D01*
X0Y476D02*
X7Y476D01*
X1329Y476D02*
X1338Y476D01*
X1729Y476D02*
X1738Y476D01*
X1766Y476D02*
X1773Y476D01*
X0Y475D02*
X7Y475D01*
X1329Y475D02*
X1338Y475D01*
X1729Y475D02*
X1738Y475D01*
X1766Y475D02*
X1773Y475D01*
X0Y474D02*
X7Y474D01*
X1329Y474D02*
X1338Y474D01*
X1729Y474D02*
X1738Y474D01*
X1766Y474D02*
X1773Y474D01*
X0Y473D02*
X7Y473D01*
X1329Y473D02*
X1338Y473D01*
X1729Y473D02*
X1738Y473D01*
X1766Y473D02*
X1773Y473D01*
X0Y472D02*
X7Y472D01*
X1329Y472D02*
X1338Y472D01*
X1729Y472D02*
X1738Y472D01*
X1766Y472D02*
X1773Y472D01*
X0Y471D02*
X7Y471D01*
X1329Y471D02*
X1338Y471D01*
X1729Y471D02*
X1738Y471D01*
X1766Y471D02*
X1773Y471D01*
X0Y470D02*
X7Y470D01*
X1329Y470D02*
X1338Y470D01*
X1729Y470D02*
X1738Y470D01*
X1766Y470D02*
X1773Y470D01*
X0Y469D02*
X7Y469D01*
X1329Y469D02*
X1338Y469D01*
X1729Y469D02*
X1738Y469D01*
X1766Y469D02*
X1773Y469D01*
X0Y468D02*
X7Y468D01*
X1329Y468D02*
X1338Y468D01*
X1729Y468D02*
X1738Y468D01*
X1766Y468D02*
X1773Y468D01*
X0Y467D02*
X7Y467D01*
X1329Y467D02*
X1338Y467D01*
X1728Y467D02*
X1737Y467D01*
X1766Y467D02*
X1773Y467D01*
X0Y466D02*
X7Y466D01*
X1329Y466D02*
X1338Y466D01*
X1728Y466D02*
X1737Y466D01*
X1766Y466D02*
X1773Y466D01*
X0Y465D02*
X7Y465D01*
X1329Y465D02*
X1338Y465D01*
X1728Y465D02*
X1737Y465D01*
X1766Y465D02*
X1773Y465D01*
X0Y464D02*
X7Y464D01*
X1329Y464D02*
X1338Y464D01*
X1728Y464D02*
X1737Y464D01*
X1766Y464D02*
X1773Y464D01*
X0Y463D02*
X7Y463D01*
X1329Y463D02*
X1338Y463D01*
X1728Y463D02*
X1737Y463D01*
X1766Y463D02*
X1773Y463D01*
X0Y462D02*
X7Y462D01*
X1329Y462D02*
X1338Y462D01*
X1728Y462D02*
X1737Y462D01*
X1766Y462D02*
X1773Y462D01*
X0Y461D02*
X7Y461D01*
X1329Y461D02*
X1338Y461D01*
X1728Y461D02*
X1737Y461D01*
X1766Y461D02*
X1773Y461D01*
X0Y460D02*
X7Y460D01*
X1329Y460D02*
X1338Y460D01*
X1728Y460D02*
X1737Y460D01*
X1766Y460D02*
X1773Y460D01*
X0Y459D02*
X7Y459D01*
X1329Y459D02*
X1338Y459D01*
X1728Y459D02*
X1737Y459D01*
X1766Y459D02*
X1773Y459D01*
X0Y458D02*
X7Y458D01*
X1329Y458D02*
X1338Y458D01*
X1728Y458D02*
X1737Y458D01*
X1766Y458D02*
X1773Y458D01*
X0Y457D02*
X7Y457D01*
X1329Y457D02*
X1338Y457D01*
X1728Y457D02*
X1737Y457D01*
X1766Y457D02*
X1773Y457D01*
X0Y456D02*
X7Y456D01*
X1329Y456D02*
X1338Y456D01*
X1728Y456D02*
X1737Y456D01*
X1766Y456D02*
X1773Y456D01*
X0Y455D02*
X7Y455D01*
X1330Y455D02*
X1339Y455D01*
X1728Y455D02*
X1737Y455D01*
X1766Y455D02*
X1773Y455D01*
X0Y454D02*
X7Y454D01*
X1330Y454D02*
X1339Y454D01*
X1728Y454D02*
X1737Y454D01*
X1766Y454D02*
X1773Y454D01*
X0Y453D02*
X7Y453D01*
X1330Y453D02*
X1339Y453D01*
X1728Y453D02*
X1737Y453D01*
X1766Y453D02*
X1773Y453D01*
X0Y452D02*
X7Y452D01*
X1330Y452D02*
X1339Y452D01*
X1728Y452D02*
X1737Y452D01*
X1766Y452D02*
X1773Y452D01*
X0Y451D02*
X7Y451D01*
X1330Y451D02*
X1339Y451D01*
X1727Y451D02*
X1736Y451D01*
X1766Y451D02*
X1773Y451D01*
X0Y450D02*
X7Y450D01*
X1330Y450D02*
X1339Y450D01*
X1727Y450D02*
X1736Y450D01*
X1766Y450D02*
X1773Y450D01*
X0Y449D02*
X7Y449D01*
X1330Y449D02*
X1339Y449D01*
X1727Y449D02*
X1736Y449D01*
X1766Y449D02*
X1773Y449D01*
X0Y448D02*
X7Y448D01*
X1330Y448D02*
X1339Y448D01*
X1727Y448D02*
X1736Y448D01*
X1766Y448D02*
X1773Y448D01*
X0Y447D02*
X7Y447D01*
X1330Y447D02*
X1339Y447D01*
X1727Y447D02*
X1736Y447D01*
X1766Y447D02*
X1773Y447D01*
X0Y446D02*
X7Y446D01*
X1331Y446D02*
X1340Y446D01*
X1727Y446D02*
X1736Y446D01*
X1766Y446D02*
X1773Y446D01*
X0Y445D02*
X7Y445D01*
X1331Y445D02*
X1340Y445D01*
X1727Y445D02*
X1736Y445D01*
X1766Y445D02*
X1773Y445D01*
X0Y444D02*
X7Y444D01*
X1331Y444D02*
X1340Y444D01*
X1727Y444D02*
X1736Y444D01*
X1766Y444D02*
X1773Y444D01*
X0Y443D02*
X7Y443D01*
X1331Y443D02*
X1340Y443D01*
X1726Y443D02*
X1735Y443D01*
X1766Y443D02*
X1773Y443D01*
X0Y442D02*
X7Y442D01*
X1331Y442D02*
X1340Y442D01*
X1726Y442D02*
X1735Y442D01*
X1766Y442D02*
X1773Y442D01*
X0Y441D02*
X7Y441D01*
X1331Y441D02*
X1340Y441D01*
X1726Y441D02*
X1735Y441D01*
X1766Y441D02*
X1773Y441D01*
X0Y440D02*
X7Y440D01*
X1331Y440D02*
X1340Y440D01*
X1726Y440D02*
X1735Y440D01*
X1766Y440D02*
X1773Y440D01*
X0Y439D02*
X7Y439D01*
X1332Y439D02*
X1341Y439D01*
X1726Y439D02*
X1735Y439D01*
X1766Y439D02*
X1773Y439D01*
X0Y438D02*
X7Y438D01*
X1332Y438D02*
X1341Y438D01*
X1726Y438D02*
X1735Y438D01*
X1766Y438D02*
X1773Y438D01*
X0Y437D02*
X7Y437D01*
X1332Y437D02*
X1341Y437D01*
X1725Y437D02*
X1734Y437D01*
X1766Y437D02*
X1773Y437D01*
X0Y436D02*
X7Y436D01*
X1332Y436D02*
X1341Y436D01*
X1725Y436D02*
X1734Y436D01*
X1766Y436D02*
X1773Y436D01*
X0Y435D02*
X7Y435D01*
X1332Y435D02*
X1341Y435D01*
X1725Y435D02*
X1734Y435D01*
X1766Y435D02*
X1773Y435D01*
X0Y434D02*
X7Y434D01*
X1332Y434D02*
X1342Y434D01*
X1725Y434D02*
X1734Y434D01*
X1766Y434D02*
X1773Y434D01*
X0Y433D02*
X7Y433D01*
X1333Y433D02*
X1342Y433D01*
X1725Y433D02*
X1734Y433D01*
X1766Y433D02*
X1773Y433D01*
X0Y432D02*
X7Y432D01*
X1333Y432D02*
X1342Y432D01*
X1724Y432D02*
X1733Y432D01*
X1766Y432D02*
X1773Y432D01*
X0Y431D02*
X7Y431D01*
X1333Y431D02*
X1342Y431D01*
X1724Y431D02*
X1733Y431D01*
X1766Y431D02*
X1773Y431D01*
X0Y430D02*
X7Y430D01*
X1333Y430D02*
X1342Y430D01*
X1724Y430D02*
X1733Y430D01*
X1766Y430D02*
X1773Y430D01*
X0Y429D02*
X7Y429D01*
X1334Y429D02*
X1343Y429D01*
X1724Y429D02*
X1733Y429D01*
X1766Y429D02*
X1773Y429D01*
X0Y428D02*
X7Y428D01*
X1334Y428D02*
X1343Y428D01*
X1723Y428D02*
X1733Y428D01*
X1766Y428D02*
X1773Y428D01*
X0Y427D02*
X7Y427D01*
X1334Y427D02*
X1343Y427D01*
X1723Y427D02*
X1732Y427D01*
X1766Y427D02*
X1773Y427D01*
X0Y426D02*
X7Y426D01*
X1334Y426D02*
X1343Y426D01*
X1723Y426D02*
X1732Y426D01*
X1766Y426D02*
X1773Y426D01*
X0Y425D02*
X7Y425D01*
X1334Y425D02*
X1344Y425D01*
X1723Y425D02*
X1732Y425D01*
X1766Y425D02*
X1773Y425D01*
X0Y424D02*
X7Y424D01*
X1335Y424D02*
X1344Y424D01*
X1723Y424D02*
X1732Y424D01*
X1766Y424D02*
X1773Y424D01*
X0Y423D02*
X7Y423D01*
X1335Y423D02*
X1344Y423D01*
X1722Y423D02*
X1731Y423D01*
X1766Y423D02*
X1773Y423D01*
X0Y422D02*
X7Y422D01*
X1335Y422D02*
X1344Y422D01*
X1722Y422D02*
X1731Y422D01*
X1766Y422D02*
X1773Y422D01*
X0Y421D02*
X7Y421D01*
X1335Y421D02*
X1345Y421D01*
X1722Y421D02*
X1731Y421D01*
X1766Y421D02*
X1773Y421D01*
X0Y420D02*
X7Y420D01*
X1336Y420D02*
X1345Y420D01*
X1721Y420D02*
X1731Y420D01*
X1766Y420D02*
X1773Y420D01*
X0Y419D02*
X7Y419D01*
X1336Y419D02*
X1345Y419D01*
X1721Y419D02*
X1730Y419D01*
X1766Y419D02*
X1773Y419D01*
X0Y418D02*
X7Y418D01*
X1336Y418D02*
X1345Y418D01*
X1721Y418D02*
X1730Y418D01*
X1766Y418D02*
X1773Y418D01*
X0Y417D02*
X7Y417D01*
X1337Y417D02*
X1346Y417D01*
X1721Y417D02*
X1730Y417D01*
X1766Y417D02*
X1773Y417D01*
X0Y416D02*
X7Y416D01*
X1337Y416D02*
X1346Y416D01*
X1720Y416D02*
X1729Y416D01*
X1766Y416D02*
X1773Y416D01*
X0Y415D02*
X7Y415D01*
X1337Y415D02*
X1346Y415D01*
X1720Y415D02*
X1729Y415D01*
X1766Y415D02*
X1773Y415D01*
X0Y414D02*
X7Y414D01*
X1337Y414D02*
X1347Y414D01*
X1720Y414D02*
X1729Y414D01*
X1766Y414D02*
X1773Y414D01*
X0Y413D02*
X7Y413D01*
X1338Y413D02*
X1347Y413D01*
X1719Y413D02*
X1729Y413D01*
X1766Y413D02*
X1773Y413D01*
X0Y412D02*
X7Y412D01*
X1338Y412D02*
X1347Y412D01*
X1719Y412D02*
X1728Y412D01*
X1766Y412D02*
X1773Y412D01*
X0Y411D02*
X7Y411D01*
X1338Y411D02*
X1348Y411D01*
X1719Y411D02*
X1728Y411D01*
X1766Y411D02*
X1773Y411D01*
X0Y410D02*
X7Y410D01*
X1339Y410D02*
X1348Y410D01*
X1718Y410D02*
X1728Y410D01*
X1766Y410D02*
X1773Y410D01*
X0Y409D02*
X7Y409D01*
X1339Y409D02*
X1348Y409D01*
X1718Y409D02*
X1727Y409D01*
X1766Y409D02*
X1773Y409D01*
X0Y408D02*
X7Y408D01*
X1339Y408D02*
X1349Y408D01*
X1718Y408D02*
X1727Y408D01*
X1766Y408D02*
X1773Y408D01*
X0Y407D02*
X7Y407D01*
X1340Y407D02*
X1349Y407D01*
X1717Y407D02*
X1727Y407D01*
X1766Y407D02*
X1773Y407D01*
X0Y406D02*
X7Y406D01*
X1340Y406D02*
X1349Y406D01*
X1717Y406D02*
X1726Y406D01*
X1766Y406D02*
X1773Y406D01*
X0Y405D02*
X7Y405D01*
X1340Y405D02*
X1350Y405D01*
X1717Y405D02*
X1726Y405D01*
X1766Y405D02*
X1773Y405D01*
X0Y404D02*
X7Y404D01*
X1341Y404D02*
X1350Y404D01*
X1716Y404D02*
X1726Y404D01*
X1766Y404D02*
X1773Y404D01*
X0Y403D02*
X7Y403D01*
X1341Y403D02*
X1350Y403D01*
X1716Y403D02*
X1725Y403D01*
X1766Y403D02*
X1773Y403D01*
X0Y402D02*
X7Y402D01*
X1341Y402D02*
X1351Y402D01*
X1715Y402D02*
X1725Y402D01*
X1766Y402D02*
X1773Y402D01*
X0Y401D02*
X7Y401D01*
X1342Y401D02*
X1351Y401D01*
X1715Y401D02*
X1724Y401D01*
X1766Y401D02*
X1773Y401D01*
X0Y400D02*
X7Y400D01*
X1342Y400D02*
X1352Y400D01*
X1715Y400D02*
X1724Y400D01*
X1766Y400D02*
X1773Y400D01*
X0Y399D02*
X7Y399D01*
X1343Y399D02*
X1352Y399D01*
X1714Y399D02*
X1724Y399D01*
X1766Y399D02*
X1773Y399D01*
X0Y398D02*
X7Y398D01*
X1343Y398D02*
X1352Y398D01*
X1714Y398D02*
X1723Y398D01*
X1766Y398D02*
X1773Y398D01*
X0Y397D02*
X7Y397D01*
X1343Y397D02*
X1353Y397D01*
X1714Y397D02*
X1723Y397D01*
X1766Y397D02*
X1773Y397D01*
X0Y396D02*
X7Y396D01*
X1344Y396D02*
X1353Y396D01*
X1713Y396D02*
X1722Y396D01*
X1766Y396D02*
X1773Y396D01*
X0Y395D02*
X7Y395D01*
X1344Y395D02*
X1354Y395D01*
X1713Y395D02*
X1722Y395D01*
X1766Y395D02*
X1773Y395D01*
X0Y394D02*
X7Y394D01*
X1345Y394D02*
X1354Y394D01*
X1712Y394D02*
X1722Y394D01*
X1766Y394D02*
X1773Y394D01*
X0Y393D02*
X7Y393D01*
X1345Y393D02*
X1355Y393D01*
X1712Y393D02*
X1721Y393D01*
X1766Y393D02*
X1773Y393D01*
X0Y392D02*
X7Y392D01*
X1346Y392D02*
X1355Y392D01*
X1711Y392D02*
X1721Y392D01*
X1766Y392D02*
X1773Y392D01*
X0Y391D02*
X7Y391D01*
X1346Y391D02*
X1355Y391D01*
X1711Y391D02*
X1720Y391D01*
X1766Y391D02*
X1773Y391D01*
X0Y390D02*
X7Y390D01*
X1346Y390D02*
X1356Y390D01*
X1710Y390D02*
X1720Y390D01*
X1766Y390D02*
X1773Y390D01*
X0Y389D02*
X7Y389D01*
X1347Y389D02*
X1356Y389D01*
X1710Y389D02*
X1719Y389D01*
X1766Y389D02*
X1773Y389D01*
X0Y388D02*
X7Y388D01*
X1347Y388D02*
X1357Y388D01*
X1710Y388D02*
X1719Y388D01*
X1766Y388D02*
X1773Y388D01*
X0Y387D02*
X7Y387D01*
X1348Y387D02*
X1357Y387D01*
X1709Y387D02*
X1719Y387D01*
X1766Y387D02*
X1773Y387D01*
X0Y386D02*
X7Y386D01*
X1348Y386D02*
X1358Y386D01*
X1708Y386D02*
X1718Y386D01*
X1766Y386D02*
X1773Y386D01*
X0Y385D02*
X7Y385D01*
X1349Y385D02*
X1358Y385D01*
X1708Y385D02*
X1718Y385D01*
X1766Y385D02*
X1773Y385D01*
X0Y384D02*
X7Y384D01*
X1349Y384D02*
X1359Y384D01*
X1707Y384D02*
X1717Y384D01*
X1766Y384D02*
X1773Y384D01*
X0Y383D02*
X7Y383D01*
X1350Y383D02*
X1359Y383D01*
X1707Y383D02*
X1717Y383D01*
X1766Y383D02*
X1773Y383D01*
X0Y382D02*
X7Y382D01*
X1350Y382D02*
X1360Y382D01*
X1706Y382D02*
X1716Y382D01*
X1766Y382D02*
X1773Y382D01*
X0Y381D02*
X7Y381D01*
X1351Y381D02*
X1360Y381D01*
X1706Y381D02*
X1716Y381D01*
X1766Y381D02*
X1773Y381D01*
X0Y380D02*
X7Y380D01*
X1351Y380D02*
X1361Y380D01*
X1705Y380D02*
X1715Y380D01*
X1766Y380D02*
X1773Y380D01*
X0Y379D02*
X7Y379D01*
X1352Y379D02*
X1361Y379D01*
X1705Y379D02*
X1715Y379D01*
X1766Y379D02*
X1773Y379D01*
X0Y378D02*
X7Y378D01*
X1352Y378D02*
X1362Y378D01*
X1704Y378D02*
X1714Y378D01*
X1766Y378D02*
X1773Y378D01*
X0Y377D02*
X7Y377D01*
X1353Y377D02*
X1363Y377D01*
X1704Y377D02*
X1714Y377D01*
X1766Y377D02*
X1773Y377D01*
X0Y376D02*
X7Y376D01*
X1353Y376D02*
X1363Y376D01*
X1703Y376D02*
X1713Y376D01*
X1766Y376D02*
X1773Y376D01*
X0Y375D02*
X7Y375D01*
X1354Y375D02*
X1364Y375D01*
X1703Y375D02*
X1712Y375D01*
X1766Y375D02*
X1773Y375D01*
X0Y374D02*
X7Y374D01*
X1354Y374D02*
X1364Y374D01*
X1702Y374D02*
X1712Y374D01*
X1766Y374D02*
X1773Y374D01*
X0Y373D02*
X7Y373D01*
X1355Y373D02*
X1365Y373D01*
X1701Y373D02*
X1711Y373D01*
X1766Y373D02*
X1773Y373D01*
X0Y372D02*
X7Y372D01*
X1356Y372D02*
X1365Y372D01*
X1701Y372D02*
X1711Y372D01*
X1766Y372D02*
X1773Y372D01*
X0Y371D02*
X7Y371D01*
X1356Y371D02*
X1366Y371D01*
X1700Y371D02*
X1710Y371D01*
X1766Y371D02*
X1773Y371D01*
X0Y370D02*
X7Y370D01*
X1357Y370D02*
X1367Y370D01*
X1700Y370D02*
X1710Y370D01*
X1766Y370D02*
X1773Y370D01*
X0Y369D02*
X7Y369D01*
X1357Y369D02*
X1367Y369D01*
X1699Y369D02*
X1709Y369D01*
X1766Y369D02*
X1773Y369D01*
X0Y368D02*
X7Y368D01*
X1358Y368D02*
X1368Y368D01*
X1698Y368D02*
X1708Y368D01*
X1766Y368D02*
X1773Y368D01*
X0Y367D02*
X7Y367D01*
X1358Y367D02*
X1369Y367D01*
X1698Y367D02*
X1708Y367D01*
X1766Y367D02*
X1773Y367D01*
X0Y366D02*
X7Y366D01*
X1359Y366D02*
X1369Y366D01*
X1697Y366D02*
X1707Y366D01*
X1766Y366D02*
X1773Y366D01*
X0Y365D02*
X7Y365D01*
X1360Y365D02*
X1370Y365D01*
X1696Y365D02*
X1707Y365D01*
X1766Y365D02*
X1773Y365D01*
X0Y364D02*
X7Y364D01*
X1360Y364D02*
X1371Y364D01*
X1696Y364D02*
X1706Y364D01*
X1766Y364D02*
X1773Y364D01*
X0Y363D02*
X7Y363D01*
X1361Y363D02*
X1371Y363D01*
X1695Y363D02*
X1705Y363D01*
X1766Y363D02*
X1773Y363D01*
X0Y362D02*
X7Y362D01*
X1362Y362D02*
X1372Y362D01*
X1694Y362D02*
X1705Y362D01*
X1766Y362D02*
X1773Y362D01*
X0Y361D02*
X7Y361D01*
X1362Y361D02*
X1373Y361D01*
X1694Y361D02*
X1704Y361D01*
X1766Y361D02*
X1773Y361D01*
X0Y360D02*
X7Y360D01*
X1363Y360D02*
X1373Y360D01*
X1693Y360D02*
X1703Y360D01*
X1766Y360D02*
X1773Y360D01*
X0Y359D02*
X7Y359D01*
X1364Y359D02*
X1374Y359D01*
X1692Y359D02*
X1703Y359D01*
X1766Y359D02*
X1773Y359D01*
X0Y358D02*
X7Y358D01*
X1364Y358D02*
X1375Y358D01*
X1692Y358D02*
X1702Y358D01*
X1766Y358D02*
X1773Y358D01*
X0Y357D02*
X7Y357D01*
X1365Y357D02*
X1375Y357D01*
X1691Y357D02*
X1701Y357D01*
X1766Y357D02*
X1773Y357D01*
X0Y356D02*
X7Y356D01*
X1366Y356D02*
X1376Y356D01*
X1690Y356D02*
X1701Y356D01*
X1766Y356D02*
X1773Y356D01*
X0Y355D02*
X7Y355D01*
X1366Y355D02*
X1377Y355D01*
X1689Y355D02*
X1700Y355D01*
X1766Y355D02*
X1773Y355D01*
X0Y354D02*
X7Y354D01*
X1367Y354D02*
X1378Y354D01*
X1689Y354D02*
X1699Y354D01*
X1766Y354D02*
X1773Y354D01*
X0Y353D02*
X7Y353D01*
X1368Y353D02*
X1379Y353D01*
X1688Y353D02*
X1698Y353D01*
X1766Y353D02*
X1773Y353D01*
X0Y352D02*
X7Y352D01*
X1369Y352D02*
X1379Y352D01*
X1687Y352D02*
X1698Y352D01*
X1766Y352D02*
X1773Y352D01*
X0Y351D02*
X7Y351D01*
X1369Y351D02*
X1380Y351D01*
X1686Y351D02*
X1697Y351D01*
X1766Y351D02*
X1773Y351D01*
X0Y350D02*
X7Y350D01*
X1370Y350D02*
X1381Y350D01*
X1685Y350D02*
X1696Y350D01*
X1766Y350D02*
X1773Y350D01*
X0Y349D02*
X7Y349D01*
X1371Y349D02*
X1382Y349D01*
X1685Y349D02*
X1696Y349D01*
X1766Y349D02*
X1773Y349D01*
X0Y348D02*
X7Y348D01*
X1372Y348D02*
X1382Y348D01*
X1684Y348D02*
X1695Y348D01*
X1766Y348D02*
X1773Y348D01*
X0Y347D02*
X7Y347D01*
X1372Y347D02*
X1383Y347D01*
X1683Y347D02*
X1694Y347D01*
X1766Y347D02*
X1773Y347D01*
X0Y346D02*
X7Y346D01*
X1373Y346D02*
X1384Y346D01*
X1682Y346D02*
X1693Y346D01*
X1766Y346D02*
X1773Y346D01*
X0Y345D02*
X7Y345D01*
X1374Y345D02*
X1385Y345D01*
X1681Y345D02*
X1692Y345D01*
X1766Y345D02*
X1773Y345D01*
X0Y344D02*
X7Y344D01*
X1375Y344D02*
X1386Y344D01*
X1680Y344D02*
X1692Y344D01*
X1766Y344D02*
X1773Y344D01*
X0Y343D02*
X7Y343D01*
X1376Y343D02*
X1387Y343D01*
X1680Y343D02*
X1691Y343D01*
X1766Y343D02*
X1773Y343D01*
X0Y342D02*
X7Y342D01*
X1376Y342D02*
X1388Y342D01*
X1679Y342D02*
X1690Y342D01*
X1766Y342D02*
X1773Y342D01*
X0Y341D02*
X7Y341D01*
X1377Y341D02*
X1389Y341D01*
X1678Y341D02*
X1689Y341D01*
X1766Y341D02*
X1773Y341D01*
X0Y340D02*
X7Y340D01*
X1378Y340D02*
X1390Y340D01*
X1677Y340D02*
X1688Y340D01*
X1766Y340D02*
X1773Y340D01*
X0Y339D02*
X7Y339D01*
X1379Y339D02*
X1390Y339D01*
X1676Y339D02*
X1687Y339D01*
X1766Y339D02*
X1773Y339D01*
X0Y338D02*
X7Y338D01*
X1380Y338D02*
X1391Y338D01*
X1675Y338D02*
X1686Y338D01*
X1766Y338D02*
X1773Y338D01*
X0Y337D02*
X7Y337D01*
X1381Y337D02*
X1392Y337D01*
X1674Y337D02*
X1686Y337D01*
X1766Y337D02*
X1773Y337D01*
X0Y336D02*
X7Y336D01*
X1382Y336D02*
X1393Y336D01*
X1673Y336D02*
X1685Y336D01*
X1766Y336D02*
X1773Y336D01*
X0Y335D02*
X7Y335D01*
X1382Y335D02*
X1394Y335D01*
X1672Y335D02*
X1684Y335D01*
X1766Y335D02*
X1773Y335D01*
X0Y334D02*
X7Y334D01*
X1383Y334D02*
X1395Y334D01*
X1671Y334D02*
X1683Y334D01*
X1766Y334D02*
X1773Y334D01*
X0Y333D02*
X7Y333D01*
X1384Y333D02*
X1396Y333D01*
X1670Y333D02*
X1682Y333D01*
X1766Y333D02*
X1773Y333D01*
X0Y332D02*
X7Y332D01*
X1385Y332D02*
X1397Y332D01*
X1669Y332D02*
X1681Y332D01*
X1766Y332D02*
X1773Y332D01*
X0Y331D02*
X7Y331D01*
X1386Y331D02*
X1398Y331D01*
X1668Y331D02*
X1680Y331D01*
X1766Y331D02*
X1773Y331D01*
X0Y330D02*
X7Y330D01*
X1387Y330D02*
X1400Y330D01*
X1667Y330D02*
X1679Y330D01*
X1766Y330D02*
X1773Y330D01*
X0Y329D02*
X7Y329D01*
X1388Y329D02*
X1401Y329D01*
X1666Y329D02*
X1678Y329D01*
X1766Y329D02*
X1773Y329D01*
X0Y328D02*
X7Y328D01*
X1389Y328D02*
X1402Y328D01*
X1665Y328D02*
X1677Y328D01*
X1766Y328D02*
X1773Y328D01*
X0Y327D02*
X7Y327D01*
X1390Y327D02*
X1403Y327D01*
X1664Y327D02*
X1676Y327D01*
X1766Y327D02*
X1773Y327D01*
X0Y326D02*
X7Y326D01*
X1391Y326D02*
X1404Y326D01*
X1662Y326D02*
X1675Y326D01*
X1766Y326D02*
X1773Y326D01*
X0Y325D02*
X7Y325D01*
X1392Y325D02*
X1405Y325D01*
X1661Y325D02*
X1674Y325D01*
X1766Y325D02*
X1773Y325D01*
X0Y324D02*
X7Y324D01*
X1393Y324D02*
X1406Y324D01*
X1660Y324D02*
X1673Y324D01*
X1766Y324D02*
X1773Y324D01*
X0Y323D02*
X7Y323D01*
X1394Y323D02*
X1407Y323D01*
X1659Y323D02*
X1672Y323D01*
X1766Y323D02*
X1773Y323D01*
X0Y322D02*
X7Y322D01*
X1395Y322D02*
X1409Y322D01*
X1658Y322D02*
X1671Y322D01*
X1766Y322D02*
X1773Y322D01*
X0Y321D02*
X7Y321D01*
X1397Y321D02*
X1410Y321D01*
X1656Y321D02*
X1670Y321D01*
X1766Y321D02*
X1773Y321D01*
X0Y320D02*
X7Y320D01*
X1398Y320D02*
X1411Y320D01*
X1655Y320D02*
X1669Y320D01*
X1766Y320D02*
X1773Y320D01*
X0Y319D02*
X7Y319D01*
X1399Y319D02*
X1412Y319D01*
X1654Y319D02*
X1667Y319D01*
X1766Y319D02*
X1773Y319D01*
X0Y318D02*
X7Y318D01*
X1400Y318D02*
X1414Y318D01*
X1653Y318D02*
X1666Y318D01*
X1766Y318D02*
X1773Y318D01*
X0Y317D02*
X7Y317D01*
X1401Y317D02*
X1415Y317D01*
X1651Y317D02*
X1665Y317D01*
X1766Y317D02*
X1773Y317D01*
X0Y316D02*
X7Y316D01*
X1402Y316D02*
X1416Y316D01*
X1650Y316D02*
X1664Y316D01*
X1766Y316D02*
X1773Y316D01*
X0Y315D02*
X7Y315D01*
X1404Y315D02*
X1418Y315D01*
X1649Y315D02*
X1663Y315D01*
X1766Y315D02*
X1773Y315D01*
X0Y314D02*
X7Y314D01*
X1405Y314D02*
X1419Y314D01*
X1647Y314D02*
X1662Y314D01*
X1766Y314D02*
X1773Y314D01*
X0Y313D02*
X7Y313D01*
X1406Y313D02*
X1421Y313D01*
X1646Y313D02*
X1660Y313D01*
X1766Y313D02*
X1773Y313D01*
X0Y312D02*
X7Y312D01*
X1407Y312D02*
X1422Y312D01*
X1644Y312D02*
X1659Y312D01*
X1766Y312D02*
X1773Y312D01*
X0Y311D02*
X7Y311D01*
X1409Y311D02*
X1423Y311D01*
X1643Y311D02*
X1658Y311D01*
X1766Y311D02*
X1773Y311D01*
X0Y310D02*
X7Y310D01*
X1410Y310D02*
X1425Y310D01*
X1641Y310D02*
X1656Y310D01*
X1766Y310D02*
X1773Y310D01*
X0Y309D02*
X7Y309D01*
X1411Y309D02*
X1427Y309D01*
X1640Y309D02*
X1655Y309D01*
X1766Y309D02*
X1773Y309D01*
X0Y308D02*
X7Y308D01*
X1413Y308D02*
X1428Y308D01*
X1638Y308D02*
X1654Y308D01*
X1766Y308D02*
X1773Y308D01*
X0Y307D02*
X7Y307D01*
X1414Y307D02*
X1430Y307D01*
X1637Y307D02*
X1652Y307D01*
X1766Y307D02*
X1773Y307D01*
X0Y306D02*
X7Y306D01*
X1415Y306D02*
X1431Y306D01*
X1635Y306D02*
X1651Y306D01*
X1766Y306D02*
X1773Y306D01*
X0Y305D02*
X7Y305D01*
X1417Y305D02*
X1433Y305D01*
X1633Y305D02*
X1650Y305D01*
X1766Y305D02*
X1773Y305D01*
X0Y304D02*
X7Y304D01*
X1418Y304D02*
X1435Y304D01*
X1632Y304D02*
X1648Y304D01*
X1766Y304D02*
X1773Y304D01*
X0Y303D02*
X7Y303D01*
X1420Y303D02*
X1436Y303D01*
X1630Y303D02*
X1647Y303D01*
X1766Y303D02*
X1773Y303D01*
X0Y302D02*
X7Y302D01*
X1421Y302D02*
X1438Y302D01*
X1628Y302D02*
X1645Y302D01*
X1766Y302D02*
X1773Y302D01*
X0Y301D02*
X7Y301D01*
X1423Y301D02*
X1440Y301D01*
X1626Y301D02*
X1644Y301D01*
X1766Y301D02*
X1773Y301D01*
X0Y300D02*
X7Y300D01*
X1424Y300D02*
X1442Y300D01*
X1624Y300D02*
X1642Y300D01*
X1766Y300D02*
X1773Y300D01*
X0Y299D02*
X7Y299D01*
X1426Y299D02*
X1444Y299D01*
X1622Y299D02*
X1641Y299D01*
X1766Y299D02*
X1773Y299D01*
X0Y298D02*
X7Y298D01*
X1427Y298D02*
X1446Y298D01*
X1620Y298D02*
X1639Y298D01*
X1766Y298D02*
X1773Y298D01*
X0Y297D02*
X7Y297D01*
X1429Y297D02*
X1448Y297D01*
X1618Y297D02*
X1637Y297D01*
X1766Y297D02*
X1773Y297D01*
X0Y296D02*
X7Y296D01*
X1431Y296D02*
X1450Y296D01*
X1616Y296D02*
X1636Y296D01*
X1766Y296D02*
X1773Y296D01*
X0Y295D02*
X7Y295D01*
X1432Y295D02*
X1452Y295D01*
X1614Y295D02*
X1634Y295D01*
X1766Y295D02*
X1773Y295D01*
X0Y294D02*
X7Y294D01*
X1434Y294D02*
X1455Y294D01*
X1612Y294D02*
X1632Y294D01*
X1766Y294D02*
X1773Y294D01*
X0Y293D02*
X7Y293D01*
X1436Y293D02*
X1457Y293D01*
X1610Y293D02*
X1630Y293D01*
X1766Y293D02*
X1773Y293D01*
X0Y292D02*
X7Y292D01*
X1438Y292D02*
X1459Y292D01*
X1607Y292D02*
X1629Y292D01*
X1766Y292D02*
X1773Y292D01*
X0Y291D02*
X7Y291D01*
X1440Y291D02*
X1462Y291D01*
X1604Y291D02*
X1627Y291D01*
X1766Y291D02*
X1773Y291D01*
X0Y290D02*
X7Y290D01*
X1442Y290D02*
X1464Y290D01*
X1602Y290D02*
X1625Y290D01*
X1766Y290D02*
X1773Y290D01*
X0Y289D02*
X7Y289D01*
X1444Y289D02*
X1467Y289D01*
X1599Y289D02*
X1623Y289D01*
X1766Y289D02*
X1773Y289D01*
X0Y288D02*
X7Y288D01*
X1446Y288D02*
X1470Y288D01*
X1596Y288D02*
X1621Y288D01*
X1766Y288D02*
X1773Y288D01*
X0Y287D02*
X7Y287D01*
X1448Y287D02*
X1473Y287D01*
X1593Y287D02*
X1619Y287D01*
X1766Y287D02*
X1773Y287D01*
X0Y286D02*
X7Y286D01*
X1450Y286D02*
X1477Y286D01*
X1590Y286D02*
X1616Y286D01*
X1766Y286D02*
X1773Y286D01*
X0Y285D02*
X7Y285D01*
X1452Y285D02*
X1480Y285D01*
X1586Y285D02*
X1614Y285D01*
X1766Y285D02*
X1773Y285D01*
X0Y284D02*
X7Y284D01*
X1454Y284D02*
X1484Y284D01*
X1583Y284D02*
X1612Y284D01*
X1766Y284D02*
X1773Y284D01*
X0Y283D02*
X7Y283D01*
X1457Y283D02*
X1488Y283D01*
X1578Y283D02*
X1609Y283D01*
X1766Y283D02*
X1773Y283D01*
X0Y282D02*
X7Y282D01*
X1460Y282D02*
X1493Y282D01*
X1574Y282D02*
X1607Y282D01*
X1766Y282D02*
X1773Y282D01*
X0Y281D02*
X7Y281D01*
X1462Y281D02*
X1498Y281D01*
X1568Y281D02*
X1604Y281D01*
X1766Y281D02*
X1773Y281D01*
X0Y280D02*
X7Y280D01*
X1465Y280D02*
X1504Y280D01*
X1562Y280D02*
X1602Y280D01*
X1766Y280D02*
X1773Y280D01*
X0Y279D02*
X7Y279D01*
X1468Y279D02*
X1512Y279D01*
X1554Y279D02*
X1599Y279D01*
X1766Y279D02*
X1773Y279D01*
X0Y278D02*
X7Y278D01*
X1471Y278D02*
X1529Y278D01*
X1537Y278D02*
X1596Y278D01*
X1766Y278D02*
X1773Y278D01*
X0Y277D02*
X7Y277D01*
X1474Y277D02*
X1593Y277D01*
X1766Y277D02*
X1773Y277D01*
X0Y276D02*
X7Y276D01*
X1477Y276D02*
X1589Y276D01*
X1766Y276D02*
X1773Y276D01*
X0Y275D02*
X7Y275D01*
X1481Y275D02*
X1586Y275D01*
X1766Y275D02*
X1773Y275D01*
X0Y274D02*
X7Y274D01*
X1484Y274D02*
X1582Y274D01*
X1766Y274D02*
X1773Y274D01*
X0Y273D02*
X7Y273D01*
X1489Y273D02*
X1578Y273D01*
X1766Y273D02*
X1773Y273D01*
X0Y272D02*
X7Y272D01*
X1493Y272D02*
X1573Y272D01*
X1766Y272D02*
X1773Y272D01*
X0Y271D02*
X7Y271D01*
X1499Y271D02*
X1568Y271D01*
X1766Y271D02*
X1773Y271D01*
X0Y270D02*
X7Y270D01*
X1505Y270D02*
X1562Y270D01*
X1766Y270D02*
X1773Y270D01*
X0Y269D02*
X7Y269D01*
X1513Y269D02*
X1554Y269D01*
X1766Y269D02*
X1773Y269D01*
X0Y268D02*
X7Y268D01*
X1530Y268D02*
X1536Y268D01*
X1766Y268D02*
X1773Y268D01*
X0Y267D02*
X7Y267D01*
X1766Y267D02*
X1773Y267D01*
X0Y266D02*
X7Y266D01*
X1766Y266D02*
X1773Y266D01*
X0Y265D02*
X7Y265D01*
X1766Y265D02*
X1773Y265D01*
X0Y264D02*
X7Y264D01*
X1766Y264D02*
X1773Y264D01*
X0Y263D02*
X7Y263D01*
X1766Y263D02*
X1773Y263D01*
X0Y262D02*
X7Y262D01*
X1766Y262D02*
X1773Y262D01*
X0Y261D02*
X7Y261D01*
X1766Y261D02*
X1773Y261D01*
X0Y260D02*
X7Y260D01*
X1766Y260D02*
X1773Y260D01*
X0Y259D02*
X7Y259D01*
X1766Y259D02*
X1773Y259D01*
X0Y258D02*
X7Y258D01*
X1766Y258D02*
X1773Y258D01*
X0Y257D02*
X7Y257D01*
X1766Y257D02*
X1773Y257D01*
X0Y256D02*
X7Y256D01*
X1766Y256D02*
X1773Y256D01*
X0Y255D02*
X7Y255D01*
X1766Y255D02*
X1773Y255D01*
X0Y254D02*
X7Y254D01*
X1766Y254D02*
X1773Y254D01*
X0Y253D02*
X7Y253D01*
X1766Y253D02*
X1773Y253D01*
X0Y252D02*
X7Y252D01*
X1766Y252D02*
X1773Y252D01*
X0Y251D02*
X7Y251D01*
X1766Y251D02*
X1773Y251D01*
X0Y250D02*
X7Y250D01*
X1766Y250D02*
X1773Y250D01*
X0Y249D02*
X7Y249D01*
X1766Y249D02*
X1773Y249D01*
X0Y248D02*
X7Y248D01*
X1766Y248D02*
X1773Y248D01*
X0Y247D02*
X7Y247D01*
X1766Y247D02*
X1773Y247D01*
X0Y246D02*
X7Y246D01*
X1766Y246D02*
X1773Y246D01*
X0Y245D02*
X7Y245D01*
X1766Y245D02*
X1773Y245D01*
X0Y244D02*
X7Y244D01*
X1766Y244D02*
X1773Y244D01*
X0Y243D02*
X7Y243D01*
X1766Y243D02*
X1773Y243D01*
X0Y242D02*
X7Y242D01*
X1766Y242D02*
X1773Y242D01*
X0Y241D02*
X7Y241D01*
X1766Y241D02*
X1773Y241D01*
X0Y240D02*
X7Y240D01*
X1766Y240D02*
X1773Y240D01*
X0Y239D02*
X7Y239D01*
X1766Y239D02*
X1773Y239D01*
X0Y238D02*
X7Y238D01*
X1766Y238D02*
X1773Y238D01*
X0Y237D02*
X7Y237D01*
X1766Y237D02*
X1773Y237D01*
X0Y236D02*
X7Y236D01*
X1766Y236D02*
X1773Y236D01*
X0Y235D02*
X7Y235D01*
X1766Y235D02*
X1773Y235D01*
X0Y234D02*
X7Y234D01*
X1766Y234D02*
X1773Y234D01*
X0Y233D02*
X7Y233D01*
X1766Y233D02*
X1773Y233D01*
X0Y232D02*
X7Y232D01*
X1766Y232D02*
X1773Y232D01*
X0Y231D02*
X7Y231D01*
X1766Y231D02*
X1773Y231D01*
X0Y230D02*
X7Y230D01*
X1766Y230D02*
X1773Y230D01*
X0Y229D02*
X7Y229D01*
X1766Y229D02*
X1773Y229D01*
X0Y228D02*
X7Y228D01*
X1766Y228D02*
X1773Y228D01*
X0Y227D02*
X7Y227D01*
X1766Y227D02*
X1773Y227D01*
X0Y226D02*
X7Y226D01*
X1766Y226D02*
X1773Y226D01*
X0Y225D02*
X7Y225D01*
X1766Y225D02*
X1773Y225D01*
X0Y224D02*
X7Y224D01*
X1766Y224D02*
X1773Y224D01*
X0Y223D02*
X7Y223D01*
X1766Y223D02*
X1773Y223D01*
X0Y222D02*
X7Y222D01*
X1766Y222D02*
X1773Y222D01*
X0Y221D02*
X7Y221D01*
X1766Y221D02*
X1773Y221D01*
X0Y220D02*
X7Y220D01*
X1766Y220D02*
X1773Y220D01*
X0Y219D02*
X7Y219D01*
X1766Y219D02*
X1773Y219D01*
X0Y218D02*
X7Y218D01*
X1766Y218D02*
X1773Y218D01*
X0Y217D02*
X7Y217D01*
X1766Y217D02*
X1773Y217D01*
X0Y216D02*
X7Y216D01*
X1766Y216D02*
X1773Y216D01*
X0Y215D02*
X7Y215D01*
X1766Y215D02*
X1773Y215D01*
X0Y214D02*
X7Y214D01*
X1766Y214D02*
X1773Y214D01*
X0Y213D02*
X7Y213D01*
X1766Y213D02*
X1773Y213D01*
X0Y212D02*
X7Y212D01*
X1766Y212D02*
X1773Y212D01*
X0Y211D02*
X7Y211D01*
X1766Y211D02*
X1773Y211D01*
X0Y210D02*
X7Y210D01*
X1766Y210D02*
X1773Y210D01*
X0Y209D02*
X7Y209D01*
X1766Y209D02*
X1773Y209D01*
X0Y208D02*
X7Y208D01*
X1766Y208D02*
X1773Y208D01*
X0Y207D02*
X7Y207D01*
X1766Y207D02*
X1773Y207D01*
X0Y206D02*
X7Y206D01*
X1766Y206D02*
X1773Y206D01*
X0Y205D02*
X7Y205D01*
X1766Y205D02*
X1773Y205D01*
X0Y204D02*
X7Y204D01*
X1766Y204D02*
X1773Y204D01*
X0Y203D02*
X7Y203D01*
X1766Y203D02*
X1773Y203D01*
X0Y202D02*
X7Y202D01*
X1766Y202D02*
X1773Y202D01*
X0Y201D02*
X7Y201D01*
X1766Y201D02*
X1773Y201D01*
X0Y200D02*
X7Y200D01*
X1766Y200D02*
X1773Y200D01*
X0Y199D02*
X7Y199D01*
X1766Y199D02*
X1773Y199D01*
X0Y198D02*
X7Y198D01*
X1766Y198D02*
X1773Y198D01*
X0Y197D02*
X7Y197D01*
X1766Y197D02*
X1773Y197D01*
X0Y196D02*
X7Y196D01*
X1766Y196D02*
X1773Y196D01*
X0Y195D02*
X7Y195D01*
X1766Y195D02*
X1773Y195D01*
X0Y194D02*
X7Y194D01*
X1766Y194D02*
X1773Y194D01*
X0Y193D02*
X7Y193D01*
X1766Y193D02*
X1773Y193D01*
X0Y192D02*
X7Y192D01*
X1766Y192D02*
X1773Y192D01*
X0Y191D02*
X7Y191D01*
X1766Y191D02*
X1773Y191D01*
X0Y190D02*
X7Y190D01*
X1766Y190D02*
X1773Y190D01*
X0Y189D02*
X7Y189D01*
X1766Y189D02*
X1773Y189D01*
X0Y188D02*
X7Y188D01*
X1766Y188D02*
X1773Y188D01*
X0Y187D02*
X7Y187D01*
X1766Y187D02*
X1773Y187D01*
X0Y186D02*
X7Y186D01*
X1766Y186D02*
X1773Y186D01*
X0Y185D02*
X7Y185D01*
X1766Y185D02*
X1773Y185D01*
X0Y184D02*
X7Y184D01*
X1766Y184D02*
X1773Y184D01*
X0Y183D02*
X7Y183D01*
X1766Y183D02*
X1773Y183D01*
X0Y182D02*
X7Y182D01*
X1766Y182D02*
X1773Y182D01*
X0Y181D02*
X7Y181D01*
X1766Y181D02*
X1773Y181D01*
X0Y180D02*
X7Y180D01*
X1766Y180D02*
X1773Y180D01*
X0Y179D02*
X7Y179D01*
X1766Y179D02*
X1773Y179D01*
X0Y178D02*
X7Y178D01*
X1766Y178D02*
X1773Y178D01*
X0Y177D02*
X7Y177D01*
X1766Y177D02*
X1773Y177D01*
X0Y176D02*
X7Y176D01*
X1766Y176D02*
X1773Y176D01*
X0Y175D02*
X7Y175D01*
X1766Y175D02*
X1773Y175D01*
X0Y174D02*
X7Y174D01*
X1766Y174D02*
X1773Y174D01*
X0Y173D02*
X7Y173D01*
X1766Y173D02*
X1773Y173D01*
X0Y172D02*
X7Y172D01*
X1766Y172D02*
X1773Y172D01*
X0Y171D02*
X7Y171D01*
X1766Y171D02*
X1773Y171D01*
X0Y170D02*
X7Y170D01*
X1766Y170D02*
X1773Y170D01*
X0Y169D02*
X7Y169D01*
X1766Y169D02*
X1773Y169D01*
X0Y168D02*
X7Y168D01*
X1766Y168D02*
X1773Y168D01*
X0Y167D02*
X7Y167D01*
X1766Y167D02*
X1773Y167D01*
X0Y166D02*
X7Y166D01*
X1766Y166D02*
X1773Y166D01*
X0Y165D02*
X7Y165D01*
X1766Y165D02*
X1773Y165D01*
X0Y164D02*
X7Y164D01*
X1766Y164D02*
X1773Y164D01*
X0Y163D02*
X7Y163D01*
X1766Y163D02*
X1773Y163D01*
X0Y162D02*
X7Y162D01*
X1766Y162D02*
X1773Y162D01*
X0Y161D02*
X7Y161D01*
X1766Y161D02*
X1773Y161D01*
X0Y160D02*
X7Y160D01*
X1766Y160D02*
X1773Y160D01*
X0Y159D02*
X7Y159D01*
X1766Y159D02*
X1773Y159D01*
X0Y158D02*
X7Y158D01*
X1766Y158D02*
X1773Y158D01*
X0Y157D02*
X7Y157D01*
X1766Y157D02*
X1773Y157D01*
X0Y156D02*
X7Y156D01*
X1766Y156D02*
X1773Y156D01*
X0Y155D02*
X7Y155D01*
X1766Y155D02*
X1773Y155D01*
X0Y154D02*
X7Y154D01*
X1766Y154D02*
X1773Y154D01*
X0Y153D02*
X7Y153D01*
X1766Y153D02*
X1773Y153D01*
X0Y152D02*
X7Y152D01*
X1766Y152D02*
X1773Y152D01*
X0Y151D02*
X7Y151D01*
X1766Y151D02*
X1773Y151D01*
X0Y150D02*
X7Y150D01*
X1766Y150D02*
X1773Y150D01*
X0Y149D02*
X7Y149D01*
X1766Y149D02*
X1773Y149D01*
X0Y148D02*
X7Y148D01*
X1766Y148D02*
X1773Y148D01*
X0Y147D02*
X7Y147D01*
X1766Y147D02*
X1773Y147D01*
X0Y146D02*
X7Y146D01*
X1766Y146D02*
X1773Y146D01*
X0Y145D02*
X7Y145D01*
X1766Y145D02*
X1773Y145D01*
X0Y144D02*
X7Y144D01*
X1766Y144D02*
X1773Y144D01*
X0Y143D02*
X7Y143D01*
X1766Y143D02*
X1773Y143D01*
X0Y142D02*
X7Y142D01*
X1766Y142D02*
X1773Y142D01*
X0Y141D02*
X7Y141D01*
X1766Y141D02*
X1773Y141D01*
X0Y140D02*
X7Y140D01*
X1766Y140D02*
X1773Y140D01*
X0Y139D02*
X7Y139D01*
X1766Y139D02*
X1773Y139D01*
X0Y138D02*
X7Y138D01*
X1766Y138D02*
X1773Y138D01*
X0Y137D02*
X7Y137D01*
X1766Y137D02*
X1773Y137D01*
X0Y136D02*
X7Y136D01*
X1766Y136D02*
X1773Y136D01*
X0Y135D02*
X7Y135D01*
X1766Y135D02*
X1773Y135D01*
X0Y134D02*
X7Y134D01*
X1766Y134D02*
X1773Y134D01*
X0Y133D02*
X7Y133D01*
X1766Y133D02*
X1773Y133D01*
X0Y132D02*
X7Y132D01*
X1766Y132D02*
X1773Y132D01*
X0Y131D02*
X7Y131D01*
X1766Y131D02*
X1773Y131D01*
X0Y130D02*
X7Y130D01*
X1766Y130D02*
X1773Y130D01*
X0Y129D02*
X7Y129D01*
X1766Y129D02*
X1773Y129D01*
X0Y128D02*
X7Y128D01*
X1766Y128D02*
X1773Y128D01*
X0Y127D02*
X7Y127D01*
X1766Y127D02*
X1773Y127D01*
X0Y126D02*
X7Y126D01*
X1766Y126D02*
X1773Y126D01*
X0Y125D02*
X7Y125D01*
X1766Y125D02*
X1773Y125D01*
X0Y124D02*
X7Y124D01*
X1766Y124D02*
X1773Y124D01*
X0Y123D02*
X7Y123D01*
X1766Y123D02*
X1773Y123D01*
X0Y122D02*
X7Y122D01*
X1766Y122D02*
X1773Y122D01*
X0Y121D02*
X7Y121D01*
X1766Y121D02*
X1773Y121D01*
X0Y120D02*
X7Y120D01*
X1766Y120D02*
X1773Y120D01*
X0Y119D02*
X7Y119D01*
X1766Y119D02*
X1773Y119D01*
X0Y118D02*
X7Y118D01*
X1766Y118D02*
X1773Y118D01*
X0Y117D02*
X7Y117D01*
X1766Y117D02*
X1773Y117D01*
X0Y116D02*
X7Y116D01*
X1766Y116D02*
X1773Y116D01*
X0Y115D02*
X7Y115D01*
X1766Y115D02*
X1773Y115D01*
X0Y114D02*
X7Y114D01*
X1766Y114D02*
X1773Y114D01*
X0Y113D02*
X7Y113D01*
X1766Y113D02*
X1773Y113D01*
X0Y112D02*
X7Y112D01*
X1766Y112D02*
X1773Y112D01*
X0Y111D02*
X7Y111D01*
X1766Y111D02*
X1773Y111D01*
X0Y110D02*
X7Y110D01*
X1766Y110D02*
X1773Y110D01*
X0Y109D02*
X7Y109D01*
X1766Y109D02*
X1773Y109D01*
X0Y108D02*
X7Y108D01*
X1766Y108D02*
X1773Y108D01*
X0Y107D02*
X7Y107D01*
X1766Y107D02*
X1773Y107D01*
X0Y106D02*
X7Y106D01*
X1766Y106D02*
X1773Y106D01*
X0Y105D02*
X7Y105D01*
X1766Y105D02*
X1773Y105D01*
X0Y104D02*
X7Y104D01*
X1766Y104D02*
X1773Y104D01*
X0Y103D02*
X7Y103D01*
X1766Y103D02*
X1773Y103D01*
X0Y102D02*
X7Y102D01*
X1766Y102D02*
X1773Y102D01*
X0Y101D02*
X7Y101D01*
X1766Y101D02*
X1773Y101D01*
X0Y100D02*
X7Y100D01*
X1766Y100D02*
X1773Y100D01*
X0Y99D02*
X7Y99D01*
X1766Y99D02*
X1773Y99D01*
X0Y98D02*
X7Y98D01*
X1766Y98D02*
X1773Y98D01*
X0Y97D02*
X7Y97D01*
X1766Y97D02*
X1773Y97D01*
X0Y96D02*
X7Y96D01*
X1766Y96D02*
X1773Y96D01*
X0Y95D02*
X7Y95D01*
X1766Y95D02*
X1773Y95D01*
X0Y94D02*
X7Y94D01*
X1766Y94D02*
X1773Y94D01*
X0Y93D02*
X7Y93D01*
X1766Y93D02*
X1773Y93D01*
X0Y92D02*
X7Y92D01*
X1766Y92D02*
X1773Y92D01*
X0Y91D02*
X7Y91D01*
X1766Y91D02*
X1773Y91D01*
X0Y90D02*
X7Y90D01*
X1766Y90D02*
X1773Y90D01*
X0Y89D02*
X7Y89D01*
X1766Y89D02*
X1773Y89D01*
X0Y88D02*
X7Y88D01*
X1766Y88D02*
X1773Y88D01*
X0Y87D02*
X7Y87D01*
X1766Y87D02*
X1773Y87D01*
X0Y86D02*
X7Y86D01*
X1766Y86D02*
X1773Y86D01*
X0Y85D02*
X7Y85D01*
X1766Y85D02*
X1773Y85D01*
X0Y84D02*
X7Y84D01*
X1766Y84D02*
X1773Y84D01*
X0Y83D02*
X7Y83D01*
X1766Y83D02*
X1773Y83D01*
X0Y82D02*
X7Y82D01*
X1766Y82D02*
X1773Y82D01*
X0Y81D02*
X7Y81D01*
X1766Y81D02*
X1773Y81D01*
X0Y80D02*
X7Y80D01*
X1766Y80D02*
X1773Y80D01*
X0Y79D02*
X7Y79D01*
X1766Y79D02*
X1773Y79D01*
X0Y78D02*
X7Y78D01*
X1766Y78D02*
X1773Y78D01*
X0Y77D02*
X7Y77D01*
X1766Y77D02*
X1773Y77D01*
X0Y76D02*
X7Y76D01*
X1766Y76D02*
X1773Y76D01*
X0Y75D02*
X7Y75D01*
X1766Y75D02*
X1773Y75D01*
X0Y74D02*
X7Y74D01*
X1766Y74D02*
X1773Y74D01*
X0Y73D02*
X7Y73D01*
X1766Y73D02*
X1773Y73D01*
X0Y72D02*
X7Y72D01*
X1766Y72D02*
X1773Y72D01*
X0Y71D02*
X7Y71D01*
X1766Y71D02*
X1773Y71D01*
X0Y70D02*
X7Y70D01*
X1766Y70D02*
X1773Y70D01*
X0Y69D02*
X7Y69D01*
X1766Y69D02*
X1773Y69D01*
X0Y68D02*
X7Y68D01*
X1766Y68D02*
X1773Y68D01*
X0Y67D02*
X7Y67D01*
X1766Y67D02*
X1773Y67D01*
X0Y66D02*
X7Y66D01*
X1766Y66D02*
X1773Y66D01*
X0Y65D02*
X7Y65D01*
X1766Y65D02*
X1773Y65D01*
X0Y64D02*
X7Y64D01*
X1766Y64D02*
X1773Y64D01*
X0Y63D02*
X7Y63D01*
X1766Y63D02*
X1773Y63D01*
X0Y62D02*
X7Y62D01*
X1766Y62D02*
X1773Y62D01*
X0Y61D02*
X7Y61D01*
X1766Y61D02*
X1773Y61D01*
X0Y60D02*
X7Y60D01*
X1766Y60D02*
X1773Y60D01*
X0Y59D02*
X7Y59D01*
X1766Y59D02*
X1773Y59D01*
X0Y58D02*
X7Y58D01*
X1766Y58D02*
X1773Y58D01*
X0Y57D02*
X7Y57D01*
X1766Y57D02*
X1773Y57D01*
X0Y56D02*
X7Y56D01*
X1766Y56D02*
X1773Y56D01*
X0Y55D02*
X7Y55D01*
X1766Y55D02*
X1773Y55D01*
X0Y54D02*
X7Y54D01*
X1766Y54D02*
X1773Y54D01*
X0Y53D02*
X7Y53D01*
X1766Y53D02*
X1773Y53D01*
X0Y52D02*
X7Y52D01*
X1766Y52D02*
X1773Y52D01*
X0Y51D02*
X7Y51D01*
X1766Y51D02*
X1773Y51D01*
X0Y50D02*
X7Y50D01*
X1766Y50D02*
X1773Y50D01*
X0Y49D02*
X7Y49D01*
X1766Y49D02*
X1773Y49D01*
X0Y48D02*
X7Y48D01*
X1766Y48D02*
X1773Y48D01*
X0Y47D02*
X7Y47D01*
X1766Y47D02*
X1773Y47D01*
X0Y46D02*
X7Y46D01*
X1766Y46D02*
X1773Y46D01*
X0Y45D02*
X7Y45D01*
X1766Y45D02*
X1773Y45D01*
X0Y44D02*
X7Y44D01*
X1766Y44D02*
X1773Y44D01*
X0Y43D02*
X7Y43D01*
X1766Y43D02*
X1773Y43D01*
X0Y42D02*
X7Y42D01*
X1766Y42D02*
X1773Y42D01*
X0Y41D02*
X7Y41D01*
X1766Y41D02*
X1773Y41D01*
X0Y40D02*
X7Y40D01*
X1766Y40D02*
X1773Y40D01*
X0Y39D02*
X7Y39D01*
X1766Y39D02*
X1773Y39D01*
X0Y38D02*
X7Y38D01*
X1766Y38D02*
X1773Y38D01*
X0Y37D02*
X7Y37D01*
X1766Y37D02*
X1773Y37D01*
X0Y36D02*
X7Y36D01*
X1766Y36D02*
X1773Y36D01*
X0Y35D02*
X7Y35D01*
X1766Y35D02*
X1773Y35D01*
X0Y34D02*
X7Y34D01*
X1766Y34D02*
X1773Y34D01*
X0Y33D02*
X7Y33D01*
X1766Y33D02*
X1773Y33D01*
X0Y32D02*
X7Y32D01*
X1766Y32D02*
X1773Y32D01*
X0Y31D02*
X7Y31D01*
X1766Y31D02*
X1773Y31D01*
X0Y30D02*
X7Y30D01*
X1766Y30D02*
X1773Y30D01*
X0Y29D02*
X7Y29D01*
X1766Y29D02*
X1773Y29D01*
X0Y28D02*
X7Y28D01*
X1766Y28D02*
X1773Y28D01*
X0Y27D02*
X7Y27D01*
X1766Y27D02*
X1773Y27D01*
X0Y26D02*
X7Y26D01*
X1766Y26D02*
X1773Y26D01*
X0Y25D02*
X7Y25D01*
X1766Y25D02*
X1773Y25D01*
X0Y24D02*
X7Y24D01*
X1766Y24D02*
X1773Y24D01*
X0Y23D02*
X7Y23D01*
X1766Y23D02*
X1773Y23D01*
X0Y22D02*
X7Y22D01*
X1766Y22D02*
X1773Y22D01*
X0Y21D02*
X7Y21D01*
X1766Y21D02*
X1773Y21D01*
X0Y20D02*
X7Y20D01*
X1766Y20D02*
X1773Y20D01*
X0Y19D02*
X7Y19D01*
X1766Y19D02*
X1773Y19D01*
X0Y18D02*
X7Y18D01*
X1766Y18D02*
X1773Y18D01*
X0Y17D02*
X7Y17D01*
X1766Y17D02*
X1773Y17D01*
X0Y16D02*
X7Y16D01*
X1766Y16D02*
X1773Y16D01*
X0Y15D02*
X7Y15D01*
X1766Y15D02*
X1773Y15D01*
X0Y14D02*
X7Y14D01*
X1766Y14D02*
X1773Y14D01*
X0Y13D02*
X7Y13D01*
X1766Y13D02*
X1773Y13D01*
X0Y12D02*
X7Y12D01*
X1766Y12D02*
X1773Y12D01*
X0Y11D02*
X7Y11D01*
X1766Y11D02*
X1773Y11D01*
X0Y10D02*
X7Y10D01*
X1766Y10D02*
X1773Y10D01*
X0Y9D02*
X1773Y9D01*
X0Y8D02*
X1773Y8D01*
X0Y7D02*
X1773Y7D01*
X0Y6D02*
X1773Y6D01*
X0Y5D02*
X1773Y5D01*
X0Y4D02*
X1773Y4D01*
X0Y3D02*
X1773Y3D01*
X0Y2D02*
X1773Y2D01*
D02*
G04 End of Silk1*
M02*