G04 MADE WITH FRITZING*
G04 WWW.FRITZING.ORG*
G04 DOUBLE SIDED*
G04 HOLES PLATED*
G04 CONTOUR ON CENTER OF CONTOUR VECTOR*
%ASAXBY*%
%FSLAX23Y23*%
%MOIN*%
%OFA0B0*%
%SFA1.0B1.0*%
%ADD10C,0.077717*%
%ADD11C,0.085000*%
%ADD12R,0.077716X0.077716*%
%ADD13R,0.085000X0.085000*%
%LNMASK0*%
G90*
G70*
G54D10*
X1034Y572D03*
X1034Y872D03*
X934Y572D03*
X934Y872D03*
X834Y572D03*
X834Y872D03*
X734Y572D03*
X734Y872D03*
X634Y572D03*
X634Y872D03*
X534Y572D03*
X534Y872D03*
X434Y572D03*
X434Y872D03*
X334Y572D03*
X334Y872D03*
X234Y572D03*
X234Y872D03*
X134Y572D03*
X134Y872D03*
X1034Y572D03*
X1034Y872D03*
X934Y572D03*
X934Y872D03*
X834Y572D03*
X834Y872D03*
X734Y572D03*
X734Y872D03*
X634Y572D03*
X634Y872D03*
X534Y572D03*
X534Y872D03*
X434Y572D03*
X434Y872D03*
X334Y572D03*
X334Y872D03*
X234Y572D03*
X234Y872D03*
X134Y572D03*
X134Y872D03*
X1634Y672D03*
X1634Y772D03*
X1634Y872D03*
X1634Y672D03*
X1634Y772D03*
X1634Y872D03*
X534Y1372D03*
X534Y1272D03*
X534Y1172D03*
X534Y1372D03*
X534Y1272D03*
X534Y1172D03*
X134Y1372D03*
X134Y1272D03*
X134Y1172D03*
X134Y1372D03*
X134Y1272D03*
X134Y1172D03*
G54D11*
X934Y972D03*
X1234Y972D03*
X934Y972D03*
X1234Y972D03*
X1134Y1372D03*
X1134Y1072D03*
X1134Y1372D03*
X1134Y1072D03*
X334Y1672D03*
X334Y1372D03*
X334Y1672D03*
X334Y1372D03*
X734Y1672D03*
X734Y1372D03*
X734Y1672D03*
X734Y1372D03*
G54D10*
X75Y187D03*
X175Y187D03*
X275Y187D03*
X375Y187D03*
X475Y187D03*
X575Y187D03*
X75Y187D03*
X175Y187D03*
X275Y187D03*
X375Y187D03*
X475Y187D03*
X575Y187D03*
X76Y73D03*
X176Y73D03*
X276Y73D03*
X376Y73D03*
X476Y73D03*
X576Y73D03*
X76Y73D03*
X176Y73D03*
X276Y73D03*
X376Y73D03*
X476Y73D03*
X576Y73D03*
X774Y72D03*
X874Y72D03*
X974Y72D03*
X1074Y72D03*
X1174Y72D03*
X1274Y72D03*
X1374Y72D03*
X1474Y72D03*
X774Y72D03*
X874Y72D03*
X974Y72D03*
X1074Y72D03*
X1174Y72D03*
X1274Y72D03*
X1374Y72D03*
X1474Y72D03*
X73Y1972D03*
X173Y1972D03*
X273Y1972D03*
X373Y1972D03*
X473Y1972D03*
X573Y1972D03*
X673Y1972D03*
X773Y1972D03*
X73Y1972D03*
X173Y1972D03*
X273Y1972D03*
X373Y1972D03*
X473Y1972D03*
X573Y1972D03*
X673Y1972D03*
X773Y1972D03*
X773Y189D03*
X873Y189D03*
X973Y189D03*
X1073Y189D03*
X1173Y189D03*
X1273Y189D03*
X1373Y189D03*
X1473Y189D03*
X773Y189D03*
X873Y189D03*
X973Y189D03*
X1073Y189D03*
X1173Y189D03*
X1273Y189D03*
X1373Y189D03*
X1473Y189D03*
X70Y1854D03*
X170Y1854D03*
X270Y1854D03*
X370Y1854D03*
X470Y1854D03*
X570Y1854D03*
X670Y1854D03*
X770Y1854D03*
X70Y1854D03*
X170Y1854D03*
X270Y1854D03*
X370Y1854D03*
X470Y1854D03*
X570Y1854D03*
X670Y1854D03*
X770Y1854D03*
X935Y1855D03*
X1035Y1855D03*
X1135Y1855D03*
X1235Y1855D03*
X1335Y1855D03*
X1435Y1855D03*
X1535Y1855D03*
X1635Y1855D03*
X935Y1855D03*
X1035Y1855D03*
X1135Y1855D03*
X1235Y1855D03*
X1335Y1855D03*
X1435Y1855D03*
X1535Y1855D03*
X1635Y1855D03*
X934Y1972D03*
X1034Y1972D03*
X1134Y1972D03*
X1234Y1972D03*
X1334Y1972D03*
X1434Y1972D03*
X1534Y1972D03*
X1634Y1972D03*
X934Y1972D03*
X1034Y1972D03*
X1134Y1972D03*
X1234Y1972D03*
X1334Y1972D03*
X1434Y1972D03*
X1534Y1972D03*
X1634Y1972D03*
G54D11*
X1434Y672D03*
X1434Y872D03*
X1434Y672D03*
X1434Y872D03*
X1234Y872D03*
X1234Y672D03*
X1234Y872D03*
X1234Y672D03*
X1534Y372D03*
X1534Y572D03*
X1534Y372D03*
X1534Y572D03*
G54D12*
X1034Y572D03*
X1034Y572D03*
G54D13*
X1434Y672D03*
X1434Y672D03*
X1234Y872D03*
X1234Y872D03*
X1534Y372D03*
X1534Y372D03*
G04 End of Mask0*
M02*