G04 MADE WITH FRITZING*
G04 WWW.FRITZING.ORG*
G04 DOUBLE SIDED*
G04 HOLES PLATED*
G04 CONTOUR ON CENTER OF CONTOUR VECTOR*
%ASAXBY*%
%FSLAX23Y23*%
%MOIN*%
%OFA0B0*%
%SFA1.0B1.0*%
%ADD10R,0.001000X0.001000*%
%LNSILK0*%
G90*
G70*
G54D10*
X30Y3738D02*
X881Y3738D01*
X929Y3738D02*
X931Y3738D01*
X979Y3738D02*
X1831Y3738D01*
X1879Y3738D02*
X1881Y3738D01*
X1929Y3738D02*
X2780Y3738D01*
X2829Y3738D02*
X2830Y3738D01*
X2879Y3738D02*
X3729Y3738D01*
X3778Y3738D02*
X3779Y3738D01*
X3828Y3738D02*
X4698Y3738D01*
X4711Y3738D02*
X4711Y3738D01*
X30Y3737D02*
X880Y3737D01*
X930Y3737D02*
X930Y3737D01*
X980Y3737D02*
X1830Y3737D01*
X1880Y3737D02*
X1880Y3737D01*
X1930Y3737D02*
X2780Y3737D01*
X2829Y3737D02*
X2830Y3737D01*
X2879Y3737D02*
X3729Y3737D01*
X3778Y3737D02*
X3779Y3737D01*
X3828Y3737D02*
X4698Y3737D01*
X4711Y3737D02*
X4711Y3737D01*
X30Y3736D02*
X880Y3736D01*
X930Y3736D02*
X930Y3736D01*
X980Y3736D02*
X1830Y3736D01*
X1880Y3736D02*
X1880Y3736D01*
X1930Y3736D02*
X2780Y3736D01*
X2830Y3736D02*
X2830Y3736D01*
X2880Y3736D02*
X3729Y3736D01*
X3778Y3736D02*
X3779Y3736D01*
X3828Y3736D02*
X4697Y3736D01*
X30Y3735D02*
X880Y3735D01*
X930Y3735D02*
X930Y3735D01*
X980Y3735D02*
X1830Y3735D01*
X1880Y3735D02*
X1880Y3735D01*
X1930Y3735D02*
X2780Y3735D01*
X2830Y3735D02*
X2830Y3735D01*
X2880Y3735D02*
X3729Y3735D01*
X3779Y3735D02*
X3779Y3735D01*
X3829Y3735D02*
X4697Y3735D01*
X30Y3734D02*
X880Y3734D01*
X930Y3734D02*
X930Y3734D01*
X980Y3734D02*
X1830Y3734D01*
X1880Y3734D02*
X1880Y3734D01*
X1930Y3734D02*
X2780Y3734D01*
X2830Y3734D02*
X2830Y3734D01*
X2880Y3734D02*
X3729Y3734D01*
X3779Y3734D02*
X3779Y3734D01*
X3829Y3734D02*
X4696Y3734D01*
X30Y3733D02*
X880Y3733D01*
X930Y3733D02*
X930Y3733D01*
X980Y3733D02*
X1830Y3733D01*
X1880Y3733D02*
X1880Y3733D01*
X1930Y3733D02*
X2780Y3733D01*
X2830Y3733D02*
X2830Y3733D01*
X2880Y3733D02*
X3728Y3733D01*
X3829Y3733D02*
X4696Y3733D01*
X30Y3732D02*
X880Y3732D01*
X930Y3732D02*
X930Y3732D01*
X980Y3732D02*
X1830Y3732D01*
X1880Y3732D02*
X1880Y3732D01*
X1930Y3732D02*
X2780Y3732D01*
X2830Y3732D02*
X2830Y3732D01*
X2880Y3732D02*
X3729Y3732D01*
X3779Y3732D02*
X3779Y3732D01*
X3829Y3732D02*
X4696Y3732D01*
X30Y3731D02*
X880Y3731D01*
X930Y3731D02*
X930Y3731D01*
X980Y3731D02*
X1830Y3731D01*
X1880Y3731D02*
X1880Y3731D01*
X1930Y3731D02*
X2780Y3731D01*
X2830Y3731D02*
X2830Y3731D01*
X2880Y3731D02*
X3729Y3731D01*
X3779Y3731D02*
X3779Y3731D01*
X3829Y3731D02*
X4696Y3731D01*
X4711Y3728D02*
X4711Y3728D01*
X4710Y3727D02*
X4711Y3727D01*
X4709Y3726D02*
X4711Y3726D01*
X4707Y3725D02*
X4711Y3725D01*
X4704Y3724D02*
X4711Y3724D01*
X4704Y3723D02*
X4711Y3723D01*
X4704Y3722D02*
X4711Y3722D01*
X4704Y3721D02*
X4711Y3721D01*
X4704Y3720D02*
X4711Y3720D01*
X4704Y3719D02*
X4711Y3719D01*
X4704Y3718D02*
X4711Y3718D01*
X4704Y3717D02*
X4711Y3717D01*
X4704Y3716D02*
X4711Y3716D01*
X4704Y3715D02*
X4711Y3715D01*
X4704Y3714D02*
X4711Y3714D01*
X4704Y3713D02*
X4711Y3713D01*
X4704Y3712D02*
X4711Y3712D01*
X4704Y3711D02*
X4711Y3711D01*
X4704Y3710D02*
X4711Y3710D01*
X4710Y3709D02*
X4711Y3709D01*
X0Y3708D02*
X3Y3708D01*
X4706Y3708D02*
X4711Y3708D01*
X0Y3707D02*
X7Y3707D01*
X4704Y3707D02*
X4711Y3707D01*
X0Y3706D02*
X7Y3706D01*
X4704Y3706D02*
X4711Y3706D01*
X0Y3705D02*
X7Y3705D01*
X4704Y3705D02*
X4711Y3705D01*
X0Y3704D02*
X7Y3704D01*
X4704Y3704D02*
X4711Y3704D01*
X0Y3703D02*
X7Y3703D01*
X4704Y3703D02*
X4711Y3703D01*
X0Y3702D02*
X7Y3702D01*
X4704Y3702D02*
X4711Y3702D01*
X0Y3701D02*
X7Y3701D01*
X4704Y3701D02*
X4711Y3701D01*
X0Y3700D02*
X7Y3700D01*
X4704Y3700D02*
X4711Y3700D01*
X0Y3699D02*
X7Y3699D01*
X4704Y3699D02*
X4711Y3699D01*
X0Y3698D02*
X7Y3698D01*
X4704Y3698D02*
X4711Y3698D01*
X0Y3697D02*
X7Y3697D01*
X4704Y3697D02*
X4711Y3697D01*
X0Y3696D02*
X7Y3696D01*
X4704Y3696D02*
X4711Y3696D01*
X0Y3695D02*
X7Y3695D01*
X4704Y3695D02*
X4711Y3695D01*
X0Y3694D02*
X7Y3694D01*
X4704Y3694D02*
X4711Y3694D01*
X0Y3693D02*
X7Y3693D01*
X4704Y3693D02*
X4711Y3693D01*
X0Y3692D02*
X7Y3692D01*
X4704Y3692D02*
X4711Y3692D01*
X0Y3691D02*
X7Y3691D01*
X4704Y3691D02*
X4711Y3691D01*
X0Y3690D02*
X7Y3690D01*
X4704Y3690D02*
X4711Y3690D01*
X0Y3689D02*
X7Y3689D01*
X4704Y3689D02*
X4711Y3689D01*
X0Y3688D02*
X7Y3688D01*
X4704Y3688D02*
X4711Y3688D01*
X0Y3687D02*
X7Y3687D01*
X4704Y3687D02*
X4711Y3687D01*
X0Y3686D02*
X7Y3686D01*
X4704Y3686D02*
X4711Y3686D01*
X0Y3685D02*
X7Y3685D01*
X4704Y3685D02*
X4711Y3685D01*
X0Y3684D02*
X7Y3684D01*
X4704Y3684D02*
X4711Y3684D01*
X0Y3683D02*
X7Y3683D01*
X4704Y3683D02*
X4711Y3683D01*
X0Y3682D02*
X7Y3682D01*
X4704Y3682D02*
X4711Y3682D01*
X0Y3681D02*
X7Y3681D01*
X4704Y3681D02*
X4711Y3681D01*
X0Y3680D02*
X7Y3680D01*
X4704Y3680D02*
X4711Y3680D01*
X0Y3679D02*
X7Y3679D01*
X4704Y3679D02*
X4711Y3679D01*
X0Y3678D02*
X7Y3678D01*
X4704Y3678D02*
X4711Y3678D01*
X0Y3677D02*
X7Y3677D01*
X4704Y3677D02*
X4711Y3677D01*
X0Y3676D02*
X7Y3676D01*
X4704Y3676D02*
X4711Y3676D01*
X0Y3675D02*
X7Y3675D01*
X4704Y3675D02*
X4711Y3675D01*
X0Y3674D02*
X7Y3674D01*
X4704Y3674D02*
X4711Y3674D01*
X0Y3673D02*
X7Y3673D01*
X4704Y3673D02*
X4711Y3673D01*
X0Y3672D02*
X7Y3672D01*
X4704Y3672D02*
X4711Y3672D01*
X0Y3671D02*
X7Y3671D01*
X4704Y3671D02*
X4711Y3671D01*
X0Y3670D02*
X7Y3670D01*
X4704Y3670D02*
X4711Y3670D01*
X0Y3669D02*
X7Y3669D01*
X4704Y3669D02*
X4711Y3669D01*
X0Y3668D02*
X7Y3668D01*
X4704Y3668D02*
X4711Y3668D01*
X0Y3667D02*
X7Y3667D01*
X4704Y3667D02*
X4711Y3667D01*
X0Y3666D02*
X7Y3666D01*
X4704Y3666D02*
X4711Y3666D01*
X0Y3665D02*
X7Y3665D01*
X4704Y3665D02*
X4711Y3665D01*
X0Y3664D02*
X7Y3664D01*
X4704Y3664D02*
X4711Y3664D01*
X0Y3663D02*
X7Y3663D01*
X4704Y3663D02*
X4711Y3663D01*
X0Y3662D02*
X7Y3662D01*
X4704Y3662D02*
X4711Y3662D01*
X0Y3661D02*
X7Y3661D01*
X4704Y3661D02*
X4711Y3661D01*
X0Y3660D02*
X7Y3660D01*
X4704Y3660D02*
X4711Y3660D01*
X0Y3659D02*
X7Y3659D01*
X4704Y3659D02*
X4711Y3659D01*
X0Y3658D02*
X7Y3658D01*
X4704Y3658D02*
X4711Y3658D01*
X0Y3657D02*
X7Y3657D01*
X4704Y3657D02*
X4711Y3657D01*
X0Y3656D02*
X7Y3656D01*
X4704Y3656D02*
X4711Y3656D01*
X0Y3655D02*
X7Y3655D01*
X4704Y3655D02*
X4711Y3655D01*
X0Y3654D02*
X7Y3654D01*
X4704Y3654D02*
X4711Y3654D01*
X0Y3653D02*
X7Y3653D01*
X4704Y3653D02*
X4711Y3653D01*
X0Y3652D02*
X7Y3652D01*
X4704Y3652D02*
X4711Y3652D01*
X0Y3651D02*
X7Y3651D01*
X4704Y3651D02*
X4711Y3651D01*
X0Y3650D02*
X7Y3650D01*
X4704Y3650D02*
X4711Y3650D01*
X0Y3649D02*
X7Y3649D01*
X4704Y3649D02*
X4711Y3649D01*
X0Y3648D02*
X7Y3648D01*
X4704Y3648D02*
X4711Y3648D01*
X0Y3647D02*
X7Y3647D01*
X4704Y3647D02*
X4711Y3647D01*
X0Y3646D02*
X7Y3646D01*
X4704Y3646D02*
X4711Y3646D01*
X0Y3645D02*
X7Y3645D01*
X4704Y3645D02*
X4711Y3645D01*
X0Y3644D02*
X7Y3644D01*
X4704Y3644D02*
X4711Y3644D01*
X0Y3643D02*
X7Y3643D01*
X4704Y3643D02*
X4711Y3643D01*
X0Y3642D02*
X7Y3642D01*
X4704Y3642D02*
X4711Y3642D01*
X0Y3641D02*
X7Y3641D01*
X4704Y3641D02*
X4711Y3641D01*
X0Y3640D02*
X7Y3640D01*
X4704Y3640D02*
X4711Y3640D01*
X0Y3639D02*
X7Y3639D01*
X4704Y3639D02*
X4711Y3639D01*
X0Y3638D02*
X7Y3638D01*
X4704Y3638D02*
X4711Y3638D01*
X0Y3637D02*
X7Y3637D01*
X4704Y3637D02*
X4711Y3637D01*
X0Y3636D02*
X7Y3636D01*
X4704Y3636D02*
X4711Y3636D01*
X0Y3635D02*
X7Y3635D01*
X4704Y3635D02*
X4711Y3635D01*
X0Y3634D02*
X7Y3634D01*
X4704Y3634D02*
X4711Y3634D01*
X0Y3633D02*
X7Y3633D01*
X4704Y3633D02*
X4711Y3633D01*
X0Y3632D02*
X7Y3632D01*
X4704Y3632D02*
X4711Y3632D01*
X0Y3631D02*
X7Y3631D01*
X4704Y3631D02*
X4711Y3631D01*
X0Y3630D02*
X7Y3630D01*
X4704Y3630D02*
X4711Y3630D01*
X0Y3629D02*
X7Y3629D01*
X4704Y3629D02*
X4711Y3629D01*
X0Y3628D02*
X7Y3628D01*
X4704Y3628D02*
X4711Y3628D01*
X0Y3627D02*
X7Y3627D01*
X4704Y3627D02*
X4711Y3627D01*
X0Y3626D02*
X7Y3626D01*
X4704Y3626D02*
X4711Y3626D01*
X0Y3625D02*
X7Y3625D01*
X4704Y3625D02*
X4711Y3625D01*
X0Y3624D02*
X7Y3624D01*
X4704Y3624D02*
X4711Y3624D01*
X0Y3623D02*
X7Y3623D01*
X4704Y3623D02*
X4711Y3623D01*
X0Y3622D02*
X7Y3622D01*
X4704Y3622D02*
X4711Y3622D01*
X0Y3621D02*
X7Y3621D01*
X4704Y3621D02*
X4711Y3621D01*
X0Y3620D02*
X7Y3620D01*
X4704Y3620D02*
X4711Y3620D01*
X0Y3619D02*
X7Y3619D01*
X4704Y3619D02*
X4711Y3619D01*
X0Y3618D02*
X7Y3618D01*
X4704Y3618D02*
X4711Y3618D01*
X0Y3617D02*
X7Y3617D01*
X4704Y3617D02*
X4711Y3617D01*
X0Y3616D02*
X7Y3616D01*
X4704Y3616D02*
X4711Y3616D01*
X0Y3615D02*
X7Y3615D01*
X4704Y3615D02*
X4711Y3615D01*
X0Y3614D02*
X7Y3614D01*
X4704Y3614D02*
X4711Y3614D01*
X0Y3613D02*
X7Y3613D01*
X4704Y3613D02*
X4711Y3613D01*
X0Y3612D02*
X7Y3612D01*
X4704Y3612D02*
X4711Y3612D01*
X0Y3611D02*
X7Y3611D01*
X4704Y3611D02*
X4711Y3611D01*
X0Y3610D02*
X7Y3610D01*
X4704Y3610D02*
X4711Y3610D01*
X0Y3609D02*
X7Y3609D01*
X4704Y3609D02*
X4711Y3609D01*
X0Y3608D02*
X7Y3608D01*
X4704Y3608D02*
X4711Y3608D01*
X0Y3607D02*
X7Y3607D01*
X4704Y3607D02*
X4711Y3607D01*
X0Y3606D02*
X7Y3606D01*
X4704Y3606D02*
X4711Y3606D01*
X0Y3605D02*
X7Y3605D01*
X4704Y3605D02*
X4711Y3605D01*
X0Y3604D02*
X7Y3604D01*
X4704Y3604D02*
X4711Y3604D01*
X0Y3603D02*
X7Y3603D01*
X4704Y3603D02*
X4711Y3603D01*
X0Y3602D02*
X7Y3602D01*
X4704Y3602D02*
X4711Y3602D01*
X0Y3601D02*
X7Y3601D01*
X4704Y3601D02*
X4711Y3601D01*
X0Y3600D02*
X7Y3600D01*
X4704Y3600D02*
X4711Y3600D01*
X0Y3599D02*
X7Y3599D01*
X4704Y3599D02*
X4711Y3599D01*
X0Y3598D02*
X7Y3598D01*
X4704Y3598D02*
X4711Y3598D01*
X0Y3597D02*
X7Y3597D01*
X4704Y3597D02*
X4711Y3597D01*
X0Y3596D02*
X7Y3596D01*
X4704Y3596D02*
X4711Y3596D01*
X0Y3595D02*
X7Y3595D01*
X4704Y3595D02*
X4711Y3595D01*
X0Y3594D02*
X7Y3594D01*
X4704Y3594D02*
X4711Y3594D01*
X0Y3593D02*
X7Y3593D01*
X4704Y3593D02*
X4711Y3593D01*
X0Y3592D02*
X7Y3592D01*
X4704Y3592D02*
X4711Y3592D01*
X0Y3591D02*
X7Y3591D01*
X4704Y3591D02*
X4711Y3591D01*
X0Y3590D02*
X7Y3590D01*
X4704Y3590D02*
X4711Y3590D01*
X0Y3589D02*
X7Y3589D01*
X4704Y3589D02*
X4711Y3589D01*
X0Y3588D02*
X7Y3588D01*
X4704Y3588D02*
X4711Y3588D01*
X0Y3587D02*
X7Y3587D01*
X4704Y3587D02*
X4711Y3587D01*
X0Y3586D02*
X7Y3586D01*
X4704Y3586D02*
X4711Y3586D01*
X0Y3585D02*
X7Y3585D01*
X4704Y3585D02*
X4711Y3585D01*
X0Y3584D02*
X7Y3584D01*
X4704Y3584D02*
X4711Y3584D01*
X0Y3583D02*
X7Y3583D01*
X4704Y3583D02*
X4711Y3583D01*
X0Y3582D02*
X7Y3582D01*
X4704Y3582D02*
X4711Y3582D01*
X0Y3581D02*
X7Y3581D01*
X4704Y3581D02*
X4711Y3581D01*
X0Y3580D02*
X7Y3580D01*
X4704Y3580D02*
X4711Y3580D01*
X0Y3579D02*
X7Y3579D01*
X4704Y3579D02*
X4711Y3579D01*
X0Y3578D02*
X7Y3578D01*
X4704Y3578D02*
X4711Y3578D01*
X0Y3577D02*
X7Y3577D01*
X4704Y3577D02*
X4711Y3577D01*
X0Y3576D02*
X7Y3576D01*
X4704Y3576D02*
X4711Y3576D01*
X0Y3575D02*
X7Y3575D01*
X4704Y3575D02*
X4711Y3575D01*
X0Y3574D02*
X7Y3574D01*
X4704Y3574D02*
X4711Y3574D01*
X0Y3573D02*
X7Y3573D01*
X4704Y3573D02*
X4711Y3573D01*
X0Y3572D02*
X7Y3572D01*
X4704Y3572D02*
X4711Y3572D01*
X0Y3571D02*
X7Y3571D01*
X4704Y3571D02*
X4711Y3571D01*
X0Y3570D02*
X7Y3570D01*
X4704Y3570D02*
X4711Y3570D01*
X0Y3569D02*
X7Y3569D01*
X4704Y3569D02*
X4711Y3569D01*
X0Y3568D02*
X7Y3568D01*
X4704Y3568D02*
X4711Y3568D01*
X0Y3567D02*
X7Y3567D01*
X4704Y3567D02*
X4711Y3567D01*
X0Y3566D02*
X7Y3566D01*
X4704Y3566D02*
X4711Y3566D01*
X0Y3565D02*
X7Y3565D01*
X4704Y3565D02*
X4711Y3565D01*
X0Y3564D02*
X7Y3564D01*
X4704Y3564D02*
X4711Y3564D01*
X0Y3563D02*
X7Y3563D01*
X4704Y3563D02*
X4711Y3563D01*
X0Y3562D02*
X7Y3562D01*
X4704Y3562D02*
X4711Y3562D01*
X0Y3561D02*
X7Y3561D01*
X4704Y3561D02*
X4711Y3561D01*
X0Y3560D02*
X7Y3560D01*
X4704Y3560D02*
X4711Y3560D01*
X0Y3559D02*
X7Y3559D01*
X4704Y3559D02*
X4711Y3559D01*
X0Y3558D02*
X7Y3558D01*
X4704Y3558D02*
X4711Y3558D01*
X0Y3557D02*
X7Y3557D01*
X4704Y3557D02*
X4711Y3557D01*
X0Y3556D02*
X7Y3556D01*
X4704Y3556D02*
X4711Y3556D01*
X0Y3555D02*
X7Y3555D01*
X4704Y3555D02*
X4711Y3555D01*
X0Y3554D02*
X7Y3554D01*
X4704Y3554D02*
X4711Y3554D01*
X0Y3553D02*
X7Y3553D01*
X4704Y3553D02*
X4711Y3553D01*
X0Y3552D02*
X7Y3552D01*
X4704Y3552D02*
X4711Y3552D01*
X0Y3551D02*
X7Y3551D01*
X4704Y3551D02*
X4711Y3551D01*
X0Y3550D02*
X7Y3550D01*
X4704Y3550D02*
X4711Y3550D01*
X0Y3549D02*
X7Y3549D01*
X4704Y3549D02*
X4711Y3549D01*
X0Y3548D02*
X7Y3548D01*
X4704Y3548D02*
X4711Y3548D01*
X0Y3547D02*
X7Y3547D01*
X4704Y3547D02*
X4711Y3547D01*
X0Y3546D02*
X7Y3546D01*
X4704Y3546D02*
X4711Y3546D01*
X0Y3545D02*
X7Y3545D01*
X4704Y3545D02*
X4711Y3545D01*
X0Y3544D02*
X7Y3544D01*
X4704Y3544D02*
X4711Y3544D01*
X0Y3543D02*
X7Y3543D01*
X4704Y3543D02*
X4711Y3543D01*
X0Y3542D02*
X7Y3542D01*
X4704Y3542D02*
X4711Y3542D01*
X0Y3541D02*
X7Y3541D01*
X4704Y3541D02*
X4711Y3541D01*
X0Y3540D02*
X7Y3540D01*
X4704Y3540D02*
X4711Y3540D01*
X0Y3539D02*
X7Y3539D01*
X4704Y3539D02*
X4711Y3539D01*
X0Y3538D02*
X7Y3538D01*
X4704Y3538D02*
X4711Y3538D01*
X0Y3537D02*
X7Y3537D01*
X4704Y3537D02*
X4711Y3537D01*
X0Y3536D02*
X7Y3536D01*
X4704Y3536D02*
X4711Y3536D01*
X0Y3535D02*
X7Y3535D01*
X4704Y3535D02*
X4711Y3535D01*
X0Y3534D02*
X7Y3534D01*
X4704Y3534D02*
X4711Y3534D01*
X0Y3533D02*
X7Y3533D01*
X4704Y3533D02*
X4711Y3533D01*
X0Y3532D02*
X7Y3532D01*
X4704Y3532D02*
X4711Y3532D01*
X0Y3531D02*
X7Y3531D01*
X4704Y3531D02*
X4711Y3531D01*
X0Y3530D02*
X7Y3530D01*
X4704Y3530D02*
X4711Y3530D01*
X0Y3529D02*
X7Y3529D01*
X4704Y3529D02*
X4711Y3529D01*
X0Y3528D02*
X7Y3528D01*
X4704Y3528D02*
X4711Y3528D01*
X0Y3527D02*
X7Y3527D01*
X4704Y3527D02*
X4711Y3527D01*
X0Y3526D02*
X7Y3526D01*
X4704Y3526D02*
X4711Y3526D01*
X0Y3525D02*
X7Y3525D01*
X4704Y3525D02*
X4711Y3525D01*
X0Y3524D02*
X7Y3524D01*
X4704Y3524D02*
X4711Y3524D01*
X0Y3523D02*
X7Y3523D01*
X4704Y3523D02*
X4711Y3523D01*
X0Y3522D02*
X7Y3522D01*
X4704Y3522D02*
X4711Y3522D01*
X0Y3521D02*
X7Y3521D01*
X4704Y3521D02*
X4711Y3521D01*
X0Y3520D02*
X7Y3520D01*
X4704Y3520D02*
X4711Y3520D01*
X0Y3519D02*
X7Y3519D01*
X4704Y3519D02*
X4711Y3519D01*
X0Y3518D02*
X7Y3518D01*
X4704Y3518D02*
X4711Y3518D01*
X0Y3517D02*
X7Y3517D01*
X4704Y3517D02*
X4711Y3517D01*
X0Y3516D02*
X7Y3516D01*
X4704Y3516D02*
X4711Y3516D01*
X0Y3515D02*
X7Y3515D01*
X4704Y3515D02*
X4711Y3515D01*
X0Y3514D02*
X7Y3514D01*
X4704Y3514D02*
X4711Y3514D01*
X0Y3513D02*
X7Y3513D01*
X4704Y3513D02*
X4711Y3513D01*
X0Y3512D02*
X7Y3512D01*
X4704Y3512D02*
X4711Y3512D01*
X0Y3511D02*
X7Y3511D01*
X4704Y3511D02*
X4711Y3511D01*
X0Y3510D02*
X7Y3510D01*
X4704Y3510D02*
X4711Y3510D01*
X0Y3509D02*
X7Y3509D01*
X4704Y3509D02*
X4711Y3509D01*
X0Y3508D02*
X7Y3508D01*
X4704Y3508D02*
X4711Y3508D01*
X0Y3507D02*
X7Y3507D01*
X4704Y3507D02*
X4711Y3507D01*
X0Y3506D02*
X7Y3506D01*
X4704Y3506D02*
X4711Y3506D01*
X0Y3505D02*
X7Y3505D01*
X4704Y3505D02*
X4711Y3505D01*
X0Y3504D02*
X7Y3504D01*
X4704Y3504D02*
X4711Y3504D01*
X0Y3503D02*
X7Y3503D01*
X4704Y3503D02*
X4711Y3503D01*
X0Y3502D02*
X7Y3502D01*
X4704Y3502D02*
X4711Y3502D01*
X0Y3501D02*
X7Y3501D01*
X4704Y3501D02*
X4711Y3501D01*
X0Y3500D02*
X7Y3500D01*
X4704Y3500D02*
X4711Y3500D01*
X0Y3499D02*
X7Y3499D01*
X4704Y3499D02*
X4711Y3499D01*
X0Y3498D02*
X7Y3498D01*
X4704Y3498D02*
X4711Y3498D01*
X0Y3497D02*
X7Y3497D01*
X4704Y3497D02*
X4711Y3497D01*
X0Y3496D02*
X7Y3496D01*
X4704Y3496D02*
X4711Y3496D01*
X0Y3495D02*
X7Y3495D01*
X4704Y3495D02*
X4711Y3495D01*
X0Y3494D02*
X7Y3494D01*
X4704Y3494D02*
X4711Y3494D01*
X0Y3493D02*
X7Y3493D01*
X4704Y3493D02*
X4711Y3493D01*
X0Y3492D02*
X7Y3492D01*
X4704Y3492D02*
X4711Y3492D01*
X0Y3491D02*
X7Y3491D01*
X4704Y3491D02*
X4711Y3491D01*
X0Y3490D02*
X7Y3490D01*
X4704Y3490D02*
X4711Y3490D01*
X0Y3489D02*
X7Y3489D01*
X4704Y3489D02*
X4711Y3489D01*
X0Y3488D02*
X7Y3488D01*
X4704Y3488D02*
X4711Y3488D01*
X0Y3487D02*
X7Y3487D01*
X4704Y3487D02*
X4711Y3487D01*
X0Y3486D02*
X7Y3486D01*
X4704Y3486D02*
X4711Y3486D01*
X0Y3485D02*
X7Y3485D01*
X4704Y3485D02*
X4711Y3485D01*
X0Y3484D02*
X7Y3484D01*
X4704Y3484D02*
X4711Y3484D01*
X0Y3483D02*
X7Y3483D01*
X4704Y3483D02*
X4711Y3483D01*
X0Y3482D02*
X7Y3482D01*
X4704Y3482D02*
X4711Y3482D01*
X0Y3481D02*
X7Y3481D01*
X4704Y3481D02*
X4711Y3481D01*
X0Y3480D02*
X7Y3480D01*
X4704Y3480D02*
X4711Y3480D01*
X0Y3479D02*
X7Y3479D01*
X4704Y3479D02*
X4711Y3479D01*
X0Y3478D02*
X7Y3478D01*
X4704Y3478D02*
X4711Y3478D01*
X0Y3477D02*
X7Y3477D01*
X4704Y3477D02*
X4711Y3477D01*
X0Y3476D02*
X7Y3476D01*
X4704Y3476D02*
X4711Y3476D01*
X0Y3475D02*
X7Y3475D01*
X4704Y3475D02*
X4711Y3475D01*
X0Y3474D02*
X7Y3474D01*
X4704Y3474D02*
X4711Y3474D01*
X0Y3473D02*
X7Y3473D01*
X4704Y3473D02*
X4711Y3473D01*
X0Y3472D02*
X7Y3472D01*
X4704Y3472D02*
X4711Y3472D01*
X0Y3471D02*
X7Y3471D01*
X4704Y3471D02*
X4711Y3471D01*
X0Y3470D02*
X7Y3470D01*
X4704Y3470D02*
X4711Y3470D01*
X0Y3469D02*
X7Y3469D01*
X4704Y3469D02*
X4711Y3469D01*
X0Y3468D02*
X7Y3468D01*
X4704Y3468D02*
X4711Y3468D01*
X0Y3467D02*
X7Y3467D01*
X4704Y3467D02*
X4711Y3467D01*
X0Y3466D02*
X7Y3466D01*
X4704Y3466D02*
X4711Y3466D01*
X0Y3465D02*
X7Y3465D01*
X4704Y3465D02*
X4711Y3465D01*
X0Y3464D02*
X7Y3464D01*
X4704Y3464D02*
X4711Y3464D01*
X0Y3463D02*
X7Y3463D01*
X4704Y3463D02*
X4711Y3463D01*
X0Y3462D02*
X7Y3462D01*
X4704Y3462D02*
X4711Y3462D01*
X0Y3461D02*
X7Y3461D01*
X4704Y3461D02*
X4711Y3461D01*
X0Y3460D02*
X7Y3460D01*
X4704Y3460D02*
X4711Y3460D01*
X0Y3459D02*
X7Y3459D01*
X4704Y3459D02*
X4711Y3459D01*
X0Y3458D02*
X7Y3458D01*
X4704Y3458D02*
X4711Y3458D01*
X0Y3457D02*
X7Y3457D01*
X4704Y3457D02*
X4711Y3457D01*
X0Y3456D02*
X7Y3456D01*
X4704Y3456D02*
X4711Y3456D01*
X0Y3455D02*
X7Y3455D01*
X4704Y3455D02*
X4711Y3455D01*
X0Y3454D02*
X7Y3454D01*
X4704Y3454D02*
X4711Y3454D01*
X0Y3453D02*
X7Y3453D01*
X4704Y3453D02*
X4711Y3453D01*
X0Y3452D02*
X7Y3452D01*
X4704Y3452D02*
X4711Y3452D01*
X0Y3451D02*
X7Y3451D01*
X4704Y3451D02*
X4711Y3451D01*
X0Y3450D02*
X7Y3450D01*
X4704Y3450D02*
X4711Y3450D01*
X0Y3449D02*
X7Y3449D01*
X4704Y3449D02*
X4711Y3449D01*
X0Y3448D02*
X7Y3448D01*
X4704Y3448D02*
X4711Y3448D01*
X0Y3447D02*
X7Y3447D01*
X4704Y3447D02*
X4711Y3447D01*
X0Y3446D02*
X7Y3446D01*
X4704Y3446D02*
X4711Y3446D01*
X0Y3445D02*
X7Y3445D01*
X4704Y3445D02*
X4711Y3445D01*
X0Y3444D02*
X7Y3444D01*
X4704Y3444D02*
X4711Y3444D01*
X0Y3443D02*
X7Y3443D01*
X4704Y3443D02*
X4711Y3443D01*
X0Y3442D02*
X7Y3442D01*
X4704Y3442D02*
X4711Y3442D01*
X0Y3441D02*
X7Y3441D01*
X4704Y3441D02*
X4711Y3441D01*
X0Y3440D02*
X7Y3440D01*
X4704Y3440D02*
X4711Y3440D01*
X0Y3439D02*
X7Y3439D01*
X4704Y3439D02*
X4711Y3439D01*
X0Y3438D02*
X7Y3438D01*
X4704Y3438D02*
X4711Y3438D01*
X0Y3437D02*
X7Y3437D01*
X4704Y3437D02*
X4711Y3437D01*
X0Y3436D02*
X7Y3436D01*
X4704Y3436D02*
X4711Y3436D01*
X0Y3435D02*
X7Y3435D01*
X4704Y3435D02*
X4711Y3435D01*
X0Y3434D02*
X7Y3434D01*
X4704Y3434D02*
X4711Y3434D01*
X0Y3433D02*
X7Y3433D01*
X4704Y3433D02*
X4711Y3433D01*
X0Y3432D02*
X7Y3432D01*
X4704Y3432D02*
X4711Y3432D01*
X0Y3431D02*
X7Y3431D01*
X4704Y3431D02*
X4711Y3431D01*
X0Y3430D02*
X7Y3430D01*
X4704Y3430D02*
X4711Y3430D01*
X0Y3429D02*
X7Y3429D01*
X4704Y3429D02*
X4711Y3429D01*
X0Y3428D02*
X7Y3428D01*
X4704Y3428D02*
X4711Y3428D01*
X0Y3427D02*
X7Y3427D01*
X4704Y3427D02*
X4711Y3427D01*
X0Y3426D02*
X7Y3426D01*
X4704Y3426D02*
X4711Y3426D01*
X0Y3425D02*
X7Y3425D01*
X4704Y3425D02*
X4711Y3425D01*
X0Y3424D02*
X7Y3424D01*
X4704Y3424D02*
X4711Y3424D01*
X0Y3423D02*
X7Y3423D01*
X4704Y3423D02*
X4711Y3423D01*
X0Y3422D02*
X7Y3422D01*
X4704Y3422D02*
X4711Y3422D01*
X0Y3421D02*
X7Y3421D01*
X4704Y3421D02*
X4711Y3421D01*
X0Y3420D02*
X7Y3420D01*
X4704Y3420D02*
X4711Y3420D01*
X0Y3419D02*
X7Y3419D01*
X4704Y3419D02*
X4711Y3419D01*
X0Y3418D02*
X7Y3418D01*
X4704Y3418D02*
X4711Y3418D01*
X0Y3417D02*
X7Y3417D01*
X4704Y3417D02*
X4711Y3417D01*
X0Y3416D02*
X7Y3416D01*
X4704Y3416D02*
X4711Y3416D01*
X0Y3415D02*
X7Y3415D01*
X4704Y3415D02*
X4711Y3415D01*
X0Y3414D02*
X7Y3414D01*
X4704Y3414D02*
X4711Y3414D01*
X0Y3413D02*
X7Y3413D01*
X4704Y3413D02*
X4711Y3413D01*
X0Y3412D02*
X7Y3412D01*
X4704Y3412D02*
X4711Y3412D01*
X0Y3411D02*
X7Y3411D01*
X4704Y3411D02*
X4711Y3411D01*
X0Y3410D02*
X7Y3410D01*
X4704Y3410D02*
X4711Y3410D01*
X0Y3409D02*
X7Y3409D01*
X4704Y3409D02*
X4711Y3409D01*
X0Y3408D02*
X7Y3408D01*
X4704Y3408D02*
X4711Y3408D01*
X0Y3407D02*
X7Y3407D01*
X4704Y3407D02*
X4711Y3407D01*
X0Y3406D02*
X7Y3406D01*
X4704Y3406D02*
X4711Y3406D01*
X0Y3405D02*
X7Y3405D01*
X4704Y3405D02*
X4711Y3405D01*
X0Y3404D02*
X7Y3404D01*
X4704Y3404D02*
X4711Y3404D01*
X0Y3403D02*
X7Y3403D01*
X4704Y3403D02*
X4711Y3403D01*
X0Y3402D02*
X7Y3402D01*
X4704Y3402D02*
X4711Y3402D01*
X0Y3401D02*
X7Y3401D01*
X4704Y3401D02*
X4711Y3401D01*
X0Y3400D02*
X7Y3400D01*
X4704Y3400D02*
X4711Y3400D01*
X0Y3399D02*
X7Y3399D01*
X4704Y3399D02*
X4711Y3399D01*
X0Y3398D02*
X7Y3398D01*
X4704Y3398D02*
X4711Y3398D01*
X0Y3397D02*
X7Y3397D01*
X4704Y3397D02*
X4711Y3397D01*
X0Y3396D02*
X7Y3396D01*
X4704Y3396D02*
X4711Y3396D01*
X0Y3395D02*
X7Y3395D01*
X4704Y3395D02*
X4711Y3395D01*
X0Y3394D02*
X7Y3394D01*
X4704Y3394D02*
X4711Y3394D01*
X0Y3393D02*
X7Y3393D01*
X4704Y3393D02*
X4711Y3393D01*
X0Y3392D02*
X7Y3392D01*
X4704Y3392D02*
X4711Y3392D01*
X0Y3391D02*
X7Y3391D01*
X4704Y3391D02*
X4711Y3391D01*
X0Y3390D02*
X7Y3390D01*
X4704Y3390D02*
X4711Y3390D01*
X0Y3389D02*
X7Y3389D01*
X4704Y3389D02*
X4711Y3389D01*
X0Y3388D02*
X7Y3388D01*
X4704Y3388D02*
X4711Y3388D01*
X0Y3387D02*
X7Y3387D01*
X4704Y3387D02*
X4711Y3387D01*
X0Y3386D02*
X7Y3386D01*
X4704Y3386D02*
X4711Y3386D01*
X0Y3385D02*
X7Y3385D01*
X4704Y3385D02*
X4711Y3385D01*
X0Y3384D02*
X7Y3384D01*
X4704Y3384D02*
X4711Y3384D01*
X0Y3383D02*
X7Y3383D01*
X4704Y3383D02*
X4711Y3383D01*
X0Y3382D02*
X7Y3382D01*
X4704Y3382D02*
X4711Y3382D01*
X0Y3381D02*
X7Y3381D01*
X4704Y3381D02*
X4711Y3381D01*
X0Y3380D02*
X7Y3380D01*
X4704Y3380D02*
X4711Y3380D01*
X0Y3379D02*
X7Y3379D01*
X4704Y3379D02*
X4711Y3379D01*
X0Y3378D02*
X7Y3378D01*
X4704Y3378D02*
X4711Y3378D01*
X0Y3377D02*
X7Y3377D01*
X4704Y3377D02*
X4711Y3377D01*
X0Y3376D02*
X7Y3376D01*
X4704Y3376D02*
X4711Y3376D01*
X0Y3375D02*
X7Y3375D01*
X4704Y3375D02*
X4711Y3375D01*
X0Y3374D02*
X7Y3374D01*
X4704Y3374D02*
X4711Y3374D01*
X0Y3373D02*
X7Y3373D01*
X4704Y3373D02*
X4711Y3373D01*
X0Y3372D02*
X7Y3372D01*
X4704Y3372D02*
X4711Y3372D01*
X0Y3371D02*
X7Y3371D01*
X4704Y3371D02*
X4711Y3371D01*
X0Y3370D02*
X7Y3370D01*
X4704Y3370D02*
X4711Y3370D01*
X0Y3369D02*
X7Y3369D01*
X4704Y3369D02*
X4711Y3369D01*
X0Y3368D02*
X7Y3368D01*
X4704Y3368D02*
X4711Y3368D01*
X0Y3367D02*
X7Y3367D01*
X4704Y3367D02*
X4711Y3367D01*
X0Y3366D02*
X7Y3366D01*
X4704Y3366D02*
X4711Y3366D01*
X0Y3365D02*
X7Y3365D01*
X4704Y3365D02*
X4711Y3365D01*
X0Y3364D02*
X7Y3364D01*
X4704Y3364D02*
X4711Y3364D01*
X0Y3363D02*
X7Y3363D01*
X4704Y3363D02*
X4711Y3363D01*
X0Y3362D02*
X7Y3362D01*
X4704Y3362D02*
X4711Y3362D01*
X0Y3361D02*
X7Y3361D01*
X4704Y3361D02*
X4711Y3361D01*
X0Y3360D02*
X7Y3360D01*
X4704Y3360D02*
X4711Y3360D01*
X0Y3359D02*
X7Y3359D01*
X4704Y3359D02*
X4711Y3359D01*
X0Y3358D02*
X7Y3358D01*
X4704Y3358D02*
X4711Y3358D01*
X0Y3357D02*
X7Y3357D01*
X4704Y3357D02*
X4711Y3357D01*
X0Y3356D02*
X7Y3356D01*
X4704Y3356D02*
X4711Y3356D01*
X0Y3355D02*
X7Y3355D01*
X4704Y3355D02*
X4711Y3355D01*
X0Y3354D02*
X7Y3354D01*
X4704Y3354D02*
X4711Y3354D01*
X0Y3353D02*
X7Y3353D01*
X4704Y3353D02*
X4711Y3353D01*
X0Y3352D02*
X7Y3352D01*
X4704Y3352D02*
X4711Y3352D01*
X0Y3351D02*
X7Y3351D01*
X4704Y3351D02*
X4711Y3351D01*
X0Y3350D02*
X7Y3350D01*
X4704Y3350D02*
X4711Y3350D01*
X0Y3349D02*
X7Y3349D01*
X4704Y3349D02*
X4711Y3349D01*
X0Y3348D02*
X7Y3348D01*
X4704Y3348D02*
X4711Y3348D01*
X0Y3347D02*
X7Y3347D01*
X4704Y3347D02*
X4711Y3347D01*
X0Y3346D02*
X7Y3346D01*
X4704Y3346D02*
X4711Y3346D01*
X0Y3345D02*
X7Y3345D01*
X4704Y3345D02*
X4711Y3345D01*
X0Y3344D02*
X7Y3344D01*
X4704Y3344D02*
X4711Y3344D01*
X0Y3343D02*
X7Y3343D01*
X4704Y3343D02*
X4711Y3343D01*
X0Y3342D02*
X7Y3342D01*
X4704Y3342D02*
X4711Y3342D01*
X0Y3341D02*
X7Y3341D01*
X4704Y3341D02*
X4711Y3341D01*
X0Y3340D02*
X7Y3340D01*
X4704Y3340D02*
X4711Y3340D01*
X0Y3339D02*
X7Y3339D01*
X4704Y3339D02*
X4711Y3339D01*
X0Y3338D02*
X7Y3338D01*
X4704Y3338D02*
X4711Y3338D01*
X0Y3337D02*
X7Y3337D01*
X4704Y3337D02*
X4711Y3337D01*
X0Y3336D02*
X7Y3336D01*
X4704Y3336D02*
X4711Y3336D01*
X0Y3335D02*
X7Y3335D01*
X4704Y3335D02*
X4711Y3335D01*
X0Y3334D02*
X7Y3334D01*
X4704Y3334D02*
X4711Y3334D01*
X0Y3333D02*
X7Y3333D01*
X4704Y3333D02*
X4711Y3333D01*
X0Y3332D02*
X7Y3332D01*
X4704Y3332D02*
X4711Y3332D01*
X0Y3331D02*
X7Y3331D01*
X4704Y3331D02*
X4711Y3331D01*
X0Y3330D02*
X7Y3330D01*
X4704Y3330D02*
X4711Y3330D01*
X0Y3329D02*
X7Y3329D01*
X4704Y3329D02*
X4711Y3329D01*
X0Y3328D02*
X7Y3328D01*
X4704Y3328D02*
X4711Y3328D01*
X0Y3327D02*
X7Y3327D01*
X4704Y3327D02*
X4711Y3327D01*
X0Y3326D02*
X7Y3326D01*
X4704Y3326D02*
X4711Y3326D01*
X0Y3325D02*
X7Y3325D01*
X4704Y3325D02*
X4711Y3325D01*
X0Y3324D02*
X7Y3324D01*
X4704Y3324D02*
X4711Y3324D01*
X0Y3323D02*
X7Y3323D01*
X4704Y3323D02*
X4711Y3323D01*
X0Y3322D02*
X7Y3322D01*
X4704Y3322D02*
X4711Y3322D01*
X0Y3321D02*
X7Y3321D01*
X4704Y3321D02*
X4711Y3321D01*
X0Y3320D02*
X7Y3320D01*
X4704Y3320D02*
X4711Y3320D01*
X0Y3319D02*
X7Y3319D01*
X4704Y3319D02*
X4711Y3319D01*
X0Y3318D02*
X7Y3318D01*
X4704Y3318D02*
X4711Y3318D01*
X0Y3317D02*
X7Y3317D01*
X4704Y3317D02*
X4711Y3317D01*
X0Y3316D02*
X7Y3316D01*
X4704Y3316D02*
X4711Y3316D01*
X0Y3315D02*
X7Y3315D01*
X4704Y3315D02*
X4711Y3315D01*
X0Y3314D02*
X7Y3314D01*
X4704Y3314D02*
X4711Y3314D01*
X0Y3313D02*
X7Y3313D01*
X4704Y3313D02*
X4711Y3313D01*
X0Y3312D02*
X7Y3312D01*
X4704Y3312D02*
X4711Y3312D01*
X0Y3311D02*
X7Y3311D01*
X4704Y3311D02*
X4711Y3311D01*
X0Y3310D02*
X7Y3310D01*
X4704Y3310D02*
X4711Y3310D01*
X0Y3309D02*
X7Y3309D01*
X4704Y3309D02*
X4711Y3309D01*
X0Y3308D02*
X7Y3308D01*
X4704Y3308D02*
X4711Y3308D01*
X0Y3307D02*
X7Y3307D01*
X4704Y3307D02*
X4711Y3307D01*
X0Y3306D02*
X7Y3306D01*
X4704Y3306D02*
X4711Y3306D01*
X0Y3305D02*
X7Y3305D01*
X4704Y3305D02*
X4711Y3305D01*
X0Y3304D02*
X7Y3304D01*
X4704Y3304D02*
X4711Y3304D01*
X0Y3303D02*
X7Y3303D01*
X4704Y3303D02*
X4711Y3303D01*
X0Y3302D02*
X7Y3302D01*
X4704Y3302D02*
X4711Y3302D01*
X0Y3301D02*
X7Y3301D01*
X4704Y3301D02*
X4711Y3301D01*
X0Y3300D02*
X7Y3300D01*
X4704Y3300D02*
X4711Y3300D01*
X0Y3299D02*
X7Y3299D01*
X4704Y3299D02*
X4711Y3299D01*
X0Y3298D02*
X7Y3298D01*
X4704Y3298D02*
X4711Y3298D01*
X0Y3297D02*
X7Y3297D01*
X4704Y3297D02*
X4711Y3297D01*
X0Y3296D02*
X7Y3296D01*
X4704Y3296D02*
X4711Y3296D01*
X0Y3295D02*
X7Y3295D01*
X4704Y3295D02*
X4711Y3295D01*
X0Y3294D02*
X7Y3294D01*
X4704Y3294D02*
X4711Y3294D01*
X0Y3293D02*
X7Y3293D01*
X4704Y3293D02*
X4711Y3293D01*
X0Y3292D02*
X7Y3292D01*
X4704Y3292D02*
X4711Y3292D01*
X0Y3291D02*
X7Y3291D01*
X4704Y3291D02*
X4711Y3291D01*
X0Y3290D02*
X7Y3290D01*
X4704Y3290D02*
X4711Y3290D01*
X0Y3289D02*
X7Y3289D01*
X4704Y3289D02*
X4711Y3289D01*
X0Y3288D02*
X7Y3288D01*
X4704Y3288D02*
X4711Y3288D01*
X0Y3287D02*
X7Y3287D01*
X4704Y3287D02*
X4711Y3287D01*
X0Y3286D02*
X7Y3286D01*
X4704Y3286D02*
X4711Y3286D01*
X0Y3285D02*
X7Y3285D01*
X4704Y3285D02*
X4711Y3285D01*
X0Y3284D02*
X7Y3284D01*
X4704Y3284D02*
X4711Y3284D01*
X0Y3283D02*
X7Y3283D01*
X4704Y3283D02*
X4711Y3283D01*
X0Y3282D02*
X7Y3282D01*
X4704Y3282D02*
X4711Y3282D01*
X0Y3281D02*
X7Y3281D01*
X4704Y3281D02*
X4711Y3281D01*
X0Y3280D02*
X7Y3280D01*
X4704Y3280D02*
X4711Y3280D01*
X0Y3279D02*
X7Y3279D01*
X4704Y3279D02*
X4711Y3279D01*
X0Y3278D02*
X7Y3278D01*
X4704Y3278D02*
X4711Y3278D01*
X0Y3277D02*
X7Y3277D01*
X4704Y3277D02*
X4711Y3277D01*
X0Y3276D02*
X7Y3276D01*
X4704Y3276D02*
X4711Y3276D01*
X0Y3275D02*
X7Y3275D01*
X4704Y3275D02*
X4711Y3275D01*
X0Y3274D02*
X7Y3274D01*
X4704Y3274D02*
X4711Y3274D01*
X0Y3273D02*
X7Y3273D01*
X4704Y3273D02*
X4711Y3273D01*
X0Y3272D02*
X7Y3272D01*
X4704Y3272D02*
X4711Y3272D01*
X0Y3271D02*
X7Y3271D01*
X4704Y3271D02*
X4711Y3271D01*
X0Y3270D02*
X7Y3270D01*
X4704Y3270D02*
X4711Y3270D01*
X0Y3269D02*
X7Y3269D01*
X4704Y3269D02*
X4711Y3269D01*
X0Y3268D02*
X7Y3268D01*
X4704Y3268D02*
X4711Y3268D01*
X0Y3267D02*
X7Y3267D01*
X4704Y3267D02*
X4711Y3267D01*
X0Y3266D02*
X7Y3266D01*
X4704Y3266D02*
X4711Y3266D01*
X0Y3265D02*
X7Y3265D01*
X4704Y3265D02*
X4711Y3265D01*
X0Y3264D02*
X7Y3264D01*
X4704Y3264D02*
X4711Y3264D01*
X0Y3263D02*
X7Y3263D01*
X4704Y3263D02*
X4711Y3263D01*
X0Y3262D02*
X7Y3262D01*
X4704Y3262D02*
X4711Y3262D01*
X0Y3261D02*
X7Y3261D01*
X4704Y3261D02*
X4711Y3261D01*
X0Y3260D02*
X7Y3260D01*
X4704Y3260D02*
X4711Y3260D01*
X0Y3259D02*
X7Y3259D01*
X4704Y3259D02*
X4711Y3259D01*
X0Y3258D02*
X7Y3258D01*
X4704Y3258D02*
X4711Y3258D01*
X0Y3257D02*
X7Y3257D01*
X4704Y3257D02*
X4711Y3257D01*
X0Y3256D02*
X7Y3256D01*
X4704Y3256D02*
X4711Y3256D01*
X0Y3255D02*
X7Y3255D01*
X4704Y3255D02*
X4711Y3255D01*
X0Y3254D02*
X7Y3254D01*
X4704Y3254D02*
X4711Y3254D01*
X0Y3253D02*
X7Y3253D01*
X4704Y3253D02*
X4711Y3253D01*
X0Y3252D02*
X7Y3252D01*
X4704Y3252D02*
X4711Y3252D01*
X0Y3251D02*
X7Y3251D01*
X4704Y3251D02*
X4711Y3251D01*
X0Y3250D02*
X7Y3250D01*
X4704Y3250D02*
X4711Y3250D01*
X0Y3249D02*
X7Y3249D01*
X4704Y3249D02*
X4711Y3249D01*
X0Y3248D02*
X7Y3248D01*
X4704Y3248D02*
X4711Y3248D01*
X0Y3247D02*
X7Y3247D01*
X4704Y3247D02*
X4711Y3247D01*
X0Y3246D02*
X7Y3246D01*
X4704Y3246D02*
X4711Y3246D01*
X0Y3245D02*
X7Y3245D01*
X4704Y3245D02*
X4711Y3245D01*
X0Y3244D02*
X7Y3244D01*
X4704Y3244D02*
X4711Y3244D01*
X0Y3243D02*
X7Y3243D01*
X4704Y3243D02*
X4711Y3243D01*
X0Y3242D02*
X7Y3242D01*
X4704Y3242D02*
X4711Y3242D01*
X0Y3241D02*
X7Y3241D01*
X4704Y3241D02*
X4711Y3241D01*
X0Y3240D02*
X7Y3240D01*
X4704Y3240D02*
X4711Y3240D01*
X0Y3239D02*
X7Y3239D01*
X4704Y3239D02*
X4711Y3239D01*
X0Y3238D02*
X7Y3238D01*
X4704Y3238D02*
X4711Y3238D01*
X0Y3237D02*
X7Y3237D01*
X4704Y3237D02*
X4711Y3237D01*
X0Y3236D02*
X7Y3236D01*
X4704Y3236D02*
X4711Y3236D01*
X0Y3235D02*
X7Y3235D01*
X4704Y3235D02*
X4711Y3235D01*
X0Y3234D02*
X7Y3234D01*
X4704Y3234D02*
X4711Y3234D01*
X0Y3233D02*
X7Y3233D01*
X4704Y3233D02*
X4711Y3233D01*
X0Y3232D02*
X7Y3232D01*
X4704Y3232D02*
X4711Y3232D01*
X0Y3231D02*
X7Y3231D01*
X4704Y3231D02*
X4711Y3231D01*
X0Y3230D02*
X7Y3230D01*
X4704Y3230D02*
X4711Y3230D01*
X0Y3229D02*
X7Y3229D01*
X4704Y3229D02*
X4711Y3229D01*
X0Y3228D02*
X7Y3228D01*
X4704Y3228D02*
X4711Y3228D01*
X0Y3227D02*
X7Y3227D01*
X4704Y3227D02*
X4711Y3227D01*
X0Y3226D02*
X7Y3226D01*
X4704Y3226D02*
X4711Y3226D01*
X0Y3225D02*
X7Y3225D01*
X4704Y3225D02*
X4711Y3225D01*
X0Y3224D02*
X7Y3224D01*
X4704Y3224D02*
X4711Y3224D01*
X0Y3223D02*
X7Y3223D01*
X4704Y3223D02*
X4711Y3223D01*
X0Y3222D02*
X7Y3222D01*
X4704Y3222D02*
X4711Y3222D01*
X0Y3221D02*
X7Y3221D01*
X4704Y3221D02*
X4711Y3221D01*
X0Y3220D02*
X7Y3220D01*
X4704Y3220D02*
X4711Y3220D01*
X0Y3219D02*
X7Y3219D01*
X4704Y3219D02*
X4711Y3219D01*
X0Y3218D02*
X7Y3218D01*
X4704Y3218D02*
X4711Y3218D01*
X0Y3217D02*
X7Y3217D01*
X4704Y3217D02*
X4711Y3217D01*
X0Y3216D02*
X7Y3216D01*
X4704Y3216D02*
X4711Y3216D01*
X0Y3215D02*
X7Y3215D01*
X4704Y3215D02*
X4711Y3215D01*
X0Y3214D02*
X7Y3214D01*
X4704Y3214D02*
X4711Y3214D01*
X0Y3213D02*
X7Y3213D01*
X4704Y3213D02*
X4711Y3213D01*
X0Y3212D02*
X7Y3212D01*
X4704Y3212D02*
X4711Y3212D01*
X0Y3211D02*
X7Y3211D01*
X4704Y3211D02*
X4711Y3211D01*
X0Y3210D02*
X7Y3210D01*
X4704Y3210D02*
X4711Y3210D01*
X0Y3209D02*
X7Y3209D01*
X4704Y3209D02*
X4711Y3209D01*
X0Y3208D02*
X7Y3208D01*
X4704Y3208D02*
X4711Y3208D01*
X0Y3207D02*
X7Y3207D01*
X4704Y3207D02*
X4711Y3207D01*
X0Y3206D02*
X7Y3206D01*
X4704Y3206D02*
X4711Y3206D01*
X0Y3205D02*
X7Y3205D01*
X4704Y3205D02*
X4711Y3205D01*
X0Y3204D02*
X7Y3204D01*
X4704Y3204D02*
X4711Y3204D01*
X0Y3203D02*
X7Y3203D01*
X4704Y3203D02*
X4711Y3203D01*
X0Y3202D02*
X7Y3202D01*
X4704Y3202D02*
X4711Y3202D01*
X0Y3201D02*
X7Y3201D01*
X4704Y3201D02*
X4711Y3201D01*
X0Y3200D02*
X7Y3200D01*
X4704Y3200D02*
X4711Y3200D01*
X0Y3199D02*
X7Y3199D01*
X4704Y3199D02*
X4711Y3199D01*
X0Y3198D02*
X7Y3198D01*
X4704Y3198D02*
X4711Y3198D01*
X0Y3197D02*
X7Y3197D01*
X4704Y3197D02*
X4711Y3197D01*
X0Y3196D02*
X7Y3196D01*
X4704Y3196D02*
X4711Y3196D01*
X0Y3195D02*
X7Y3195D01*
X4704Y3195D02*
X4711Y3195D01*
X0Y3194D02*
X7Y3194D01*
X4704Y3194D02*
X4711Y3194D01*
X0Y3193D02*
X7Y3193D01*
X4704Y3193D02*
X4711Y3193D01*
X0Y3192D02*
X7Y3192D01*
X4704Y3192D02*
X4711Y3192D01*
X0Y3191D02*
X7Y3191D01*
X4704Y3191D02*
X4711Y3191D01*
X0Y3190D02*
X7Y3190D01*
X4704Y3190D02*
X4711Y3190D01*
X0Y3189D02*
X7Y3189D01*
X4704Y3189D02*
X4711Y3189D01*
X0Y3188D02*
X7Y3188D01*
X4704Y3188D02*
X4711Y3188D01*
X0Y3187D02*
X7Y3187D01*
X4704Y3187D02*
X4711Y3187D01*
X0Y3186D02*
X7Y3186D01*
X4704Y3186D02*
X4711Y3186D01*
X0Y3185D02*
X7Y3185D01*
X4704Y3185D02*
X4711Y3185D01*
X0Y3184D02*
X7Y3184D01*
X4704Y3184D02*
X4711Y3184D01*
X0Y3183D02*
X7Y3183D01*
X4704Y3183D02*
X4711Y3183D01*
X0Y3182D02*
X7Y3182D01*
X4704Y3182D02*
X4711Y3182D01*
X0Y3181D02*
X7Y3181D01*
X4704Y3181D02*
X4711Y3181D01*
X0Y3180D02*
X7Y3180D01*
X4704Y3180D02*
X4711Y3180D01*
X0Y3179D02*
X7Y3179D01*
X4704Y3179D02*
X4711Y3179D01*
X0Y3178D02*
X7Y3178D01*
X4704Y3178D02*
X4711Y3178D01*
X0Y3177D02*
X7Y3177D01*
X4704Y3177D02*
X4711Y3177D01*
X0Y3176D02*
X7Y3176D01*
X4704Y3176D02*
X4711Y3176D01*
X0Y3175D02*
X7Y3175D01*
X4704Y3175D02*
X4711Y3175D01*
X0Y3174D02*
X7Y3174D01*
X4704Y3174D02*
X4711Y3174D01*
X0Y3173D02*
X7Y3173D01*
X4704Y3173D02*
X4711Y3173D01*
X0Y3172D02*
X7Y3172D01*
X4704Y3172D02*
X4711Y3172D01*
X0Y3171D02*
X7Y3171D01*
X4704Y3171D02*
X4711Y3171D01*
X0Y3170D02*
X7Y3170D01*
X4704Y3170D02*
X4711Y3170D01*
X0Y3169D02*
X7Y3169D01*
X4704Y3169D02*
X4711Y3169D01*
X0Y3168D02*
X7Y3168D01*
X4704Y3168D02*
X4711Y3168D01*
X0Y3167D02*
X7Y3167D01*
X4704Y3167D02*
X4711Y3167D01*
X0Y3166D02*
X7Y3166D01*
X4704Y3166D02*
X4711Y3166D01*
X0Y3165D02*
X7Y3165D01*
X4704Y3165D02*
X4711Y3165D01*
X0Y3164D02*
X7Y3164D01*
X4704Y3164D02*
X4711Y3164D01*
X0Y3163D02*
X7Y3163D01*
X4704Y3163D02*
X4711Y3163D01*
X0Y3162D02*
X7Y3162D01*
X4704Y3162D02*
X4711Y3162D01*
X0Y3161D02*
X7Y3161D01*
X4704Y3161D02*
X4711Y3161D01*
X0Y3160D02*
X7Y3160D01*
X4704Y3160D02*
X4711Y3160D01*
X0Y3159D02*
X7Y3159D01*
X4704Y3159D02*
X4711Y3159D01*
X0Y3158D02*
X7Y3158D01*
X4704Y3158D02*
X4711Y3158D01*
X0Y3157D02*
X7Y3157D01*
X4704Y3157D02*
X4711Y3157D01*
X0Y3156D02*
X7Y3156D01*
X4704Y3156D02*
X4711Y3156D01*
X0Y3155D02*
X7Y3155D01*
X4704Y3155D02*
X4711Y3155D01*
X0Y3154D02*
X7Y3154D01*
X4704Y3154D02*
X4711Y3154D01*
X0Y3153D02*
X7Y3153D01*
X4704Y3153D02*
X4711Y3153D01*
X0Y3152D02*
X7Y3152D01*
X4704Y3152D02*
X4711Y3152D01*
X0Y3151D02*
X7Y3151D01*
X4704Y3151D02*
X4711Y3151D01*
X0Y3150D02*
X7Y3150D01*
X4704Y3150D02*
X4711Y3150D01*
X0Y3149D02*
X7Y3149D01*
X4704Y3149D02*
X4711Y3149D01*
X0Y3148D02*
X7Y3148D01*
X4704Y3148D02*
X4711Y3148D01*
X0Y3147D02*
X7Y3147D01*
X4704Y3147D02*
X4711Y3147D01*
X0Y3146D02*
X7Y3146D01*
X4704Y3146D02*
X4711Y3146D01*
X0Y3145D02*
X7Y3145D01*
X4704Y3145D02*
X4711Y3145D01*
X0Y3144D02*
X7Y3144D01*
X4704Y3144D02*
X4711Y3144D01*
X0Y3143D02*
X7Y3143D01*
X4704Y3143D02*
X4711Y3143D01*
X0Y3142D02*
X7Y3142D01*
X4704Y3142D02*
X4711Y3142D01*
X0Y3141D02*
X7Y3141D01*
X4704Y3141D02*
X4711Y3141D01*
X0Y3140D02*
X7Y3140D01*
X4704Y3140D02*
X4711Y3140D01*
X0Y3139D02*
X7Y3139D01*
X4704Y3139D02*
X4711Y3139D01*
X0Y3138D02*
X7Y3138D01*
X4704Y3138D02*
X4711Y3138D01*
X0Y3137D02*
X7Y3137D01*
X4704Y3137D02*
X4711Y3137D01*
X0Y3136D02*
X7Y3136D01*
X4704Y3136D02*
X4711Y3136D01*
X0Y3135D02*
X7Y3135D01*
X4704Y3135D02*
X4711Y3135D01*
X0Y3134D02*
X7Y3134D01*
X4704Y3134D02*
X4711Y3134D01*
X0Y3133D02*
X7Y3133D01*
X4704Y3133D02*
X4711Y3133D01*
X0Y3132D02*
X7Y3132D01*
X4704Y3132D02*
X4711Y3132D01*
X0Y3131D02*
X7Y3131D01*
X4704Y3131D02*
X4711Y3131D01*
X0Y3130D02*
X7Y3130D01*
X4704Y3130D02*
X4711Y3130D01*
X0Y3129D02*
X7Y3129D01*
X4704Y3129D02*
X4711Y3129D01*
X0Y3128D02*
X7Y3128D01*
X4704Y3128D02*
X4711Y3128D01*
X0Y3127D02*
X7Y3127D01*
X4704Y3127D02*
X4711Y3127D01*
X0Y3126D02*
X7Y3126D01*
X4704Y3126D02*
X4711Y3126D01*
X0Y3125D02*
X7Y3125D01*
X4704Y3125D02*
X4711Y3125D01*
X0Y3124D02*
X7Y3124D01*
X4704Y3124D02*
X4711Y3124D01*
X0Y3123D02*
X7Y3123D01*
X4704Y3123D02*
X4711Y3123D01*
X0Y3122D02*
X7Y3122D01*
X4704Y3122D02*
X4711Y3122D01*
X0Y3121D02*
X7Y3121D01*
X4704Y3121D02*
X4711Y3121D01*
X0Y3120D02*
X7Y3120D01*
X4704Y3120D02*
X4711Y3120D01*
X0Y3119D02*
X7Y3119D01*
X4704Y3119D02*
X4711Y3119D01*
X0Y3118D02*
X7Y3118D01*
X4704Y3118D02*
X4711Y3118D01*
X0Y3117D02*
X7Y3117D01*
X4704Y3117D02*
X4711Y3117D01*
X0Y3116D02*
X7Y3116D01*
X4704Y3116D02*
X4711Y3116D01*
X0Y3115D02*
X7Y3115D01*
X4704Y3115D02*
X4711Y3115D01*
X0Y3114D02*
X7Y3114D01*
X4704Y3114D02*
X4711Y3114D01*
X0Y3113D02*
X7Y3113D01*
X4704Y3113D02*
X4711Y3113D01*
X0Y3112D02*
X7Y3112D01*
X4704Y3112D02*
X4711Y3112D01*
X0Y3111D02*
X7Y3111D01*
X4704Y3111D02*
X4711Y3111D01*
X0Y3110D02*
X7Y3110D01*
X4704Y3110D02*
X4711Y3110D01*
X0Y3109D02*
X7Y3109D01*
X4704Y3109D02*
X4711Y3109D01*
X0Y3108D02*
X7Y3108D01*
X4704Y3108D02*
X4711Y3108D01*
X0Y3107D02*
X7Y3107D01*
X4704Y3107D02*
X4711Y3107D01*
X0Y3106D02*
X7Y3106D01*
X4704Y3106D02*
X4711Y3106D01*
X0Y3105D02*
X7Y3105D01*
X4704Y3105D02*
X4711Y3105D01*
X0Y3104D02*
X7Y3104D01*
X4704Y3104D02*
X4711Y3104D01*
X0Y3103D02*
X7Y3103D01*
X4704Y3103D02*
X4711Y3103D01*
X0Y3102D02*
X7Y3102D01*
X4704Y3102D02*
X4711Y3102D01*
X0Y3101D02*
X7Y3101D01*
X4704Y3101D02*
X4711Y3101D01*
X0Y3100D02*
X7Y3100D01*
X4704Y3100D02*
X4711Y3100D01*
X0Y3099D02*
X7Y3099D01*
X4704Y3099D02*
X4711Y3099D01*
X0Y3098D02*
X7Y3098D01*
X4704Y3098D02*
X4711Y3098D01*
X0Y3097D02*
X7Y3097D01*
X4704Y3097D02*
X4711Y3097D01*
X0Y3096D02*
X7Y3096D01*
X4704Y3096D02*
X4711Y3096D01*
X0Y3095D02*
X7Y3095D01*
X4704Y3095D02*
X4711Y3095D01*
X0Y3094D02*
X7Y3094D01*
X4704Y3094D02*
X4711Y3094D01*
X0Y3093D02*
X7Y3093D01*
X4704Y3093D02*
X4711Y3093D01*
X0Y3092D02*
X7Y3092D01*
X4704Y3092D02*
X4711Y3092D01*
X0Y3091D02*
X7Y3091D01*
X4704Y3091D02*
X4711Y3091D01*
X0Y3090D02*
X7Y3090D01*
X4704Y3090D02*
X4711Y3090D01*
X0Y3089D02*
X7Y3089D01*
X4704Y3089D02*
X4711Y3089D01*
X0Y3088D02*
X7Y3088D01*
X4704Y3088D02*
X4711Y3088D01*
X0Y3087D02*
X7Y3087D01*
X4704Y3087D02*
X4711Y3087D01*
X0Y3086D02*
X7Y3086D01*
X4704Y3086D02*
X4711Y3086D01*
X0Y3085D02*
X7Y3085D01*
X4704Y3085D02*
X4711Y3085D01*
X0Y3084D02*
X7Y3084D01*
X4704Y3084D02*
X4711Y3084D01*
X0Y3083D02*
X7Y3083D01*
X4704Y3083D02*
X4711Y3083D01*
X0Y3082D02*
X7Y3082D01*
X4704Y3082D02*
X4711Y3082D01*
X0Y3081D02*
X7Y3081D01*
X4704Y3081D02*
X4711Y3081D01*
X0Y3080D02*
X7Y3080D01*
X4704Y3080D02*
X4711Y3080D01*
X0Y3079D02*
X7Y3079D01*
X4704Y3079D02*
X4711Y3079D01*
X0Y3078D02*
X7Y3078D01*
X4704Y3078D02*
X4711Y3078D01*
X0Y3077D02*
X7Y3077D01*
X4704Y3077D02*
X4711Y3077D01*
X0Y3076D02*
X7Y3076D01*
X4704Y3076D02*
X4711Y3076D01*
X0Y3075D02*
X7Y3075D01*
X4704Y3075D02*
X4711Y3075D01*
X0Y3074D02*
X7Y3074D01*
X4704Y3074D02*
X4711Y3074D01*
X0Y3073D02*
X7Y3073D01*
X4704Y3073D02*
X4711Y3073D01*
X0Y3072D02*
X7Y3072D01*
X4704Y3072D02*
X4711Y3072D01*
X0Y3071D02*
X7Y3071D01*
X4704Y3071D02*
X4711Y3071D01*
X0Y3070D02*
X7Y3070D01*
X4704Y3070D02*
X4711Y3070D01*
X0Y3069D02*
X7Y3069D01*
X4704Y3069D02*
X4711Y3069D01*
X0Y3068D02*
X7Y3068D01*
X4704Y3068D02*
X4711Y3068D01*
X0Y3067D02*
X7Y3067D01*
X4704Y3067D02*
X4711Y3067D01*
X0Y3066D02*
X7Y3066D01*
X4704Y3066D02*
X4711Y3066D01*
X0Y3065D02*
X7Y3065D01*
X4704Y3065D02*
X4711Y3065D01*
X0Y3064D02*
X7Y3064D01*
X4704Y3064D02*
X4711Y3064D01*
X0Y3063D02*
X7Y3063D01*
X4704Y3063D02*
X4711Y3063D01*
X0Y3062D02*
X7Y3062D01*
X4704Y3062D02*
X4711Y3062D01*
X0Y3061D02*
X7Y3061D01*
X4704Y3061D02*
X4711Y3061D01*
X0Y3060D02*
X7Y3060D01*
X4704Y3060D02*
X4711Y3060D01*
X0Y3059D02*
X7Y3059D01*
X4704Y3059D02*
X4711Y3059D01*
X0Y3058D02*
X7Y3058D01*
X4704Y3058D02*
X4711Y3058D01*
X0Y3057D02*
X7Y3057D01*
X4704Y3057D02*
X4711Y3057D01*
X0Y3056D02*
X7Y3056D01*
X4704Y3056D02*
X4711Y3056D01*
X0Y3055D02*
X7Y3055D01*
X4704Y3055D02*
X4711Y3055D01*
X0Y3054D02*
X7Y3054D01*
X4704Y3054D02*
X4711Y3054D01*
X0Y3053D02*
X7Y3053D01*
X4704Y3053D02*
X4711Y3053D01*
X0Y3052D02*
X7Y3052D01*
X4704Y3052D02*
X4711Y3052D01*
X0Y3051D02*
X7Y3051D01*
X4704Y3051D02*
X4711Y3051D01*
X0Y3050D02*
X7Y3050D01*
X4704Y3050D02*
X4711Y3050D01*
X0Y3049D02*
X7Y3049D01*
X4704Y3049D02*
X4711Y3049D01*
X0Y3048D02*
X7Y3048D01*
X4704Y3048D02*
X4711Y3048D01*
X0Y3047D02*
X7Y3047D01*
X4704Y3047D02*
X4711Y3047D01*
X0Y3046D02*
X7Y3046D01*
X4704Y3046D02*
X4711Y3046D01*
X0Y3045D02*
X7Y3045D01*
X4704Y3045D02*
X4711Y3045D01*
X0Y3044D02*
X7Y3044D01*
X4704Y3044D02*
X4711Y3044D01*
X0Y3043D02*
X7Y3043D01*
X4704Y3043D02*
X4711Y3043D01*
X0Y3042D02*
X7Y3042D01*
X4704Y3042D02*
X4711Y3042D01*
X0Y3041D02*
X7Y3041D01*
X4704Y3041D02*
X4711Y3041D01*
X0Y3040D02*
X7Y3040D01*
X4704Y3040D02*
X4711Y3040D01*
X0Y3039D02*
X7Y3039D01*
X4704Y3039D02*
X4711Y3039D01*
X0Y3038D02*
X7Y3038D01*
X4704Y3038D02*
X4711Y3038D01*
X0Y3037D02*
X7Y3037D01*
X4704Y3037D02*
X4711Y3037D01*
X0Y3036D02*
X7Y3036D01*
X4704Y3036D02*
X4711Y3036D01*
X0Y3035D02*
X7Y3035D01*
X4704Y3035D02*
X4711Y3035D01*
X0Y3034D02*
X7Y3034D01*
X4704Y3034D02*
X4711Y3034D01*
X0Y3033D02*
X7Y3033D01*
X4704Y3033D02*
X4711Y3033D01*
X0Y3032D02*
X7Y3032D01*
X4704Y3032D02*
X4711Y3032D01*
X0Y3031D02*
X7Y3031D01*
X4704Y3031D02*
X4711Y3031D01*
X0Y3030D02*
X7Y3030D01*
X4704Y3030D02*
X4711Y3030D01*
X0Y3029D02*
X7Y3029D01*
X4704Y3029D02*
X4711Y3029D01*
X0Y3028D02*
X7Y3028D01*
X4704Y3028D02*
X4711Y3028D01*
X0Y3027D02*
X7Y3027D01*
X4704Y3027D02*
X4711Y3027D01*
X0Y3026D02*
X7Y3026D01*
X4704Y3026D02*
X4711Y3026D01*
X0Y3025D02*
X7Y3025D01*
X4704Y3025D02*
X4711Y3025D01*
X0Y3024D02*
X7Y3024D01*
X4704Y3024D02*
X4711Y3024D01*
X0Y3023D02*
X7Y3023D01*
X4704Y3023D02*
X4711Y3023D01*
X0Y3022D02*
X7Y3022D01*
X4704Y3022D02*
X4711Y3022D01*
X0Y3021D02*
X7Y3021D01*
X4704Y3021D02*
X4711Y3021D01*
X0Y3020D02*
X7Y3020D01*
X4704Y3020D02*
X4711Y3020D01*
X0Y3019D02*
X7Y3019D01*
X4704Y3019D02*
X4711Y3019D01*
X0Y3018D02*
X7Y3018D01*
X4704Y3018D02*
X4711Y3018D01*
X0Y3017D02*
X7Y3017D01*
X4704Y3017D02*
X4711Y3017D01*
X0Y3016D02*
X7Y3016D01*
X4704Y3016D02*
X4711Y3016D01*
X0Y3015D02*
X7Y3015D01*
X4704Y3015D02*
X4711Y3015D01*
X0Y3014D02*
X7Y3014D01*
X4704Y3014D02*
X4711Y3014D01*
X0Y3013D02*
X7Y3013D01*
X4704Y3013D02*
X4711Y3013D01*
X0Y3012D02*
X7Y3012D01*
X4704Y3012D02*
X4711Y3012D01*
X0Y3011D02*
X7Y3011D01*
X4704Y3011D02*
X4711Y3011D01*
X0Y3010D02*
X7Y3010D01*
X4704Y3010D02*
X4711Y3010D01*
X0Y3009D02*
X7Y3009D01*
X4704Y3009D02*
X4711Y3009D01*
X0Y3008D02*
X7Y3008D01*
X4704Y3008D02*
X4711Y3008D01*
X0Y3007D02*
X7Y3007D01*
X4704Y3007D02*
X4711Y3007D01*
X0Y3006D02*
X7Y3006D01*
X4704Y3006D02*
X4711Y3006D01*
X0Y3005D02*
X7Y3005D01*
X4704Y3005D02*
X4711Y3005D01*
X0Y3004D02*
X7Y3004D01*
X4704Y3004D02*
X4711Y3004D01*
X0Y3003D02*
X7Y3003D01*
X4704Y3003D02*
X4711Y3003D01*
X0Y3002D02*
X7Y3002D01*
X4704Y3002D02*
X4711Y3002D01*
X0Y3001D02*
X7Y3001D01*
X4704Y3001D02*
X4711Y3001D01*
X0Y3000D02*
X7Y3000D01*
X4704Y3000D02*
X4711Y3000D01*
X0Y2999D02*
X7Y2999D01*
X4704Y2999D02*
X4711Y2999D01*
X0Y2998D02*
X7Y2998D01*
X4704Y2998D02*
X4711Y2998D01*
X0Y2997D02*
X7Y2997D01*
X4704Y2997D02*
X4711Y2997D01*
X0Y2996D02*
X7Y2996D01*
X4704Y2996D02*
X4711Y2996D01*
X0Y2995D02*
X7Y2995D01*
X4704Y2995D02*
X4711Y2995D01*
X0Y2994D02*
X7Y2994D01*
X4704Y2994D02*
X4711Y2994D01*
X0Y2993D02*
X7Y2993D01*
X4704Y2993D02*
X4711Y2993D01*
X0Y2992D02*
X7Y2992D01*
X4704Y2992D02*
X4711Y2992D01*
X0Y2991D02*
X7Y2991D01*
X4704Y2991D02*
X4711Y2991D01*
X0Y2990D02*
X7Y2990D01*
X4704Y2990D02*
X4711Y2990D01*
X0Y2989D02*
X7Y2989D01*
X4704Y2989D02*
X4711Y2989D01*
X0Y2988D02*
X7Y2988D01*
X4704Y2988D02*
X4711Y2988D01*
X0Y2987D02*
X7Y2987D01*
X4704Y2987D02*
X4711Y2987D01*
X0Y2986D02*
X7Y2986D01*
X4704Y2986D02*
X4711Y2986D01*
X0Y2985D02*
X7Y2985D01*
X4704Y2985D02*
X4711Y2985D01*
X0Y2984D02*
X7Y2984D01*
X4704Y2984D02*
X4711Y2984D01*
X0Y2983D02*
X7Y2983D01*
X4704Y2983D02*
X4711Y2983D01*
X0Y2982D02*
X7Y2982D01*
X4704Y2982D02*
X4711Y2982D01*
X0Y2981D02*
X7Y2981D01*
X4704Y2981D02*
X4711Y2981D01*
X0Y2980D02*
X7Y2980D01*
X4704Y2980D02*
X4711Y2980D01*
X0Y2979D02*
X7Y2979D01*
X4704Y2979D02*
X4711Y2979D01*
X0Y2978D02*
X7Y2978D01*
X4704Y2978D02*
X4711Y2978D01*
X0Y2977D02*
X7Y2977D01*
X4704Y2977D02*
X4711Y2977D01*
X0Y2976D02*
X7Y2976D01*
X4704Y2976D02*
X4711Y2976D01*
X0Y2975D02*
X7Y2975D01*
X4704Y2975D02*
X4711Y2975D01*
X0Y2974D02*
X7Y2974D01*
X4704Y2974D02*
X4711Y2974D01*
X0Y2973D02*
X7Y2973D01*
X4704Y2973D02*
X4711Y2973D01*
X0Y2972D02*
X7Y2972D01*
X4704Y2972D02*
X4711Y2972D01*
X0Y2971D02*
X7Y2971D01*
X4704Y2971D02*
X4711Y2971D01*
X0Y2970D02*
X7Y2970D01*
X4704Y2970D02*
X4711Y2970D01*
X0Y2969D02*
X7Y2969D01*
X4704Y2969D02*
X4711Y2969D01*
X0Y2968D02*
X7Y2968D01*
X4704Y2968D02*
X4711Y2968D01*
X0Y2967D02*
X7Y2967D01*
X4704Y2967D02*
X4711Y2967D01*
X0Y2966D02*
X7Y2966D01*
X4704Y2966D02*
X4711Y2966D01*
X0Y2965D02*
X7Y2965D01*
X4704Y2965D02*
X4711Y2965D01*
X0Y2964D02*
X7Y2964D01*
X4704Y2964D02*
X4711Y2964D01*
X0Y2963D02*
X7Y2963D01*
X4704Y2963D02*
X4711Y2963D01*
X0Y2962D02*
X7Y2962D01*
X4704Y2962D02*
X4711Y2962D01*
X0Y2961D02*
X7Y2961D01*
X4704Y2961D02*
X4711Y2961D01*
X0Y2960D02*
X7Y2960D01*
X4704Y2960D02*
X4711Y2960D01*
X0Y2959D02*
X7Y2959D01*
X4704Y2959D02*
X4711Y2959D01*
X0Y2958D02*
X7Y2958D01*
X4704Y2958D02*
X4711Y2958D01*
X0Y2957D02*
X7Y2957D01*
X4704Y2957D02*
X4711Y2957D01*
X0Y2956D02*
X7Y2956D01*
X4704Y2956D02*
X4711Y2956D01*
X0Y2955D02*
X7Y2955D01*
X4704Y2955D02*
X4711Y2955D01*
X0Y2954D02*
X7Y2954D01*
X4704Y2954D02*
X4711Y2954D01*
X0Y2953D02*
X7Y2953D01*
X4704Y2953D02*
X4711Y2953D01*
X0Y2952D02*
X7Y2952D01*
X4704Y2952D02*
X4711Y2952D01*
X0Y2951D02*
X7Y2951D01*
X4704Y2951D02*
X4711Y2951D01*
X0Y2950D02*
X7Y2950D01*
X4704Y2950D02*
X4711Y2950D01*
X0Y2949D02*
X7Y2949D01*
X4704Y2949D02*
X4711Y2949D01*
X0Y2948D02*
X7Y2948D01*
X4704Y2948D02*
X4711Y2948D01*
X0Y2947D02*
X7Y2947D01*
X4704Y2947D02*
X4711Y2947D01*
X0Y2946D02*
X7Y2946D01*
X4704Y2946D02*
X4711Y2946D01*
X0Y2945D02*
X7Y2945D01*
X4704Y2945D02*
X4711Y2945D01*
X0Y2944D02*
X7Y2944D01*
X4704Y2944D02*
X4711Y2944D01*
X0Y2943D02*
X7Y2943D01*
X4704Y2943D02*
X4711Y2943D01*
X0Y2942D02*
X7Y2942D01*
X4704Y2942D02*
X4711Y2942D01*
X0Y2941D02*
X7Y2941D01*
X4704Y2941D02*
X4711Y2941D01*
X0Y2940D02*
X7Y2940D01*
X4704Y2940D02*
X4711Y2940D01*
X0Y2939D02*
X7Y2939D01*
X4704Y2939D02*
X4711Y2939D01*
X0Y2938D02*
X7Y2938D01*
X4704Y2938D02*
X4711Y2938D01*
X0Y2937D02*
X7Y2937D01*
X4704Y2937D02*
X4711Y2937D01*
X0Y2936D02*
X7Y2936D01*
X4704Y2936D02*
X4711Y2936D01*
X0Y2935D02*
X7Y2935D01*
X4704Y2935D02*
X4711Y2935D01*
X0Y2934D02*
X7Y2934D01*
X4704Y2934D02*
X4711Y2934D01*
X0Y2933D02*
X7Y2933D01*
X4704Y2933D02*
X4711Y2933D01*
X0Y2932D02*
X7Y2932D01*
X4704Y2932D02*
X4711Y2932D01*
X0Y2931D02*
X7Y2931D01*
X4704Y2931D02*
X4711Y2931D01*
X0Y2930D02*
X7Y2930D01*
X4704Y2930D02*
X4711Y2930D01*
X0Y2929D02*
X7Y2929D01*
X4704Y2929D02*
X4711Y2929D01*
X0Y2928D02*
X7Y2928D01*
X4704Y2928D02*
X4711Y2928D01*
X0Y2927D02*
X7Y2927D01*
X4704Y2927D02*
X4711Y2927D01*
X0Y2926D02*
X7Y2926D01*
X4704Y2926D02*
X4711Y2926D01*
X0Y2925D02*
X7Y2925D01*
X4704Y2925D02*
X4711Y2925D01*
X0Y2924D02*
X7Y2924D01*
X4704Y2924D02*
X4711Y2924D01*
X0Y2923D02*
X7Y2923D01*
X4704Y2923D02*
X4711Y2923D01*
X0Y2922D02*
X7Y2922D01*
X4704Y2922D02*
X4711Y2922D01*
X0Y2921D02*
X7Y2921D01*
X4704Y2921D02*
X4711Y2921D01*
X0Y2920D02*
X7Y2920D01*
X4704Y2920D02*
X4711Y2920D01*
X0Y2919D02*
X7Y2919D01*
X4704Y2919D02*
X4711Y2919D01*
X0Y2918D02*
X7Y2918D01*
X4704Y2918D02*
X4711Y2918D01*
X0Y2917D02*
X7Y2917D01*
X4704Y2917D02*
X4711Y2917D01*
X0Y2916D02*
X7Y2916D01*
X4704Y2916D02*
X4711Y2916D01*
X0Y2915D02*
X7Y2915D01*
X4704Y2915D02*
X4711Y2915D01*
X0Y2914D02*
X7Y2914D01*
X4704Y2914D02*
X4711Y2914D01*
X0Y2913D02*
X7Y2913D01*
X4704Y2913D02*
X4711Y2913D01*
X0Y2912D02*
X7Y2912D01*
X4704Y2912D02*
X4711Y2912D01*
X0Y2911D02*
X7Y2911D01*
X4704Y2911D02*
X4711Y2911D01*
X0Y2910D02*
X7Y2910D01*
X4704Y2910D02*
X4711Y2910D01*
X0Y2909D02*
X7Y2909D01*
X4704Y2909D02*
X4711Y2909D01*
X0Y2908D02*
X7Y2908D01*
X4704Y2908D02*
X4711Y2908D01*
X0Y2907D02*
X7Y2907D01*
X4704Y2907D02*
X4711Y2907D01*
X0Y2906D02*
X7Y2906D01*
X4704Y2906D02*
X4711Y2906D01*
X0Y2905D02*
X7Y2905D01*
X4704Y2905D02*
X4711Y2905D01*
X0Y2904D02*
X7Y2904D01*
X4704Y2904D02*
X4711Y2904D01*
X0Y2903D02*
X7Y2903D01*
X4704Y2903D02*
X4711Y2903D01*
X0Y2902D02*
X7Y2902D01*
X4704Y2902D02*
X4711Y2902D01*
X0Y2901D02*
X7Y2901D01*
X4704Y2901D02*
X4711Y2901D01*
X0Y2900D02*
X7Y2900D01*
X4704Y2900D02*
X4711Y2900D01*
X0Y2899D02*
X7Y2899D01*
X4704Y2899D02*
X4711Y2899D01*
X0Y2898D02*
X7Y2898D01*
X4704Y2898D02*
X4711Y2898D01*
X0Y2897D02*
X7Y2897D01*
X4704Y2897D02*
X4711Y2897D01*
X0Y2896D02*
X7Y2896D01*
X4704Y2896D02*
X4711Y2896D01*
X0Y2895D02*
X7Y2895D01*
X4704Y2895D02*
X4711Y2895D01*
X0Y2894D02*
X7Y2894D01*
X4704Y2894D02*
X4711Y2894D01*
X0Y2893D02*
X7Y2893D01*
X4704Y2893D02*
X4711Y2893D01*
X0Y2892D02*
X7Y2892D01*
X4704Y2892D02*
X4711Y2892D01*
X0Y2891D02*
X7Y2891D01*
X4704Y2891D02*
X4711Y2891D01*
X0Y2890D02*
X7Y2890D01*
X4704Y2890D02*
X4711Y2890D01*
X0Y2889D02*
X7Y2889D01*
X4704Y2889D02*
X4711Y2889D01*
X0Y2888D02*
X7Y2888D01*
X4704Y2888D02*
X4711Y2888D01*
X0Y2887D02*
X7Y2887D01*
X4704Y2887D02*
X4711Y2887D01*
X0Y2886D02*
X7Y2886D01*
X4704Y2886D02*
X4711Y2886D01*
X0Y2885D02*
X7Y2885D01*
X4704Y2885D02*
X4711Y2885D01*
X0Y2884D02*
X7Y2884D01*
X4704Y2884D02*
X4711Y2884D01*
X0Y2883D02*
X7Y2883D01*
X4704Y2883D02*
X4711Y2883D01*
X0Y2882D02*
X7Y2882D01*
X4704Y2882D02*
X4711Y2882D01*
X0Y2881D02*
X7Y2881D01*
X4704Y2881D02*
X4711Y2881D01*
X0Y2880D02*
X7Y2880D01*
X4704Y2880D02*
X4711Y2880D01*
X0Y2879D02*
X7Y2879D01*
X4704Y2879D02*
X4711Y2879D01*
X0Y2878D02*
X7Y2878D01*
X4704Y2878D02*
X4711Y2878D01*
X0Y2877D02*
X7Y2877D01*
X4704Y2877D02*
X4711Y2877D01*
X0Y2876D02*
X7Y2876D01*
X4704Y2876D02*
X4711Y2876D01*
X0Y2875D02*
X7Y2875D01*
X4704Y2875D02*
X4711Y2875D01*
X0Y2874D02*
X7Y2874D01*
X4704Y2874D02*
X4711Y2874D01*
X0Y2873D02*
X7Y2873D01*
X4704Y2873D02*
X4711Y2873D01*
X0Y2872D02*
X7Y2872D01*
X4704Y2872D02*
X4711Y2872D01*
X0Y2871D02*
X7Y2871D01*
X4704Y2871D02*
X4711Y2871D01*
X0Y2870D02*
X7Y2870D01*
X4704Y2870D02*
X4711Y2870D01*
X0Y2869D02*
X7Y2869D01*
X4704Y2869D02*
X4711Y2869D01*
X0Y2868D02*
X7Y2868D01*
X4704Y2868D02*
X4711Y2868D01*
X0Y2867D02*
X7Y2867D01*
X4704Y2867D02*
X4711Y2867D01*
X0Y2866D02*
X7Y2866D01*
X4704Y2866D02*
X4711Y2866D01*
X0Y2865D02*
X7Y2865D01*
X4704Y2865D02*
X4711Y2865D01*
X0Y2864D02*
X7Y2864D01*
X4704Y2864D02*
X4711Y2864D01*
X0Y2863D02*
X7Y2863D01*
X4704Y2863D02*
X4711Y2863D01*
X0Y2862D02*
X7Y2862D01*
X4704Y2862D02*
X4711Y2862D01*
X0Y2861D02*
X7Y2861D01*
X4704Y2861D02*
X4711Y2861D01*
X0Y2860D02*
X7Y2860D01*
X4704Y2860D02*
X4711Y2860D01*
X0Y2859D02*
X7Y2859D01*
X4704Y2859D02*
X4711Y2859D01*
X0Y2858D02*
X7Y2858D01*
X4704Y2858D02*
X4711Y2858D01*
X0Y2857D02*
X7Y2857D01*
X4704Y2857D02*
X4711Y2857D01*
X0Y2856D02*
X7Y2856D01*
X4704Y2856D02*
X4711Y2856D01*
X0Y2855D02*
X7Y2855D01*
X4704Y2855D02*
X4711Y2855D01*
X0Y2854D02*
X7Y2854D01*
X4704Y2854D02*
X4711Y2854D01*
X0Y2853D02*
X7Y2853D01*
X4704Y2853D02*
X4711Y2853D01*
X0Y2852D02*
X7Y2852D01*
X4704Y2852D02*
X4711Y2852D01*
X0Y2851D02*
X7Y2851D01*
X4704Y2851D02*
X4711Y2851D01*
X0Y2850D02*
X7Y2850D01*
X4704Y2850D02*
X4711Y2850D01*
X0Y2849D02*
X7Y2849D01*
X4704Y2849D02*
X4711Y2849D01*
X0Y2848D02*
X7Y2848D01*
X4704Y2848D02*
X4711Y2848D01*
X0Y2847D02*
X7Y2847D01*
X4704Y2847D02*
X4711Y2847D01*
X0Y2846D02*
X7Y2846D01*
X4704Y2846D02*
X4711Y2846D01*
X0Y2845D02*
X7Y2845D01*
X4704Y2845D02*
X4711Y2845D01*
X0Y2844D02*
X7Y2844D01*
X4704Y2844D02*
X4711Y2844D01*
X0Y2843D02*
X7Y2843D01*
X4704Y2843D02*
X4711Y2843D01*
X0Y2842D02*
X7Y2842D01*
X4704Y2842D02*
X4711Y2842D01*
X0Y2841D02*
X7Y2841D01*
X4704Y2841D02*
X4711Y2841D01*
X0Y2840D02*
X7Y2840D01*
X4704Y2840D02*
X4711Y2840D01*
X0Y2839D02*
X7Y2839D01*
X4704Y2839D02*
X4711Y2839D01*
X0Y2838D02*
X7Y2838D01*
X4704Y2838D02*
X4711Y2838D01*
X0Y2837D02*
X7Y2837D01*
X4704Y2837D02*
X4711Y2837D01*
X0Y2836D02*
X7Y2836D01*
X4704Y2836D02*
X4711Y2836D01*
X0Y2835D02*
X7Y2835D01*
X4704Y2835D02*
X4711Y2835D01*
X0Y2834D02*
X7Y2834D01*
X4704Y2834D02*
X4711Y2834D01*
X0Y2833D02*
X7Y2833D01*
X4704Y2833D02*
X4711Y2833D01*
X0Y2832D02*
X7Y2832D01*
X4704Y2832D02*
X4711Y2832D01*
X0Y2831D02*
X7Y2831D01*
X4704Y2831D02*
X4711Y2831D01*
X0Y2830D02*
X7Y2830D01*
X4704Y2830D02*
X4711Y2830D01*
X0Y2829D02*
X7Y2829D01*
X4704Y2829D02*
X4711Y2829D01*
X0Y2828D02*
X7Y2828D01*
X4704Y2828D02*
X4711Y2828D01*
X0Y2827D02*
X7Y2827D01*
X4704Y2827D02*
X4711Y2827D01*
X0Y2826D02*
X7Y2826D01*
X4704Y2826D02*
X4711Y2826D01*
X0Y2825D02*
X7Y2825D01*
X4704Y2825D02*
X4711Y2825D01*
X0Y2824D02*
X7Y2824D01*
X4704Y2824D02*
X4711Y2824D01*
X0Y2823D02*
X7Y2823D01*
X4704Y2823D02*
X4711Y2823D01*
X0Y2822D02*
X7Y2822D01*
X4704Y2822D02*
X4711Y2822D01*
X0Y2821D02*
X7Y2821D01*
X4704Y2821D02*
X4711Y2821D01*
X0Y2820D02*
X7Y2820D01*
X4704Y2820D02*
X4711Y2820D01*
X0Y2819D02*
X7Y2819D01*
X4704Y2819D02*
X4711Y2819D01*
X0Y2818D02*
X7Y2818D01*
X4704Y2818D02*
X4711Y2818D01*
X0Y2817D02*
X7Y2817D01*
X4704Y2817D02*
X4711Y2817D01*
X0Y2816D02*
X7Y2816D01*
X4704Y2816D02*
X4711Y2816D01*
X0Y2815D02*
X7Y2815D01*
X4704Y2815D02*
X4711Y2815D01*
X0Y2814D02*
X7Y2814D01*
X4704Y2814D02*
X4711Y2814D01*
X0Y2813D02*
X7Y2813D01*
X4704Y2813D02*
X4711Y2813D01*
X0Y2812D02*
X7Y2812D01*
X4704Y2812D02*
X4711Y2812D01*
X0Y2811D02*
X7Y2811D01*
X4704Y2811D02*
X4711Y2811D01*
X0Y2810D02*
X7Y2810D01*
X4704Y2810D02*
X4711Y2810D01*
X0Y2809D02*
X7Y2809D01*
X4704Y2809D02*
X4711Y2809D01*
X0Y2808D02*
X7Y2808D01*
X4704Y2808D02*
X4711Y2808D01*
X0Y2807D02*
X7Y2807D01*
X4704Y2807D02*
X4711Y2807D01*
X0Y2806D02*
X7Y2806D01*
X4704Y2806D02*
X4711Y2806D01*
X0Y2805D02*
X7Y2805D01*
X4704Y2805D02*
X4711Y2805D01*
X0Y2804D02*
X7Y2804D01*
X4704Y2804D02*
X4711Y2804D01*
X0Y2803D02*
X7Y2803D01*
X4704Y2803D02*
X4711Y2803D01*
X0Y2802D02*
X7Y2802D01*
X4704Y2802D02*
X4711Y2802D01*
X0Y2801D02*
X7Y2801D01*
X4704Y2801D02*
X4711Y2801D01*
X0Y2800D02*
X7Y2800D01*
X4704Y2800D02*
X4711Y2800D01*
X0Y2799D02*
X7Y2799D01*
X4704Y2799D02*
X4711Y2799D01*
X0Y2798D02*
X7Y2798D01*
X4704Y2798D02*
X4711Y2798D01*
X0Y2797D02*
X7Y2797D01*
X4704Y2797D02*
X4711Y2797D01*
X0Y2796D02*
X7Y2796D01*
X4704Y2796D02*
X4711Y2796D01*
X0Y2795D02*
X7Y2795D01*
X4704Y2795D02*
X4711Y2795D01*
X0Y2794D02*
X7Y2794D01*
X4704Y2794D02*
X4711Y2794D01*
X0Y2793D02*
X7Y2793D01*
X4704Y2793D02*
X4711Y2793D01*
X0Y2792D02*
X7Y2792D01*
X4704Y2792D02*
X4711Y2792D01*
X0Y2791D02*
X7Y2791D01*
X4704Y2791D02*
X4711Y2791D01*
X0Y2790D02*
X7Y2790D01*
X4704Y2790D02*
X4711Y2790D01*
X0Y2789D02*
X7Y2789D01*
X4704Y2789D02*
X4711Y2789D01*
X0Y2788D02*
X7Y2788D01*
X4704Y2788D02*
X4711Y2788D01*
X0Y2787D02*
X7Y2787D01*
X4704Y2787D02*
X4711Y2787D01*
X0Y2786D02*
X7Y2786D01*
X4704Y2786D02*
X4711Y2786D01*
X0Y2785D02*
X7Y2785D01*
X4704Y2785D02*
X4711Y2785D01*
X0Y2784D02*
X7Y2784D01*
X4704Y2784D02*
X4711Y2784D01*
X0Y2783D02*
X7Y2783D01*
X4704Y2783D02*
X4711Y2783D01*
X0Y2782D02*
X7Y2782D01*
X4704Y2782D02*
X4711Y2782D01*
X0Y2781D02*
X7Y2781D01*
X4704Y2781D02*
X4711Y2781D01*
X0Y2780D02*
X7Y2780D01*
X4704Y2780D02*
X4711Y2780D01*
X0Y2779D02*
X7Y2779D01*
X4704Y2779D02*
X4711Y2779D01*
X0Y2778D02*
X7Y2778D01*
X4704Y2778D02*
X4711Y2778D01*
X0Y2777D02*
X7Y2777D01*
X4704Y2777D02*
X4711Y2777D01*
X0Y2776D02*
X7Y2776D01*
X4704Y2776D02*
X4711Y2776D01*
X0Y2775D02*
X7Y2775D01*
X4704Y2775D02*
X4711Y2775D01*
X0Y2774D02*
X7Y2774D01*
X4704Y2774D02*
X4711Y2774D01*
X0Y2773D02*
X7Y2773D01*
X4704Y2773D02*
X4711Y2773D01*
X0Y2772D02*
X7Y2772D01*
X4704Y2772D02*
X4711Y2772D01*
X0Y2771D02*
X7Y2771D01*
X4704Y2771D02*
X4711Y2771D01*
X0Y2770D02*
X7Y2770D01*
X4704Y2770D02*
X4711Y2770D01*
X0Y2769D02*
X7Y2769D01*
X4704Y2769D02*
X4711Y2769D01*
X0Y2768D02*
X7Y2768D01*
X4704Y2768D02*
X4711Y2768D01*
X0Y2767D02*
X7Y2767D01*
X4704Y2767D02*
X4711Y2767D01*
X0Y2766D02*
X7Y2766D01*
X4704Y2766D02*
X4711Y2766D01*
X0Y2765D02*
X7Y2765D01*
X4704Y2765D02*
X4711Y2765D01*
X0Y2764D02*
X7Y2764D01*
X4704Y2764D02*
X4711Y2764D01*
X0Y2763D02*
X7Y2763D01*
X4704Y2763D02*
X4711Y2763D01*
X0Y2762D02*
X7Y2762D01*
X4704Y2762D02*
X4711Y2762D01*
X0Y2761D02*
X7Y2761D01*
X4704Y2761D02*
X4711Y2761D01*
X0Y2760D02*
X7Y2760D01*
X4704Y2760D02*
X4711Y2760D01*
X0Y2759D02*
X7Y2759D01*
X4704Y2759D02*
X4711Y2759D01*
X0Y2758D02*
X7Y2758D01*
X4704Y2758D02*
X4711Y2758D01*
X0Y2757D02*
X7Y2757D01*
X4704Y2757D02*
X4711Y2757D01*
X0Y2756D02*
X7Y2756D01*
X4704Y2756D02*
X4711Y2756D01*
X0Y2755D02*
X7Y2755D01*
X4704Y2755D02*
X4711Y2755D01*
X0Y2754D02*
X7Y2754D01*
X4704Y2754D02*
X4711Y2754D01*
X0Y2753D02*
X7Y2753D01*
X4704Y2753D02*
X4711Y2753D01*
X0Y2752D02*
X7Y2752D01*
X4704Y2752D02*
X4711Y2752D01*
X0Y2751D02*
X7Y2751D01*
X4704Y2751D02*
X4711Y2751D01*
X0Y2750D02*
X7Y2750D01*
X4704Y2750D02*
X4711Y2750D01*
X0Y2749D02*
X7Y2749D01*
X4704Y2749D02*
X4711Y2749D01*
X0Y2748D02*
X7Y2748D01*
X4704Y2748D02*
X4711Y2748D01*
X0Y2747D02*
X7Y2747D01*
X4704Y2747D02*
X4711Y2747D01*
X0Y2746D02*
X7Y2746D01*
X4704Y2746D02*
X4711Y2746D01*
X0Y2745D02*
X7Y2745D01*
X4704Y2745D02*
X4711Y2745D01*
X0Y2744D02*
X7Y2744D01*
X4704Y2744D02*
X4711Y2744D01*
X0Y2743D02*
X7Y2743D01*
X4704Y2743D02*
X4711Y2743D01*
X0Y2742D02*
X7Y2742D01*
X4704Y2742D02*
X4711Y2742D01*
X0Y2741D02*
X7Y2741D01*
X4704Y2741D02*
X4711Y2741D01*
X0Y2740D02*
X7Y2740D01*
X4704Y2740D02*
X4711Y2740D01*
X0Y2739D02*
X7Y2739D01*
X4704Y2739D02*
X4711Y2739D01*
X0Y2738D02*
X7Y2738D01*
X4704Y2738D02*
X4711Y2738D01*
X0Y2737D02*
X7Y2737D01*
X4704Y2737D02*
X4711Y2737D01*
X0Y2736D02*
X7Y2736D01*
X4704Y2736D02*
X4711Y2736D01*
X0Y2735D02*
X7Y2735D01*
X4704Y2735D02*
X4711Y2735D01*
X0Y2734D02*
X7Y2734D01*
X4704Y2734D02*
X4711Y2734D01*
X0Y2733D02*
X7Y2733D01*
X4704Y2733D02*
X4711Y2733D01*
X0Y2732D02*
X7Y2732D01*
X4704Y2732D02*
X4711Y2732D01*
X0Y2731D02*
X7Y2731D01*
X4704Y2731D02*
X4711Y2731D01*
X0Y2730D02*
X7Y2730D01*
X4704Y2730D02*
X4711Y2730D01*
X0Y2729D02*
X7Y2729D01*
X4704Y2729D02*
X4711Y2729D01*
X0Y2728D02*
X7Y2728D01*
X4704Y2728D02*
X4711Y2728D01*
X0Y2727D02*
X7Y2727D01*
X4704Y2727D02*
X4711Y2727D01*
X0Y2726D02*
X7Y2726D01*
X4704Y2726D02*
X4711Y2726D01*
X0Y2725D02*
X7Y2725D01*
X4704Y2725D02*
X4711Y2725D01*
X0Y2724D02*
X7Y2724D01*
X4704Y2724D02*
X4711Y2724D01*
X0Y2723D02*
X7Y2723D01*
X4704Y2723D02*
X4711Y2723D01*
X0Y2722D02*
X7Y2722D01*
X4704Y2722D02*
X4711Y2722D01*
X0Y2721D02*
X7Y2721D01*
X4704Y2721D02*
X4711Y2721D01*
X0Y2720D02*
X7Y2720D01*
X4704Y2720D02*
X4711Y2720D01*
X0Y2719D02*
X7Y2719D01*
X4704Y2719D02*
X4711Y2719D01*
X0Y2718D02*
X7Y2718D01*
X4704Y2718D02*
X4711Y2718D01*
X0Y2717D02*
X7Y2717D01*
X4704Y2717D02*
X4711Y2717D01*
X0Y2716D02*
X7Y2716D01*
X4704Y2716D02*
X4711Y2716D01*
X0Y2715D02*
X7Y2715D01*
X4704Y2715D02*
X4711Y2715D01*
X0Y2714D02*
X7Y2714D01*
X4704Y2714D02*
X4711Y2714D01*
X0Y2713D02*
X7Y2713D01*
X4704Y2713D02*
X4711Y2713D01*
X0Y2712D02*
X7Y2712D01*
X4704Y2712D02*
X4711Y2712D01*
X0Y2711D02*
X7Y2711D01*
X4704Y2711D02*
X4711Y2711D01*
X0Y2710D02*
X7Y2710D01*
X4704Y2710D02*
X4711Y2710D01*
X0Y2709D02*
X7Y2709D01*
X4704Y2709D02*
X4711Y2709D01*
X0Y2708D02*
X7Y2708D01*
X4704Y2708D02*
X4711Y2708D01*
X0Y2707D02*
X7Y2707D01*
X4704Y2707D02*
X4711Y2707D01*
X0Y2706D02*
X7Y2706D01*
X4704Y2706D02*
X4711Y2706D01*
X0Y2705D02*
X7Y2705D01*
X4704Y2705D02*
X4711Y2705D01*
X0Y2704D02*
X7Y2704D01*
X4704Y2704D02*
X4711Y2704D01*
X0Y2703D02*
X7Y2703D01*
X4704Y2703D02*
X4711Y2703D01*
X0Y2702D02*
X7Y2702D01*
X4704Y2702D02*
X4711Y2702D01*
X0Y2701D02*
X7Y2701D01*
X4704Y2701D02*
X4711Y2701D01*
X0Y2700D02*
X7Y2700D01*
X4704Y2700D02*
X4711Y2700D01*
X0Y2699D02*
X7Y2699D01*
X4704Y2699D02*
X4711Y2699D01*
X0Y2698D02*
X7Y2698D01*
X4704Y2698D02*
X4711Y2698D01*
X0Y2697D02*
X7Y2697D01*
X4704Y2697D02*
X4711Y2697D01*
X0Y2696D02*
X7Y2696D01*
X4704Y2696D02*
X4711Y2696D01*
X0Y2695D02*
X7Y2695D01*
X4704Y2695D02*
X4711Y2695D01*
X0Y2694D02*
X7Y2694D01*
X4704Y2694D02*
X4711Y2694D01*
X0Y2693D02*
X7Y2693D01*
X4704Y2693D02*
X4711Y2693D01*
X0Y2692D02*
X7Y2692D01*
X4704Y2692D02*
X4711Y2692D01*
X0Y2691D02*
X7Y2691D01*
X4704Y2691D02*
X4711Y2691D01*
X0Y2690D02*
X7Y2690D01*
X4704Y2690D02*
X4711Y2690D01*
X0Y2689D02*
X7Y2689D01*
X4704Y2689D02*
X4711Y2689D01*
X0Y2688D02*
X7Y2688D01*
X4704Y2688D02*
X4711Y2688D01*
X0Y2687D02*
X7Y2687D01*
X4704Y2687D02*
X4711Y2687D01*
X0Y2686D02*
X7Y2686D01*
X4704Y2686D02*
X4711Y2686D01*
X0Y2685D02*
X7Y2685D01*
X4704Y2685D02*
X4711Y2685D01*
X0Y2684D02*
X7Y2684D01*
X4704Y2684D02*
X4711Y2684D01*
X0Y2683D02*
X7Y2683D01*
X4704Y2683D02*
X4711Y2683D01*
X0Y2682D02*
X7Y2682D01*
X4704Y2682D02*
X4711Y2682D01*
X0Y2681D02*
X7Y2681D01*
X4704Y2681D02*
X4711Y2681D01*
X0Y2680D02*
X7Y2680D01*
X4704Y2680D02*
X4711Y2680D01*
X0Y2679D02*
X7Y2679D01*
X4704Y2679D02*
X4711Y2679D01*
X0Y2678D02*
X7Y2678D01*
X4704Y2678D02*
X4711Y2678D01*
X0Y2677D02*
X7Y2677D01*
X4704Y2677D02*
X4711Y2677D01*
X0Y2676D02*
X7Y2676D01*
X4704Y2676D02*
X4711Y2676D01*
X0Y2675D02*
X7Y2675D01*
X4704Y2675D02*
X4711Y2675D01*
X0Y2674D02*
X7Y2674D01*
X4704Y2674D02*
X4711Y2674D01*
X0Y2673D02*
X7Y2673D01*
X4704Y2673D02*
X4711Y2673D01*
X0Y2672D02*
X7Y2672D01*
X4704Y2672D02*
X4711Y2672D01*
X0Y2671D02*
X7Y2671D01*
X4704Y2671D02*
X4711Y2671D01*
X0Y2670D02*
X7Y2670D01*
X4704Y2670D02*
X4711Y2670D01*
X0Y2669D02*
X7Y2669D01*
X4704Y2669D02*
X4711Y2669D01*
X0Y2668D02*
X7Y2668D01*
X4704Y2668D02*
X4711Y2668D01*
X0Y2667D02*
X7Y2667D01*
X4704Y2667D02*
X4711Y2667D01*
X0Y2666D02*
X7Y2666D01*
X4704Y2666D02*
X4711Y2666D01*
X0Y2665D02*
X7Y2665D01*
X4704Y2665D02*
X4711Y2665D01*
X0Y2664D02*
X7Y2664D01*
X4704Y2664D02*
X4711Y2664D01*
X0Y2663D02*
X7Y2663D01*
X4704Y2663D02*
X4711Y2663D01*
X0Y2662D02*
X7Y2662D01*
X4704Y2662D02*
X4711Y2662D01*
X0Y2661D02*
X7Y2661D01*
X4704Y2661D02*
X4711Y2661D01*
X0Y2660D02*
X7Y2660D01*
X4704Y2660D02*
X4711Y2660D01*
X0Y2659D02*
X7Y2659D01*
X4704Y2659D02*
X4711Y2659D01*
X0Y2658D02*
X7Y2658D01*
X4704Y2658D02*
X4711Y2658D01*
X0Y2657D02*
X7Y2657D01*
X4704Y2657D02*
X4711Y2657D01*
X0Y2656D02*
X7Y2656D01*
X4704Y2656D02*
X4711Y2656D01*
X0Y2655D02*
X7Y2655D01*
X4704Y2655D02*
X4711Y2655D01*
X0Y2654D02*
X7Y2654D01*
X4704Y2654D02*
X4711Y2654D01*
X0Y2653D02*
X7Y2653D01*
X4704Y2653D02*
X4711Y2653D01*
X0Y2652D02*
X7Y2652D01*
X4704Y2652D02*
X4711Y2652D01*
X0Y2651D02*
X7Y2651D01*
X4704Y2651D02*
X4711Y2651D01*
X0Y2650D02*
X7Y2650D01*
X4704Y2650D02*
X4711Y2650D01*
X0Y2649D02*
X7Y2649D01*
X4704Y2649D02*
X4711Y2649D01*
X0Y2648D02*
X7Y2648D01*
X4704Y2648D02*
X4711Y2648D01*
X0Y2647D02*
X7Y2647D01*
X4704Y2647D02*
X4711Y2647D01*
X0Y2646D02*
X7Y2646D01*
X4704Y2646D02*
X4711Y2646D01*
X0Y2645D02*
X7Y2645D01*
X4704Y2645D02*
X4711Y2645D01*
X0Y2644D02*
X7Y2644D01*
X4704Y2644D02*
X4711Y2644D01*
X0Y2643D02*
X7Y2643D01*
X4704Y2643D02*
X4711Y2643D01*
X0Y2642D02*
X7Y2642D01*
X4704Y2642D02*
X4711Y2642D01*
X0Y2641D02*
X7Y2641D01*
X4704Y2641D02*
X4711Y2641D01*
X0Y2640D02*
X7Y2640D01*
X4704Y2640D02*
X4711Y2640D01*
X0Y2639D02*
X7Y2639D01*
X4704Y2639D02*
X4711Y2639D01*
X0Y2638D02*
X7Y2638D01*
X4704Y2638D02*
X4711Y2638D01*
X0Y2637D02*
X7Y2637D01*
X4704Y2637D02*
X4711Y2637D01*
X0Y2636D02*
X7Y2636D01*
X4704Y2636D02*
X4711Y2636D01*
X0Y2635D02*
X7Y2635D01*
X4704Y2635D02*
X4711Y2635D01*
X0Y2634D02*
X7Y2634D01*
X4704Y2634D02*
X4711Y2634D01*
X0Y2633D02*
X7Y2633D01*
X4704Y2633D02*
X4711Y2633D01*
X0Y2632D02*
X7Y2632D01*
X4704Y2632D02*
X4711Y2632D01*
X0Y2631D02*
X7Y2631D01*
X4704Y2631D02*
X4711Y2631D01*
X0Y2630D02*
X7Y2630D01*
X4704Y2630D02*
X4711Y2630D01*
X0Y2629D02*
X7Y2629D01*
X4704Y2629D02*
X4711Y2629D01*
X0Y2628D02*
X7Y2628D01*
X4704Y2628D02*
X4711Y2628D01*
X0Y2627D02*
X7Y2627D01*
X4704Y2627D02*
X4711Y2627D01*
X0Y2626D02*
X7Y2626D01*
X4704Y2626D02*
X4711Y2626D01*
X0Y2625D02*
X7Y2625D01*
X4704Y2625D02*
X4711Y2625D01*
X0Y2624D02*
X7Y2624D01*
X4704Y2624D02*
X4711Y2624D01*
X0Y2623D02*
X7Y2623D01*
X4704Y2623D02*
X4711Y2623D01*
X0Y2622D02*
X7Y2622D01*
X4704Y2622D02*
X4711Y2622D01*
X0Y2621D02*
X7Y2621D01*
X4704Y2621D02*
X4711Y2621D01*
X0Y2620D02*
X7Y2620D01*
X4704Y2620D02*
X4711Y2620D01*
X0Y2619D02*
X7Y2619D01*
X4704Y2619D02*
X4711Y2619D01*
X0Y2618D02*
X7Y2618D01*
X4704Y2618D02*
X4711Y2618D01*
X0Y2617D02*
X7Y2617D01*
X4704Y2617D02*
X4711Y2617D01*
X0Y2616D02*
X7Y2616D01*
X4704Y2616D02*
X4711Y2616D01*
X0Y2615D02*
X7Y2615D01*
X4704Y2615D02*
X4711Y2615D01*
X0Y2614D02*
X7Y2614D01*
X4704Y2614D02*
X4711Y2614D01*
X0Y2613D02*
X7Y2613D01*
X4704Y2613D02*
X4711Y2613D01*
X0Y2612D02*
X7Y2612D01*
X4704Y2612D02*
X4711Y2612D01*
X0Y2611D02*
X7Y2611D01*
X4704Y2611D02*
X4711Y2611D01*
X0Y2610D02*
X7Y2610D01*
X4704Y2610D02*
X4711Y2610D01*
X0Y2609D02*
X7Y2609D01*
X4704Y2609D02*
X4711Y2609D01*
X0Y2608D02*
X7Y2608D01*
X4704Y2608D02*
X4711Y2608D01*
X0Y2607D02*
X7Y2607D01*
X4704Y2607D02*
X4711Y2607D01*
X0Y2606D02*
X7Y2606D01*
X4704Y2606D02*
X4711Y2606D01*
X0Y2605D02*
X7Y2605D01*
X4704Y2605D02*
X4711Y2605D01*
X0Y2604D02*
X7Y2604D01*
X4704Y2604D02*
X4711Y2604D01*
X0Y2603D02*
X7Y2603D01*
X4704Y2603D02*
X4711Y2603D01*
X0Y2602D02*
X7Y2602D01*
X4704Y2602D02*
X4711Y2602D01*
X0Y2601D02*
X7Y2601D01*
X4704Y2601D02*
X4711Y2601D01*
X0Y2600D02*
X7Y2600D01*
X4704Y2600D02*
X4711Y2600D01*
X0Y2599D02*
X7Y2599D01*
X4704Y2599D02*
X4711Y2599D01*
X0Y2598D02*
X7Y2598D01*
X4704Y2598D02*
X4711Y2598D01*
X0Y2597D02*
X7Y2597D01*
X4704Y2597D02*
X4711Y2597D01*
X0Y2596D02*
X7Y2596D01*
X4704Y2596D02*
X4711Y2596D01*
X0Y2595D02*
X7Y2595D01*
X4704Y2595D02*
X4711Y2595D01*
X0Y2594D02*
X7Y2594D01*
X4704Y2594D02*
X4711Y2594D01*
X0Y2593D02*
X7Y2593D01*
X4704Y2593D02*
X4711Y2593D01*
X0Y2592D02*
X7Y2592D01*
X4704Y2592D02*
X4711Y2592D01*
X0Y2591D02*
X7Y2591D01*
X4704Y2591D02*
X4711Y2591D01*
X0Y2590D02*
X7Y2590D01*
X4704Y2590D02*
X4711Y2590D01*
X0Y2589D02*
X7Y2589D01*
X4704Y2589D02*
X4711Y2589D01*
X0Y2588D02*
X7Y2588D01*
X4704Y2588D02*
X4711Y2588D01*
X0Y2587D02*
X7Y2587D01*
X4704Y2587D02*
X4711Y2587D01*
X0Y2586D02*
X7Y2586D01*
X4704Y2586D02*
X4711Y2586D01*
X0Y2585D02*
X7Y2585D01*
X4704Y2585D02*
X4711Y2585D01*
X0Y2584D02*
X7Y2584D01*
X4704Y2584D02*
X4711Y2584D01*
X0Y2583D02*
X7Y2583D01*
X4704Y2583D02*
X4711Y2583D01*
X0Y2582D02*
X7Y2582D01*
X4704Y2582D02*
X4711Y2582D01*
X0Y2581D02*
X7Y2581D01*
X4704Y2581D02*
X4711Y2581D01*
X0Y2580D02*
X7Y2580D01*
X4704Y2580D02*
X4711Y2580D01*
X0Y2579D02*
X7Y2579D01*
X4704Y2579D02*
X4711Y2579D01*
X0Y2578D02*
X7Y2578D01*
X4704Y2578D02*
X4711Y2578D01*
X0Y2577D02*
X7Y2577D01*
X4704Y2577D02*
X4711Y2577D01*
X0Y2576D02*
X7Y2576D01*
X4704Y2576D02*
X4711Y2576D01*
X0Y2575D02*
X7Y2575D01*
X4704Y2575D02*
X4711Y2575D01*
X0Y2574D02*
X7Y2574D01*
X4704Y2574D02*
X4711Y2574D01*
X0Y2573D02*
X7Y2573D01*
X4704Y2573D02*
X4711Y2573D01*
X0Y2572D02*
X7Y2572D01*
X4704Y2572D02*
X4711Y2572D01*
X0Y2571D02*
X7Y2571D01*
X4704Y2571D02*
X4711Y2571D01*
X0Y2570D02*
X7Y2570D01*
X4704Y2570D02*
X4711Y2570D01*
X0Y2569D02*
X7Y2569D01*
X4704Y2569D02*
X4711Y2569D01*
X0Y2568D02*
X7Y2568D01*
X4704Y2568D02*
X4711Y2568D01*
X0Y2567D02*
X7Y2567D01*
X4704Y2567D02*
X4711Y2567D01*
X0Y2566D02*
X7Y2566D01*
X4704Y2566D02*
X4711Y2566D01*
X0Y2565D02*
X7Y2565D01*
X4704Y2565D02*
X4711Y2565D01*
X0Y2564D02*
X7Y2564D01*
X4704Y2564D02*
X4711Y2564D01*
X0Y2563D02*
X7Y2563D01*
X4704Y2563D02*
X4711Y2563D01*
X0Y2562D02*
X7Y2562D01*
X4704Y2562D02*
X4711Y2562D01*
X0Y2561D02*
X7Y2561D01*
X4704Y2561D02*
X4711Y2561D01*
X0Y2560D02*
X7Y2560D01*
X4704Y2560D02*
X4711Y2560D01*
X0Y2559D02*
X7Y2559D01*
X4704Y2559D02*
X4711Y2559D01*
X0Y2558D02*
X7Y2558D01*
X4704Y2558D02*
X4711Y2558D01*
X0Y2557D02*
X7Y2557D01*
X4704Y2557D02*
X4711Y2557D01*
X0Y2556D02*
X7Y2556D01*
X4704Y2556D02*
X4711Y2556D01*
X0Y2555D02*
X7Y2555D01*
X4704Y2555D02*
X4711Y2555D01*
X0Y2554D02*
X7Y2554D01*
X4704Y2554D02*
X4711Y2554D01*
X0Y2553D02*
X7Y2553D01*
X4704Y2553D02*
X4711Y2553D01*
X0Y2552D02*
X7Y2552D01*
X4704Y2552D02*
X4711Y2552D01*
X0Y2551D02*
X7Y2551D01*
X4704Y2551D02*
X4711Y2551D01*
X0Y2550D02*
X7Y2550D01*
X4704Y2550D02*
X4711Y2550D01*
X0Y2549D02*
X7Y2549D01*
X4704Y2549D02*
X4711Y2549D01*
X0Y2548D02*
X7Y2548D01*
X4704Y2548D02*
X4711Y2548D01*
X0Y2547D02*
X7Y2547D01*
X4704Y2547D02*
X4711Y2547D01*
X0Y2546D02*
X7Y2546D01*
X4704Y2546D02*
X4711Y2546D01*
X0Y2545D02*
X7Y2545D01*
X4704Y2545D02*
X4711Y2545D01*
X0Y2544D02*
X7Y2544D01*
X4704Y2544D02*
X4711Y2544D01*
X0Y2543D02*
X7Y2543D01*
X4704Y2543D02*
X4711Y2543D01*
X0Y2542D02*
X7Y2542D01*
X4704Y2542D02*
X4711Y2542D01*
X0Y2541D02*
X7Y2541D01*
X4704Y2541D02*
X4711Y2541D01*
X0Y2540D02*
X7Y2540D01*
X4704Y2540D02*
X4711Y2540D01*
X0Y2539D02*
X7Y2539D01*
X4704Y2539D02*
X4711Y2539D01*
X0Y2538D02*
X7Y2538D01*
X4704Y2538D02*
X4711Y2538D01*
X0Y2537D02*
X7Y2537D01*
X4704Y2537D02*
X4711Y2537D01*
X0Y2536D02*
X7Y2536D01*
X4704Y2536D02*
X4711Y2536D01*
X0Y2535D02*
X7Y2535D01*
X4704Y2535D02*
X4711Y2535D01*
X0Y2534D02*
X7Y2534D01*
X4704Y2534D02*
X4711Y2534D01*
X0Y2533D02*
X7Y2533D01*
X4704Y2533D02*
X4711Y2533D01*
X0Y2532D02*
X7Y2532D01*
X4704Y2532D02*
X4711Y2532D01*
X0Y2531D02*
X7Y2531D01*
X4704Y2531D02*
X4711Y2531D01*
X0Y2530D02*
X7Y2530D01*
X4704Y2530D02*
X4711Y2530D01*
X0Y2529D02*
X7Y2529D01*
X4704Y2529D02*
X4711Y2529D01*
X0Y2528D02*
X7Y2528D01*
X4704Y2528D02*
X4711Y2528D01*
X0Y2527D02*
X7Y2527D01*
X4704Y2527D02*
X4711Y2527D01*
X0Y2526D02*
X7Y2526D01*
X4704Y2526D02*
X4711Y2526D01*
X0Y2525D02*
X7Y2525D01*
X4704Y2525D02*
X4711Y2525D01*
X0Y2524D02*
X7Y2524D01*
X4704Y2524D02*
X4711Y2524D01*
X0Y2523D02*
X7Y2523D01*
X4704Y2523D02*
X4711Y2523D01*
X0Y2522D02*
X7Y2522D01*
X4704Y2522D02*
X4711Y2522D01*
X0Y2521D02*
X7Y2521D01*
X4704Y2521D02*
X4711Y2521D01*
X0Y2520D02*
X7Y2520D01*
X4704Y2520D02*
X4711Y2520D01*
X0Y2519D02*
X7Y2519D01*
X4704Y2519D02*
X4711Y2519D01*
X0Y2518D02*
X7Y2518D01*
X4704Y2518D02*
X4711Y2518D01*
X0Y2517D02*
X7Y2517D01*
X4704Y2517D02*
X4711Y2517D01*
X0Y2516D02*
X7Y2516D01*
X4704Y2516D02*
X4711Y2516D01*
X0Y2515D02*
X7Y2515D01*
X4704Y2515D02*
X4711Y2515D01*
X0Y2514D02*
X7Y2514D01*
X4704Y2514D02*
X4711Y2514D01*
X0Y2513D02*
X7Y2513D01*
X4704Y2513D02*
X4711Y2513D01*
X0Y2512D02*
X7Y2512D01*
X4704Y2512D02*
X4711Y2512D01*
X0Y2511D02*
X7Y2511D01*
X4704Y2511D02*
X4711Y2511D01*
X0Y2510D02*
X7Y2510D01*
X4704Y2510D02*
X4711Y2510D01*
X0Y2509D02*
X7Y2509D01*
X4704Y2509D02*
X4711Y2509D01*
X0Y2508D02*
X7Y2508D01*
X4704Y2508D02*
X4711Y2508D01*
X0Y2507D02*
X2Y2507D01*
X4707Y2507D02*
X4711Y2507D01*
X4711Y2506D02*
X4711Y2506D01*
X4704Y2505D02*
X4711Y2505D01*
X4704Y2504D02*
X4711Y2504D01*
X4704Y2503D02*
X4711Y2503D01*
X4704Y2502D02*
X4711Y2502D01*
X4704Y2501D02*
X4711Y2501D01*
X4704Y2500D02*
X4711Y2500D01*
X4704Y2499D02*
X4711Y2499D01*
X4704Y2498D02*
X4711Y2498D01*
X4704Y2497D02*
X4711Y2497D01*
X4704Y2496D02*
X4711Y2496D01*
X4704Y2495D02*
X4711Y2495D01*
X4704Y2494D02*
X4711Y2494D01*
X4704Y2493D02*
X4711Y2493D01*
X4704Y2492D02*
X4711Y2492D01*
X4704Y2491D02*
X4711Y2491D01*
X4708Y2490D02*
X4711Y2490D01*
X4709Y2489D02*
X4711Y2489D01*
X4711Y2488D02*
X4711Y2488D01*
X4711Y2487D02*
X4711Y2487D01*
X4711Y2478D02*
X4711Y2478D01*
X4710Y2477D02*
X4711Y2477D01*
X4709Y2476D02*
X4711Y2476D01*
X4707Y2475D02*
X4711Y2475D01*
X4704Y2474D02*
X4711Y2474D01*
X4704Y2473D02*
X4711Y2473D01*
X4704Y2472D02*
X4711Y2472D01*
X4704Y2471D02*
X4711Y2471D01*
X4704Y2470D02*
X4711Y2470D01*
X4704Y2469D02*
X4711Y2469D01*
X4704Y2468D02*
X4711Y2468D01*
X4704Y2467D02*
X4711Y2467D01*
X4704Y2466D02*
X4711Y2466D01*
X4704Y2465D02*
X4711Y2465D01*
X4704Y2464D02*
X4711Y2464D01*
X4704Y2463D02*
X4711Y2463D01*
X4704Y2462D02*
X4711Y2462D01*
X4704Y2461D02*
X4711Y2461D01*
X4704Y2460D02*
X4711Y2460D01*
X4710Y2459D02*
X4711Y2459D01*
X0Y2458D02*
X3Y2458D01*
X7Y2458D02*
X7Y2458D01*
X4705Y2458D02*
X4711Y2458D01*
X0Y2457D02*
X7Y2457D01*
X4704Y2457D02*
X4711Y2457D01*
X0Y2456D02*
X7Y2456D01*
X4704Y2456D02*
X4711Y2456D01*
X0Y2455D02*
X7Y2455D01*
X4704Y2455D02*
X4711Y2455D01*
X0Y2454D02*
X7Y2454D01*
X4704Y2454D02*
X4711Y2454D01*
X0Y2453D02*
X7Y2453D01*
X4704Y2453D02*
X4711Y2453D01*
X0Y2452D02*
X7Y2452D01*
X4704Y2452D02*
X4711Y2452D01*
X0Y2451D02*
X7Y2451D01*
X4704Y2451D02*
X4711Y2451D01*
X0Y2450D02*
X7Y2450D01*
X4704Y2450D02*
X4711Y2450D01*
X0Y2449D02*
X7Y2449D01*
X4704Y2449D02*
X4711Y2449D01*
X0Y2448D02*
X7Y2448D01*
X4704Y2448D02*
X4711Y2448D01*
X0Y2447D02*
X7Y2447D01*
X4704Y2447D02*
X4711Y2447D01*
X0Y2446D02*
X7Y2446D01*
X4704Y2446D02*
X4711Y2446D01*
X0Y2445D02*
X7Y2445D01*
X4704Y2445D02*
X4711Y2445D01*
X0Y2444D02*
X7Y2444D01*
X4704Y2444D02*
X4711Y2444D01*
X0Y2443D02*
X7Y2443D01*
X4704Y2443D02*
X4711Y2443D01*
X0Y2442D02*
X7Y2442D01*
X4704Y2442D02*
X4711Y2442D01*
X0Y2441D02*
X7Y2441D01*
X4704Y2441D02*
X4711Y2441D01*
X0Y2440D02*
X7Y2440D01*
X4704Y2440D02*
X4711Y2440D01*
X0Y2439D02*
X7Y2439D01*
X4704Y2439D02*
X4711Y2439D01*
X0Y2438D02*
X7Y2438D01*
X4704Y2438D02*
X4711Y2438D01*
X0Y2437D02*
X7Y2437D01*
X4704Y2437D02*
X4711Y2437D01*
X0Y2436D02*
X7Y2436D01*
X4704Y2436D02*
X4711Y2436D01*
X0Y2435D02*
X7Y2435D01*
X4704Y2435D02*
X4711Y2435D01*
X0Y2434D02*
X7Y2434D01*
X4704Y2434D02*
X4711Y2434D01*
X0Y2433D02*
X7Y2433D01*
X4704Y2433D02*
X4711Y2433D01*
X0Y2432D02*
X7Y2432D01*
X4704Y2432D02*
X4711Y2432D01*
X0Y2431D02*
X7Y2431D01*
X4704Y2431D02*
X4711Y2431D01*
X0Y2430D02*
X7Y2430D01*
X4704Y2430D02*
X4711Y2430D01*
X0Y2429D02*
X7Y2429D01*
X4704Y2429D02*
X4711Y2429D01*
X0Y2428D02*
X7Y2428D01*
X4704Y2428D02*
X4711Y2428D01*
X0Y2427D02*
X7Y2427D01*
X4704Y2427D02*
X4711Y2427D01*
X0Y2426D02*
X7Y2426D01*
X4704Y2426D02*
X4711Y2426D01*
X0Y2425D02*
X7Y2425D01*
X4704Y2425D02*
X4711Y2425D01*
X0Y2424D02*
X7Y2424D01*
X4704Y2424D02*
X4711Y2424D01*
X0Y2423D02*
X7Y2423D01*
X4704Y2423D02*
X4711Y2423D01*
X0Y2422D02*
X7Y2422D01*
X4704Y2422D02*
X4711Y2422D01*
X0Y2421D02*
X7Y2421D01*
X4704Y2421D02*
X4711Y2421D01*
X0Y2420D02*
X7Y2420D01*
X4704Y2420D02*
X4711Y2420D01*
X0Y2419D02*
X7Y2419D01*
X4704Y2419D02*
X4711Y2419D01*
X0Y2418D02*
X7Y2418D01*
X4704Y2418D02*
X4711Y2418D01*
X0Y2417D02*
X7Y2417D01*
X4704Y2417D02*
X4711Y2417D01*
X0Y2416D02*
X7Y2416D01*
X4704Y2416D02*
X4711Y2416D01*
X0Y2415D02*
X7Y2415D01*
X4704Y2415D02*
X4711Y2415D01*
X0Y2414D02*
X7Y2414D01*
X4704Y2414D02*
X4711Y2414D01*
X0Y2413D02*
X7Y2413D01*
X4704Y2413D02*
X4711Y2413D01*
X0Y2412D02*
X7Y2412D01*
X4704Y2412D02*
X4711Y2412D01*
X0Y2411D02*
X7Y2411D01*
X4704Y2411D02*
X4711Y2411D01*
X0Y2410D02*
X7Y2410D01*
X4704Y2410D02*
X4711Y2410D01*
X0Y2409D02*
X7Y2409D01*
X4704Y2409D02*
X4711Y2409D01*
X0Y2408D02*
X7Y2408D01*
X4704Y2408D02*
X4711Y2408D01*
X0Y2407D02*
X7Y2407D01*
X4704Y2407D02*
X4711Y2407D01*
X0Y2406D02*
X7Y2406D01*
X4704Y2406D02*
X4711Y2406D01*
X0Y2405D02*
X7Y2405D01*
X4704Y2405D02*
X4711Y2405D01*
X0Y2404D02*
X7Y2404D01*
X4704Y2404D02*
X4711Y2404D01*
X0Y2403D02*
X7Y2403D01*
X4704Y2403D02*
X4711Y2403D01*
X0Y2402D02*
X7Y2402D01*
X4704Y2402D02*
X4711Y2402D01*
X0Y2401D02*
X7Y2401D01*
X4704Y2401D02*
X4711Y2401D01*
X0Y2400D02*
X7Y2400D01*
X4704Y2400D02*
X4711Y2400D01*
X0Y2399D02*
X7Y2399D01*
X4704Y2399D02*
X4711Y2399D01*
X0Y2398D02*
X7Y2398D01*
X4704Y2398D02*
X4711Y2398D01*
X0Y2397D02*
X7Y2397D01*
X4704Y2397D02*
X4711Y2397D01*
X0Y2396D02*
X7Y2396D01*
X4704Y2396D02*
X4711Y2396D01*
X0Y2395D02*
X7Y2395D01*
X4704Y2395D02*
X4711Y2395D01*
X0Y2394D02*
X7Y2394D01*
X4704Y2394D02*
X4711Y2394D01*
X0Y2393D02*
X7Y2393D01*
X4704Y2393D02*
X4711Y2393D01*
X0Y2392D02*
X7Y2392D01*
X4704Y2392D02*
X4711Y2392D01*
X0Y2391D02*
X7Y2391D01*
X4704Y2391D02*
X4711Y2391D01*
X0Y2390D02*
X7Y2390D01*
X4704Y2390D02*
X4711Y2390D01*
X0Y2389D02*
X7Y2389D01*
X4704Y2389D02*
X4711Y2389D01*
X0Y2388D02*
X7Y2388D01*
X4704Y2388D02*
X4711Y2388D01*
X0Y2387D02*
X7Y2387D01*
X4704Y2387D02*
X4711Y2387D01*
X0Y2386D02*
X7Y2386D01*
X4704Y2386D02*
X4711Y2386D01*
X0Y2385D02*
X7Y2385D01*
X4704Y2385D02*
X4711Y2385D01*
X0Y2384D02*
X7Y2384D01*
X4704Y2384D02*
X4711Y2384D01*
X0Y2383D02*
X7Y2383D01*
X4704Y2383D02*
X4711Y2383D01*
X0Y2382D02*
X7Y2382D01*
X4704Y2382D02*
X4711Y2382D01*
X0Y2381D02*
X7Y2381D01*
X4704Y2381D02*
X4711Y2381D01*
X0Y2380D02*
X7Y2380D01*
X4704Y2380D02*
X4711Y2380D01*
X0Y2379D02*
X7Y2379D01*
X4704Y2379D02*
X4711Y2379D01*
X0Y2378D02*
X7Y2378D01*
X4704Y2378D02*
X4711Y2378D01*
X0Y2377D02*
X7Y2377D01*
X4704Y2377D02*
X4711Y2377D01*
X0Y2376D02*
X7Y2376D01*
X4704Y2376D02*
X4711Y2376D01*
X0Y2375D02*
X7Y2375D01*
X4704Y2375D02*
X4711Y2375D01*
X0Y2374D02*
X7Y2374D01*
X4704Y2374D02*
X4711Y2374D01*
X0Y2373D02*
X7Y2373D01*
X4704Y2373D02*
X4711Y2373D01*
X0Y2372D02*
X7Y2372D01*
X4704Y2372D02*
X4711Y2372D01*
X0Y2371D02*
X7Y2371D01*
X4704Y2371D02*
X4711Y2371D01*
X0Y2370D02*
X7Y2370D01*
X4704Y2370D02*
X4711Y2370D01*
X0Y2369D02*
X7Y2369D01*
X4704Y2369D02*
X4711Y2369D01*
X0Y2368D02*
X7Y2368D01*
X4704Y2368D02*
X4711Y2368D01*
X0Y2367D02*
X7Y2367D01*
X4704Y2367D02*
X4711Y2367D01*
X0Y2366D02*
X7Y2366D01*
X4704Y2366D02*
X4711Y2366D01*
X0Y2365D02*
X7Y2365D01*
X4704Y2365D02*
X4711Y2365D01*
X0Y2364D02*
X7Y2364D01*
X4704Y2364D02*
X4711Y2364D01*
X0Y2363D02*
X7Y2363D01*
X4704Y2363D02*
X4711Y2363D01*
X0Y2362D02*
X7Y2362D01*
X4704Y2362D02*
X4711Y2362D01*
X0Y2361D02*
X7Y2361D01*
X4704Y2361D02*
X4711Y2361D01*
X0Y2360D02*
X7Y2360D01*
X4704Y2360D02*
X4711Y2360D01*
X0Y2359D02*
X7Y2359D01*
X4704Y2359D02*
X4711Y2359D01*
X0Y2358D02*
X7Y2358D01*
X4704Y2358D02*
X4711Y2358D01*
X0Y2357D02*
X7Y2357D01*
X4704Y2357D02*
X4711Y2357D01*
X0Y2356D02*
X7Y2356D01*
X4704Y2356D02*
X4711Y2356D01*
X0Y2355D02*
X7Y2355D01*
X4704Y2355D02*
X4711Y2355D01*
X0Y2354D02*
X7Y2354D01*
X4704Y2354D02*
X4711Y2354D01*
X0Y2353D02*
X7Y2353D01*
X4704Y2353D02*
X4711Y2353D01*
X0Y2352D02*
X7Y2352D01*
X4704Y2352D02*
X4711Y2352D01*
X0Y2351D02*
X7Y2351D01*
X4704Y2351D02*
X4711Y2351D01*
X0Y2350D02*
X7Y2350D01*
X4704Y2350D02*
X4711Y2350D01*
X0Y2349D02*
X7Y2349D01*
X4704Y2349D02*
X4711Y2349D01*
X0Y2348D02*
X7Y2348D01*
X4704Y2348D02*
X4711Y2348D01*
X0Y2347D02*
X7Y2347D01*
X4704Y2347D02*
X4711Y2347D01*
X0Y2346D02*
X7Y2346D01*
X4704Y2346D02*
X4711Y2346D01*
X0Y2345D02*
X7Y2345D01*
X4704Y2345D02*
X4711Y2345D01*
X0Y2344D02*
X7Y2344D01*
X4704Y2344D02*
X4711Y2344D01*
X0Y2343D02*
X7Y2343D01*
X4704Y2343D02*
X4711Y2343D01*
X0Y2342D02*
X7Y2342D01*
X4704Y2342D02*
X4711Y2342D01*
X0Y2341D02*
X7Y2341D01*
X4704Y2341D02*
X4711Y2341D01*
X0Y2340D02*
X7Y2340D01*
X4704Y2340D02*
X4711Y2340D01*
X0Y2339D02*
X7Y2339D01*
X4704Y2339D02*
X4711Y2339D01*
X0Y2338D02*
X7Y2338D01*
X4704Y2338D02*
X4711Y2338D01*
X0Y2337D02*
X7Y2337D01*
X4704Y2337D02*
X4711Y2337D01*
X0Y2336D02*
X7Y2336D01*
X4704Y2336D02*
X4711Y2336D01*
X0Y2335D02*
X7Y2335D01*
X4704Y2335D02*
X4711Y2335D01*
X0Y2334D02*
X7Y2334D01*
X4704Y2334D02*
X4711Y2334D01*
X0Y2333D02*
X7Y2333D01*
X4704Y2333D02*
X4711Y2333D01*
X0Y2332D02*
X7Y2332D01*
X4704Y2332D02*
X4711Y2332D01*
X0Y2331D02*
X7Y2331D01*
X4704Y2331D02*
X4711Y2331D01*
X0Y2330D02*
X7Y2330D01*
X4704Y2330D02*
X4711Y2330D01*
X0Y2329D02*
X7Y2329D01*
X4704Y2329D02*
X4711Y2329D01*
X0Y2328D02*
X7Y2328D01*
X4704Y2328D02*
X4711Y2328D01*
X0Y2327D02*
X7Y2327D01*
X4704Y2327D02*
X4711Y2327D01*
X0Y2326D02*
X7Y2326D01*
X4704Y2326D02*
X4711Y2326D01*
X0Y2325D02*
X7Y2325D01*
X4704Y2325D02*
X4711Y2325D01*
X0Y2324D02*
X7Y2324D01*
X4704Y2324D02*
X4711Y2324D01*
X0Y2323D02*
X7Y2323D01*
X4704Y2323D02*
X4711Y2323D01*
X0Y2322D02*
X7Y2322D01*
X4704Y2322D02*
X4711Y2322D01*
X0Y2321D02*
X7Y2321D01*
X4704Y2321D02*
X4711Y2321D01*
X0Y2320D02*
X7Y2320D01*
X4704Y2320D02*
X4711Y2320D01*
X0Y2319D02*
X7Y2319D01*
X4704Y2319D02*
X4711Y2319D01*
X0Y2318D02*
X7Y2318D01*
X4704Y2318D02*
X4711Y2318D01*
X0Y2317D02*
X7Y2317D01*
X4704Y2317D02*
X4711Y2317D01*
X0Y2316D02*
X7Y2316D01*
X4704Y2316D02*
X4711Y2316D01*
X0Y2315D02*
X7Y2315D01*
X4704Y2315D02*
X4711Y2315D01*
X0Y2314D02*
X7Y2314D01*
X4704Y2314D02*
X4711Y2314D01*
X0Y2313D02*
X7Y2313D01*
X4704Y2313D02*
X4711Y2313D01*
X0Y2312D02*
X7Y2312D01*
X4704Y2312D02*
X4711Y2312D01*
X0Y2311D02*
X7Y2311D01*
X4704Y2311D02*
X4711Y2311D01*
X0Y2310D02*
X7Y2310D01*
X4704Y2310D02*
X4711Y2310D01*
X0Y2309D02*
X7Y2309D01*
X4704Y2309D02*
X4711Y2309D01*
X0Y2308D02*
X7Y2308D01*
X4704Y2308D02*
X4711Y2308D01*
X0Y2307D02*
X7Y2307D01*
X4704Y2307D02*
X4711Y2307D01*
X0Y2306D02*
X7Y2306D01*
X4704Y2306D02*
X4711Y2306D01*
X0Y2305D02*
X7Y2305D01*
X4704Y2305D02*
X4711Y2305D01*
X0Y2304D02*
X7Y2304D01*
X4704Y2304D02*
X4711Y2304D01*
X0Y2303D02*
X7Y2303D01*
X4704Y2303D02*
X4711Y2303D01*
X0Y2302D02*
X7Y2302D01*
X4704Y2302D02*
X4711Y2302D01*
X0Y2301D02*
X7Y2301D01*
X4704Y2301D02*
X4711Y2301D01*
X0Y2300D02*
X7Y2300D01*
X4704Y2300D02*
X4711Y2300D01*
X0Y2299D02*
X7Y2299D01*
X4704Y2299D02*
X4711Y2299D01*
X0Y2298D02*
X7Y2298D01*
X4704Y2298D02*
X4711Y2298D01*
X0Y2297D02*
X7Y2297D01*
X4704Y2297D02*
X4711Y2297D01*
X0Y2296D02*
X7Y2296D01*
X4704Y2296D02*
X4711Y2296D01*
X0Y2295D02*
X7Y2295D01*
X4704Y2295D02*
X4711Y2295D01*
X0Y2294D02*
X7Y2294D01*
X4704Y2294D02*
X4711Y2294D01*
X0Y2293D02*
X7Y2293D01*
X4704Y2293D02*
X4711Y2293D01*
X0Y2292D02*
X7Y2292D01*
X4704Y2292D02*
X4711Y2292D01*
X0Y2291D02*
X7Y2291D01*
X4704Y2291D02*
X4711Y2291D01*
X0Y2290D02*
X7Y2290D01*
X4704Y2290D02*
X4711Y2290D01*
X0Y2289D02*
X7Y2289D01*
X4704Y2289D02*
X4711Y2289D01*
X0Y2288D02*
X7Y2288D01*
X4704Y2288D02*
X4711Y2288D01*
X0Y2287D02*
X7Y2287D01*
X4704Y2287D02*
X4711Y2287D01*
X0Y2286D02*
X7Y2286D01*
X4704Y2286D02*
X4711Y2286D01*
X0Y2285D02*
X7Y2285D01*
X4704Y2285D02*
X4711Y2285D01*
X0Y2284D02*
X7Y2284D01*
X4704Y2284D02*
X4711Y2284D01*
X0Y2283D02*
X7Y2283D01*
X4704Y2283D02*
X4711Y2283D01*
X0Y2282D02*
X7Y2282D01*
X4704Y2282D02*
X4711Y2282D01*
X0Y2281D02*
X7Y2281D01*
X4704Y2281D02*
X4711Y2281D01*
X0Y2280D02*
X7Y2280D01*
X4704Y2280D02*
X4711Y2280D01*
X0Y2279D02*
X7Y2279D01*
X4704Y2279D02*
X4711Y2279D01*
X0Y2278D02*
X7Y2278D01*
X4704Y2278D02*
X4711Y2278D01*
X0Y2277D02*
X7Y2277D01*
X4704Y2277D02*
X4711Y2277D01*
X0Y2276D02*
X7Y2276D01*
X4704Y2276D02*
X4711Y2276D01*
X0Y2275D02*
X7Y2275D01*
X4704Y2275D02*
X4711Y2275D01*
X0Y2274D02*
X7Y2274D01*
X4704Y2274D02*
X4711Y2274D01*
X0Y2273D02*
X7Y2273D01*
X4704Y2273D02*
X4711Y2273D01*
X0Y2272D02*
X7Y2272D01*
X4704Y2272D02*
X4711Y2272D01*
X0Y2271D02*
X7Y2271D01*
X4704Y2271D02*
X4711Y2271D01*
X0Y2270D02*
X7Y2270D01*
X4704Y2270D02*
X4711Y2270D01*
X0Y2269D02*
X7Y2269D01*
X4704Y2269D02*
X4711Y2269D01*
X0Y2268D02*
X7Y2268D01*
X4704Y2268D02*
X4711Y2268D01*
X0Y2267D02*
X7Y2267D01*
X4704Y2267D02*
X4711Y2267D01*
X0Y2266D02*
X7Y2266D01*
X4704Y2266D02*
X4711Y2266D01*
X0Y2265D02*
X7Y2265D01*
X4704Y2265D02*
X4711Y2265D01*
X0Y2264D02*
X7Y2264D01*
X4704Y2264D02*
X4711Y2264D01*
X0Y2263D02*
X7Y2263D01*
X4704Y2263D02*
X4711Y2263D01*
X0Y2262D02*
X7Y2262D01*
X4704Y2262D02*
X4711Y2262D01*
X0Y2261D02*
X7Y2261D01*
X4704Y2261D02*
X4711Y2261D01*
X0Y2260D02*
X7Y2260D01*
X4704Y2260D02*
X4711Y2260D01*
X0Y2259D02*
X7Y2259D01*
X4704Y2259D02*
X4711Y2259D01*
X0Y2258D02*
X7Y2258D01*
X4704Y2258D02*
X4711Y2258D01*
X0Y2257D02*
X7Y2257D01*
X4704Y2257D02*
X4711Y2257D01*
X0Y2256D02*
X7Y2256D01*
X4704Y2256D02*
X4711Y2256D01*
X0Y2255D02*
X7Y2255D01*
X4704Y2255D02*
X4711Y2255D01*
X0Y2254D02*
X7Y2254D01*
X4704Y2254D02*
X4711Y2254D01*
X0Y2253D02*
X7Y2253D01*
X4704Y2253D02*
X4711Y2253D01*
X0Y2252D02*
X7Y2252D01*
X4704Y2252D02*
X4711Y2252D01*
X0Y2251D02*
X7Y2251D01*
X4704Y2251D02*
X4711Y2251D01*
X0Y2250D02*
X7Y2250D01*
X4704Y2250D02*
X4711Y2250D01*
X0Y2249D02*
X7Y2249D01*
X4704Y2249D02*
X4711Y2249D01*
X0Y2248D02*
X7Y2248D01*
X4704Y2248D02*
X4711Y2248D01*
X0Y2247D02*
X7Y2247D01*
X4704Y2247D02*
X4711Y2247D01*
X0Y2246D02*
X7Y2246D01*
X4704Y2246D02*
X4711Y2246D01*
X0Y2245D02*
X7Y2245D01*
X4704Y2245D02*
X4711Y2245D01*
X0Y2244D02*
X7Y2244D01*
X4704Y2244D02*
X4711Y2244D01*
X0Y2243D02*
X7Y2243D01*
X4704Y2243D02*
X4711Y2243D01*
X0Y2242D02*
X7Y2242D01*
X4704Y2242D02*
X4711Y2242D01*
X0Y2241D02*
X7Y2241D01*
X4704Y2241D02*
X4711Y2241D01*
X0Y2240D02*
X7Y2240D01*
X4704Y2240D02*
X4711Y2240D01*
X0Y2239D02*
X7Y2239D01*
X4704Y2239D02*
X4711Y2239D01*
X0Y2238D02*
X7Y2238D01*
X4704Y2238D02*
X4711Y2238D01*
X0Y2237D02*
X7Y2237D01*
X4704Y2237D02*
X4711Y2237D01*
X0Y2236D02*
X7Y2236D01*
X4704Y2236D02*
X4711Y2236D01*
X0Y2235D02*
X7Y2235D01*
X4704Y2235D02*
X4711Y2235D01*
X0Y2234D02*
X7Y2234D01*
X4704Y2234D02*
X4711Y2234D01*
X0Y2233D02*
X7Y2233D01*
X4704Y2233D02*
X4711Y2233D01*
X0Y2232D02*
X7Y2232D01*
X4704Y2232D02*
X4711Y2232D01*
X0Y2231D02*
X7Y2231D01*
X4704Y2231D02*
X4711Y2231D01*
X0Y2230D02*
X7Y2230D01*
X4704Y2230D02*
X4711Y2230D01*
X0Y2229D02*
X7Y2229D01*
X4704Y2229D02*
X4711Y2229D01*
X0Y2228D02*
X7Y2228D01*
X4704Y2228D02*
X4711Y2228D01*
X0Y2227D02*
X7Y2227D01*
X4704Y2227D02*
X4711Y2227D01*
X0Y2226D02*
X7Y2226D01*
X4704Y2226D02*
X4711Y2226D01*
X0Y2225D02*
X7Y2225D01*
X4704Y2225D02*
X4711Y2225D01*
X0Y2224D02*
X7Y2224D01*
X4704Y2224D02*
X4711Y2224D01*
X0Y2223D02*
X7Y2223D01*
X4704Y2223D02*
X4711Y2223D01*
X0Y2222D02*
X7Y2222D01*
X4704Y2222D02*
X4711Y2222D01*
X0Y2221D02*
X7Y2221D01*
X4704Y2221D02*
X4711Y2221D01*
X0Y2220D02*
X7Y2220D01*
X4704Y2220D02*
X4711Y2220D01*
X0Y2219D02*
X7Y2219D01*
X4704Y2219D02*
X4711Y2219D01*
X0Y2218D02*
X7Y2218D01*
X4704Y2218D02*
X4711Y2218D01*
X0Y2217D02*
X7Y2217D01*
X4704Y2217D02*
X4711Y2217D01*
X0Y2216D02*
X7Y2216D01*
X4704Y2216D02*
X4711Y2216D01*
X0Y2215D02*
X7Y2215D01*
X4704Y2215D02*
X4711Y2215D01*
X0Y2214D02*
X7Y2214D01*
X4704Y2214D02*
X4711Y2214D01*
X0Y2213D02*
X7Y2213D01*
X4704Y2213D02*
X4711Y2213D01*
X0Y2212D02*
X7Y2212D01*
X4704Y2212D02*
X4711Y2212D01*
X0Y2211D02*
X7Y2211D01*
X4704Y2211D02*
X4711Y2211D01*
X0Y2210D02*
X7Y2210D01*
X4704Y2210D02*
X4711Y2210D01*
X0Y2209D02*
X7Y2209D01*
X4704Y2209D02*
X4711Y2209D01*
X0Y2208D02*
X7Y2208D01*
X4704Y2208D02*
X4711Y2208D01*
X0Y2207D02*
X7Y2207D01*
X4704Y2207D02*
X4711Y2207D01*
X0Y2206D02*
X7Y2206D01*
X4704Y2206D02*
X4711Y2206D01*
X0Y2205D02*
X7Y2205D01*
X4704Y2205D02*
X4711Y2205D01*
X0Y2204D02*
X7Y2204D01*
X4704Y2204D02*
X4711Y2204D01*
X0Y2203D02*
X7Y2203D01*
X4704Y2203D02*
X4711Y2203D01*
X0Y2202D02*
X7Y2202D01*
X4704Y2202D02*
X4711Y2202D01*
X0Y2201D02*
X7Y2201D01*
X4704Y2201D02*
X4711Y2201D01*
X0Y2200D02*
X7Y2200D01*
X4704Y2200D02*
X4711Y2200D01*
X0Y2199D02*
X7Y2199D01*
X4704Y2199D02*
X4711Y2199D01*
X0Y2198D02*
X7Y2198D01*
X4704Y2198D02*
X4711Y2198D01*
X0Y2197D02*
X7Y2197D01*
X4704Y2197D02*
X4711Y2197D01*
X0Y2196D02*
X7Y2196D01*
X4704Y2196D02*
X4711Y2196D01*
X0Y2195D02*
X7Y2195D01*
X4704Y2195D02*
X4711Y2195D01*
X0Y2194D02*
X7Y2194D01*
X4704Y2194D02*
X4711Y2194D01*
X0Y2193D02*
X7Y2193D01*
X4704Y2193D02*
X4711Y2193D01*
X0Y2192D02*
X7Y2192D01*
X4704Y2192D02*
X4711Y2192D01*
X0Y2191D02*
X7Y2191D01*
X4704Y2191D02*
X4711Y2191D01*
X0Y2190D02*
X7Y2190D01*
X4704Y2190D02*
X4711Y2190D01*
X0Y2189D02*
X7Y2189D01*
X4704Y2189D02*
X4711Y2189D01*
X0Y2188D02*
X7Y2188D01*
X4704Y2188D02*
X4711Y2188D01*
X0Y2187D02*
X7Y2187D01*
X4704Y2187D02*
X4711Y2187D01*
X0Y2186D02*
X7Y2186D01*
X4704Y2186D02*
X4711Y2186D01*
X0Y2185D02*
X7Y2185D01*
X4704Y2185D02*
X4711Y2185D01*
X0Y2184D02*
X7Y2184D01*
X4704Y2184D02*
X4711Y2184D01*
X0Y2183D02*
X7Y2183D01*
X4704Y2183D02*
X4711Y2183D01*
X0Y2182D02*
X7Y2182D01*
X4704Y2182D02*
X4711Y2182D01*
X0Y2181D02*
X7Y2181D01*
X4704Y2181D02*
X4711Y2181D01*
X0Y2180D02*
X7Y2180D01*
X4704Y2180D02*
X4711Y2180D01*
X0Y2179D02*
X7Y2179D01*
X4704Y2179D02*
X4711Y2179D01*
X0Y2178D02*
X7Y2178D01*
X4704Y2178D02*
X4711Y2178D01*
X0Y2177D02*
X7Y2177D01*
X4704Y2177D02*
X4711Y2177D01*
X0Y2176D02*
X7Y2176D01*
X4704Y2176D02*
X4711Y2176D01*
X0Y2175D02*
X7Y2175D01*
X4704Y2175D02*
X4711Y2175D01*
X0Y2174D02*
X7Y2174D01*
X4704Y2174D02*
X4711Y2174D01*
X0Y2173D02*
X7Y2173D01*
X4704Y2173D02*
X4711Y2173D01*
X0Y2172D02*
X7Y2172D01*
X4704Y2172D02*
X4711Y2172D01*
X0Y2171D02*
X7Y2171D01*
X4704Y2171D02*
X4711Y2171D01*
X0Y2170D02*
X7Y2170D01*
X4704Y2170D02*
X4711Y2170D01*
X0Y2169D02*
X7Y2169D01*
X4704Y2169D02*
X4711Y2169D01*
X0Y2168D02*
X7Y2168D01*
X4704Y2168D02*
X4711Y2168D01*
X0Y2167D02*
X7Y2167D01*
X4704Y2167D02*
X4711Y2167D01*
X0Y2166D02*
X7Y2166D01*
X4704Y2166D02*
X4711Y2166D01*
X0Y2165D02*
X7Y2165D01*
X4704Y2165D02*
X4711Y2165D01*
X0Y2164D02*
X7Y2164D01*
X4704Y2164D02*
X4711Y2164D01*
X0Y2163D02*
X7Y2163D01*
X4704Y2163D02*
X4711Y2163D01*
X0Y2162D02*
X7Y2162D01*
X4704Y2162D02*
X4711Y2162D01*
X0Y2161D02*
X7Y2161D01*
X4704Y2161D02*
X4711Y2161D01*
X0Y2160D02*
X7Y2160D01*
X4704Y2160D02*
X4711Y2160D01*
X0Y2159D02*
X7Y2159D01*
X4704Y2159D02*
X4711Y2159D01*
X0Y2158D02*
X7Y2158D01*
X4704Y2158D02*
X4711Y2158D01*
X0Y2157D02*
X7Y2157D01*
X4704Y2157D02*
X4711Y2157D01*
X0Y2156D02*
X7Y2156D01*
X4704Y2156D02*
X4711Y2156D01*
X0Y2155D02*
X7Y2155D01*
X4704Y2155D02*
X4711Y2155D01*
X0Y2154D02*
X7Y2154D01*
X4704Y2154D02*
X4711Y2154D01*
X0Y2153D02*
X7Y2153D01*
X4704Y2153D02*
X4711Y2153D01*
X0Y2152D02*
X7Y2152D01*
X4704Y2152D02*
X4711Y2152D01*
X0Y2151D02*
X7Y2151D01*
X4704Y2151D02*
X4711Y2151D01*
X0Y2150D02*
X7Y2150D01*
X4704Y2150D02*
X4711Y2150D01*
X0Y2149D02*
X7Y2149D01*
X4704Y2149D02*
X4711Y2149D01*
X0Y2148D02*
X7Y2148D01*
X4704Y2148D02*
X4711Y2148D01*
X0Y2147D02*
X7Y2147D01*
X4704Y2147D02*
X4711Y2147D01*
X0Y2146D02*
X7Y2146D01*
X4704Y2146D02*
X4711Y2146D01*
X0Y2145D02*
X7Y2145D01*
X4704Y2145D02*
X4711Y2145D01*
X0Y2144D02*
X7Y2144D01*
X4704Y2144D02*
X4711Y2144D01*
X0Y2143D02*
X7Y2143D01*
X4704Y2143D02*
X4711Y2143D01*
X0Y2142D02*
X7Y2142D01*
X4704Y2142D02*
X4711Y2142D01*
X0Y2141D02*
X7Y2141D01*
X4704Y2141D02*
X4711Y2141D01*
X0Y2140D02*
X7Y2140D01*
X4704Y2140D02*
X4711Y2140D01*
X0Y2139D02*
X7Y2139D01*
X4704Y2139D02*
X4711Y2139D01*
X0Y2138D02*
X7Y2138D01*
X4704Y2138D02*
X4711Y2138D01*
X0Y2137D02*
X7Y2137D01*
X4704Y2137D02*
X4711Y2137D01*
X0Y2136D02*
X7Y2136D01*
X4704Y2136D02*
X4711Y2136D01*
X0Y2135D02*
X7Y2135D01*
X4704Y2135D02*
X4711Y2135D01*
X0Y2134D02*
X7Y2134D01*
X4704Y2134D02*
X4711Y2134D01*
X0Y2133D02*
X7Y2133D01*
X4704Y2133D02*
X4711Y2133D01*
X0Y2132D02*
X7Y2132D01*
X4704Y2132D02*
X4711Y2132D01*
X0Y2131D02*
X7Y2131D01*
X4704Y2131D02*
X4711Y2131D01*
X0Y2130D02*
X7Y2130D01*
X4704Y2130D02*
X4711Y2130D01*
X0Y2129D02*
X7Y2129D01*
X4704Y2129D02*
X4711Y2129D01*
X0Y2128D02*
X7Y2128D01*
X4704Y2128D02*
X4711Y2128D01*
X0Y2127D02*
X7Y2127D01*
X4704Y2127D02*
X4711Y2127D01*
X0Y2126D02*
X7Y2126D01*
X4704Y2126D02*
X4711Y2126D01*
X0Y2125D02*
X7Y2125D01*
X4704Y2125D02*
X4711Y2125D01*
X0Y2124D02*
X7Y2124D01*
X4704Y2124D02*
X4711Y2124D01*
X0Y2123D02*
X7Y2123D01*
X4704Y2123D02*
X4711Y2123D01*
X0Y2122D02*
X7Y2122D01*
X4704Y2122D02*
X4711Y2122D01*
X0Y2121D02*
X7Y2121D01*
X4704Y2121D02*
X4711Y2121D01*
X0Y2120D02*
X7Y2120D01*
X4704Y2120D02*
X4711Y2120D01*
X0Y2119D02*
X7Y2119D01*
X4704Y2119D02*
X4711Y2119D01*
X0Y2118D02*
X7Y2118D01*
X4704Y2118D02*
X4711Y2118D01*
X0Y2117D02*
X7Y2117D01*
X4704Y2117D02*
X4711Y2117D01*
X0Y2116D02*
X7Y2116D01*
X4704Y2116D02*
X4711Y2116D01*
X0Y2115D02*
X7Y2115D01*
X4704Y2115D02*
X4711Y2115D01*
X0Y2114D02*
X7Y2114D01*
X4704Y2114D02*
X4711Y2114D01*
X0Y2113D02*
X7Y2113D01*
X4704Y2113D02*
X4711Y2113D01*
X0Y2112D02*
X7Y2112D01*
X4704Y2112D02*
X4711Y2112D01*
X0Y2111D02*
X7Y2111D01*
X4704Y2111D02*
X4711Y2111D01*
X0Y2110D02*
X7Y2110D01*
X4704Y2110D02*
X4711Y2110D01*
X0Y2109D02*
X7Y2109D01*
X4704Y2109D02*
X4711Y2109D01*
X0Y2108D02*
X7Y2108D01*
X4704Y2108D02*
X4711Y2108D01*
X0Y2107D02*
X7Y2107D01*
X4704Y2107D02*
X4711Y2107D01*
X0Y2106D02*
X7Y2106D01*
X4704Y2106D02*
X4711Y2106D01*
X0Y2105D02*
X7Y2105D01*
X4704Y2105D02*
X4711Y2105D01*
X0Y2104D02*
X7Y2104D01*
X4704Y2104D02*
X4711Y2104D01*
X0Y2103D02*
X7Y2103D01*
X4704Y2103D02*
X4711Y2103D01*
X0Y2102D02*
X7Y2102D01*
X4704Y2102D02*
X4711Y2102D01*
X0Y2101D02*
X7Y2101D01*
X4704Y2101D02*
X4711Y2101D01*
X0Y2100D02*
X7Y2100D01*
X4704Y2100D02*
X4711Y2100D01*
X0Y2099D02*
X7Y2099D01*
X4704Y2099D02*
X4711Y2099D01*
X0Y2098D02*
X7Y2098D01*
X4704Y2098D02*
X4711Y2098D01*
X0Y2097D02*
X7Y2097D01*
X4704Y2097D02*
X4711Y2097D01*
X0Y2096D02*
X7Y2096D01*
X4704Y2096D02*
X4711Y2096D01*
X0Y2095D02*
X7Y2095D01*
X4704Y2095D02*
X4711Y2095D01*
X0Y2094D02*
X7Y2094D01*
X4704Y2094D02*
X4711Y2094D01*
X0Y2093D02*
X7Y2093D01*
X4704Y2093D02*
X4711Y2093D01*
X0Y2092D02*
X7Y2092D01*
X4704Y2092D02*
X4711Y2092D01*
X0Y2091D02*
X7Y2091D01*
X4704Y2091D02*
X4711Y2091D01*
X0Y2090D02*
X7Y2090D01*
X4704Y2090D02*
X4711Y2090D01*
X0Y2089D02*
X7Y2089D01*
X4704Y2089D02*
X4711Y2089D01*
X0Y2088D02*
X7Y2088D01*
X4704Y2088D02*
X4711Y2088D01*
X0Y2087D02*
X7Y2087D01*
X4704Y2087D02*
X4711Y2087D01*
X0Y2086D02*
X7Y2086D01*
X4704Y2086D02*
X4711Y2086D01*
X0Y2085D02*
X7Y2085D01*
X4704Y2085D02*
X4711Y2085D01*
X0Y2084D02*
X7Y2084D01*
X4704Y2084D02*
X4711Y2084D01*
X0Y2083D02*
X7Y2083D01*
X4704Y2083D02*
X4711Y2083D01*
X0Y2082D02*
X7Y2082D01*
X4704Y2082D02*
X4711Y2082D01*
X0Y2081D02*
X7Y2081D01*
X4704Y2081D02*
X4711Y2081D01*
X0Y2080D02*
X7Y2080D01*
X4704Y2080D02*
X4711Y2080D01*
X0Y2079D02*
X7Y2079D01*
X4704Y2079D02*
X4711Y2079D01*
X0Y2078D02*
X7Y2078D01*
X4704Y2078D02*
X4711Y2078D01*
X0Y2077D02*
X7Y2077D01*
X4704Y2077D02*
X4711Y2077D01*
X0Y2076D02*
X7Y2076D01*
X4704Y2076D02*
X4711Y2076D01*
X0Y2075D02*
X7Y2075D01*
X4704Y2075D02*
X4711Y2075D01*
X0Y2074D02*
X7Y2074D01*
X4704Y2074D02*
X4711Y2074D01*
X0Y2073D02*
X7Y2073D01*
X4704Y2073D02*
X4711Y2073D01*
X0Y2072D02*
X7Y2072D01*
X4704Y2072D02*
X4711Y2072D01*
X0Y2071D02*
X7Y2071D01*
X4704Y2071D02*
X4711Y2071D01*
X0Y2070D02*
X7Y2070D01*
X4704Y2070D02*
X4711Y2070D01*
X0Y2069D02*
X7Y2069D01*
X4704Y2069D02*
X4711Y2069D01*
X0Y2068D02*
X7Y2068D01*
X4704Y2068D02*
X4711Y2068D01*
X0Y2067D02*
X7Y2067D01*
X4704Y2067D02*
X4711Y2067D01*
X0Y2066D02*
X7Y2066D01*
X4704Y2066D02*
X4711Y2066D01*
X0Y2065D02*
X7Y2065D01*
X4704Y2065D02*
X4711Y2065D01*
X0Y2064D02*
X7Y2064D01*
X4704Y2064D02*
X4711Y2064D01*
X0Y2063D02*
X7Y2063D01*
X4704Y2063D02*
X4711Y2063D01*
X0Y2062D02*
X7Y2062D01*
X4704Y2062D02*
X4711Y2062D01*
X0Y2061D02*
X7Y2061D01*
X4704Y2061D02*
X4711Y2061D01*
X0Y2060D02*
X7Y2060D01*
X4704Y2060D02*
X4711Y2060D01*
X0Y2059D02*
X7Y2059D01*
X4704Y2059D02*
X4711Y2059D01*
X0Y2058D02*
X7Y2058D01*
X4704Y2058D02*
X4711Y2058D01*
X0Y2057D02*
X7Y2057D01*
X4704Y2057D02*
X4711Y2057D01*
X0Y2056D02*
X7Y2056D01*
X4704Y2056D02*
X4711Y2056D01*
X0Y2055D02*
X7Y2055D01*
X4704Y2055D02*
X4711Y2055D01*
X0Y2054D02*
X7Y2054D01*
X4704Y2054D02*
X4711Y2054D01*
X0Y2053D02*
X7Y2053D01*
X4704Y2053D02*
X4711Y2053D01*
X0Y2052D02*
X7Y2052D01*
X4704Y2052D02*
X4711Y2052D01*
X0Y2051D02*
X7Y2051D01*
X4704Y2051D02*
X4711Y2051D01*
X0Y2050D02*
X7Y2050D01*
X4704Y2050D02*
X4711Y2050D01*
X0Y2049D02*
X7Y2049D01*
X4704Y2049D02*
X4711Y2049D01*
X0Y2048D02*
X7Y2048D01*
X4704Y2048D02*
X4711Y2048D01*
X0Y2047D02*
X7Y2047D01*
X4704Y2047D02*
X4711Y2047D01*
X0Y2046D02*
X7Y2046D01*
X4704Y2046D02*
X4711Y2046D01*
X0Y2045D02*
X7Y2045D01*
X4704Y2045D02*
X4711Y2045D01*
X0Y2044D02*
X7Y2044D01*
X4704Y2044D02*
X4711Y2044D01*
X0Y2043D02*
X7Y2043D01*
X4704Y2043D02*
X4711Y2043D01*
X0Y2042D02*
X7Y2042D01*
X4704Y2042D02*
X4711Y2042D01*
X0Y2041D02*
X7Y2041D01*
X4704Y2041D02*
X4711Y2041D01*
X0Y2040D02*
X7Y2040D01*
X4704Y2040D02*
X4711Y2040D01*
X0Y2039D02*
X7Y2039D01*
X4704Y2039D02*
X4711Y2039D01*
X0Y2038D02*
X7Y2038D01*
X4704Y2038D02*
X4711Y2038D01*
X0Y2037D02*
X7Y2037D01*
X4704Y2037D02*
X4711Y2037D01*
X0Y2036D02*
X7Y2036D01*
X4704Y2036D02*
X4711Y2036D01*
X0Y2035D02*
X7Y2035D01*
X4704Y2035D02*
X4711Y2035D01*
X0Y2034D02*
X7Y2034D01*
X4704Y2034D02*
X4711Y2034D01*
X0Y2033D02*
X7Y2033D01*
X4704Y2033D02*
X4711Y2033D01*
X0Y2032D02*
X7Y2032D01*
X4704Y2032D02*
X4711Y2032D01*
X0Y2031D02*
X7Y2031D01*
X4704Y2031D02*
X4711Y2031D01*
X0Y2030D02*
X7Y2030D01*
X4704Y2030D02*
X4711Y2030D01*
X0Y2029D02*
X7Y2029D01*
X4704Y2029D02*
X4711Y2029D01*
X0Y2028D02*
X7Y2028D01*
X4704Y2028D02*
X4711Y2028D01*
X0Y2027D02*
X7Y2027D01*
X4704Y2027D02*
X4711Y2027D01*
X0Y2026D02*
X7Y2026D01*
X4704Y2026D02*
X4711Y2026D01*
X0Y2025D02*
X7Y2025D01*
X4704Y2025D02*
X4711Y2025D01*
X0Y2024D02*
X7Y2024D01*
X4704Y2024D02*
X4711Y2024D01*
X0Y2023D02*
X7Y2023D01*
X4704Y2023D02*
X4711Y2023D01*
X0Y2022D02*
X7Y2022D01*
X4704Y2022D02*
X4711Y2022D01*
X0Y2021D02*
X7Y2021D01*
X4704Y2021D02*
X4711Y2021D01*
X0Y2020D02*
X7Y2020D01*
X4704Y2020D02*
X4711Y2020D01*
X0Y2019D02*
X7Y2019D01*
X4704Y2019D02*
X4711Y2019D01*
X0Y2018D02*
X7Y2018D01*
X4704Y2018D02*
X4711Y2018D01*
X0Y2017D02*
X7Y2017D01*
X4704Y2017D02*
X4711Y2017D01*
X0Y2016D02*
X7Y2016D01*
X4704Y2016D02*
X4711Y2016D01*
X0Y2015D02*
X7Y2015D01*
X4704Y2015D02*
X4711Y2015D01*
X0Y2014D02*
X7Y2014D01*
X4704Y2014D02*
X4711Y2014D01*
X0Y2013D02*
X7Y2013D01*
X4704Y2013D02*
X4711Y2013D01*
X0Y2012D02*
X7Y2012D01*
X4704Y2012D02*
X4711Y2012D01*
X0Y2011D02*
X7Y2011D01*
X4704Y2011D02*
X4711Y2011D01*
X0Y2010D02*
X7Y2010D01*
X4704Y2010D02*
X4711Y2010D01*
X0Y2009D02*
X7Y2009D01*
X4704Y2009D02*
X4711Y2009D01*
X0Y2008D02*
X7Y2008D01*
X4704Y2008D02*
X4711Y2008D01*
X0Y2007D02*
X7Y2007D01*
X4704Y2007D02*
X4711Y2007D01*
X0Y2006D02*
X7Y2006D01*
X4704Y2006D02*
X4711Y2006D01*
X0Y2005D02*
X7Y2005D01*
X4704Y2005D02*
X4711Y2005D01*
X0Y2004D02*
X7Y2004D01*
X4704Y2004D02*
X4711Y2004D01*
X0Y2003D02*
X7Y2003D01*
X4704Y2003D02*
X4711Y2003D01*
X0Y2002D02*
X7Y2002D01*
X4704Y2002D02*
X4711Y2002D01*
X0Y2001D02*
X7Y2001D01*
X4704Y2001D02*
X4711Y2001D01*
X0Y2000D02*
X7Y2000D01*
X4704Y2000D02*
X4711Y2000D01*
X0Y1999D02*
X7Y1999D01*
X4704Y1999D02*
X4711Y1999D01*
X0Y1998D02*
X7Y1998D01*
X4704Y1998D02*
X4711Y1998D01*
X0Y1997D02*
X7Y1997D01*
X4704Y1997D02*
X4711Y1997D01*
X0Y1996D02*
X7Y1996D01*
X4704Y1996D02*
X4711Y1996D01*
X0Y1995D02*
X7Y1995D01*
X4704Y1995D02*
X4711Y1995D01*
X0Y1994D02*
X7Y1994D01*
X4704Y1994D02*
X4711Y1994D01*
X0Y1993D02*
X7Y1993D01*
X4704Y1993D02*
X4711Y1993D01*
X0Y1992D02*
X7Y1992D01*
X4704Y1992D02*
X4711Y1992D01*
X0Y1991D02*
X7Y1991D01*
X4704Y1991D02*
X4711Y1991D01*
X0Y1990D02*
X7Y1990D01*
X4704Y1990D02*
X4711Y1990D01*
X0Y1989D02*
X7Y1989D01*
X4704Y1989D02*
X4711Y1989D01*
X0Y1988D02*
X7Y1988D01*
X4704Y1988D02*
X4711Y1988D01*
X0Y1987D02*
X7Y1987D01*
X4704Y1987D02*
X4711Y1987D01*
X0Y1986D02*
X7Y1986D01*
X4704Y1986D02*
X4711Y1986D01*
X0Y1985D02*
X7Y1985D01*
X4704Y1985D02*
X4711Y1985D01*
X0Y1984D02*
X7Y1984D01*
X4704Y1984D02*
X4711Y1984D01*
X0Y1983D02*
X7Y1983D01*
X4704Y1983D02*
X4711Y1983D01*
X0Y1982D02*
X7Y1982D01*
X4704Y1982D02*
X4711Y1982D01*
X0Y1981D02*
X7Y1981D01*
X4704Y1981D02*
X4711Y1981D01*
X0Y1980D02*
X7Y1980D01*
X4704Y1980D02*
X4711Y1980D01*
X0Y1979D02*
X7Y1979D01*
X4704Y1979D02*
X4711Y1979D01*
X0Y1978D02*
X7Y1978D01*
X4704Y1978D02*
X4711Y1978D01*
X0Y1977D02*
X7Y1977D01*
X4704Y1977D02*
X4711Y1977D01*
X0Y1976D02*
X7Y1976D01*
X4704Y1976D02*
X4711Y1976D01*
X0Y1975D02*
X7Y1975D01*
X4704Y1975D02*
X4711Y1975D01*
X0Y1974D02*
X7Y1974D01*
X4704Y1974D02*
X4711Y1974D01*
X0Y1973D02*
X7Y1973D01*
X4704Y1973D02*
X4711Y1973D01*
X0Y1972D02*
X7Y1972D01*
X4704Y1972D02*
X4711Y1972D01*
X0Y1971D02*
X7Y1971D01*
X4704Y1971D02*
X4711Y1971D01*
X0Y1970D02*
X7Y1970D01*
X4704Y1970D02*
X4711Y1970D01*
X0Y1969D02*
X7Y1969D01*
X4704Y1969D02*
X4711Y1969D01*
X0Y1968D02*
X7Y1968D01*
X4704Y1968D02*
X4711Y1968D01*
X0Y1967D02*
X7Y1967D01*
X4704Y1967D02*
X4711Y1967D01*
X0Y1966D02*
X7Y1966D01*
X4704Y1966D02*
X4711Y1966D01*
X0Y1965D02*
X7Y1965D01*
X4704Y1965D02*
X4711Y1965D01*
X0Y1964D02*
X7Y1964D01*
X4704Y1964D02*
X4711Y1964D01*
X0Y1963D02*
X7Y1963D01*
X4704Y1963D02*
X4711Y1963D01*
X0Y1962D02*
X7Y1962D01*
X4704Y1962D02*
X4711Y1962D01*
X0Y1961D02*
X7Y1961D01*
X4704Y1961D02*
X4711Y1961D01*
X0Y1960D02*
X7Y1960D01*
X4704Y1960D02*
X4711Y1960D01*
X0Y1959D02*
X7Y1959D01*
X4704Y1959D02*
X4711Y1959D01*
X0Y1958D02*
X7Y1958D01*
X4704Y1958D02*
X4711Y1958D01*
X0Y1957D02*
X7Y1957D01*
X4704Y1957D02*
X4711Y1957D01*
X0Y1956D02*
X7Y1956D01*
X4704Y1956D02*
X4711Y1956D01*
X0Y1955D02*
X7Y1955D01*
X4704Y1955D02*
X4711Y1955D01*
X0Y1954D02*
X7Y1954D01*
X4704Y1954D02*
X4711Y1954D01*
X0Y1953D02*
X7Y1953D01*
X4704Y1953D02*
X4711Y1953D01*
X0Y1952D02*
X7Y1952D01*
X4704Y1952D02*
X4711Y1952D01*
X0Y1951D02*
X7Y1951D01*
X4704Y1951D02*
X4711Y1951D01*
X0Y1950D02*
X7Y1950D01*
X4704Y1950D02*
X4711Y1950D01*
X0Y1949D02*
X7Y1949D01*
X4704Y1949D02*
X4711Y1949D01*
X0Y1948D02*
X7Y1948D01*
X4704Y1948D02*
X4711Y1948D01*
X0Y1947D02*
X7Y1947D01*
X4704Y1947D02*
X4711Y1947D01*
X0Y1946D02*
X7Y1946D01*
X4704Y1946D02*
X4711Y1946D01*
X0Y1945D02*
X7Y1945D01*
X4704Y1945D02*
X4711Y1945D01*
X0Y1944D02*
X7Y1944D01*
X4704Y1944D02*
X4711Y1944D01*
X0Y1943D02*
X7Y1943D01*
X4704Y1943D02*
X4711Y1943D01*
X0Y1942D02*
X7Y1942D01*
X4704Y1942D02*
X4711Y1942D01*
X0Y1941D02*
X7Y1941D01*
X4704Y1941D02*
X4711Y1941D01*
X0Y1940D02*
X7Y1940D01*
X4704Y1940D02*
X4711Y1940D01*
X0Y1939D02*
X7Y1939D01*
X4704Y1939D02*
X4711Y1939D01*
X0Y1938D02*
X7Y1938D01*
X4704Y1938D02*
X4711Y1938D01*
X0Y1937D02*
X7Y1937D01*
X4704Y1937D02*
X4711Y1937D01*
X0Y1936D02*
X7Y1936D01*
X4704Y1936D02*
X4711Y1936D01*
X0Y1935D02*
X7Y1935D01*
X4704Y1935D02*
X4711Y1935D01*
X0Y1934D02*
X7Y1934D01*
X4704Y1934D02*
X4711Y1934D01*
X0Y1933D02*
X7Y1933D01*
X4704Y1933D02*
X4711Y1933D01*
X0Y1932D02*
X7Y1932D01*
X4704Y1932D02*
X4711Y1932D01*
X0Y1931D02*
X7Y1931D01*
X4704Y1931D02*
X4711Y1931D01*
X0Y1930D02*
X7Y1930D01*
X4704Y1930D02*
X4711Y1930D01*
X0Y1929D02*
X7Y1929D01*
X4704Y1929D02*
X4711Y1929D01*
X0Y1928D02*
X7Y1928D01*
X4704Y1928D02*
X4711Y1928D01*
X0Y1927D02*
X7Y1927D01*
X4704Y1927D02*
X4711Y1927D01*
X0Y1926D02*
X7Y1926D01*
X4704Y1926D02*
X4711Y1926D01*
X0Y1925D02*
X7Y1925D01*
X4704Y1925D02*
X4711Y1925D01*
X0Y1924D02*
X7Y1924D01*
X4704Y1924D02*
X4711Y1924D01*
X0Y1923D02*
X7Y1923D01*
X4704Y1923D02*
X4711Y1923D01*
X0Y1922D02*
X7Y1922D01*
X4704Y1922D02*
X4711Y1922D01*
X0Y1921D02*
X7Y1921D01*
X4704Y1921D02*
X4711Y1921D01*
X0Y1920D02*
X7Y1920D01*
X4704Y1920D02*
X4711Y1920D01*
X0Y1919D02*
X7Y1919D01*
X4704Y1919D02*
X4711Y1919D01*
X0Y1918D02*
X7Y1918D01*
X4704Y1918D02*
X4711Y1918D01*
X0Y1917D02*
X7Y1917D01*
X4704Y1917D02*
X4711Y1917D01*
X0Y1916D02*
X7Y1916D01*
X4704Y1916D02*
X4711Y1916D01*
X0Y1915D02*
X7Y1915D01*
X4704Y1915D02*
X4711Y1915D01*
X0Y1914D02*
X7Y1914D01*
X4704Y1914D02*
X4711Y1914D01*
X0Y1913D02*
X7Y1913D01*
X4704Y1913D02*
X4711Y1913D01*
X0Y1912D02*
X7Y1912D01*
X4704Y1912D02*
X4711Y1912D01*
X0Y1911D02*
X7Y1911D01*
X4704Y1911D02*
X4711Y1911D01*
X0Y1910D02*
X7Y1910D01*
X4704Y1910D02*
X4711Y1910D01*
X0Y1909D02*
X7Y1909D01*
X4704Y1909D02*
X4711Y1909D01*
X0Y1908D02*
X7Y1908D01*
X4704Y1908D02*
X4711Y1908D01*
X0Y1907D02*
X7Y1907D01*
X4704Y1907D02*
X4711Y1907D01*
X0Y1906D02*
X7Y1906D01*
X4704Y1906D02*
X4711Y1906D01*
X0Y1905D02*
X7Y1905D01*
X4704Y1905D02*
X4711Y1905D01*
X0Y1904D02*
X7Y1904D01*
X4704Y1904D02*
X4711Y1904D01*
X0Y1903D02*
X7Y1903D01*
X4704Y1903D02*
X4711Y1903D01*
X0Y1902D02*
X7Y1902D01*
X4704Y1902D02*
X4711Y1902D01*
X0Y1901D02*
X7Y1901D01*
X4704Y1901D02*
X4711Y1901D01*
X0Y1900D02*
X7Y1900D01*
X4704Y1900D02*
X4711Y1900D01*
X0Y1899D02*
X7Y1899D01*
X4704Y1899D02*
X4711Y1899D01*
X0Y1898D02*
X7Y1898D01*
X4704Y1898D02*
X4711Y1898D01*
X0Y1897D02*
X7Y1897D01*
X4704Y1897D02*
X4711Y1897D01*
X0Y1896D02*
X7Y1896D01*
X4704Y1896D02*
X4711Y1896D01*
X0Y1895D02*
X7Y1895D01*
X4704Y1895D02*
X4711Y1895D01*
X0Y1894D02*
X7Y1894D01*
X4704Y1894D02*
X4711Y1894D01*
X0Y1893D02*
X7Y1893D01*
X4704Y1893D02*
X4711Y1893D01*
X0Y1892D02*
X7Y1892D01*
X4704Y1892D02*
X4711Y1892D01*
X0Y1891D02*
X7Y1891D01*
X4704Y1891D02*
X4711Y1891D01*
X0Y1890D02*
X7Y1890D01*
X4704Y1890D02*
X4711Y1890D01*
X0Y1889D02*
X7Y1889D01*
X4704Y1889D02*
X4711Y1889D01*
X0Y1888D02*
X7Y1888D01*
X4704Y1888D02*
X4711Y1888D01*
X0Y1887D02*
X7Y1887D01*
X4704Y1887D02*
X4711Y1887D01*
X0Y1886D02*
X7Y1886D01*
X4704Y1886D02*
X4711Y1886D01*
X0Y1885D02*
X7Y1885D01*
X4704Y1885D02*
X4711Y1885D01*
X0Y1884D02*
X7Y1884D01*
X4704Y1884D02*
X4711Y1884D01*
X0Y1883D02*
X7Y1883D01*
X4704Y1883D02*
X4711Y1883D01*
X0Y1882D02*
X7Y1882D01*
X4704Y1882D02*
X4711Y1882D01*
X0Y1881D02*
X7Y1881D01*
X4704Y1881D02*
X4711Y1881D01*
X0Y1880D02*
X7Y1880D01*
X4704Y1880D02*
X4711Y1880D01*
X0Y1879D02*
X7Y1879D01*
X4704Y1879D02*
X4711Y1879D01*
X0Y1878D02*
X7Y1878D01*
X4704Y1878D02*
X4711Y1878D01*
X0Y1877D02*
X7Y1877D01*
X4704Y1877D02*
X4711Y1877D01*
X0Y1876D02*
X7Y1876D01*
X4704Y1876D02*
X4711Y1876D01*
X0Y1875D02*
X7Y1875D01*
X4704Y1875D02*
X4711Y1875D01*
X0Y1874D02*
X7Y1874D01*
X4704Y1874D02*
X4711Y1874D01*
X0Y1873D02*
X7Y1873D01*
X4704Y1873D02*
X4711Y1873D01*
X0Y1872D02*
X7Y1872D01*
X4704Y1872D02*
X4711Y1872D01*
X0Y1871D02*
X7Y1871D01*
X4704Y1871D02*
X4711Y1871D01*
X0Y1870D02*
X7Y1870D01*
X4704Y1870D02*
X4711Y1870D01*
X0Y1869D02*
X7Y1869D01*
X4704Y1869D02*
X4711Y1869D01*
X0Y1868D02*
X7Y1868D01*
X4704Y1868D02*
X4711Y1868D01*
X0Y1867D02*
X7Y1867D01*
X4704Y1867D02*
X4711Y1867D01*
X0Y1866D02*
X7Y1866D01*
X4704Y1866D02*
X4711Y1866D01*
X0Y1865D02*
X7Y1865D01*
X4704Y1865D02*
X4711Y1865D01*
X0Y1864D02*
X7Y1864D01*
X4704Y1864D02*
X4711Y1864D01*
X0Y1863D02*
X7Y1863D01*
X4704Y1863D02*
X4711Y1863D01*
X0Y1862D02*
X7Y1862D01*
X4704Y1862D02*
X4711Y1862D01*
X0Y1861D02*
X7Y1861D01*
X4704Y1861D02*
X4711Y1861D01*
X0Y1860D02*
X7Y1860D01*
X4704Y1860D02*
X4711Y1860D01*
X0Y1859D02*
X7Y1859D01*
X4704Y1859D02*
X4711Y1859D01*
X0Y1858D02*
X7Y1858D01*
X4704Y1858D02*
X4711Y1858D01*
X0Y1857D02*
X7Y1857D01*
X4704Y1857D02*
X4711Y1857D01*
X0Y1856D02*
X7Y1856D01*
X4704Y1856D02*
X4711Y1856D01*
X0Y1855D02*
X7Y1855D01*
X4704Y1855D02*
X4711Y1855D01*
X0Y1854D02*
X7Y1854D01*
X4704Y1854D02*
X4711Y1854D01*
X0Y1853D02*
X7Y1853D01*
X4704Y1853D02*
X4711Y1853D01*
X0Y1852D02*
X7Y1852D01*
X4704Y1852D02*
X4711Y1852D01*
X0Y1851D02*
X7Y1851D01*
X4704Y1851D02*
X4711Y1851D01*
X0Y1850D02*
X7Y1850D01*
X4704Y1850D02*
X4711Y1850D01*
X0Y1849D02*
X7Y1849D01*
X4704Y1849D02*
X4711Y1849D01*
X0Y1848D02*
X7Y1848D01*
X4704Y1848D02*
X4711Y1848D01*
X0Y1847D02*
X7Y1847D01*
X4704Y1847D02*
X4711Y1847D01*
X0Y1846D02*
X7Y1846D01*
X4704Y1846D02*
X4711Y1846D01*
X0Y1845D02*
X7Y1845D01*
X4704Y1845D02*
X4711Y1845D01*
X0Y1844D02*
X7Y1844D01*
X4704Y1844D02*
X4711Y1844D01*
X0Y1843D02*
X7Y1843D01*
X4704Y1843D02*
X4711Y1843D01*
X0Y1842D02*
X7Y1842D01*
X4704Y1842D02*
X4711Y1842D01*
X0Y1841D02*
X7Y1841D01*
X4704Y1841D02*
X4711Y1841D01*
X0Y1840D02*
X7Y1840D01*
X4704Y1840D02*
X4711Y1840D01*
X0Y1839D02*
X7Y1839D01*
X4704Y1839D02*
X4711Y1839D01*
X0Y1838D02*
X7Y1838D01*
X4704Y1838D02*
X4711Y1838D01*
X0Y1837D02*
X7Y1837D01*
X4704Y1837D02*
X4711Y1837D01*
X0Y1836D02*
X7Y1836D01*
X4704Y1836D02*
X4711Y1836D01*
X0Y1835D02*
X7Y1835D01*
X4704Y1835D02*
X4711Y1835D01*
X0Y1834D02*
X7Y1834D01*
X4704Y1834D02*
X4711Y1834D01*
X0Y1833D02*
X7Y1833D01*
X4704Y1833D02*
X4711Y1833D01*
X0Y1832D02*
X7Y1832D01*
X4704Y1832D02*
X4711Y1832D01*
X0Y1831D02*
X7Y1831D01*
X4704Y1831D02*
X4711Y1831D01*
X0Y1830D02*
X7Y1830D01*
X4704Y1830D02*
X4711Y1830D01*
X0Y1829D02*
X7Y1829D01*
X4704Y1829D02*
X4711Y1829D01*
X0Y1828D02*
X7Y1828D01*
X4704Y1828D02*
X4711Y1828D01*
X0Y1827D02*
X7Y1827D01*
X4704Y1827D02*
X4711Y1827D01*
X0Y1826D02*
X7Y1826D01*
X4704Y1826D02*
X4711Y1826D01*
X0Y1825D02*
X7Y1825D01*
X4704Y1825D02*
X4711Y1825D01*
X0Y1824D02*
X7Y1824D01*
X4704Y1824D02*
X4711Y1824D01*
X0Y1823D02*
X7Y1823D01*
X4704Y1823D02*
X4711Y1823D01*
X0Y1822D02*
X7Y1822D01*
X4704Y1822D02*
X4711Y1822D01*
X0Y1821D02*
X7Y1821D01*
X4704Y1821D02*
X4711Y1821D01*
X0Y1820D02*
X7Y1820D01*
X4704Y1820D02*
X4711Y1820D01*
X0Y1819D02*
X7Y1819D01*
X4704Y1819D02*
X4711Y1819D01*
X0Y1818D02*
X7Y1818D01*
X4704Y1818D02*
X4711Y1818D01*
X0Y1817D02*
X7Y1817D01*
X4704Y1817D02*
X4711Y1817D01*
X0Y1816D02*
X7Y1816D01*
X4704Y1816D02*
X4711Y1816D01*
X0Y1815D02*
X7Y1815D01*
X4704Y1815D02*
X4711Y1815D01*
X0Y1814D02*
X7Y1814D01*
X4704Y1814D02*
X4711Y1814D01*
X0Y1813D02*
X7Y1813D01*
X4704Y1813D02*
X4711Y1813D01*
X0Y1812D02*
X7Y1812D01*
X4704Y1812D02*
X4711Y1812D01*
X0Y1811D02*
X7Y1811D01*
X4704Y1811D02*
X4711Y1811D01*
X0Y1810D02*
X7Y1810D01*
X4704Y1810D02*
X4711Y1810D01*
X0Y1809D02*
X7Y1809D01*
X4704Y1809D02*
X4711Y1809D01*
X0Y1808D02*
X7Y1808D01*
X4704Y1808D02*
X4711Y1808D01*
X0Y1807D02*
X7Y1807D01*
X4704Y1807D02*
X4711Y1807D01*
X0Y1806D02*
X7Y1806D01*
X4704Y1806D02*
X4711Y1806D01*
X0Y1805D02*
X7Y1805D01*
X4704Y1805D02*
X4711Y1805D01*
X0Y1804D02*
X7Y1804D01*
X4704Y1804D02*
X4711Y1804D01*
X0Y1803D02*
X7Y1803D01*
X4704Y1803D02*
X4711Y1803D01*
X0Y1802D02*
X7Y1802D01*
X4704Y1802D02*
X4711Y1802D01*
X0Y1801D02*
X7Y1801D01*
X4704Y1801D02*
X4711Y1801D01*
X0Y1800D02*
X7Y1800D01*
X4704Y1800D02*
X4711Y1800D01*
X0Y1799D02*
X7Y1799D01*
X4704Y1799D02*
X4711Y1799D01*
X0Y1798D02*
X7Y1798D01*
X4704Y1798D02*
X4711Y1798D01*
X0Y1797D02*
X7Y1797D01*
X4704Y1797D02*
X4711Y1797D01*
X0Y1796D02*
X7Y1796D01*
X4704Y1796D02*
X4711Y1796D01*
X0Y1795D02*
X7Y1795D01*
X4704Y1795D02*
X4711Y1795D01*
X0Y1794D02*
X7Y1794D01*
X4704Y1794D02*
X4711Y1794D01*
X0Y1793D02*
X7Y1793D01*
X4704Y1793D02*
X4711Y1793D01*
X0Y1792D02*
X7Y1792D01*
X4704Y1792D02*
X4711Y1792D01*
X0Y1791D02*
X7Y1791D01*
X4704Y1791D02*
X4711Y1791D01*
X0Y1790D02*
X7Y1790D01*
X4704Y1790D02*
X4711Y1790D01*
X0Y1789D02*
X7Y1789D01*
X4704Y1789D02*
X4711Y1789D01*
X0Y1788D02*
X7Y1788D01*
X4704Y1788D02*
X4711Y1788D01*
X0Y1787D02*
X7Y1787D01*
X4704Y1787D02*
X4711Y1787D01*
X0Y1786D02*
X7Y1786D01*
X4704Y1786D02*
X4711Y1786D01*
X0Y1785D02*
X7Y1785D01*
X4704Y1785D02*
X4711Y1785D01*
X0Y1784D02*
X7Y1784D01*
X4704Y1784D02*
X4711Y1784D01*
X0Y1783D02*
X7Y1783D01*
X4704Y1783D02*
X4711Y1783D01*
X0Y1782D02*
X7Y1782D01*
X4704Y1782D02*
X4711Y1782D01*
X0Y1781D02*
X7Y1781D01*
X4704Y1781D02*
X4711Y1781D01*
X0Y1780D02*
X7Y1780D01*
X4704Y1780D02*
X4711Y1780D01*
X0Y1779D02*
X7Y1779D01*
X4704Y1779D02*
X4711Y1779D01*
X0Y1778D02*
X7Y1778D01*
X4704Y1778D02*
X4711Y1778D01*
X0Y1777D02*
X7Y1777D01*
X4704Y1777D02*
X4711Y1777D01*
X0Y1776D02*
X7Y1776D01*
X4704Y1776D02*
X4711Y1776D01*
X0Y1775D02*
X7Y1775D01*
X4704Y1775D02*
X4711Y1775D01*
X0Y1774D02*
X7Y1774D01*
X4704Y1774D02*
X4711Y1774D01*
X0Y1773D02*
X7Y1773D01*
X4704Y1773D02*
X4711Y1773D01*
X0Y1772D02*
X7Y1772D01*
X4704Y1772D02*
X4711Y1772D01*
X0Y1771D02*
X7Y1771D01*
X4704Y1771D02*
X4711Y1771D01*
X0Y1770D02*
X7Y1770D01*
X4704Y1770D02*
X4711Y1770D01*
X0Y1769D02*
X7Y1769D01*
X4704Y1769D02*
X4711Y1769D01*
X0Y1768D02*
X7Y1768D01*
X4704Y1768D02*
X4711Y1768D01*
X0Y1767D02*
X7Y1767D01*
X4704Y1767D02*
X4711Y1767D01*
X0Y1766D02*
X7Y1766D01*
X4704Y1766D02*
X4711Y1766D01*
X0Y1765D02*
X7Y1765D01*
X4704Y1765D02*
X4711Y1765D01*
X0Y1764D02*
X7Y1764D01*
X4704Y1764D02*
X4711Y1764D01*
X0Y1763D02*
X7Y1763D01*
X4704Y1763D02*
X4711Y1763D01*
X0Y1762D02*
X7Y1762D01*
X4704Y1762D02*
X4711Y1762D01*
X0Y1761D02*
X7Y1761D01*
X4704Y1761D02*
X4711Y1761D01*
X0Y1760D02*
X7Y1760D01*
X4704Y1760D02*
X4711Y1760D01*
X0Y1759D02*
X7Y1759D01*
X4704Y1759D02*
X4711Y1759D01*
X0Y1758D02*
X7Y1758D01*
X4704Y1758D02*
X4711Y1758D01*
X0Y1757D02*
X7Y1757D01*
X4704Y1757D02*
X4711Y1757D01*
X0Y1756D02*
X7Y1756D01*
X4704Y1756D02*
X4711Y1756D01*
X0Y1755D02*
X7Y1755D01*
X4704Y1755D02*
X4711Y1755D01*
X0Y1754D02*
X7Y1754D01*
X4704Y1754D02*
X4711Y1754D01*
X0Y1753D02*
X7Y1753D01*
X4704Y1753D02*
X4711Y1753D01*
X0Y1752D02*
X7Y1752D01*
X4704Y1752D02*
X4711Y1752D01*
X0Y1751D02*
X7Y1751D01*
X4704Y1751D02*
X4711Y1751D01*
X0Y1750D02*
X7Y1750D01*
X4704Y1750D02*
X4711Y1750D01*
X0Y1749D02*
X7Y1749D01*
X4704Y1749D02*
X4711Y1749D01*
X0Y1748D02*
X7Y1748D01*
X4704Y1748D02*
X4711Y1748D01*
X0Y1747D02*
X7Y1747D01*
X4704Y1747D02*
X4711Y1747D01*
X0Y1746D02*
X7Y1746D01*
X4704Y1746D02*
X4711Y1746D01*
X0Y1745D02*
X7Y1745D01*
X4704Y1745D02*
X4711Y1745D01*
X0Y1744D02*
X7Y1744D01*
X4704Y1744D02*
X4711Y1744D01*
X0Y1743D02*
X7Y1743D01*
X4704Y1743D02*
X4711Y1743D01*
X0Y1742D02*
X7Y1742D01*
X4704Y1742D02*
X4711Y1742D01*
X0Y1741D02*
X7Y1741D01*
X4704Y1741D02*
X4711Y1741D01*
X0Y1740D02*
X7Y1740D01*
X4704Y1740D02*
X4711Y1740D01*
X0Y1739D02*
X7Y1739D01*
X4704Y1739D02*
X4711Y1739D01*
X0Y1738D02*
X7Y1738D01*
X4704Y1738D02*
X4711Y1738D01*
X0Y1737D02*
X7Y1737D01*
X4704Y1737D02*
X4711Y1737D01*
X0Y1736D02*
X7Y1736D01*
X4704Y1736D02*
X4711Y1736D01*
X0Y1735D02*
X7Y1735D01*
X4704Y1735D02*
X4711Y1735D01*
X0Y1734D02*
X7Y1734D01*
X4704Y1734D02*
X4711Y1734D01*
X0Y1733D02*
X7Y1733D01*
X4704Y1733D02*
X4711Y1733D01*
X0Y1732D02*
X7Y1732D01*
X4704Y1732D02*
X4711Y1732D01*
X0Y1731D02*
X7Y1731D01*
X4704Y1731D02*
X4711Y1731D01*
X0Y1730D02*
X7Y1730D01*
X4704Y1730D02*
X4711Y1730D01*
X0Y1729D02*
X7Y1729D01*
X4704Y1729D02*
X4711Y1729D01*
X0Y1728D02*
X7Y1728D01*
X4704Y1728D02*
X4711Y1728D01*
X0Y1727D02*
X7Y1727D01*
X4704Y1727D02*
X4711Y1727D01*
X0Y1726D02*
X7Y1726D01*
X4704Y1726D02*
X4711Y1726D01*
X0Y1725D02*
X7Y1725D01*
X4704Y1725D02*
X4711Y1725D01*
X0Y1724D02*
X7Y1724D01*
X4704Y1724D02*
X4711Y1724D01*
X0Y1723D02*
X7Y1723D01*
X4704Y1723D02*
X4711Y1723D01*
X0Y1722D02*
X7Y1722D01*
X4704Y1722D02*
X4711Y1722D01*
X0Y1721D02*
X7Y1721D01*
X4704Y1721D02*
X4711Y1721D01*
X0Y1720D02*
X7Y1720D01*
X4704Y1720D02*
X4711Y1720D01*
X0Y1719D02*
X7Y1719D01*
X4704Y1719D02*
X4711Y1719D01*
X0Y1718D02*
X7Y1718D01*
X4704Y1718D02*
X4711Y1718D01*
X0Y1717D02*
X7Y1717D01*
X4704Y1717D02*
X4711Y1717D01*
X0Y1716D02*
X7Y1716D01*
X4704Y1716D02*
X4711Y1716D01*
X0Y1715D02*
X7Y1715D01*
X4704Y1715D02*
X4711Y1715D01*
X0Y1714D02*
X7Y1714D01*
X4704Y1714D02*
X4711Y1714D01*
X0Y1713D02*
X7Y1713D01*
X4704Y1713D02*
X4711Y1713D01*
X0Y1712D02*
X7Y1712D01*
X4704Y1712D02*
X4711Y1712D01*
X0Y1711D02*
X7Y1711D01*
X4704Y1711D02*
X4711Y1711D01*
X0Y1710D02*
X7Y1710D01*
X4704Y1710D02*
X4711Y1710D01*
X0Y1709D02*
X7Y1709D01*
X4704Y1709D02*
X4711Y1709D01*
X0Y1708D02*
X7Y1708D01*
X4704Y1708D02*
X4711Y1708D01*
X0Y1707D02*
X7Y1707D01*
X4704Y1707D02*
X4711Y1707D01*
X0Y1706D02*
X7Y1706D01*
X4704Y1706D02*
X4711Y1706D01*
X0Y1705D02*
X7Y1705D01*
X4704Y1705D02*
X4711Y1705D01*
X0Y1704D02*
X7Y1704D01*
X4704Y1704D02*
X4711Y1704D01*
X0Y1703D02*
X7Y1703D01*
X4704Y1703D02*
X4711Y1703D01*
X0Y1702D02*
X7Y1702D01*
X4704Y1702D02*
X4711Y1702D01*
X0Y1701D02*
X7Y1701D01*
X4704Y1701D02*
X4711Y1701D01*
X0Y1700D02*
X7Y1700D01*
X4704Y1700D02*
X4711Y1700D01*
X0Y1699D02*
X7Y1699D01*
X4704Y1699D02*
X4711Y1699D01*
X0Y1698D02*
X7Y1698D01*
X4704Y1698D02*
X4711Y1698D01*
X0Y1697D02*
X7Y1697D01*
X4704Y1697D02*
X4711Y1697D01*
X0Y1696D02*
X7Y1696D01*
X4704Y1696D02*
X4711Y1696D01*
X0Y1695D02*
X7Y1695D01*
X4704Y1695D02*
X4711Y1695D01*
X0Y1694D02*
X7Y1694D01*
X4704Y1694D02*
X4711Y1694D01*
X0Y1693D02*
X7Y1693D01*
X4704Y1693D02*
X4711Y1693D01*
X0Y1692D02*
X7Y1692D01*
X4704Y1692D02*
X4711Y1692D01*
X0Y1691D02*
X7Y1691D01*
X4704Y1691D02*
X4711Y1691D01*
X0Y1690D02*
X7Y1690D01*
X4704Y1690D02*
X4711Y1690D01*
X0Y1689D02*
X7Y1689D01*
X4704Y1689D02*
X4711Y1689D01*
X0Y1688D02*
X7Y1688D01*
X4704Y1688D02*
X4711Y1688D01*
X0Y1687D02*
X7Y1687D01*
X4704Y1687D02*
X4711Y1687D01*
X0Y1686D02*
X7Y1686D01*
X4704Y1686D02*
X4711Y1686D01*
X0Y1685D02*
X7Y1685D01*
X4704Y1685D02*
X4711Y1685D01*
X0Y1684D02*
X7Y1684D01*
X4704Y1684D02*
X4711Y1684D01*
X0Y1683D02*
X7Y1683D01*
X4704Y1683D02*
X4711Y1683D01*
X0Y1682D02*
X7Y1682D01*
X4704Y1682D02*
X4711Y1682D01*
X0Y1681D02*
X7Y1681D01*
X4704Y1681D02*
X4711Y1681D01*
X0Y1680D02*
X7Y1680D01*
X4704Y1680D02*
X4711Y1680D01*
X0Y1679D02*
X7Y1679D01*
X4704Y1679D02*
X4711Y1679D01*
X0Y1678D02*
X7Y1678D01*
X4704Y1678D02*
X4711Y1678D01*
X0Y1677D02*
X7Y1677D01*
X4704Y1677D02*
X4711Y1677D01*
X0Y1676D02*
X7Y1676D01*
X4704Y1676D02*
X4711Y1676D01*
X0Y1675D02*
X7Y1675D01*
X4704Y1675D02*
X4711Y1675D01*
X0Y1674D02*
X7Y1674D01*
X4704Y1674D02*
X4711Y1674D01*
X0Y1673D02*
X7Y1673D01*
X4704Y1673D02*
X4711Y1673D01*
X0Y1672D02*
X7Y1672D01*
X4704Y1672D02*
X4711Y1672D01*
X0Y1671D02*
X7Y1671D01*
X4704Y1671D02*
X4711Y1671D01*
X0Y1670D02*
X7Y1670D01*
X4704Y1670D02*
X4711Y1670D01*
X0Y1669D02*
X7Y1669D01*
X4704Y1669D02*
X4711Y1669D01*
X0Y1668D02*
X7Y1668D01*
X4704Y1668D02*
X4711Y1668D01*
X0Y1667D02*
X7Y1667D01*
X4704Y1667D02*
X4711Y1667D01*
X0Y1666D02*
X7Y1666D01*
X4704Y1666D02*
X4711Y1666D01*
X0Y1665D02*
X7Y1665D01*
X4704Y1665D02*
X4711Y1665D01*
X0Y1664D02*
X7Y1664D01*
X4704Y1664D02*
X4711Y1664D01*
X0Y1663D02*
X7Y1663D01*
X4704Y1663D02*
X4711Y1663D01*
X0Y1662D02*
X7Y1662D01*
X4704Y1662D02*
X4711Y1662D01*
X0Y1661D02*
X7Y1661D01*
X4704Y1661D02*
X4711Y1661D01*
X0Y1660D02*
X7Y1660D01*
X4704Y1660D02*
X4711Y1660D01*
X0Y1659D02*
X7Y1659D01*
X4704Y1659D02*
X4711Y1659D01*
X0Y1658D02*
X7Y1658D01*
X4704Y1658D02*
X4711Y1658D01*
X0Y1657D02*
X7Y1657D01*
X4704Y1657D02*
X4711Y1657D01*
X0Y1656D02*
X7Y1656D01*
X4704Y1656D02*
X4711Y1656D01*
X0Y1655D02*
X7Y1655D01*
X4704Y1655D02*
X4711Y1655D01*
X0Y1654D02*
X7Y1654D01*
X4704Y1654D02*
X4711Y1654D01*
X0Y1653D02*
X7Y1653D01*
X4704Y1653D02*
X4711Y1653D01*
X0Y1652D02*
X7Y1652D01*
X4704Y1652D02*
X4711Y1652D01*
X0Y1651D02*
X7Y1651D01*
X4704Y1651D02*
X4711Y1651D01*
X0Y1650D02*
X7Y1650D01*
X4704Y1650D02*
X4711Y1650D01*
X0Y1649D02*
X7Y1649D01*
X4704Y1649D02*
X4711Y1649D01*
X0Y1648D02*
X7Y1648D01*
X4704Y1648D02*
X4711Y1648D01*
X0Y1647D02*
X7Y1647D01*
X4704Y1647D02*
X4711Y1647D01*
X0Y1646D02*
X7Y1646D01*
X4704Y1646D02*
X4711Y1646D01*
X0Y1645D02*
X7Y1645D01*
X4704Y1645D02*
X4711Y1645D01*
X0Y1644D02*
X7Y1644D01*
X4704Y1644D02*
X4711Y1644D01*
X0Y1643D02*
X7Y1643D01*
X4704Y1643D02*
X4711Y1643D01*
X0Y1642D02*
X7Y1642D01*
X4704Y1642D02*
X4711Y1642D01*
X0Y1641D02*
X7Y1641D01*
X4704Y1641D02*
X4711Y1641D01*
X0Y1640D02*
X7Y1640D01*
X4704Y1640D02*
X4711Y1640D01*
X0Y1639D02*
X7Y1639D01*
X4704Y1639D02*
X4711Y1639D01*
X0Y1638D02*
X7Y1638D01*
X4704Y1638D02*
X4711Y1638D01*
X0Y1637D02*
X7Y1637D01*
X4704Y1637D02*
X4711Y1637D01*
X0Y1636D02*
X7Y1636D01*
X4704Y1636D02*
X4711Y1636D01*
X0Y1635D02*
X7Y1635D01*
X4704Y1635D02*
X4711Y1635D01*
X0Y1634D02*
X7Y1634D01*
X4704Y1634D02*
X4711Y1634D01*
X0Y1633D02*
X7Y1633D01*
X4704Y1633D02*
X4711Y1633D01*
X0Y1632D02*
X7Y1632D01*
X4704Y1632D02*
X4711Y1632D01*
X0Y1631D02*
X7Y1631D01*
X4704Y1631D02*
X4711Y1631D01*
X0Y1630D02*
X7Y1630D01*
X4704Y1630D02*
X4711Y1630D01*
X0Y1629D02*
X7Y1629D01*
X4704Y1629D02*
X4711Y1629D01*
X0Y1628D02*
X7Y1628D01*
X4704Y1628D02*
X4711Y1628D01*
X0Y1627D02*
X7Y1627D01*
X4704Y1627D02*
X4711Y1627D01*
X0Y1626D02*
X7Y1626D01*
X4704Y1626D02*
X4711Y1626D01*
X0Y1625D02*
X7Y1625D01*
X4704Y1625D02*
X4711Y1625D01*
X0Y1624D02*
X7Y1624D01*
X4704Y1624D02*
X4711Y1624D01*
X0Y1623D02*
X7Y1623D01*
X4704Y1623D02*
X4711Y1623D01*
X0Y1622D02*
X7Y1622D01*
X4704Y1622D02*
X4711Y1622D01*
X0Y1621D02*
X7Y1621D01*
X4704Y1621D02*
X4711Y1621D01*
X0Y1620D02*
X7Y1620D01*
X4704Y1620D02*
X4711Y1620D01*
X0Y1619D02*
X7Y1619D01*
X4704Y1619D02*
X4711Y1619D01*
X0Y1618D02*
X7Y1618D01*
X4704Y1618D02*
X4711Y1618D01*
X0Y1617D02*
X7Y1617D01*
X4704Y1617D02*
X4711Y1617D01*
X0Y1616D02*
X7Y1616D01*
X4704Y1616D02*
X4711Y1616D01*
X0Y1615D02*
X7Y1615D01*
X4704Y1615D02*
X4711Y1615D01*
X0Y1614D02*
X7Y1614D01*
X4704Y1614D02*
X4711Y1614D01*
X0Y1613D02*
X7Y1613D01*
X4704Y1613D02*
X4711Y1613D01*
X0Y1612D02*
X7Y1612D01*
X4704Y1612D02*
X4711Y1612D01*
X0Y1611D02*
X7Y1611D01*
X4704Y1611D02*
X4711Y1611D01*
X0Y1610D02*
X7Y1610D01*
X4704Y1610D02*
X4711Y1610D01*
X0Y1609D02*
X7Y1609D01*
X4704Y1609D02*
X4711Y1609D01*
X0Y1608D02*
X7Y1608D01*
X4704Y1608D02*
X4711Y1608D01*
X0Y1607D02*
X7Y1607D01*
X4704Y1607D02*
X4711Y1607D01*
X0Y1606D02*
X7Y1606D01*
X4704Y1606D02*
X4711Y1606D01*
X0Y1605D02*
X7Y1605D01*
X4704Y1605D02*
X4711Y1605D01*
X0Y1604D02*
X7Y1604D01*
X4704Y1604D02*
X4711Y1604D01*
X0Y1603D02*
X7Y1603D01*
X4704Y1603D02*
X4711Y1603D01*
X0Y1602D02*
X7Y1602D01*
X4704Y1602D02*
X4711Y1602D01*
X0Y1601D02*
X7Y1601D01*
X4704Y1601D02*
X4711Y1601D01*
X0Y1600D02*
X7Y1600D01*
X4704Y1600D02*
X4711Y1600D01*
X0Y1599D02*
X7Y1599D01*
X4704Y1599D02*
X4711Y1599D01*
X0Y1598D02*
X7Y1598D01*
X4704Y1598D02*
X4711Y1598D01*
X0Y1597D02*
X7Y1597D01*
X4704Y1597D02*
X4711Y1597D01*
X0Y1596D02*
X7Y1596D01*
X4704Y1596D02*
X4711Y1596D01*
X0Y1595D02*
X7Y1595D01*
X4704Y1595D02*
X4711Y1595D01*
X0Y1594D02*
X7Y1594D01*
X4704Y1594D02*
X4711Y1594D01*
X0Y1593D02*
X7Y1593D01*
X4704Y1593D02*
X4711Y1593D01*
X0Y1592D02*
X7Y1592D01*
X4704Y1592D02*
X4711Y1592D01*
X0Y1591D02*
X7Y1591D01*
X4704Y1591D02*
X4711Y1591D01*
X0Y1590D02*
X7Y1590D01*
X4704Y1590D02*
X4711Y1590D01*
X0Y1589D02*
X7Y1589D01*
X4704Y1589D02*
X4711Y1589D01*
X0Y1588D02*
X7Y1588D01*
X4704Y1588D02*
X4711Y1588D01*
X0Y1587D02*
X7Y1587D01*
X4704Y1587D02*
X4711Y1587D01*
X0Y1586D02*
X7Y1586D01*
X4704Y1586D02*
X4711Y1586D01*
X0Y1585D02*
X7Y1585D01*
X4704Y1585D02*
X4711Y1585D01*
X0Y1584D02*
X7Y1584D01*
X4704Y1584D02*
X4711Y1584D01*
X0Y1583D02*
X7Y1583D01*
X4704Y1583D02*
X4711Y1583D01*
X0Y1582D02*
X7Y1582D01*
X4704Y1582D02*
X4711Y1582D01*
X0Y1581D02*
X7Y1581D01*
X4704Y1581D02*
X4711Y1581D01*
X0Y1580D02*
X7Y1580D01*
X4704Y1580D02*
X4711Y1580D01*
X0Y1579D02*
X7Y1579D01*
X4704Y1579D02*
X4711Y1579D01*
X0Y1578D02*
X7Y1578D01*
X4704Y1578D02*
X4711Y1578D01*
X0Y1577D02*
X7Y1577D01*
X4704Y1577D02*
X4711Y1577D01*
X0Y1576D02*
X7Y1576D01*
X4704Y1576D02*
X4711Y1576D01*
X0Y1575D02*
X7Y1575D01*
X4704Y1575D02*
X4711Y1575D01*
X0Y1574D02*
X7Y1574D01*
X4704Y1574D02*
X4711Y1574D01*
X0Y1573D02*
X7Y1573D01*
X4704Y1573D02*
X4711Y1573D01*
X0Y1572D02*
X7Y1572D01*
X4704Y1572D02*
X4711Y1572D01*
X0Y1571D02*
X7Y1571D01*
X4704Y1571D02*
X4711Y1571D01*
X0Y1570D02*
X7Y1570D01*
X4704Y1570D02*
X4711Y1570D01*
X0Y1569D02*
X7Y1569D01*
X4704Y1569D02*
X4711Y1569D01*
X0Y1568D02*
X7Y1568D01*
X4704Y1568D02*
X4711Y1568D01*
X0Y1567D02*
X7Y1567D01*
X4704Y1567D02*
X4711Y1567D01*
X0Y1566D02*
X7Y1566D01*
X4704Y1566D02*
X4711Y1566D01*
X0Y1565D02*
X7Y1565D01*
X4704Y1565D02*
X4711Y1565D01*
X0Y1564D02*
X7Y1564D01*
X4704Y1564D02*
X4711Y1564D01*
X0Y1563D02*
X7Y1563D01*
X4704Y1563D02*
X4711Y1563D01*
X0Y1562D02*
X7Y1562D01*
X4704Y1562D02*
X4711Y1562D01*
X0Y1561D02*
X7Y1561D01*
X4704Y1561D02*
X4711Y1561D01*
X0Y1560D02*
X7Y1560D01*
X4704Y1560D02*
X4711Y1560D01*
X0Y1559D02*
X7Y1559D01*
X4704Y1559D02*
X4711Y1559D01*
X0Y1558D02*
X7Y1558D01*
X4704Y1558D02*
X4711Y1558D01*
X0Y1557D02*
X7Y1557D01*
X4704Y1557D02*
X4711Y1557D01*
X0Y1556D02*
X7Y1556D01*
X4704Y1556D02*
X4711Y1556D01*
X0Y1555D02*
X7Y1555D01*
X4704Y1555D02*
X4711Y1555D01*
X0Y1554D02*
X7Y1554D01*
X4704Y1554D02*
X4711Y1554D01*
X0Y1553D02*
X7Y1553D01*
X4704Y1553D02*
X4711Y1553D01*
X0Y1552D02*
X7Y1552D01*
X4704Y1552D02*
X4711Y1552D01*
X0Y1551D02*
X7Y1551D01*
X4704Y1551D02*
X4711Y1551D01*
X0Y1550D02*
X7Y1550D01*
X4704Y1550D02*
X4711Y1550D01*
X0Y1549D02*
X7Y1549D01*
X4704Y1549D02*
X4711Y1549D01*
X0Y1548D02*
X7Y1548D01*
X4704Y1548D02*
X4711Y1548D01*
X0Y1547D02*
X7Y1547D01*
X4704Y1547D02*
X4711Y1547D01*
X0Y1546D02*
X7Y1546D01*
X4704Y1546D02*
X4711Y1546D01*
X0Y1545D02*
X7Y1545D01*
X4704Y1545D02*
X4711Y1545D01*
X0Y1544D02*
X7Y1544D01*
X4704Y1544D02*
X4711Y1544D01*
X0Y1543D02*
X7Y1543D01*
X4704Y1543D02*
X4711Y1543D01*
X0Y1542D02*
X7Y1542D01*
X4704Y1542D02*
X4711Y1542D01*
X0Y1541D02*
X7Y1541D01*
X4704Y1541D02*
X4711Y1541D01*
X0Y1540D02*
X7Y1540D01*
X4704Y1540D02*
X4711Y1540D01*
X0Y1539D02*
X7Y1539D01*
X4704Y1539D02*
X4711Y1539D01*
X0Y1538D02*
X7Y1538D01*
X4704Y1538D02*
X4711Y1538D01*
X0Y1537D02*
X7Y1537D01*
X4704Y1537D02*
X4711Y1537D01*
X0Y1536D02*
X7Y1536D01*
X4704Y1536D02*
X4711Y1536D01*
X0Y1535D02*
X7Y1535D01*
X4704Y1535D02*
X4711Y1535D01*
X0Y1534D02*
X7Y1534D01*
X4704Y1534D02*
X4711Y1534D01*
X0Y1533D02*
X7Y1533D01*
X4704Y1533D02*
X4711Y1533D01*
X0Y1532D02*
X7Y1532D01*
X4704Y1532D02*
X4711Y1532D01*
X0Y1531D02*
X7Y1531D01*
X4704Y1531D02*
X4711Y1531D01*
X0Y1530D02*
X7Y1530D01*
X4704Y1530D02*
X4711Y1530D01*
X0Y1529D02*
X7Y1529D01*
X4704Y1529D02*
X4711Y1529D01*
X0Y1528D02*
X7Y1528D01*
X4704Y1528D02*
X4711Y1528D01*
X0Y1527D02*
X7Y1527D01*
X4704Y1527D02*
X4711Y1527D01*
X0Y1526D02*
X7Y1526D01*
X4704Y1526D02*
X4711Y1526D01*
X0Y1525D02*
X7Y1525D01*
X4704Y1525D02*
X4711Y1525D01*
X0Y1524D02*
X7Y1524D01*
X4704Y1524D02*
X4711Y1524D01*
X0Y1523D02*
X7Y1523D01*
X4704Y1523D02*
X4711Y1523D01*
X0Y1522D02*
X7Y1522D01*
X4704Y1522D02*
X4711Y1522D01*
X0Y1521D02*
X7Y1521D01*
X4704Y1521D02*
X4711Y1521D01*
X0Y1520D02*
X7Y1520D01*
X4704Y1520D02*
X4711Y1520D01*
X0Y1519D02*
X7Y1519D01*
X4704Y1519D02*
X4711Y1519D01*
X0Y1518D02*
X7Y1518D01*
X4704Y1518D02*
X4711Y1518D01*
X0Y1517D02*
X7Y1517D01*
X4704Y1517D02*
X4711Y1517D01*
X0Y1516D02*
X7Y1516D01*
X4704Y1516D02*
X4711Y1516D01*
X0Y1515D02*
X7Y1515D01*
X4704Y1515D02*
X4711Y1515D01*
X0Y1514D02*
X7Y1514D01*
X4704Y1514D02*
X4711Y1514D01*
X0Y1513D02*
X7Y1513D01*
X4704Y1513D02*
X4711Y1513D01*
X0Y1512D02*
X7Y1512D01*
X4704Y1512D02*
X4711Y1512D01*
X0Y1511D02*
X7Y1511D01*
X4704Y1511D02*
X4711Y1511D01*
X0Y1510D02*
X7Y1510D01*
X4704Y1510D02*
X4711Y1510D01*
X0Y1509D02*
X7Y1509D01*
X4704Y1509D02*
X4711Y1509D01*
X0Y1508D02*
X7Y1508D01*
X4704Y1508D02*
X4711Y1508D01*
X0Y1507D02*
X7Y1507D01*
X4704Y1507D02*
X4711Y1507D01*
X0Y1506D02*
X7Y1506D01*
X4704Y1506D02*
X4711Y1506D01*
X0Y1505D02*
X7Y1505D01*
X4704Y1505D02*
X4711Y1505D01*
X0Y1504D02*
X7Y1504D01*
X4704Y1504D02*
X4711Y1504D01*
X0Y1503D02*
X7Y1503D01*
X4704Y1503D02*
X4711Y1503D01*
X0Y1502D02*
X7Y1502D01*
X4704Y1502D02*
X4711Y1502D01*
X0Y1501D02*
X7Y1501D01*
X4704Y1501D02*
X4711Y1501D01*
X0Y1500D02*
X7Y1500D01*
X4704Y1500D02*
X4711Y1500D01*
X0Y1499D02*
X7Y1499D01*
X4704Y1499D02*
X4711Y1499D01*
X0Y1498D02*
X7Y1498D01*
X4704Y1498D02*
X4711Y1498D01*
X0Y1497D02*
X7Y1497D01*
X4704Y1497D02*
X4711Y1497D01*
X0Y1496D02*
X7Y1496D01*
X4704Y1496D02*
X4711Y1496D01*
X0Y1495D02*
X7Y1495D01*
X4704Y1495D02*
X4711Y1495D01*
X0Y1494D02*
X7Y1494D01*
X4704Y1494D02*
X4711Y1494D01*
X0Y1493D02*
X7Y1493D01*
X4704Y1493D02*
X4711Y1493D01*
X0Y1492D02*
X7Y1492D01*
X4704Y1492D02*
X4711Y1492D01*
X0Y1491D02*
X7Y1491D01*
X4704Y1491D02*
X4711Y1491D01*
X0Y1490D02*
X7Y1490D01*
X4704Y1490D02*
X4711Y1490D01*
X0Y1489D02*
X7Y1489D01*
X4704Y1489D02*
X4711Y1489D01*
X0Y1488D02*
X7Y1488D01*
X4704Y1488D02*
X4711Y1488D01*
X0Y1487D02*
X7Y1487D01*
X4704Y1487D02*
X4711Y1487D01*
X0Y1486D02*
X7Y1486D01*
X4704Y1486D02*
X4711Y1486D01*
X0Y1485D02*
X7Y1485D01*
X4704Y1485D02*
X4711Y1485D01*
X0Y1484D02*
X7Y1484D01*
X4704Y1484D02*
X4711Y1484D01*
X0Y1483D02*
X7Y1483D01*
X4704Y1483D02*
X4711Y1483D01*
X0Y1482D02*
X7Y1482D01*
X4704Y1482D02*
X4711Y1482D01*
X0Y1481D02*
X7Y1481D01*
X4704Y1481D02*
X4711Y1481D01*
X0Y1480D02*
X7Y1480D01*
X4704Y1480D02*
X4711Y1480D01*
X0Y1479D02*
X7Y1479D01*
X4704Y1479D02*
X4711Y1479D01*
X0Y1478D02*
X7Y1478D01*
X4704Y1478D02*
X4711Y1478D01*
X0Y1477D02*
X7Y1477D01*
X4704Y1477D02*
X4711Y1477D01*
X0Y1476D02*
X7Y1476D01*
X4704Y1476D02*
X4711Y1476D01*
X0Y1475D02*
X7Y1475D01*
X4704Y1475D02*
X4711Y1475D01*
X0Y1474D02*
X7Y1474D01*
X4704Y1474D02*
X4711Y1474D01*
X0Y1473D02*
X7Y1473D01*
X4704Y1473D02*
X4711Y1473D01*
X0Y1472D02*
X7Y1472D01*
X4704Y1472D02*
X4711Y1472D01*
X0Y1471D02*
X7Y1471D01*
X4704Y1471D02*
X4711Y1471D01*
X0Y1470D02*
X7Y1470D01*
X4704Y1470D02*
X4711Y1470D01*
X0Y1469D02*
X7Y1469D01*
X4704Y1469D02*
X4711Y1469D01*
X0Y1468D02*
X7Y1468D01*
X4704Y1468D02*
X4711Y1468D01*
X0Y1467D02*
X7Y1467D01*
X4704Y1467D02*
X4711Y1467D01*
X0Y1466D02*
X7Y1466D01*
X4704Y1466D02*
X4711Y1466D01*
X0Y1465D02*
X7Y1465D01*
X4704Y1465D02*
X4711Y1465D01*
X0Y1464D02*
X7Y1464D01*
X4704Y1464D02*
X4711Y1464D01*
X0Y1463D02*
X7Y1463D01*
X4704Y1463D02*
X4711Y1463D01*
X0Y1462D02*
X7Y1462D01*
X4704Y1462D02*
X4711Y1462D01*
X0Y1461D02*
X7Y1461D01*
X4704Y1461D02*
X4711Y1461D01*
X0Y1460D02*
X7Y1460D01*
X4704Y1460D02*
X4711Y1460D01*
X0Y1459D02*
X7Y1459D01*
X4704Y1459D02*
X4711Y1459D01*
X0Y1458D02*
X7Y1458D01*
X4704Y1458D02*
X4711Y1458D01*
X0Y1457D02*
X7Y1457D01*
X4704Y1457D02*
X4711Y1457D01*
X0Y1456D02*
X7Y1456D01*
X4704Y1456D02*
X4711Y1456D01*
X0Y1455D02*
X7Y1455D01*
X4704Y1455D02*
X4711Y1455D01*
X0Y1454D02*
X7Y1454D01*
X4704Y1454D02*
X4711Y1454D01*
X0Y1453D02*
X7Y1453D01*
X4704Y1453D02*
X4711Y1453D01*
X0Y1452D02*
X7Y1452D01*
X4704Y1452D02*
X4711Y1452D01*
X0Y1451D02*
X7Y1451D01*
X4704Y1451D02*
X4711Y1451D01*
X0Y1450D02*
X7Y1450D01*
X4704Y1450D02*
X4711Y1450D01*
X0Y1449D02*
X7Y1449D01*
X4704Y1449D02*
X4711Y1449D01*
X0Y1448D02*
X7Y1448D01*
X4704Y1448D02*
X4711Y1448D01*
X0Y1447D02*
X7Y1447D01*
X4704Y1447D02*
X4711Y1447D01*
X0Y1446D02*
X7Y1446D01*
X4704Y1446D02*
X4711Y1446D01*
X0Y1445D02*
X7Y1445D01*
X4704Y1445D02*
X4711Y1445D01*
X0Y1444D02*
X7Y1444D01*
X4704Y1444D02*
X4711Y1444D01*
X0Y1443D02*
X7Y1443D01*
X4704Y1443D02*
X4711Y1443D01*
X0Y1442D02*
X7Y1442D01*
X4704Y1442D02*
X4711Y1442D01*
X0Y1441D02*
X7Y1441D01*
X4704Y1441D02*
X4711Y1441D01*
X0Y1440D02*
X7Y1440D01*
X4704Y1440D02*
X4711Y1440D01*
X0Y1439D02*
X7Y1439D01*
X4704Y1439D02*
X4711Y1439D01*
X0Y1438D02*
X7Y1438D01*
X4704Y1438D02*
X4711Y1438D01*
X0Y1437D02*
X7Y1437D01*
X4704Y1437D02*
X4711Y1437D01*
X0Y1436D02*
X7Y1436D01*
X4704Y1436D02*
X4711Y1436D01*
X0Y1435D02*
X7Y1435D01*
X4704Y1435D02*
X4711Y1435D01*
X0Y1434D02*
X7Y1434D01*
X4704Y1434D02*
X4711Y1434D01*
X0Y1433D02*
X7Y1433D01*
X4704Y1433D02*
X4711Y1433D01*
X0Y1432D02*
X7Y1432D01*
X4704Y1432D02*
X4711Y1432D01*
X0Y1431D02*
X7Y1431D01*
X4704Y1431D02*
X4711Y1431D01*
X0Y1430D02*
X7Y1430D01*
X4704Y1430D02*
X4711Y1430D01*
X0Y1429D02*
X7Y1429D01*
X4704Y1429D02*
X4711Y1429D01*
X0Y1428D02*
X7Y1428D01*
X4704Y1428D02*
X4711Y1428D01*
X0Y1427D02*
X7Y1427D01*
X4704Y1427D02*
X4711Y1427D01*
X0Y1426D02*
X7Y1426D01*
X4704Y1426D02*
X4711Y1426D01*
X0Y1425D02*
X7Y1425D01*
X4704Y1425D02*
X4711Y1425D01*
X0Y1424D02*
X7Y1424D01*
X4704Y1424D02*
X4711Y1424D01*
X0Y1423D02*
X7Y1423D01*
X4704Y1423D02*
X4711Y1423D01*
X0Y1422D02*
X7Y1422D01*
X4704Y1422D02*
X4711Y1422D01*
X0Y1421D02*
X7Y1421D01*
X4704Y1421D02*
X4711Y1421D01*
X0Y1420D02*
X7Y1420D01*
X4704Y1420D02*
X4711Y1420D01*
X0Y1419D02*
X7Y1419D01*
X4704Y1419D02*
X4711Y1419D01*
X0Y1418D02*
X7Y1418D01*
X4704Y1418D02*
X4711Y1418D01*
X0Y1417D02*
X7Y1417D01*
X4704Y1417D02*
X4711Y1417D01*
X0Y1416D02*
X7Y1416D01*
X4704Y1416D02*
X4711Y1416D01*
X0Y1415D02*
X7Y1415D01*
X4704Y1415D02*
X4711Y1415D01*
X0Y1414D02*
X7Y1414D01*
X4704Y1414D02*
X4711Y1414D01*
X0Y1413D02*
X7Y1413D01*
X4704Y1413D02*
X4711Y1413D01*
X0Y1412D02*
X7Y1412D01*
X4704Y1412D02*
X4711Y1412D01*
X0Y1411D02*
X7Y1411D01*
X4704Y1411D02*
X4711Y1411D01*
X0Y1410D02*
X7Y1410D01*
X4704Y1410D02*
X4711Y1410D01*
X0Y1409D02*
X7Y1409D01*
X4704Y1409D02*
X4711Y1409D01*
X0Y1408D02*
X7Y1408D01*
X4704Y1408D02*
X4711Y1408D01*
X0Y1407D02*
X7Y1407D01*
X4704Y1407D02*
X4711Y1407D01*
X0Y1406D02*
X7Y1406D01*
X4704Y1406D02*
X4711Y1406D01*
X0Y1405D02*
X7Y1405D01*
X4704Y1405D02*
X4711Y1405D01*
X0Y1404D02*
X7Y1404D01*
X4704Y1404D02*
X4711Y1404D01*
X0Y1403D02*
X7Y1403D01*
X4704Y1403D02*
X4711Y1403D01*
X0Y1402D02*
X7Y1402D01*
X4704Y1402D02*
X4711Y1402D01*
X0Y1401D02*
X7Y1401D01*
X4704Y1401D02*
X4711Y1401D01*
X0Y1400D02*
X7Y1400D01*
X4704Y1400D02*
X4711Y1400D01*
X0Y1399D02*
X7Y1399D01*
X4704Y1399D02*
X4711Y1399D01*
X0Y1398D02*
X7Y1398D01*
X4704Y1398D02*
X4711Y1398D01*
X0Y1397D02*
X7Y1397D01*
X4704Y1397D02*
X4711Y1397D01*
X0Y1396D02*
X7Y1396D01*
X4704Y1396D02*
X4711Y1396D01*
X0Y1395D02*
X7Y1395D01*
X4704Y1395D02*
X4711Y1395D01*
X0Y1394D02*
X7Y1394D01*
X4704Y1394D02*
X4711Y1394D01*
X0Y1393D02*
X7Y1393D01*
X4704Y1393D02*
X4711Y1393D01*
X0Y1392D02*
X7Y1392D01*
X4704Y1392D02*
X4711Y1392D01*
X0Y1391D02*
X7Y1391D01*
X4704Y1391D02*
X4711Y1391D01*
X0Y1390D02*
X7Y1390D01*
X4704Y1390D02*
X4711Y1390D01*
X0Y1389D02*
X7Y1389D01*
X4704Y1389D02*
X4711Y1389D01*
X0Y1388D02*
X7Y1388D01*
X4704Y1388D02*
X4711Y1388D01*
X0Y1387D02*
X7Y1387D01*
X4704Y1387D02*
X4711Y1387D01*
X0Y1386D02*
X7Y1386D01*
X4704Y1386D02*
X4711Y1386D01*
X0Y1385D02*
X7Y1385D01*
X4704Y1385D02*
X4711Y1385D01*
X0Y1384D02*
X7Y1384D01*
X4704Y1384D02*
X4711Y1384D01*
X0Y1383D02*
X7Y1383D01*
X4704Y1383D02*
X4711Y1383D01*
X0Y1382D02*
X7Y1382D01*
X4704Y1382D02*
X4711Y1382D01*
X0Y1381D02*
X7Y1381D01*
X4704Y1381D02*
X4711Y1381D01*
X0Y1380D02*
X7Y1380D01*
X4704Y1380D02*
X4711Y1380D01*
X0Y1379D02*
X7Y1379D01*
X4704Y1379D02*
X4711Y1379D01*
X0Y1378D02*
X7Y1378D01*
X4704Y1378D02*
X4711Y1378D01*
X0Y1377D02*
X7Y1377D01*
X4704Y1377D02*
X4711Y1377D01*
X0Y1376D02*
X7Y1376D01*
X4704Y1376D02*
X4711Y1376D01*
X0Y1375D02*
X7Y1375D01*
X4704Y1375D02*
X4711Y1375D01*
X0Y1374D02*
X7Y1374D01*
X4704Y1374D02*
X4711Y1374D01*
X0Y1373D02*
X7Y1373D01*
X4704Y1373D02*
X4711Y1373D01*
X0Y1372D02*
X7Y1372D01*
X4704Y1372D02*
X4711Y1372D01*
X0Y1371D02*
X7Y1371D01*
X4704Y1371D02*
X4711Y1371D01*
X0Y1370D02*
X7Y1370D01*
X4704Y1370D02*
X4711Y1370D01*
X0Y1369D02*
X7Y1369D01*
X4704Y1369D02*
X4711Y1369D01*
X0Y1368D02*
X7Y1368D01*
X4704Y1368D02*
X4711Y1368D01*
X0Y1367D02*
X7Y1367D01*
X4704Y1367D02*
X4711Y1367D01*
X0Y1366D02*
X7Y1366D01*
X4704Y1366D02*
X4711Y1366D01*
X0Y1365D02*
X7Y1365D01*
X4704Y1365D02*
X4711Y1365D01*
X0Y1364D02*
X7Y1364D01*
X4704Y1364D02*
X4711Y1364D01*
X0Y1363D02*
X7Y1363D01*
X4704Y1363D02*
X4711Y1363D01*
X0Y1362D02*
X7Y1362D01*
X4704Y1362D02*
X4711Y1362D01*
X0Y1361D02*
X7Y1361D01*
X4704Y1361D02*
X4711Y1361D01*
X0Y1360D02*
X7Y1360D01*
X4704Y1360D02*
X4711Y1360D01*
X0Y1359D02*
X7Y1359D01*
X4704Y1359D02*
X4711Y1359D01*
X0Y1358D02*
X7Y1358D01*
X4704Y1358D02*
X4711Y1358D01*
X0Y1357D02*
X7Y1357D01*
X4704Y1357D02*
X4711Y1357D01*
X0Y1356D02*
X7Y1356D01*
X4704Y1356D02*
X4711Y1356D01*
X0Y1355D02*
X7Y1355D01*
X4704Y1355D02*
X4711Y1355D01*
X0Y1354D02*
X7Y1354D01*
X4704Y1354D02*
X4711Y1354D01*
X0Y1353D02*
X7Y1353D01*
X4704Y1353D02*
X4711Y1353D01*
X0Y1352D02*
X7Y1352D01*
X4704Y1352D02*
X4711Y1352D01*
X0Y1351D02*
X7Y1351D01*
X4704Y1351D02*
X4711Y1351D01*
X0Y1350D02*
X7Y1350D01*
X4704Y1350D02*
X4711Y1350D01*
X0Y1349D02*
X7Y1349D01*
X4704Y1349D02*
X4711Y1349D01*
X0Y1348D02*
X7Y1348D01*
X4704Y1348D02*
X4711Y1348D01*
X0Y1347D02*
X7Y1347D01*
X4704Y1347D02*
X4711Y1347D01*
X0Y1346D02*
X7Y1346D01*
X4704Y1346D02*
X4711Y1346D01*
X0Y1345D02*
X7Y1345D01*
X4704Y1345D02*
X4711Y1345D01*
X0Y1344D02*
X7Y1344D01*
X4704Y1344D02*
X4711Y1344D01*
X0Y1343D02*
X7Y1343D01*
X4704Y1343D02*
X4711Y1343D01*
X0Y1342D02*
X7Y1342D01*
X4704Y1342D02*
X4711Y1342D01*
X0Y1341D02*
X7Y1341D01*
X4704Y1341D02*
X4711Y1341D01*
X0Y1340D02*
X7Y1340D01*
X4704Y1340D02*
X4711Y1340D01*
X0Y1339D02*
X7Y1339D01*
X4704Y1339D02*
X4711Y1339D01*
X0Y1338D02*
X7Y1338D01*
X4704Y1338D02*
X4711Y1338D01*
X0Y1337D02*
X7Y1337D01*
X4704Y1337D02*
X4711Y1337D01*
X0Y1336D02*
X7Y1336D01*
X4704Y1336D02*
X4711Y1336D01*
X0Y1335D02*
X7Y1335D01*
X4704Y1335D02*
X4711Y1335D01*
X0Y1334D02*
X7Y1334D01*
X4704Y1334D02*
X4711Y1334D01*
X0Y1333D02*
X7Y1333D01*
X4704Y1333D02*
X4711Y1333D01*
X0Y1332D02*
X7Y1332D01*
X4704Y1332D02*
X4711Y1332D01*
X0Y1331D02*
X7Y1331D01*
X4704Y1331D02*
X4711Y1331D01*
X0Y1330D02*
X7Y1330D01*
X4704Y1330D02*
X4711Y1330D01*
X0Y1329D02*
X7Y1329D01*
X4704Y1329D02*
X4711Y1329D01*
X0Y1328D02*
X7Y1328D01*
X4704Y1328D02*
X4711Y1328D01*
X0Y1327D02*
X7Y1327D01*
X4704Y1327D02*
X4711Y1327D01*
X0Y1326D02*
X7Y1326D01*
X4704Y1326D02*
X4711Y1326D01*
X0Y1325D02*
X7Y1325D01*
X4704Y1325D02*
X4711Y1325D01*
X0Y1324D02*
X7Y1324D01*
X4704Y1324D02*
X4711Y1324D01*
X0Y1323D02*
X7Y1323D01*
X4704Y1323D02*
X4711Y1323D01*
X0Y1322D02*
X7Y1322D01*
X4704Y1322D02*
X4711Y1322D01*
X0Y1321D02*
X7Y1321D01*
X4704Y1321D02*
X4711Y1321D01*
X0Y1320D02*
X7Y1320D01*
X4704Y1320D02*
X4711Y1320D01*
X0Y1319D02*
X7Y1319D01*
X4704Y1319D02*
X4711Y1319D01*
X0Y1318D02*
X7Y1318D01*
X4704Y1318D02*
X4711Y1318D01*
X0Y1317D02*
X7Y1317D01*
X4704Y1317D02*
X4711Y1317D01*
X0Y1316D02*
X7Y1316D01*
X4704Y1316D02*
X4711Y1316D01*
X0Y1315D02*
X7Y1315D01*
X4704Y1315D02*
X4711Y1315D01*
X0Y1314D02*
X7Y1314D01*
X4704Y1314D02*
X4711Y1314D01*
X0Y1313D02*
X7Y1313D01*
X4704Y1313D02*
X4711Y1313D01*
X0Y1312D02*
X7Y1312D01*
X4704Y1312D02*
X4711Y1312D01*
X0Y1311D02*
X7Y1311D01*
X4704Y1311D02*
X4711Y1311D01*
X0Y1310D02*
X7Y1310D01*
X4704Y1310D02*
X4711Y1310D01*
X0Y1309D02*
X7Y1309D01*
X4704Y1309D02*
X4711Y1309D01*
X0Y1308D02*
X7Y1308D01*
X4704Y1308D02*
X4711Y1308D01*
X0Y1307D02*
X7Y1307D01*
X4704Y1307D02*
X4711Y1307D01*
X0Y1306D02*
X7Y1306D01*
X4704Y1306D02*
X4711Y1306D01*
X0Y1305D02*
X7Y1305D01*
X4704Y1305D02*
X4711Y1305D01*
X0Y1304D02*
X7Y1304D01*
X4704Y1304D02*
X4711Y1304D01*
X0Y1303D02*
X7Y1303D01*
X4704Y1303D02*
X4711Y1303D01*
X0Y1302D02*
X7Y1302D01*
X4704Y1302D02*
X4711Y1302D01*
X0Y1301D02*
X7Y1301D01*
X4704Y1301D02*
X4711Y1301D01*
X0Y1300D02*
X7Y1300D01*
X4704Y1300D02*
X4711Y1300D01*
X0Y1299D02*
X7Y1299D01*
X4704Y1299D02*
X4711Y1299D01*
X0Y1298D02*
X7Y1298D01*
X4704Y1298D02*
X4711Y1298D01*
X0Y1297D02*
X7Y1297D01*
X4704Y1297D02*
X4711Y1297D01*
X0Y1296D02*
X7Y1296D01*
X4704Y1296D02*
X4711Y1296D01*
X0Y1295D02*
X7Y1295D01*
X4704Y1295D02*
X4711Y1295D01*
X0Y1294D02*
X7Y1294D01*
X4704Y1294D02*
X4711Y1294D01*
X0Y1293D02*
X7Y1293D01*
X4704Y1293D02*
X4711Y1293D01*
X0Y1292D02*
X7Y1292D01*
X4704Y1292D02*
X4711Y1292D01*
X0Y1291D02*
X7Y1291D01*
X4704Y1291D02*
X4711Y1291D01*
X0Y1290D02*
X7Y1290D01*
X4704Y1290D02*
X4711Y1290D01*
X0Y1289D02*
X7Y1289D01*
X4704Y1289D02*
X4711Y1289D01*
X0Y1288D02*
X7Y1288D01*
X4704Y1288D02*
X4711Y1288D01*
X0Y1287D02*
X7Y1287D01*
X4704Y1287D02*
X4711Y1287D01*
X0Y1286D02*
X7Y1286D01*
X4704Y1286D02*
X4711Y1286D01*
X0Y1285D02*
X7Y1285D01*
X4704Y1285D02*
X4711Y1285D01*
X0Y1284D02*
X7Y1284D01*
X4704Y1284D02*
X4711Y1284D01*
X0Y1283D02*
X7Y1283D01*
X4704Y1283D02*
X4711Y1283D01*
X0Y1282D02*
X7Y1282D01*
X4704Y1282D02*
X4711Y1282D01*
X0Y1281D02*
X7Y1281D01*
X4704Y1281D02*
X4711Y1281D01*
X0Y1280D02*
X7Y1280D01*
X4704Y1280D02*
X4711Y1280D01*
X0Y1279D02*
X7Y1279D01*
X4704Y1279D02*
X4711Y1279D01*
X0Y1278D02*
X7Y1278D01*
X4704Y1278D02*
X4711Y1278D01*
X0Y1277D02*
X7Y1277D01*
X4704Y1277D02*
X4711Y1277D01*
X0Y1276D02*
X7Y1276D01*
X4704Y1276D02*
X4711Y1276D01*
X0Y1275D02*
X7Y1275D01*
X4704Y1275D02*
X4711Y1275D01*
X0Y1274D02*
X7Y1274D01*
X4704Y1274D02*
X4711Y1274D01*
X0Y1273D02*
X7Y1273D01*
X4704Y1273D02*
X4711Y1273D01*
X0Y1272D02*
X7Y1272D01*
X4704Y1272D02*
X4711Y1272D01*
X0Y1271D02*
X7Y1271D01*
X4704Y1271D02*
X4711Y1271D01*
X0Y1270D02*
X7Y1270D01*
X4704Y1270D02*
X4711Y1270D01*
X0Y1269D02*
X7Y1269D01*
X4704Y1269D02*
X4711Y1269D01*
X0Y1268D02*
X7Y1268D01*
X4704Y1268D02*
X4711Y1268D01*
X0Y1267D02*
X7Y1267D01*
X4704Y1267D02*
X4711Y1267D01*
X0Y1266D02*
X7Y1266D01*
X4704Y1266D02*
X4711Y1266D01*
X0Y1265D02*
X7Y1265D01*
X4704Y1265D02*
X4711Y1265D01*
X0Y1264D02*
X7Y1264D01*
X4704Y1264D02*
X4711Y1264D01*
X0Y1263D02*
X7Y1263D01*
X4704Y1263D02*
X4711Y1263D01*
X0Y1262D02*
X7Y1262D01*
X4704Y1262D02*
X4711Y1262D01*
X0Y1261D02*
X7Y1261D01*
X4704Y1261D02*
X4711Y1261D01*
X0Y1260D02*
X7Y1260D01*
X4704Y1260D02*
X4711Y1260D01*
X0Y1259D02*
X7Y1259D01*
X4704Y1259D02*
X4711Y1259D01*
X0Y1258D02*
X7Y1258D01*
X4704Y1258D02*
X4711Y1258D01*
X0Y1257D02*
X1Y1257D01*
X4704Y1257D02*
X4711Y1257D01*
X4704Y1256D02*
X4711Y1256D01*
X4704Y1255D02*
X4711Y1255D01*
X4704Y1254D02*
X4711Y1254D01*
X4704Y1253D02*
X4711Y1253D01*
X4704Y1252D02*
X4711Y1252D01*
X4704Y1251D02*
X4711Y1251D01*
X4704Y1250D02*
X4711Y1250D01*
X4704Y1249D02*
X4711Y1249D01*
X4704Y1248D02*
X4711Y1248D01*
X4704Y1247D02*
X4711Y1247D01*
X4704Y1246D02*
X4711Y1246D01*
X4704Y1245D02*
X4711Y1245D01*
X4704Y1244D02*
X4711Y1244D01*
X4704Y1243D02*
X4711Y1243D01*
X4704Y1242D02*
X4711Y1242D01*
X4704Y1241D02*
X4711Y1241D01*
X4704Y1240D02*
X4711Y1240D01*
X4704Y1239D02*
X4711Y1239D01*
X4704Y1238D02*
X4711Y1238D01*
X4704Y1237D02*
X4711Y1237D01*
X4704Y1236D02*
X4711Y1236D01*
X4704Y1235D02*
X4711Y1235D01*
X4704Y1234D02*
X4711Y1234D01*
X4704Y1233D02*
X4711Y1233D01*
X4704Y1232D02*
X4711Y1232D01*
X4704Y1231D02*
X4711Y1231D01*
X4704Y1230D02*
X4711Y1230D01*
X4704Y1229D02*
X4711Y1229D01*
X4704Y1228D02*
X4711Y1228D01*
X4704Y1227D02*
X4711Y1227D01*
X4704Y1226D02*
X4711Y1226D01*
X4704Y1225D02*
X4711Y1225D01*
X4704Y1224D02*
X4711Y1224D01*
X4704Y1223D02*
X4711Y1223D01*
X4704Y1222D02*
X4711Y1222D01*
X4704Y1221D02*
X4711Y1221D01*
X4704Y1220D02*
X4711Y1220D01*
X4704Y1219D02*
X4711Y1219D01*
X4704Y1218D02*
X4711Y1218D01*
X4704Y1217D02*
X4711Y1217D01*
X4704Y1216D02*
X4711Y1216D01*
X4704Y1215D02*
X4711Y1215D01*
X4704Y1214D02*
X4711Y1214D01*
X4704Y1213D02*
X4711Y1213D01*
X4704Y1212D02*
X4711Y1212D01*
X4704Y1211D02*
X4711Y1211D01*
X4704Y1210D02*
X4711Y1210D01*
X4704Y1209D02*
X4711Y1209D01*
X0Y1208D02*
X7Y1208D01*
X4704Y1208D02*
X4711Y1208D01*
X0Y1207D02*
X7Y1207D01*
X4704Y1207D02*
X4711Y1207D01*
X0Y1206D02*
X7Y1206D01*
X4704Y1206D02*
X4711Y1206D01*
X0Y1205D02*
X7Y1205D01*
X4704Y1205D02*
X4711Y1205D01*
X0Y1204D02*
X7Y1204D01*
X4704Y1204D02*
X4711Y1204D01*
X0Y1203D02*
X7Y1203D01*
X4704Y1203D02*
X4711Y1203D01*
X0Y1202D02*
X7Y1202D01*
X4704Y1202D02*
X4711Y1202D01*
X0Y1201D02*
X7Y1201D01*
X4704Y1201D02*
X4711Y1201D01*
X0Y1200D02*
X7Y1200D01*
X4704Y1200D02*
X4711Y1200D01*
X0Y1199D02*
X7Y1199D01*
X4704Y1199D02*
X4711Y1199D01*
X0Y1198D02*
X7Y1198D01*
X4704Y1198D02*
X4711Y1198D01*
X0Y1197D02*
X7Y1197D01*
X4704Y1197D02*
X4711Y1197D01*
X0Y1196D02*
X7Y1196D01*
X4704Y1196D02*
X4711Y1196D01*
X0Y1195D02*
X7Y1195D01*
X4704Y1195D02*
X4711Y1195D01*
X0Y1194D02*
X7Y1194D01*
X4704Y1194D02*
X4711Y1194D01*
X0Y1193D02*
X7Y1193D01*
X4704Y1193D02*
X4711Y1193D01*
X0Y1192D02*
X7Y1192D01*
X4704Y1192D02*
X4711Y1192D01*
X0Y1191D02*
X7Y1191D01*
X4704Y1191D02*
X4711Y1191D01*
X0Y1190D02*
X7Y1190D01*
X4704Y1190D02*
X4711Y1190D01*
X0Y1189D02*
X7Y1189D01*
X4704Y1189D02*
X4711Y1189D01*
X0Y1188D02*
X7Y1188D01*
X4704Y1188D02*
X4711Y1188D01*
X0Y1187D02*
X7Y1187D01*
X4704Y1187D02*
X4711Y1187D01*
X0Y1186D02*
X7Y1186D01*
X4704Y1186D02*
X4711Y1186D01*
X0Y1185D02*
X7Y1185D01*
X4704Y1185D02*
X4711Y1185D01*
X0Y1184D02*
X7Y1184D01*
X4704Y1184D02*
X4711Y1184D01*
X0Y1183D02*
X7Y1183D01*
X4704Y1183D02*
X4711Y1183D01*
X0Y1182D02*
X7Y1182D01*
X4704Y1182D02*
X4711Y1182D01*
X0Y1181D02*
X7Y1181D01*
X4704Y1181D02*
X4711Y1181D01*
X0Y1180D02*
X7Y1180D01*
X4704Y1180D02*
X4711Y1180D01*
X0Y1179D02*
X7Y1179D01*
X4704Y1179D02*
X4711Y1179D01*
X0Y1178D02*
X7Y1178D01*
X4704Y1178D02*
X4711Y1178D01*
X0Y1177D02*
X7Y1177D01*
X4704Y1177D02*
X4711Y1177D01*
X0Y1176D02*
X7Y1176D01*
X4704Y1176D02*
X4711Y1176D01*
X0Y1175D02*
X7Y1175D01*
X4704Y1175D02*
X4711Y1175D01*
X0Y1174D02*
X7Y1174D01*
X4704Y1174D02*
X4711Y1174D01*
X0Y1173D02*
X7Y1173D01*
X4704Y1173D02*
X4711Y1173D01*
X0Y1172D02*
X7Y1172D01*
X4704Y1172D02*
X4711Y1172D01*
X0Y1171D02*
X7Y1171D01*
X4704Y1171D02*
X4711Y1171D01*
X0Y1170D02*
X7Y1170D01*
X4704Y1170D02*
X4711Y1170D01*
X0Y1169D02*
X7Y1169D01*
X4704Y1169D02*
X4711Y1169D01*
X0Y1168D02*
X7Y1168D01*
X4704Y1168D02*
X4711Y1168D01*
X0Y1167D02*
X7Y1167D01*
X4704Y1167D02*
X4711Y1167D01*
X0Y1166D02*
X7Y1166D01*
X4704Y1166D02*
X4711Y1166D01*
X0Y1165D02*
X7Y1165D01*
X4704Y1165D02*
X4711Y1165D01*
X0Y1164D02*
X7Y1164D01*
X4704Y1164D02*
X4711Y1164D01*
X0Y1163D02*
X7Y1163D01*
X4704Y1163D02*
X4711Y1163D01*
X0Y1162D02*
X7Y1162D01*
X4704Y1162D02*
X4711Y1162D01*
X0Y1161D02*
X7Y1161D01*
X4704Y1161D02*
X4711Y1161D01*
X0Y1160D02*
X7Y1160D01*
X4704Y1160D02*
X4711Y1160D01*
X0Y1159D02*
X7Y1159D01*
X4704Y1159D02*
X4711Y1159D01*
X0Y1158D02*
X7Y1158D01*
X4704Y1158D02*
X4711Y1158D01*
X0Y1157D02*
X7Y1157D01*
X4704Y1157D02*
X4711Y1157D01*
X0Y1156D02*
X7Y1156D01*
X4704Y1156D02*
X4711Y1156D01*
X0Y1155D02*
X7Y1155D01*
X4704Y1155D02*
X4711Y1155D01*
X0Y1154D02*
X7Y1154D01*
X4704Y1154D02*
X4711Y1154D01*
X0Y1153D02*
X7Y1153D01*
X4704Y1153D02*
X4711Y1153D01*
X0Y1152D02*
X7Y1152D01*
X4704Y1152D02*
X4711Y1152D01*
X0Y1151D02*
X7Y1151D01*
X4704Y1151D02*
X4711Y1151D01*
X0Y1150D02*
X7Y1150D01*
X4704Y1150D02*
X4711Y1150D01*
X0Y1149D02*
X7Y1149D01*
X4704Y1149D02*
X4711Y1149D01*
X0Y1148D02*
X7Y1148D01*
X4704Y1148D02*
X4711Y1148D01*
X0Y1147D02*
X7Y1147D01*
X4704Y1147D02*
X4711Y1147D01*
X0Y1146D02*
X7Y1146D01*
X4704Y1146D02*
X4711Y1146D01*
X0Y1145D02*
X7Y1145D01*
X4704Y1145D02*
X4711Y1145D01*
X0Y1144D02*
X7Y1144D01*
X4704Y1144D02*
X4711Y1144D01*
X0Y1143D02*
X7Y1143D01*
X4704Y1143D02*
X4711Y1143D01*
X0Y1142D02*
X7Y1142D01*
X4704Y1142D02*
X4711Y1142D01*
X0Y1141D02*
X7Y1141D01*
X4704Y1141D02*
X4711Y1141D01*
X0Y1140D02*
X7Y1140D01*
X4704Y1140D02*
X4711Y1140D01*
X0Y1139D02*
X7Y1139D01*
X4704Y1139D02*
X4711Y1139D01*
X0Y1138D02*
X7Y1138D01*
X4704Y1138D02*
X4711Y1138D01*
X0Y1137D02*
X7Y1137D01*
X4704Y1137D02*
X4711Y1137D01*
X0Y1136D02*
X7Y1136D01*
X4704Y1136D02*
X4711Y1136D01*
X0Y1135D02*
X7Y1135D01*
X4704Y1135D02*
X4711Y1135D01*
X0Y1134D02*
X7Y1134D01*
X4704Y1134D02*
X4711Y1134D01*
X0Y1133D02*
X7Y1133D01*
X4704Y1133D02*
X4711Y1133D01*
X0Y1132D02*
X7Y1132D01*
X4704Y1132D02*
X4711Y1132D01*
X0Y1131D02*
X7Y1131D01*
X4704Y1131D02*
X4711Y1131D01*
X0Y1130D02*
X7Y1130D01*
X4704Y1130D02*
X4711Y1130D01*
X0Y1129D02*
X7Y1129D01*
X4704Y1129D02*
X4711Y1129D01*
X0Y1128D02*
X7Y1128D01*
X4704Y1128D02*
X4711Y1128D01*
X0Y1127D02*
X7Y1127D01*
X4704Y1127D02*
X4711Y1127D01*
X0Y1126D02*
X7Y1126D01*
X4704Y1126D02*
X4711Y1126D01*
X0Y1125D02*
X7Y1125D01*
X4704Y1125D02*
X4711Y1125D01*
X0Y1124D02*
X7Y1124D01*
X4704Y1124D02*
X4711Y1124D01*
X0Y1123D02*
X7Y1123D01*
X4704Y1123D02*
X4711Y1123D01*
X0Y1122D02*
X7Y1122D01*
X4704Y1122D02*
X4711Y1122D01*
X0Y1121D02*
X7Y1121D01*
X4704Y1121D02*
X4711Y1121D01*
X0Y1120D02*
X7Y1120D01*
X4704Y1120D02*
X4711Y1120D01*
X0Y1119D02*
X7Y1119D01*
X4704Y1119D02*
X4711Y1119D01*
X0Y1118D02*
X7Y1118D01*
X4704Y1118D02*
X4711Y1118D01*
X0Y1117D02*
X7Y1117D01*
X4704Y1117D02*
X4711Y1117D01*
X0Y1116D02*
X7Y1116D01*
X4704Y1116D02*
X4711Y1116D01*
X0Y1115D02*
X7Y1115D01*
X4704Y1115D02*
X4711Y1115D01*
X0Y1114D02*
X7Y1114D01*
X4704Y1114D02*
X4711Y1114D01*
X0Y1113D02*
X7Y1113D01*
X4704Y1113D02*
X4711Y1113D01*
X0Y1112D02*
X7Y1112D01*
X4704Y1112D02*
X4711Y1112D01*
X0Y1111D02*
X7Y1111D01*
X4704Y1111D02*
X4711Y1111D01*
X0Y1110D02*
X7Y1110D01*
X4704Y1110D02*
X4711Y1110D01*
X0Y1109D02*
X7Y1109D01*
X4704Y1109D02*
X4711Y1109D01*
X0Y1108D02*
X7Y1108D01*
X4704Y1108D02*
X4711Y1108D01*
X0Y1107D02*
X7Y1107D01*
X4704Y1107D02*
X4711Y1107D01*
X0Y1106D02*
X7Y1106D01*
X4704Y1106D02*
X4711Y1106D01*
X0Y1105D02*
X7Y1105D01*
X4704Y1105D02*
X4711Y1105D01*
X0Y1104D02*
X7Y1104D01*
X4704Y1104D02*
X4711Y1104D01*
X0Y1103D02*
X7Y1103D01*
X4704Y1103D02*
X4711Y1103D01*
X0Y1102D02*
X7Y1102D01*
X4704Y1102D02*
X4711Y1102D01*
X0Y1101D02*
X7Y1101D01*
X4704Y1101D02*
X4711Y1101D01*
X0Y1100D02*
X7Y1100D01*
X4704Y1100D02*
X4711Y1100D01*
X0Y1099D02*
X7Y1099D01*
X4704Y1099D02*
X4711Y1099D01*
X0Y1098D02*
X7Y1098D01*
X4704Y1098D02*
X4711Y1098D01*
X0Y1097D02*
X7Y1097D01*
X4704Y1097D02*
X4711Y1097D01*
X0Y1096D02*
X7Y1096D01*
X4704Y1096D02*
X4711Y1096D01*
X0Y1095D02*
X7Y1095D01*
X4704Y1095D02*
X4711Y1095D01*
X0Y1094D02*
X7Y1094D01*
X4704Y1094D02*
X4711Y1094D01*
X0Y1093D02*
X7Y1093D01*
X4704Y1093D02*
X4711Y1093D01*
X0Y1092D02*
X7Y1092D01*
X4704Y1092D02*
X4711Y1092D01*
X0Y1091D02*
X7Y1091D01*
X4704Y1091D02*
X4711Y1091D01*
X0Y1090D02*
X7Y1090D01*
X4704Y1090D02*
X4711Y1090D01*
X0Y1089D02*
X7Y1089D01*
X4704Y1089D02*
X4711Y1089D01*
X0Y1088D02*
X7Y1088D01*
X4704Y1088D02*
X4711Y1088D01*
X0Y1087D02*
X7Y1087D01*
X4704Y1087D02*
X4711Y1087D01*
X0Y1086D02*
X7Y1086D01*
X4704Y1086D02*
X4711Y1086D01*
X0Y1085D02*
X7Y1085D01*
X4704Y1085D02*
X4711Y1085D01*
X0Y1084D02*
X7Y1084D01*
X4704Y1084D02*
X4711Y1084D01*
X0Y1083D02*
X7Y1083D01*
X4704Y1083D02*
X4711Y1083D01*
X0Y1082D02*
X7Y1082D01*
X4704Y1082D02*
X4711Y1082D01*
X0Y1081D02*
X7Y1081D01*
X4704Y1081D02*
X4711Y1081D01*
X0Y1080D02*
X7Y1080D01*
X4704Y1080D02*
X4711Y1080D01*
X0Y1079D02*
X7Y1079D01*
X4704Y1079D02*
X4711Y1079D01*
X0Y1078D02*
X7Y1078D01*
X4704Y1078D02*
X4711Y1078D01*
X0Y1077D02*
X7Y1077D01*
X4704Y1077D02*
X4711Y1077D01*
X0Y1076D02*
X7Y1076D01*
X4704Y1076D02*
X4711Y1076D01*
X0Y1075D02*
X7Y1075D01*
X4704Y1075D02*
X4711Y1075D01*
X0Y1074D02*
X7Y1074D01*
X4704Y1074D02*
X4711Y1074D01*
X0Y1073D02*
X7Y1073D01*
X4704Y1073D02*
X4711Y1073D01*
X0Y1072D02*
X7Y1072D01*
X4704Y1072D02*
X4711Y1072D01*
X0Y1071D02*
X7Y1071D01*
X4704Y1071D02*
X4711Y1071D01*
X0Y1070D02*
X7Y1070D01*
X4704Y1070D02*
X4711Y1070D01*
X0Y1069D02*
X7Y1069D01*
X4704Y1069D02*
X4711Y1069D01*
X0Y1068D02*
X7Y1068D01*
X4704Y1068D02*
X4711Y1068D01*
X0Y1067D02*
X7Y1067D01*
X4704Y1067D02*
X4711Y1067D01*
X0Y1066D02*
X7Y1066D01*
X4704Y1066D02*
X4711Y1066D01*
X0Y1065D02*
X7Y1065D01*
X4704Y1065D02*
X4711Y1065D01*
X0Y1064D02*
X7Y1064D01*
X4704Y1064D02*
X4711Y1064D01*
X0Y1063D02*
X7Y1063D01*
X4704Y1063D02*
X4711Y1063D01*
X0Y1062D02*
X7Y1062D01*
X4704Y1062D02*
X4711Y1062D01*
X0Y1061D02*
X7Y1061D01*
X4704Y1061D02*
X4711Y1061D01*
X0Y1060D02*
X7Y1060D01*
X4704Y1060D02*
X4711Y1060D01*
X0Y1059D02*
X7Y1059D01*
X4704Y1059D02*
X4711Y1059D01*
X0Y1058D02*
X7Y1058D01*
X4704Y1058D02*
X4711Y1058D01*
X0Y1057D02*
X7Y1057D01*
X4704Y1057D02*
X4711Y1057D01*
X0Y1056D02*
X7Y1056D01*
X4704Y1056D02*
X4711Y1056D01*
X0Y1055D02*
X7Y1055D01*
X4704Y1055D02*
X4711Y1055D01*
X0Y1054D02*
X7Y1054D01*
X4704Y1054D02*
X4711Y1054D01*
X0Y1053D02*
X7Y1053D01*
X4704Y1053D02*
X4711Y1053D01*
X0Y1052D02*
X7Y1052D01*
X4704Y1052D02*
X4711Y1052D01*
X0Y1051D02*
X7Y1051D01*
X4704Y1051D02*
X4711Y1051D01*
X0Y1050D02*
X7Y1050D01*
X4704Y1050D02*
X4711Y1050D01*
X0Y1049D02*
X7Y1049D01*
X4704Y1049D02*
X4711Y1049D01*
X0Y1048D02*
X7Y1048D01*
X4704Y1048D02*
X4711Y1048D01*
X0Y1047D02*
X7Y1047D01*
X4704Y1047D02*
X4711Y1047D01*
X0Y1046D02*
X7Y1046D01*
X4704Y1046D02*
X4711Y1046D01*
X0Y1045D02*
X7Y1045D01*
X4704Y1045D02*
X4711Y1045D01*
X0Y1044D02*
X7Y1044D01*
X4704Y1044D02*
X4711Y1044D01*
X0Y1043D02*
X7Y1043D01*
X4704Y1043D02*
X4711Y1043D01*
X0Y1042D02*
X7Y1042D01*
X4704Y1042D02*
X4711Y1042D01*
X0Y1041D02*
X7Y1041D01*
X4704Y1041D02*
X4711Y1041D01*
X0Y1040D02*
X7Y1040D01*
X4704Y1040D02*
X4711Y1040D01*
X0Y1039D02*
X7Y1039D01*
X4704Y1039D02*
X4711Y1039D01*
X0Y1038D02*
X7Y1038D01*
X4704Y1038D02*
X4711Y1038D01*
X0Y1037D02*
X7Y1037D01*
X4704Y1037D02*
X4711Y1037D01*
X0Y1036D02*
X7Y1036D01*
X4704Y1036D02*
X4711Y1036D01*
X0Y1035D02*
X7Y1035D01*
X4704Y1035D02*
X4711Y1035D01*
X0Y1034D02*
X7Y1034D01*
X4704Y1034D02*
X4711Y1034D01*
X0Y1033D02*
X7Y1033D01*
X4704Y1033D02*
X4711Y1033D01*
X0Y1032D02*
X7Y1032D01*
X4704Y1032D02*
X4711Y1032D01*
X0Y1031D02*
X7Y1031D01*
X4704Y1031D02*
X4711Y1031D01*
X0Y1030D02*
X7Y1030D01*
X4704Y1030D02*
X4711Y1030D01*
X0Y1029D02*
X7Y1029D01*
X4704Y1029D02*
X4711Y1029D01*
X0Y1028D02*
X7Y1028D01*
X4704Y1028D02*
X4711Y1028D01*
X0Y1027D02*
X7Y1027D01*
X4704Y1027D02*
X4711Y1027D01*
X0Y1026D02*
X7Y1026D01*
X4704Y1026D02*
X4711Y1026D01*
X0Y1025D02*
X7Y1025D01*
X4704Y1025D02*
X4711Y1025D01*
X0Y1024D02*
X7Y1024D01*
X4704Y1024D02*
X4711Y1024D01*
X0Y1023D02*
X7Y1023D01*
X4704Y1023D02*
X4711Y1023D01*
X0Y1022D02*
X7Y1022D01*
X4704Y1022D02*
X4711Y1022D01*
X0Y1021D02*
X7Y1021D01*
X4704Y1021D02*
X4711Y1021D01*
X0Y1020D02*
X7Y1020D01*
X4704Y1020D02*
X4711Y1020D01*
X0Y1019D02*
X7Y1019D01*
X4704Y1019D02*
X4711Y1019D01*
X0Y1018D02*
X7Y1018D01*
X4704Y1018D02*
X4711Y1018D01*
X0Y1017D02*
X7Y1017D01*
X4704Y1017D02*
X4711Y1017D01*
X0Y1016D02*
X7Y1016D01*
X4704Y1016D02*
X4711Y1016D01*
X0Y1015D02*
X7Y1015D01*
X4704Y1015D02*
X4711Y1015D01*
X0Y1014D02*
X7Y1014D01*
X4704Y1014D02*
X4711Y1014D01*
X0Y1013D02*
X7Y1013D01*
X4704Y1013D02*
X4711Y1013D01*
X0Y1012D02*
X7Y1012D01*
X4704Y1012D02*
X4711Y1012D01*
X0Y1011D02*
X7Y1011D01*
X4704Y1011D02*
X4711Y1011D01*
X0Y1010D02*
X7Y1010D01*
X4704Y1010D02*
X4711Y1010D01*
X0Y1009D02*
X7Y1009D01*
X4704Y1009D02*
X4711Y1009D01*
X0Y1008D02*
X7Y1008D01*
X4704Y1008D02*
X4711Y1008D01*
X0Y1007D02*
X7Y1007D01*
X4704Y1007D02*
X4711Y1007D01*
X0Y1006D02*
X7Y1006D01*
X4704Y1006D02*
X4711Y1006D01*
X0Y1005D02*
X7Y1005D01*
X4704Y1005D02*
X4711Y1005D01*
X0Y1004D02*
X7Y1004D01*
X4704Y1004D02*
X4711Y1004D01*
X0Y1003D02*
X7Y1003D01*
X4704Y1003D02*
X4711Y1003D01*
X0Y1002D02*
X7Y1002D01*
X4704Y1002D02*
X4711Y1002D01*
X0Y1001D02*
X7Y1001D01*
X4704Y1001D02*
X4711Y1001D01*
X0Y1000D02*
X7Y1000D01*
X4704Y1000D02*
X4711Y1000D01*
X0Y999D02*
X7Y999D01*
X4704Y999D02*
X4711Y999D01*
X0Y998D02*
X7Y998D01*
X4704Y998D02*
X4711Y998D01*
X0Y997D02*
X7Y997D01*
X4704Y997D02*
X4711Y997D01*
X0Y996D02*
X7Y996D01*
X4704Y996D02*
X4711Y996D01*
X0Y995D02*
X7Y995D01*
X4704Y995D02*
X4711Y995D01*
X0Y994D02*
X7Y994D01*
X4704Y994D02*
X4711Y994D01*
X0Y993D02*
X7Y993D01*
X4704Y993D02*
X4711Y993D01*
X0Y992D02*
X7Y992D01*
X4704Y992D02*
X4711Y992D01*
X0Y991D02*
X7Y991D01*
X4704Y991D02*
X4711Y991D01*
X0Y990D02*
X7Y990D01*
X4704Y990D02*
X4711Y990D01*
X0Y989D02*
X7Y989D01*
X4704Y989D02*
X4711Y989D01*
X0Y988D02*
X7Y988D01*
X4704Y988D02*
X4711Y988D01*
X0Y987D02*
X7Y987D01*
X4704Y987D02*
X4711Y987D01*
X0Y986D02*
X7Y986D01*
X4704Y986D02*
X4711Y986D01*
X0Y985D02*
X7Y985D01*
X4704Y985D02*
X4711Y985D01*
X0Y984D02*
X7Y984D01*
X4704Y984D02*
X4711Y984D01*
X0Y983D02*
X7Y983D01*
X4704Y983D02*
X4711Y983D01*
X0Y982D02*
X7Y982D01*
X4704Y982D02*
X4711Y982D01*
X0Y981D02*
X7Y981D01*
X4704Y981D02*
X4711Y981D01*
X0Y980D02*
X7Y980D01*
X4704Y980D02*
X4711Y980D01*
X0Y979D02*
X7Y979D01*
X4704Y979D02*
X4711Y979D01*
X0Y978D02*
X7Y978D01*
X4704Y978D02*
X4711Y978D01*
X0Y977D02*
X7Y977D01*
X4704Y977D02*
X4711Y977D01*
X0Y976D02*
X7Y976D01*
X4704Y976D02*
X4711Y976D01*
X0Y975D02*
X7Y975D01*
X4704Y975D02*
X4711Y975D01*
X0Y974D02*
X7Y974D01*
X4704Y974D02*
X4711Y974D01*
X0Y973D02*
X7Y973D01*
X4704Y973D02*
X4711Y973D01*
X0Y972D02*
X7Y972D01*
X4704Y972D02*
X4711Y972D01*
X0Y971D02*
X7Y971D01*
X4704Y971D02*
X4711Y971D01*
X0Y970D02*
X7Y970D01*
X4704Y970D02*
X4711Y970D01*
X0Y969D02*
X7Y969D01*
X4704Y969D02*
X4711Y969D01*
X0Y968D02*
X7Y968D01*
X4704Y968D02*
X4711Y968D01*
X0Y967D02*
X7Y967D01*
X4704Y967D02*
X4711Y967D01*
X0Y966D02*
X7Y966D01*
X4704Y966D02*
X4711Y966D01*
X0Y965D02*
X7Y965D01*
X4704Y965D02*
X4711Y965D01*
X0Y964D02*
X7Y964D01*
X4704Y964D02*
X4711Y964D01*
X0Y963D02*
X7Y963D01*
X4704Y963D02*
X4711Y963D01*
X0Y962D02*
X7Y962D01*
X4704Y962D02*
X4711Y962D01*
X0Y961D02*
X7Y961D01*
X4704Y961D02*
X4711Y961D01*
X0Y960D02*
X7Y960D01*
X4704Y960D02*
X4711Y960D01*
X0Y959D02*
X7Y959D01*
X4704Y959D02*
X4711Y959D01*
X0Y958D02*
X7Y958D01*
X4704Y958D02*
X4711Y958D01*
X0Y957D02*
X7Y957D01*
X4704Y957D02*
X4711Y957D01*
X0Y956D02*
X7Y956D01*
X4704Y956D02*
X4711Y956D01*
X0Y955D02*
X7Y955D01*
X4704Y955D02*
X4711Y955D01*
X0Y954D02*
X7Y954D01*
X4704Y954D02*
X4711Y954D01*
X0Y953D02*
X7Y953D01*
X4704Y953D02*
X4711Y953D01*
X0Y952D02*
X7Y952D01*
X4704Y952D02*
X4711Y952D01*
X0Y951D02*
X7Y951D01*
X4704Y951D02*
X4711Y951D01*
X0Y950D02*
X7Y950D01*
X4704Y950D02*
X4711Y950D01*
X0Y949D02*
X7Y949D01*
X4704Y949D02*
X4711Y949D01*
X0Y948D02*
X7Y948D01*
X4704Y948D02*
X4711Y948D01*
X0Y947D02*
X7Y947D01*
X4704Y947D02*
X4711Y947D01*
X0Y946D02*
X7Y946D01*
X4704Y946D02*
X4711Y946D01*
X0Y945D02*
X7Y945D01*
X4704Y945D02*
X4711Y945D01*
X0Y944D02*
X7Y944D01*
X4704Y944D02*
X4711Y944D01*
X0Y943D02*
X7Y943D01*
X4704Y943D02*
X4711Y943D01*
X0Y942D02*
X7Y942D01*
X4704Y942D02*
X4711Y942D01*
X0Y941D02*
X7Y941D01*
X4704Y941D02*
X4711Y941D01*
X0Y940D02*
X7Y940D01*
X4704Y940D02*
X4711Y940D01*
X0Y939D02*
X7Y939D01*
X4704Y939D02*
X4711Y939D01*
X0Y938D02*
X7Y938D01*
X4704Y938D02*
X4711Y938D01*
X0Y937D02*
X7Y937D01*
X4704Y937D02*
X4711Y937D01*
X0Y936D02*
X7Y936D01*
X4704Y936D02*
X4711Y936D01*
X0Y935D02*
X7Y935D01*
X4704Y935D02*
X4711Y935D01*
X0Y934D02*
X7Y934D01*
X4704Y934D02*
X4711Y934D01*
X0Y933D02*
X7Y933D01*
X4704Y933D02*
X4711Y933D01*
X0Y932D02*
X7Y932D01*
X4704Y932D02*
X4711Y932D01*
X0Y931D02*
X7Y931D01*
X4704Y931D02*
X4711Y931D01*
X0Y930D02*
X7Y930D01*
X4704Y930D02*
X4711Y930D01*
X0Y929D02*
X7Y929D01*
X4704Y929D02*
X4711Y929D01*
X0Y928D02*
X7Y928D01*
X4704Y928D02*
X4711Y928D01*
X0Y927D02*
X7Y927D01*
X4704Y927D02*
X4711Y927D01*
X0Y926D02*
X7Y926D01*
X4704Y926D02*
X4711Y926D01*
X0Y925D02*
X7Y925D01*
X4704Y925D02*
X4711Y925D01*
X0Y924D02*
X7Y924D01*
X4704Y924D02*
X4711Y924D01*
X0Y923D02*
X7Y923D01*
X4704Y923D02*
X4711Y923D01*
X0Y922D02*
X7Y922D01*
X4704Y922D02*
X4711Y922D01*
X0Y921D02*
X7Y921D01*
X4704Y921D02*
X4711Y921D01*
X0Y920D02*
X7Y920D01*
X4704Y920D02*
X4711Y920D01*
X0Y919D02*
X7Y919D01*
X4704Y919D02*
X4711Y919D01*
X0Y918D02*
X7Y918D01*
X4704Y918D02*
X4711Y918D01*
X0Y917D02*
X7Y917D01*
X4704Y917D02*
X4711Y917D01*
X0Y916D02*
X7Y916D01*
X4704Y916D02*
X4711Y916D01*
X0Y915D02*
X7Y915D01*
X4704Y915D02*
X4711Y915D01*
X0Y914D02*
X7Y914D01*
X4704Y914D02*
X4711Y914D01*
X0Y913D02*
X7Y913D01*
X4704Y913D02*
X4711Y913D01*
X0Y912D02*
X7Y912D01*
X4704Y912D02*
X4711Y912D01*
X0Y911D02*
X7Y911D01*
X4704Y911D02*
X4711Y911D01*
X0Y910D02*
X7Y910D01*
X4704Y910D02*
X4711Y910D01*
X0Y909D02*
X7Y909D01*
X4704Y909D02*
X4711Y909D01*
X0Y908D02*
X7Y908D01*
X4704Y908D02*
X4711Y908D01*
X0Y907D02*
X7Y907D01*
X4704Y907D02*
X4711Y907D01*
X0Y906D02*
X7Y906D01*
X4704Y906D02*
X4711Y906D01*
X0Y905D02*
X7Y905D01*
X4704Y905D02*
X4711Y905D01*
X0Y904D02*
X7Y904D01*
X4704Y904D02*
X4711Y904D01*
X0Y903D02*
X7Y903D01*
X4704Y903D02*
X4711Y903D01*
X0Y902D02*
X7Y902D01*
X4704Y902D02*
X4711Y902D01*
X0Y901D02*
X7Y901D01*
X4704Y901D02*
X4711Y901D01*
X0Y900D02*
X7Y900D01*
X4704Y900D02*
X4711Y900D01*
X0Y899D02*
X7Y899D01*
X4704Y899D02*
X4711Y899D01*
X0Y898D02*
X7Y898D01*
X4704Y898D02*
X4711Y898D01*
X0Y897D02*
X7Y897D01*
X4704Y897D02*
X4711Y897D01*
X0Y896D02*
X7Y896D01*
X4704Y896D02*
X4711Y896D01*
X0Y895D02*
X7Y895D01*
X4704Y895D02*
X4711Y895D01*
X0Y894D02*
X7Y894D01*
X4704Y894D02*
X4711Y894D01*
X0Y893D02*
X7Y893D01*
X4704Y893D02*
X4711Y893D01*
X0Y892D02*
X7Y892D01*
X4704Y892D02*
X4711Y892D01*
X0Y891D02*
X7Y891D01*
X4704Y891D02*
X4711Y891D01*
X0Y890D02*
X7Y890D01*
X4704Y890D02*
X4711Y890D01*
X0Y889D02*
X7Y889D01*
X4704Y889D02*
X4711Y889D01*
X0Y888D02*
X7Y888D01*
X4704Y888D02*
X4711Y888D01*
X0Y887D02*
X7Y887D01*
X4704Y887D02*
X4711Y887D01*
X0Y886D02*
X7Y886D01*
X4704Y886D02*
X4711Y886D01*
X0Y885D02*
X7Y885D01*
X4704Y885D02*
X4711Y885D01*
X0Y884D02*
X7Y884D01*
X4704Y884D02*
X4711Y884D01*
X0Y883D02*
X7Y883D01*
X4704Y883D02*
X4711Y883D01*
X0Y882D02*
X7Y882D01*
X4704Y882D02*
X4711Y882D01*
X0Y881D02*
X7Y881D01*
X4704Y881D02*
X4711Y881D01*
X0Y880D02*
X7Y880D01*
X4704Y880D02*
X4711Y880D01*
X0Y879D02*
X7Y879D01*
X4704Y879D02*
X4711Y879D01*
X0Y878D02*
X7Y878D01*
X4704Y878D02*
X4711Y878D01*
X0Y877D02*
X7Y877D01*
X4704Y877D02*
X4711Y877D01*
X0Y876D02*
X7Y876D01*
X4704Y876D02*
X4711Y876D01*
X0Y875D02*
X7Y875D01*
X4704Y875D02*
X4711Y875D01*
X0Y874D02*
X7Y874D01*
X4704Y874D02*
X4711Y874D01*
X0Y873D02*
X7Y873D01*
X4704Y873D02*
X4711Y873D01*
X0Y872D02*
X7Y872D01*
X4704Y872D02*
X4711Y872D01*
X0Y871D02*
X7Y871D01*
X4704Y871D02*
X4711Y871D01*
X0Y870D02*
X7Y870D01*
X4704Y870D02*
X4711Y870D01*
X0Y869D02*
X7Y869D01*
X4704Y869D02*
X4711Y869D01*
X0Y868D02*
X7Y868D01*
X4704Y868D02*
X4711Y868D01*
X0Y867D02*
X7Y867D01*
X4704Y867D02*
X4711Y867D01*
X0Y866D02*
X7Y866D01*
X4704Y866D02*
X4711Y866D01*
X0Y865D02*
X7Y865D01*
X4704Y865D02*
X4711Y865D01*
X0Y864D02*
X7Y864D01*
X4704Y864D02*
X4711Y864D01*
X0Y863D02*
X7Y863D01*
X4704Y863D02*
X4711Y863D01*
X0Y862D02*
X7Y862D01*
X4704Y862D02*
X4711Y862D01*
X0Y861D02*
X7Y861D01*
X4704Y861D02*
X4711Y861D01*
X0Y860D02*
X7Y860D01*
X4704Y860D02*
X4711Y860D01*
X0Y859D02*
X7Y859D01*
X4704Y859D02*
X4711Y859D01*
X0Y858D02*
X7Y858D01*
X4704Y858D02*
X4711Y858D01*
X0Y857D02*
X7Y857D01*
X4704Y857D02*
X4711Y857D01*
X0Y856D02*
X7Y856D01*
X4704Y856D02*
X4711Y856D01*
X0Y855D02*
X7Y855D01*
X4704Y855D02*
X4711Y855D01*
X0Y854D02*
X7Y854D01*
X4704Y854D02*
X4711Y854D01*
X0Y853D02*
X7Y853D01*
X4704Y853D02*
X4711Y853D01*
X0Y852D02*
X7Y852D01*
X4704Y852D02*
X4711Y852D01*
X0Y851D02*
X7Y851D01*
X4704Y851D02*
X4711Y851D01*
X0Y850D02*
X7Y850D01*
X4704Y850D02*
X4711Y850D01*
X0Y849D02*
X7Y849D01*
X4704Y849D02*
X4711Y849D01*
X0Y848D02*
X7Y848D01*
X4704Y848D02*
X4711Y848D01*
X0Y847D02*
X7Y847D01*
X4704Y847D02*
X4711Y847D01*
X0Y846D02*
X7Y846D01*
X4704Y846D02*
X4711Y846D01*
X0Y845D02*
X7Y845D01*
X4704Y845D02*
X4711Y845D01*
X0Y844D02*
X7Y844D01*
X4704Y844D02*
X4711Y844D01*
X0Y843D02*
X7Y843D01*
X4704Y843D02*
X4711Y843D01*
X0Y842D02*
X7Y842D01*
X4704Y842D02*
X4711Y842D01*
X0Y841D02*
X7Y841D01*
X4704Y841D02*
X4711Y841D01*
X0Y840D02*
X7Y840D01*
X4704Y840D02*
X4711Y840D01*
X0Y839D02*
X7Y839D01*
X4704Y839D02*
X4711Y839D01*
X0Y838D02*
X7Y838D01*
X4704Y838D02*
X4711Y838D01*
X0Y837D02*
X7Y837D01*
X4704Y837D02*
X4711Y837D01*
X0Y836D02*
X7Y836D01*
X4704Y836D02*
X4711Y836D01*
X0Y835D02*
X7Y835D01*
X4704Y835D02*
X4711Y835D01*
X0Y834D02*
X7Y834D01*
X4704Y834D02*
X4711Y834D01*
X0Y833D02*
X7Y833D01*
X4704Y833D02*
X4711Y833D01*
X0Y832D02*
X7Y832D01*
X4704Y832D02*
X4711Y832D01*
X0Y831D02*
X7Y831D01*
X4704Y831D02*
X4711Y831D01*
X0Y830D02*
X7Y830D01*
X4704Y830D02*
X4711Y830D01*
X0Y829D02*
X7Y829D01*
X4704Y829D02*
X4711Y829D01*
X0Y828D02*
X7Y828D01*
X4704Y828D02*
X4711Y828D01*
X0Y827D02*
X7Y827D01*
X4704Y827D02*
X4711Y827D01*
X0Y826D02*
X7Y826D01*
X4704Y826D02*
X4711Y826D01*
X0Y825D02*
X7Y825D01*
X4704Y825D02*
X4711Y825D01*
X0Y824D02*
X7Y824D01*
X4704Y824D02*
X4711Y824D01*
X0Y823D02*
X7Y823D01*
X4704Y823D02*
X4711Y823D01*
X0Y822D02*
X7Y822D01*
X4704Y822D02*
X4711Y822D01*
X0Y821D02*
X7Y821D01*
X4704Y821D02*
X4711Y821D01*
X0Y820D02*
X7Y820D01*
X4704Y820D02*
X4711Y820D01*
X0Y819D02*
X7Y819D01*
X4704Y819D02*
X4711Y819D01*
X0Y818D02*
X7Y818D01*
X4704Y818D02*
X4711Y818D01*
X0Y817D02*
X7Y817D01*
X4704Y817D02*
X4711Y817D01*
X0Y816D02*
X7Y816D01*
X4704Y816D02*
X4711Y816D01*
X0Y815D02*
X7Y815D01*
X4704Y815D02*
X4711Y815D01*
X0Y814D02*
X7Y814D01*
X4704Y814D02*
X4711Y814D01*
X0Y813D02*
X7Y813D01*
X4704Y813D02*
X4711Y813D01*
X0Y812D02*
X7Y812D01*
X4704Y812D02*
X4711Y812D01*
X0Y811D02*
X7Y811D01*
X4704Y811D02*
X4711Y811D01*
X0Y810D02*
X7Y810D01*
X4704Y810D02*
X4711Y810D01*
X0Y809D02*
X7Y809D01*
X4704Y809D02*
X4711Y809D01*
X0Y808D02*
X7Y808D01*
X4704Y808D02*
X4711Y808D01*
X0Y807D02*
X7Y807D01*
X4704Y807D02*
X4711Y807D01*
X0Y806D02*
X7Y806D01*
X4704Y806D02*
X4711Y806D01*
X0Y805D02*
X7Y805D01*
X4704Y805D02*
X4711Y805D01*
X0Y804D02*
X7Y804D01*
X4704Y804D02*
X4711Y804D01*
X0Y803D02*
X7Y803D01*
X4704Y803D02*
X4711Y803D01*
X0Y802D02*
X7Y802D01*
X4704Y802D02*
X4711Y802D01*
X0Y801D02*
X7Y801D01*
X4704Y801D02*
X4711Y801D01*
X0Y800D02*
X7Y800D01*
X4704Y800D02*
X4711Y800D01*
X0Y799D02*
X7Y799D01*
X4704Y799D02*
X4711Y799D01*
X0Y798D02*
X7Y798D01*
X4704Y798D02*
X4711Y798D01*
X0Y797D02*
X7Y797D01*
X4704Y797D02*
X4711Y797D01*
X0Y796D02*
X7Y796D01*
X4704Y796D02*
X4711Y796D01*
X0Y795D02*
X7Y795D01*
X4704Y795D02*
X4711Y795D01*
X0Y794D02*
X7Y794D01*
X4704Y794D02*
X4711Y794D01*
X0Y793D02*
X7Y793D01*
X4704Y793D02*
X4711Y793D01*
X0Y792D02*
X7Y792D01*
X4704Y792D02*
X4711Y792D01*
X0Y791D02*
X7Y791D01*
X4704Y791D02*
X4711Y791D01*
X0Y790D02*
X7Y790D01*
X4704Y790D02*
X4711Y790D01*
X0Y789D02*
X7Y789D01*
X4704Y789D02*
X4711Y789D01*
X0Y788D02*
X7Y788D01*
X4704Y788D02*
X4711Y788D01*
X0Y787D02*
X7Y787D01*
X4704Y787D02*
X4711Y787D01*
X0Y786D02*
X7Y786D01*
X4704Y786D02*
X4711Y786D01*
X0Y785D02*
X7Y785D01*
X4704Y785D02*
X4711Y785D01*
X0Y784D02*
X7Y784D01*
X4704Y784D02*
X4711Y784D01*
X0Y783D02*
X7Y783D01*
X4704Y783D02*
X4711Y783D01*
X0Y782D02*
X7Y782D01*
X4704Y782D02*
X4711Y782D01*
X0Y781D02*
X7Y781D01*
X4704Y781D02*
X4711Y781D01*
X0Y780D02*
X7Y780D01*
X4704Y780D02*
X4711Y780D01*
X0Y779D02*
X7Y779D01*
X4704Y779D02*
X4711Y779D01*
X0Y778D02*
X7Y778D01*
X4704Y778D02*
X4711Y778D01*
X0Y777D02*
X7Y777D01*
X4704Y777D02*
X4711Y777D01*
X0Y776D02*
X7Y776D01*
X4704Y776D02*
X4711Y776D01*
X0Y775D02*
X7Y775D01*
X4704Y775D02*
X4711Y775D01*
X0Y774D02*
X7Y774D01*
X4704Y774D02*
X4711Y774D01*
X0Y773D02*
X7Y773D01*
X4704Y773D02*
X4711Y773D01*
X0Y772D02*
X7Y772D01*
X4704Y772D02*
X4711Y772D01*
X0Y771D02*
X7Y771D01*
X4704Y771D02*
X4711Y771D01*
X0Y770D02*
X7Y770D01*
X4704Y770D02*
X4711Y770D01*
X0Y769D02*
X7Y769D01*
X4704Y769D02*
X4711Y769D01*
X0Y768D02*
X7Y768D01*
X4704Y768D02*
X4711Y768D01*
X0Y767D02*
X7Y767D01*
X4704Y767D02*
X4711Y767D01*
X0Y766D02*
X7Y766D01*
X4704Y766D02*
X4711Y766D01*
X0Y765D02*
X7Y765D01*
X4704Y765D02*
X4711Y765D01*
X0Y764D02*
X7Y764D01*
X4704Y764D02*
X4711Y764D01*
X0Y763D02*
X7Y763D01*
X4704Y763D02*
X4711Y763D01*
X0Y762D02*
X7Y762D01*
X4704Y762D02*
X4711Y762D01*
X0Y761D02*
X7Y761D01*
X4704Y761D02*
X4711Y761D01*
X0Y760D02*
X7Y760D01*
X4704Y760D02*
X4711Y760D01*
X0Y759D02*
X7Y759D01*
X4704Y759D02*
X4711Y759D01*
X0Y758D02*
X7Y758D01*
X4704Y758D02*
X4711Y758D01*
X0Y757D02*
X7Y757D01*
X4704Y757D02*
X4711Y757D01*
X0Y756D02*
X7Y756D01*
X4704Y756D02*
X4711Y756D01*
X0Y755D02*
X7Y755D01*
X4704Y755D02*
X4711Y755D01*
X0Y754D02*
X7Y754D01*
X4704Y754D02*
X4711Y754D01*
X0Y753D02*
X7Y753D01*
X4704Y753D02*
X4711Y753D01*
X0Y752D02*
X7Y752D01*
X4704Y752D02*
X4711Y752D01*
X0Y751D02*
X7Y751D01*
X4704Y751D02*
X4711Y751D01*
X0Y750D02*
X7Y750D01*
X4704Y750D02*
X4711Y750D01*
X0Y749D02*
X7Y749D01*
X4704Y749D02*
X4711Y749D01*
X0Y748D02*
X7Y748D01*
X4704Y748D02*
X4711Y748D01*
X0Y747D02*
X7Y747D01*
X4704Y747D02*
X4711Y747D01*
X0Y746D02*
X7Y746D01*
X4704Y746D02*
X4711Y746D01*
X0Y745D02*
X7Y745D01*
X4704Y745D02*
X4711Y745D01*
X0Y744D02*
X7Y744D01*
X4704Y744D02*
X4711Y744D01*
X0Y743D02*
X7Y743D01*
X4704Y743D02*
X4711Y743D01*
X0Y742D02*
X7Y742D01*
X4704Y742D02*
X4711Y742D01*
X0Y741D02*
X7Y741D01*
X4704Y741D02*
X4711Y741D01*
X0Y740D02*
X7Y740D01*
X4704Y740D02*
X4711Y740D01*
X0Y739D02*
X7Y739D01*
X4704Y739D02*
X4711Y739D01*
X0Y738D02*
X7Y738D01*
X4704Y738D02*
X4711Y738D01*
X0Y737D02*
X7Y737D01*
X4704Y737D02*
X4711Y737D01*
X0Y736D02*
X7Y736D01*
X4704Y736D02*
X4711Y736D01*
X0Y735D02*
X7Y735D01*
X4704Y735D02*
X4711Y735D01*
X0Y734D02*
X7Y734D01*
X4704Y734D02*
X4711Y734D01*
X0Y733D02*
X7Y733D01*
X4704Y733D02*
X4711Y733D01*
X0Y732D02*
X7Y732D01*
X4704Y732D02*
X4711Y732D01*
X0Y731D02*
X7Y731D01*
X4704Y731D02*
X4711Y731D01*
X0Y730D02*
X7Y730D01*
X4704Y730D02*
X4711Y730D01*
X0Y729D02*
X7Y729D01*
X4704Y729D02*
X4711Y729D01*
X0Y728D02*
X7Y728D01*
X4704Y728D02*
X4711Y728D01*
X0Y727D02*
X7Y727D01*
X4704Y727D02*
X4711Y727D01*
X0Y726D02*
X7Y726D01*
X4704Y726D02*
X4711Y726D01*
X0Y725D02*
X7Y725D01*
X4704Y725D02*
X4711Y725D01*
X0Y724D02*
X7Y724D01*
X4704Y724D02*
X4711Y724D01*
X0Y723D02*
X7Y723D01*
X4704Y723D02*
X4711Y723D01*
X0Y722D02*
X7Y722D01*
X4704Y722D02*
X4711Y722D01*
X0Y721D02*
X7Y721D01*
X4704Y721D02*
X4711Y721D01*
X0Y720D02*
X7Y720D01*
X4704Y720D02*
X4711Y720D01*
X0Y719D02*
X7Y719D01*
X4704Y719D02*
X4711Y719D01*
X0Y718D02*
X7Y718D01*
X4704Y718D02*
X4711Y718D01*
X0Y717D02*
X7Y717D01*
X4704Y717D02*
X4711Y717D01*
X0Y716D02*
X7Y716D01*
X4704Y716D02*
X4711Y716D01*
X0Y715D02*
X7Y715D01*
X4704Y715D02*
X4711Y715D01*
X0Y714D02*
X7Y714D01*
X4704Y714D02*
X4711Y714D01*
X0Y713D02*
X7Y713D01*
X4704Y713D02*
X4711Y713D01*
X0Y712D02*
X7Y712D01*
X4704Y712D02*
X4711Y712D01*
X0Y711D02*
X7Y711D01*
X4704Y711D02*
X4711Y711D01*
X0Y710D02*
X7Y710D01*
X4704Y710D02*
X4711Y710D01*
X0Y709D02*
X7Y709D01*
X4704Y709D02*
X4711Y709D01*
X0Y708D02*
X7Y708D01*
X4704Y708D02*
X4711Y708D01*
X0Y707D02*
X7Y707D01*
X4704Y707D02*
X4711Y707D01*
X0Y706D02*
X7Y706D01*
X4704Y706D02*
X4711Y706D01*
X0Y705D02*
X7Y705D01*
X4704Y705D02*
X4711Y705D01*
X0Y704D02*
X7Y704D01*
X4704Y704D02*
X4711Y704D01*
X0Y703D02*
X7Y703D01*
X4704Y703D02*
X4711Y703D01*
X0Y702D02*
X7Y702D01*
X4704Y702D02*
X4711Y702D01*
X0Y701D02*
X7Y701D01*
X4704Y701D02*
X4711Y701D01*
X0Y700D02*
X7Y700D01*
X4704Y700D02*
X4711Y700D01*
X0Y699D02*
X7Y699D01*
X4704Y699D02*
X4711Y699D01*
X0Y698D02*
X7Y698D01*
X4704Y698D02*
X4711Y698D01*
X0Y697D02*
X7Y697D01*
X4704Y697D02*
X4711Y697D01*
X0Y696D02*
X7Y696D01*
X4704Y696D02*
X4711Y696D01*
X0Y695D02*
X7Y695D01*
X4704Y695D02*
X4711Y695D01*
X0Y694D02*
X7Y694D01*
X4704Y694D02*
X4711Y694D01*
X0Y693D02*
X7Y693D01*
X4704Y693D02*
X4711Y693D01*
X0Y692D02*
X7Y692D01*
X4704Y692D02*
X4711Y692D01*
X0Y691D02*
X7Y691D01*
X4704Y691D02*
X4711Y691D01*
X0Y690D02*
X7Y690D01*
X4704Y690D02*
X4711Y690D01*
X0Y689D02*
X7Y689D01*
X4704Y689D02*
X4711Y689D01*
X0Y688D02*
X7Y688D01*
X4704Y688D02*
X4711Y688D01*
X0Y687D02*
X7Y687D01*
X4704Y687D02*
X4711Y687D01*
X0Y686D02*
X7Y686D01*
X4704Y686D02*
X4711Y686D01*
X0Y685D02*
X7Y685D01*
X4704Y685D02*
X4711Y685D01*
X0Y684D02*
X7Y684D01*
X4704Y684D02*
X4711Y684D01*
X0Y683D02*
X7Y683D01*
X4704Y683D02*
X4711Y683D01*
X0Y682D02*
X7Y682D01*
X4704Y682D02*
X4711Y682D01*
X0Y681D02*
X7Y681D01*
X4704Y681D02*
X4711Y681D01*
X0Y680D02*
X7Y680D01*
X4704Y680D02*
X4711Y680D01*
X0Y679D02*
X7Y679D01*
X4704Y679D02*
X4711Y679D01*
X0Y678D02*
X7Y678D01*
X4704Y678D02*
X4711Y678D01*
X0Y677D02*
X7Y677D01*
X4704Y677D02*
X4711Y677D01*
X0Y676D02*
X7Y676D01*
X4704Y676D02*
X4711Y676D01*
X0Y675D02*
X7Y675D01*
X4704Y675D02*
X4711Y675D01*
X0Y674D02*
X7Y674D01*
X4704Y674D02*
X4711Y674D01*
X0Y673D02*
X7Y673D01*
X4704Y673D02*
X4711Y673D01*
X0Y672D02*
X7Y672D01*
X4704Y672D02*
X4711Y672D01*
X0Y671D02*
X7Y671D01*
X4704Y671D02*
X4711Y671D01*
X0Y670D02*
X7Y670D01*
X4704Y670D02*
X4711Y670D01*
X0Y669D02*
X7Y669D01*
X4704Y669D02*
X4711Y669D01*
X0Y668D02*
X7Y668D01*
X4704Y668D02*
X4711Y668D01*
X0Y667D02*
X7Y667D01*
X4704Y667D02*
X4711Y667D01*
X0Y666D02*
X7Y666D01*
X4704Y666D02*
X4711Y666D01*
X0Y665D02*
X7Y665D01*
X4704Y665D02*
X4711Y665D01*
X0Y664D02*
X7Y664D01*
X4704Y664D02*
X4711Y664D01*
X0Y663D02*
X7Y663D01*
X4704Y663D02*
X4711Y663D01*
X0Y662D02*
X7Y662D01*
X4704Y662D02*
X4711Y662D01*
X0Y661D02*
X7Y661D01*
X4704Y661D02*
X4711Y661D01*
X0Y660D02*
X7Y660D01*
X4704Y660D02*
X4711Y660D01*
X0Y659D02*
X7Y659D01*
X4704Y659D02*
X4711Y659D01*
X0Y658D02*
X7Y658D01*
X4704Y658D02*
X4711Y658D01*
X0Y657D02*
X7Y657D01*
X4704Y657D02*
X4711Y657D01*
X0Y656D02*
X7Y656D01*
X4704Y656D02*
X4711Y656D01*
X0Y655D02*
X7Y655D01*
X4704Y655D02*
X4711Y655D01*
X0Y654D02*
X7Y654D01*
X4704Y654D02*
X4711Y654D01*
X0Y653D02*
X7Y653D01*
X4704Y653D02*
X4711Y653D01*
X0Y652D02*
X7Y652D01*
X4704Y652D02*
X4711Y652D01*
X0Y651D02*
X7Y651D01*
X4704Y651D02*
X4711Y651D01*
X0Y650D02*
X7Y650D01*
X4704Y650D02*
X4711Y650D01*
X0Y649D02*
X7Y649D01*
X4704Y649D02*
X4711Y649D01*
X0Y648D02*
X7Y648D01*
X4704Y648D02*
X4711Y648D01*
X0Y647D02*
X7Y647D01*
X4704Y647D02*
X4711Y647D01*
X0Y646D02*
X7Y646D01*
X4704Y646D02*
X4711Y646D01*
X0Y645D02*
X7Y645D01*
X4704Y645D02*
X4711Y645D01*
X0Y644D02*
X7Y644D01*
X4704Y644D02*
X4711Y644D01*
X0Y643D02*
X7Y643D01*
X4704Y643D02*
X4711Y643D01*
X0Y642D02*
X7Y642D01*
X4704Y642D02*
X4711Y642D01*
X0Y641D02*
X7Y641D01*
X4704Y641D02*
X4711Y641D01*
X0Y640D02*
X7Y640D01*
X4704Y640D02*
X4711Y640D01*
X0Y639D02*
X7Y639D01*
X4704Y639D02*
X4711Y639D01*
X0Y638D02*
X7Y638D01*
X4704Y638D02*
X4711Y638D01*
X0Y637D02*
X7Y637D01*
X4704Y637D02*
X4711Y637D01*
X0Y636D02*
X7Y636D01*
X4704Y636D02*
X4711Y636D01*
X0Y635D02*
X7Y635D01*
X4704Y635D02*
X4711Y635D01*
X0Y634D02*
X7Y634D01*
X4704Y634D02*
X4711Y634D01*
X0Y633D02*
X7Y633D01*
X4704Y633D02*
X4711Y633D01*
X0Y632D02*
X7Y632D01*
X4704Y632D02*
X4711Y632D01*
X0Y631D02*
X7Y631D01*
X4704Y631D02*
X4711Y631D01*
X0Y630D02*
X7Y630D01*
X4704Y630D02*
X4711Y630D01*
X0Y629D02*
X7Y629D01*
X4704Y629D02*
X4711Y629D01*
X0Y628D02*
X7Y628D01*
X4704Y628D02*
X4711Y628D01*
X0Y627D02*
X7Y627D01*
X4704Y627D02*
X4711Y627D01*
X0Y626D02*
X7Y626D01*
X4704Y626D02*
X4711Y626D01*
X0Y625D02*
X7Y625D01*
X4704Y625D02*
X4711Y625D01*
X0Y624D02*
X7Y624D01*
X4704Y624D02*
X4711Y624D01*
X0Y623D02*
X7Y623D01*
X4704Y623D02*
X4711Y623D01*
X0Y622D02*
X7Y622D01*
X4704Y622D02*
X4711Y622D01*
X0Y621D02*
X7Y621D01*
X4704Y621D02*
X4711Y621D01*
X0Y620D02*
X7Y620D01*
X4704Y620D02*
X4711Y620D01*
X0Y619D02*
X7Y619D01*
X4704Y619D02*
X4711Y619D01*
X0Y618D02*
X7Y618D01*
X4704Y618D02*
X4711Y618D01*
X0Y617D02*
X7Y617D01*
X4704Y617D02*
X4711Y617D01*
X0Y616D02*
X7Y616D01*
X4704Y616D02*
X4711Y616D01*
X0Y615D02*
X7Y615D01*
X4704Y615D02*
X4711Y615D01*
X0Y614D02*
X7Y614D01*
X4704Y614D02*
X4711Y614D01*
X0Y613D02*
X7Y613D01*
X4704Y613D02*
X4711Y613D01*
X0Y612D02*
X7Y612D01*
X4704Y612D02*
X4711Y612D01*
X0Y611D02*
X7Y611D01*
X4704Y611D02*
X4711Y611D01*
X0Y610D02*
X7Y610D01*
X4704Y610D02*
X4711Y610D01*
X0Y609D02*
X7Y609D01*
X4704Y609D02*
X4711Y609D01*
X0Y608D02*
X7Y608D01*
X4704Y608D02*
X4711Y608D01*
X0Y607D02*
X7Y607D01*
X4704Y607D02*
X4711Y607D01*
X0Y606D02*
X7Y606D01*
X4704Y606D02*
X4711Y606D01*
X0Y605D02*
X7Y605D01*
X4704Y605D02*
X4711Y605D01*
X0Y604D02*
X7Y604D01*
X4704Y604D02*
X4711Y604D01*
X0Y603D02*
X7Y603D01*
X4704Y603D02*
X4711Y603D01*
X0Y602D02*
X7Y602D01*
X4704Y602D02*
X4711Y602D01*
X0Y601D02*
X7Y601D01*
X4704Y601D02*
X4711Y601D01*
X0Y600D02*
X7Y600D01*
X4704Y600D02*
X4711Y600D01*
X0Y599D02*
X7Y599D01*
X4704Y599D02*
X4711Y599D01*
X0Y598D02*
X7Y598D01*
X4704Y598D02*
X4711Y598D01*
X0Y597D02*
X7Y597D01*
X4704Y597D02*
X4711Y597D01*
X0Y596D02*
X7Y596D01*
X4704Y596D02*
X4711Y596D01*
X0Y595D02*
X7Y595D01*
X4704Y595D02*
X4711Y595D01*
X0Y594D02*
X7Y594D01*
X4704Y594D02*
X4711Y594D01*
X0Y593D02*
X7Y593D01*
X4704Y593D02*
X4711Y593D01*
X0Y592D02*
X7Y592D01*
X4704Y592D02*
X4711Y592D01*
X0Y591D02*
X7Y591D01*
X4704Y591D02*
X4711Y591D01*
X0Y590D02*
X7Y590D01*
X4704Y590D02*
X4711Y590D01*
X0Y589D02*
X7Y589D01*
X4704Y589D02*
X4711Y589D01*
X0Y588D02*
X7Y588D01*
X4704Y588D02*
X4711Y588D01*
X0Y587D02*
X7Y587D01*
X4704Y587D02*
X4711Y587D01*
X0Y586D02*
X7Y586D01*
X4704Y586D02*
X4711Y586D01*
X0Y585D02*
X7Y585D01*
X4704Y585D02*
X4711Y585D01*
X0Y584D02*
X7Y584D01*
X4704Y584D02*
X4711Y584D01*
X0Y583D02*
X7Y583D01*
X4704Y583D02*
X4711Y583D01*
X0Y582D02*
X7Y582D01*
X4704Y582D02*
X4711Y582D01*
X0Y581D02*
X7Y581D01*
X4704Y581D02*
X4711Y581D01*
X0Y580D02*
X7Y580D01*
X4704Y580D02*
X4711Y580D01*
X0Y579D02*
X7Y579D01*
X4704Y579D02*
X4711Y579D01*
X0Y578D02*
X7Y578D01*
X4704Y578D02*
X4711Y578D01*
X0Y577D02*
X7Y577D01*
X4704Y577D02*
X4711Y577D01*
X0Y576D02*
X7Y576D01*
X4704Y576D02*
X4711Y576D01*
X0Y575D02*
X7Y575D01*
X4704Y575D02*
X4711Y575D01*
X0Y574D02*
X7Y574D01*
X4704Y574D02*
X4711Y574D01*
X0Y573D02*
X7Y573D01*
X4704Y573D02*
X4711Y573D01*
X0Y572D02*
X7Y572D01*
X4704Y572D02*
X4711Y572D01*
X0Y571D02*
X7Y571D01*
X4704Y571D02*
X4711Y571D01*
X0Y570D02*
X7Y570D01*
X4704Y570D02*
X4711Y570D01*
X0Y569D02*
X7Y569D01*
X4704Y569D02*
X4711Y569D01*
X0Y568D02*
X7Y568D01*
X4704Y568D02*
X4711Y568D01*
X0Y567D02*
X7Y567D01*
X4704Y567D02*
X4711Y567D01*
X0Y566D02*
X7Y566D01*
X4704Y566D02*
X4711Y566D01*
X0Y565D02*
X7Y565D01*
X4704Y565D02*
X4711Y565D01*
X0Y564D02*
X7Y564D01*
X4704Y564D02*
X4711Y564D01*
X0Y563D02*
X7Y563D01*
X4704Y563D02*
X4711Y563D01*
X0Y562D02*
X7Y562D01*
X4704Y562D02*
X4711Y562D01*
X0Y561D02*
X7Y561D01*
X4704Y561D02*
X4711Y561D01*
X0Y560D02*
X7Y560D01*
X4704Y560D02*
X4711Y560D01*
X0Y559D02*
X7Y559D01*
X4704Y559D02*
X4711Y559D01*
X0Y558D02*
X7Y558D01*
X4704Y558D02*
X4711Y558D01*
X0Y557D02*
X7Y557D01*
X4704Y557D02*
X4711Y557D01*
X0Y556D02*
X7Y556D01*
X4704Y556D02*
X4711Y556D01*
X0Y555D02*
X7Y555D01*
X4704Y555D02*
X4711Y555D01*
X0Y554D02*
X7Y554D01*
X4704Y554D02*
X4711Y554D01*
X0Y553D02*
X7Y553D01*
X4704Y553D02*
X4711Y553D01*
X0Y552D02*
X7Y552D01*
X4704Y552D02*
X4711Y552D01*
X0Y551D02*
X7Y551D01*
X4704Y551D02*
X4711Y551D01*
X0Y550D02*
X7Y550D01*
X4704Y550D02*
X4711Y550D01*
X0Y549D02*
X7Y549D01*
X4704Y549D02*
X4711Y549D01*
X0Y548D02*
X7Y548D01*
X4704Y548D02*
X4711Y548D01*
X0Y547D02*
X7Y547D01*
X4704Y547D02*
X4711Y547D01*
X0Y546D02*
X7Y546D01*
X4704Y546D02*
X4711Y546D01*
X0Y545D02*
X7Y545D01*
X4704Y545D02*
X4711Y545D01*
X0Y544D02*
X7Y544D01*
X4704Y544D02*
X4711Y544D01*
X0Y543D02*
X7Y543D01*
X4704Y543D02*
X4711Y543D01*
X0Y542D02*
X7Y542D01*
X4704Y542D02*
X4711Y542D01*
X0Y541D02*
X7Y541D01*
X4704Y541D02*
X4711Y541D01*
X0Y540D02*
X7Y540D01*
X4704Y540D02*
X4711Y540D01*
X0Y539D02*
X7Y539D01*
X4704Y539D02*
X4711Y539D01*
X0Y538D02*
X7Y538D01*
X4704Y538D02*
X4711Y538D01*
X0Y537D02*
X7Y537D01*
X4704Y537D02*
X4711Y537D01*
X0Y536D02*
X7Y536D01*
X4704Y536D02*
X4711Y536D01*
X0Y535D02*
X7Y535D01*
X4704Y535D02*
X4711Y535D01*
X0Y534D02*
X7Y534D01*
X4704Y534D02*
X4711Y534D01*
X0Y533D02*
X7Y533D01*
X4704Y533D02*
X4711Y533D01*
X0Y532D02*
X7Y532D01*
X4704Y532D02*
X4711Y532D01*
X0Y531D02*
X7Y531D01*
X4704Y531D02*
X4711Y531D01*
X0Y530D02*
X7Y530D01*
X4704Y530D02*
X4711Y530D01*
X0Y529D02*
X7Y529D01*
X4704Y529D02*
X4711Y529D01*
X0Y528D02*
X7Y528D01*
X4704Y528D02*
X4711Y528D01*
X0Y527D02*
X7Y527D01*
X4704Y527D02*
X4711Y527D01*
X0Y526D02*
X7Y526D01*
X4704Y526D02*
X4711Y526D01*
X0Y525D02*
X7Y525D01*
X4704Y525D02*
X4711Y525D01*
X0Y524D02*
X7Y524D01*
X4704Y524D02*
X4711Y524D01*
X0Y523D02*
X7Y523D01*
X4704Y523D02*
X4711Y523D01*
X0Y522D02*
X7Y522D01*
X4704Y522D02*
X4711Y522D01*
X0Y521D02*
X7Y521D01*
X4704Y521D02*
X4711Y521D01*
X0Y520D02*
X7Y520D01*
X4704Y520D02*
X4711Y520D01*
X0Y519D02*
X7Y519D01*
X4704Y519D02*
X4711Y519D01*
X0Y518D02*
X7Y518D01*
X4704Y518D02*
X4711Y518D01*
X0Y517D02*
X7Y517D01*
X4704Y517D02*
X4711Y517D01*
X0Y516D02*
X7Y516D01*
X4704Y516D02*
X4711Y516D01*
X0Y515D02*
X7Y515D01*
X4704Y515D02*
X4711Y515D01*
X0Y514D02*
X7Y514D01*
X4704Y514D02*
X4711Y514D01*
X0Y513D02*
X7Y513D01*
X4704Y513D02*
X4711Y513D01*
X0Y512D02*
X7Y512D01*
X4704Y512D02*
X4711Y512D01*
X0Y511D02*
X7Y511D01*
X4704Y511D02*
X4711Y511D01*
X0Y510D02*
X7Y510D01*
X4704Y510D02*
X4711Y510D01*
X0Y509D02*
X7Y509D01*
X4704Y509D02*
X4711Y509D01*
X0Y508D02*
X7Y508D01*
X4704Y508D02*
X4711Y508D01*
X0Y507D02*
X7Y507D01*
X4704Y507D02*
X4711Y507D01*
X0Y506D02*
X7Y506D01*
X4704Y506D02*
X4711Y506D01*
X0Y505D02*
X7Y505D01*
X4704Y505D02*
X4711Y505D01*
X0Y504D02*
X7Y504D01*
X4704Y504D02*
X4711Y504D01*
X0Y503D02*
X7Y503D01*
X4704Y503D02*
X4711Y503D01*
X0Y502D02*
X7Y502D01*
X4704Y502D02*
X4711Y502D01*
X0Y501D02*
X7Y501D01*
X4704Y501D02*
X4711Y501D01*
X0Y500D02*
X7Y500D01*
X4704Y500D02*
X4711Y500D01*
X0Y499D02*
X7Y499D01*
X4704Y499D02*
X4711Y499D01*
X0Y498D02*
X7Y498D01*
X4704Y498D02*
X4711Y498D01*
X0Y497D02*
X7Y497D01*
X4704Y497D02*
X4711Y497D01*
X0Y496D02*
X7Y496D01*
X4704Y496D02*
X4711Y496D01*
X0Y495D02*
X7Y495D01*
X4704Y495D02*
X4711Y495D01*
X0Y494D02*
X7Y494D01*
X4704Y494D02*
X4711Y494D01*
X0Y493D02*
X7Y493D01*
X4704Y493D02*
X4711Y493D01*
X0Y492D02*
X7Y492D01*
X4704Y492D02*
X4711Y492D01*
X0Y491D02*
X7Y491D01*
X4704Y491D02*
X4711Y491D01*
X0Y490D02*
X7Y490D01*
X4704Y490D02*
X4711Y490D01*
X0Y489D02*
X7Y489D01*
X4704Y489D02*
X4711Y489D01*
X0Y488D02*
X7Y488D01*
X4704Y488D02*
X4711Y488D01*
X0Y487D02*
X7Y487D01*
X4704Y487D02*
X4711Y487D01*
X0Y486D02*
X7Y486D01*
X4704Y486D02*
X4711Y486D01*
X0Y485D02*
X7Y485D01*
X4704Y485D02*
X4711Y485D01*
X0Y484D02*
X7Y484D01*
X4704Y484D02*
X4711Y484D01*
X0Y483D02*
X7Y483D01*
X4704Y483D02*
X4711Y483D01*
X0Y482D02*
X7Y482D01*
X4704Y482D02*
X4711Y482D01*
X0Y481D02*
X7Y481D01*
X4704Y481D02*
X4711Y481D01*
X0Y480D02*
X7Y480D01*
X4704Y480D02*
X4711Y480D01*
X0Y479D02*
X7Y479D01*
X4704Y479D02*
X4711Y479D01*
X0Y478D02*
X7Y478D01*
X4704Y478D02*
X4711Y478D01*
X0Y477D02*
X7Y477D01*
X4704Y477D02*
X4711Y477D01*
X0Y476D02*
X7Y476D01*
X4704Y476D02*
X4711Y476D01*
X0Y475D02*
X7Y475D01*
X4704Y475D02*
X4711Y475D01*
X0Y474D02*
X7Y474D01*
X4704Y474D02*
X4711Y474D01*
X0Y473D02*
X7Y473D01*
X4704Y473D02*
X4711Y473D01*
X0Y472D02*
X7Y472D01*
X4704Y472D02*
X4711Y472D01*
X0Y471D02*
X7Y471D01*
X4704Y471D02*
X4711Y471D01*
X0Y470D02*
X7Y470D01*
X4704Y470D02*
X4711Y470D01*
X0Y469D02*
X7Y469D01*
X4704Y469D02*
X4711Y469D01*
X0Y468D02*
X7Y468D01*
X4704Y468D02*
X4711Y468D01*
X0Y467D02*
X7Y467D01*
X4704Y467D02*
X4711Y467D01*
X0Y466D02*
X7Y466D01*
X4704Y466D02*
X4711Y466D01*
X0Y465D02*
X7Y465D01*
X4704Y465D02*
X4711Y465D01*
X0Y464D02*
X7Y464D01*
X4704Y464D02*
X4711Y464D01*
X0Y463D02*
X7Y463D01*
X4704Y463D02*
X4711Y463D01*
X0Y462D02*
X7Y462D01*
X4704Y462D02*
X4711Y462D01*
X0Y461D02*
X7Y461D01*
X4704Y461D02*
X4711Y461D01*
X0Y460D02*
X7Y460D01*
X4704Y460D02*
X4711Y460D01*
X0Y459D02*
X7Y459D01*
X4704Y459D02*
X4711Y459D01*
X0Y458D02*
X7Y458D01*
X4704Y458D02*
X4711Y458D01*
X0Y457D02*
X7Y457D01*
X4704Y457D02*
X4711Y457D01*
X0Y456D02*
X7Y456D01*
X4704Y456D02*
X4711Y456D01*
X0Y455D02*
X7Y455D01*
X4704Y455D02*
X4711Y455D01*
X0Y454D02*
X7Y454D01*
X4704Y454D02*
X4711Y454D01*
X0Y453D02*
X7Y453D01*
X4704Y453D02*
X4711Y453D01*
X0Y452D02*
X7Y452D01*
X4704Y452D02*
X4711Y452D01*
X0Y451D02*
X7Y451D01*
X4704Y451D02*
X4711Y451D01*
X0Y450D02*
X7Y450D01*
X4704Y450D02*
X4711Y450D01*
X0Y449D02*
X7Y449D01*
X4704Y449D02*
X4711Y449D01*
X0Y448D02*
X7Y448D01*
X4704Y448D02*
X4711Y448D01*
X0Y447D02*
X7Y447D01*
X4704Y447D02*
X4711Y447D01*
X0Y446D02*
X7Y446D01*
X4704Y446D02*
X4711Y446D01*
X0Y445D02*
X7Y445D01*
X4704Y445D02*
X4711Y445D01*
X0Y444D02*
X7Y444D01*
X4704Y444D02*
X4711Y444D01*
X0Y443D02*
X7Y443D01*
X4704Y443D02*
X4711Y443D01*
X0Y442D02*
X7Y442D01*
X4704Y442D02*
X4711Y442D01*
X0Y441D02*
X7Y441D01*
X4704Y441D02*
X4711Y441D01*
X0Y440D02*
X7Y440D01*
X4704Y440D02*
X4711Y440D01*
X0Y439D02*
X7Y439D01*
X4704Y439D02*
X4711Y439D01*
X0Y438D02*
X7Y438D01*
X4704Y438D02*
X4711Y438D01*
X0Y437D02*
X7Y437D01*
X4704Y437D02*
X4711Y437D01*
X0Y436D02*
X7Y436D01*
X4704Y436D02*
X4711Y436D01*
X0Y435D02*
X7Y435D01*
X4704Y435D02*
X4711Y435D01*
X0Y434D02*
X7Y434D01*
X4704Y434D02*
X4711Y434D01*
X0Y433D02*
X7Y433D01*
X4704Y433D02*
X4711Y433D01*
X0Y432D02*
X7Y432D01*
X4704Y432D02*
X4711Y432D01*
X0Y431D02*
X7Y431D01*
X4704Y431D02*
X4711Y431D01*
X0Y430D02*
X7Y430D01*
X4704Y430D02*
X4711Y430D01*
X0Y429D02*
X7Y429D01*
X4704Y429D02*
X4711Y429D01*
X0Y428D02*
X7Y428D01*
X4704Y428D02*
X4711Y428D01*
X0Y427D02*
X7Y427D01*
X4704Y427D02*
X4711Y427D01*
X0Y426D02*
X7Y426D01*
X4704Y426D02*
X4711Y426D01*
X0Y425D02*
X7Y425D01*
X4704Y425D02*
X4711Y425D01*
X0Y424D02*
X7Y424D01*
X4704Y424D02*
X4711Y424D01*
X0Y423D02*
X7Y423D01*
X4704Y423D02*
X4711Y423D01*
X0Y422D02*
X7Y422D01*
X4704Y422D02*
X4711Y422D01*
X0Y421D02*
X7Y421D01*
X4704Y421D02*
X4711Y421D01*
X0Y420D02*
X7Y420D01*
X4704Y420D02*
X4711Y420D01*
X0Y419D02*
X7Y419D01*
X4704Y419D02*
X4711Y419D01*
X0Y418D02*
X7Y418D01*
X4704Y418D02*
X4711Y418D01*
X0Y417D02*
X7Y417D01*
X4704Y417D02*
X4711Y417D01*
X0Y416D02*
X7Y416D01*
X4704Y416D02*
X4711Y416D01*
X0Y415D02*
X7Y415D01*
X4704Y415D02*
X4711Y415D01*
X0Y414D02*
X7Y414D01*
X4704Y414D02*
X4711Y414D01*
X0Y413D02*
X7Y413D01*
X4704Y413D02*
X4711Y413D01*
X0Y412D02*
X7Y412D01*
X4704Y412D02*
X4711Y412D01*
X0Y411D02*
X7Y411D01*
X4704Y411D02*
X4711Y411D01*
X0Y410D02*
X7Y410D01*
X4704Y410D02*
X4711Y410D01*
X0Y409D02*
X7Y409D01*
X4704Y409D02*
X4711Y409D01*
X0Y408D02*
X7Y408D01*
X4704Y408D02*
X4711Y408D01*
X0Y407D02*
X7Y407D01*
X4704Y407D02*
X4711Y407D01*
X0Y406D02*
X7Y406D01*
X4704Y406D02*
X4711Y406D01*
X0Y405D02*
X7Y405D01*
X4704Y405D02*
X4711Y405D01*
X0Y404D02*
X7Y404D01*
X4704Y404D02*
X4711Y404D01*
X0Y403D02*
X7Y403D01*
X4704Y403D02*
X4711Y403D01*
X0Y402D02*
X7Y402D01*
X4704Y402D02*
X4711Y402D01*
X0Y401D02*
X7Y401D01*
X4704Y401D02*
X4711Y401D01*
X0Y400D02*
X7Y400D01*
X4704Y400D02*
X4711Y400D01*
X0Y399D02*
X7Y399D01*
X4704Y399D02*
X4711Y399D01*
X0Y398D02*
X7Y398D01*
X4704Y398D02*
X4711Y398D01*
X0Y397D02*
X7Y397D01*
X4704Y397D02*
X4711Y397D01*
X0Y396D02*
X7Y396D01*
X4704Y396D02*
X4711Y396D01*
X0Y395D02*
X7Y395D01*
X4704Y395D02*
X4711Y395D01*
X0Y394D02*
X7Y394D01*
X4704Y394D02*
X4711Y394D01*
X0Y393D02*
X7Y393D01*
X4704Y393D02*
X4711Y393D01*
X0Y392D02*
X7Y392D01*
X4704Y392D02*
X4711Y392D01*
X0Y391D02*
X7Y391D01*
X4704Y391D02*
X4711Y391D01*
X0Y390D02*
X7Y390D01*
X4704Y390D02*
X4711Y390D01*
X0Y389D02*
X7Y389D01*
X4704Y389D02*
X4711Y389D01*
X0Y388D02*
X7Y388D01*
X4704Y388D02*
X4711Y388D01*
X0Y387D02*
X7Y387D01*
X4704Y387D02*
X4711Y387D01*
X0Y386D02*
X7Y386D01*
X4704Y386D02*
X4711Y386D01*
X0Y385D02*
X7Y385D01*
X4704Y385D02*
X4711Y385D01*
X0Y384D02*
X7Y384D01*
X4704Y384D02*
X4711Y384D01*
X0Y383D02*
X7Y383D01*
X4704Y383D02*
X4711Y383D01*
X0Y382D02*
X7Y382D01*
X4704Y382D02*
X4711Y382D01*
X0Y381D02*
X7Y381D01*
X4704Y381D02*
X4711Y381D01*
X0Y380D02*
X7Y380D01*
X4704Y380D02*
X4711Y380D01*
X0Y379D02*
X7Y379D01*
X4704Y379D02*
X4711Y379D01*
X0Y378D02*
X7Y378D01*
X4704Y378D02*
X4711Y378D01*
X0Y377D02*
X7Y377D01*
X4704Y377D02*
X4711Y377D01*
X0Y376D02*
X7Y376D01*
X4704Y376D02*
X4711Y376D01*
X0Y375D02*
X7Y375D01*
X4704Y375D02*
X4711Y375D01*
X0Y374D02*
X7Y374D01*
X4704Y374D02*
X4711Y374D01*
X0Y373D02*
X7Y373D01*
X4704Y373D02*
X4711Y373D01*
X0Y372D02*
X7Y372D01*
X4704Y372D02*
X4711Y372D01*
X0Y371D02*
X7Y371D01*
X4704Y371D02*
X4711Y371D01*
X0Y370D02*
X7Y370D01*
X4704Y370D02*
X4711Y370D01*
X0Y369D02*
X7Y369D01*
X4704Y369D02*
X4711Y369D01*
X0Y368D02*
X7Y368D01*
X4704Y368D02*
X4711Y368D01*
X0Y367D02*
X7Y367D01*
X4704Y367D02*
X4711Y367D01*
X0Y366D02*
X7Y366D01*
X4704Y366D02*
X4711Y366D01*
X0Y365D02*
X7Y365D01*
X4704Y365D02*
X4711Y365D01*
X0Y364D02*
X7Y364D01*
X4704Y364D02*
X4711Y364D01*
X0Y363D02*
X7Y363D01*
X4704Y363D02*
X4711Y363D01*
X0Y362D02*
X7Y362D01*
X4704Y362D02*
X4711Y362D01*
X0Y361D02*
X7Y361D01*
X4704Y361D02*
X4711Y361D01*
X0Y360D02*
X7Y360D01*
X4704Y360D02*
X4711Y360D01*
X0Y359D02*
X7Y359D01*
X4704Y359D02*
X4711Y359D01*
X0Y358D02*
X7Y358D01*
X4704Y358D02*
X4711Y358D01*
X0Y357D02*
X7Y357D01*
X4704Y357D02*
X4711Y357D01*
X0Y356D02*
X7Y356D01*
X4704Y356D02*
X4711Y356D01*
X0Y355D02*
X7Y355D01*
X4704Y355D02*
X4711Y355D01*
X0Y354D02*
X7Y354D01*
X4704Y354D02*
X4711Y354D01*
X0Y353D02*
X7Y353D01*
X4704Y353D02*
X4711Y353D01*
X0Y352D02*
X7Y352D01*
X4704Y352D02*
X4711Y352D01*
X0Y351D02*
X7Y351D01*
X4704Y351D02*
X4711Y351D01*
X0Y350D02*
X7Y350D01*
X4704Y350D02*
X4711Y350D01*
X0Y349D02*
X7Y349D01*
X4704Y349D02*
X4711Y349D01*
X0Y348D02*
X7Y348D01*
X4704Y348D02*
X4711Y348D01*
X0Y347D02*
X7Y347D01*
X4704Y347D02*
X4711Y347D01*
X0Y346D02*
X7Y346D01*
X4704Y346D02*
X4711Y346D01*
X0Y345D02*
X7Y345D01*
X4704Y345D02*
X4711Y345D01*
X0Y344D02*
X7Y344D01*
X4704Y344D02*
X4711Y344D01*
X0Y343D02*
X7Y343D01*
X4704Y343D02*
X4711Y343D01*
X0Y342D02*
X7Y342D01*
X4704Y342D02*
X4711Y342D01*
X0Y341D02*
X7Y341D01*
X4704Y341D02*
X4711Y341D01*
X0Y340D02*
X7Y340D01*
X4704Y340D02*
X4711Y340D01*
X0Y339D02*
X7Y339D01*
X4704Y339D02*
X4711Y339D01*
X0Y338D02*
X7Y338D01*
X4704Y338D02*
X4711Y338D01*
X0Y337D02*
X7Y337D01*
X4704Y337D02*
X4711Y337D01*
X0Y336D02*
X7Y336D01*
X4704Y336D02*
X4711Y336D01*
X0Y335D02*
X7Y335D01*
X4704Y335D02*
X4711Y335D01*
X0Y334D02*
X7Y334D01*
X4704Y334D02*
X4711Y334D01*
X0Y333D02*
X7Y333D01*
X4704Y333D02*
X4711Y333D01*
X0Y332D02*
X7Y332D01*
X4704Y332D02*
X4711Y332D01*
X0Y331D02*
X7Y331D01*
X4704Y331D02*
X4711Y331D01*
X0Y330D02*
X7Y330D01*
X4704Y330D02*
X4711Y330D01*
X0Y329D02*
X7Y329D01*
X4704Y329D02*
X4711Y329D01*
X0Y328D02*
X7Y328D01*
X4704Y328D02*
X4711Y328D01*
X0Y327D02*
X7Y327D01*
X4704Y327D02*
X4711Y327D01*
X0Y326D02*
X7Y326D01*
X4704Y326D02*
X4711Y326D01*
X0Y325D02*
X7Y325D01*
X4704Y325D02*
X4711Y325D01*
X0Y324D02*
X7Y324D01*
X4704Y324D02*
X4711Y324D01*
X0Y323D02*
X7Y323D01*
X4704Y323D02*
X4711Y323D01*
X0Y322D02*
X7Y322D01*
X4704Y322D02*
X4711Y322D01*
X0Y321D02*
X7Y321D01*
X4704Y321D02*
X4711Y321D01*
X0Y320D02*
X7Y320D01*
X4704Y320D02*
X4711Y320D01*
X0Y319D02*
X7Y319D01*
X4704Y319D02*
X4711Y319D01*
X0Y318D02*
X7Y318D01*
X4704Y318D02*
X4711Y318D01*
X0Y317D02*
X7Y317D01*
X4704Y317D02*
X4711Y317D01*
X0Y316D02*
X7Y316D01*
X4704Y316D02*
X4711Y316D01*
X0Y315D02*
X7Y315D01*
X4704Y315D02*
X4711Y315D01*
X0Y314D02*
X7Y314D01*
X4704Y314D02*
X4711Y314D01*
X0Y313D02*
X7Y313D01*
X4704Y313D02*
X4711Y313D01*
X0Y312D02*
X7Y312D01*
X4704Y312D02*
X4711Y312D01*
X0Y311D02*
X7Y311D01*
X4704Y311D02*
X4711Y311D01*
X0Y310D02*
X7Y310D01*
X4704Y310D02*
X4711Y310D01*
X0Y309D02*
X7Y309D01*
X4704Y309D02*
X4711Y309D01*
X0Y308D02*
X7Y308D01*
X4704Y308D02*
X4711Y308D01*
X0Y307D02*
X7Y307D01*
X4704Y307D02*
X4711Y307D01*
X0Y306D02*
X7Y306D01*
X4704Y306D02*
X4711Y306D01*
X0Y305D02*
X7Y305D01*
X4704Y305D02*
X4711Y305D01*
X0Y304D02*
X7Y304D01*
X4704Y304D02*
X4711Y304D01*
X0Y303D02*
X7Y303D01*
X4704Y303D02*
X4711Y303D01*
X0Y302D02*
X7Y302D01*
X4704Y302D02*
X4711Y302D01*
X0Y301D02*
X7Y301D01*
X4704Y301D02*
X4711Y301D01*
X0Y300D02*
X7Y300D01*
X4704Y300D02*
X4711Y300D01*
X0Y299D02*
X7Y299D01*
X4704Y299D02*
X4711Y299D01*
X0Y298D02*
X7Y298D01*
X4704Y298D02*
X4711Y298D01*
X0Y297D02*
X7Y297D01*
X4704Y297D02*
X4711Y297D01*
X0Y296D02*
X7Y296D01*
X4704Y296D02*
X4711Y296D01*
X0Y295D02*
X7Y295D01*
X4704Y295D02*
X4711Y295D01*
X0Y294D02*
X7Y294D01*
X4704Y294D02*
X4711Y294D01*
X0Y293D02*
X7Y293D01*
X4704Y293D02*
X4711Y293D01*
X0Y292D02*
X7Y292D01*
X4704Y292D02*
X4711Y292D01*
X0Y291D02*
X7Y291D01*
X4704Y291D02*
X4711Y291D01*
X0Y290D02*
X7Y290D01*
X4704Y290D02*
X4711Y290D01*
X0Y289D02*
X7Y289D01*
X4704Y289D02*
X4711Y289D01*
X0Y288D02*
X7Y288D01*
X4704Y288D02*
X4711Y288D01*
X0Y287D02*
X7Y287D01*
X4704Y287D02*
X4711Y287D01*
X0Y286D02*
X7Y286D01*
X4704Y286D02*
X4711Y286D01*
X0Y285D02*
X7Y285D01*
X4704Y285D02*
X4711Y285D01*
X0Y284D02*
X7Y284D01*
X4704Y284D02*
X4711Y284D01*
X0Y283D02*
X7Y283D01*
X4704Y283D02*
X4711Y283D01*
X0Y282D02*
X7Y282D01*
X4704Y282D02*
X4711Y282D01*
X0Y281D02*
X7Y281D01*
X4704Y281D02*
X4711Y281D01*
X0Y280D02*
X7Y280D01*
X4704Y280D02*
X4711Y280D01*
X0Y279D02*
X7Y279D01*
X4704Y279D02*
X4711Y279D01*
X0Y278D02*
X7Y278D01*
X4704Y278D02*
X4711Y278D01*
X0Y277D02*
X7Y277D01*
X4704Y277D02*
X4711Y277D01*
X0Y276D02*
X7Y276D01*
X4704Y276D02*
X4711Y276D01*
X0Y275D02*
X7Y275D01*
X4704Y275D02*
X4711Y275D01*
X0Y274D02*
X7Y274D01*
X4704Y274D02*
X4711Y274D01*
X0Y273D02*
X7Y273D01*
X4704Y273D02*
X4711Y273D01*
X0Y272D02*
X7Y272D01*
X4704Y272D02*
X4711Y272D01*
X0Y271D02*
X7Y271D01*
X4704Y271D02*
X4711Y271D01*
X0Y270D02*
X7Y270D01*
X4704Y270D02*
X4711Y270D01*
X0Y269D02*
X7Y269D01*
X4704Y269D02*
X4711Y269D01*
X0Y268D02*
X7Y268D01*
X4704Y268D02*
X4711Y268D01*
X0Y267D02*
X7Y267D01*
X4704Y267D02*
X4711Y267D01*
X0Y266D02*
X7Y266D01*
X4704Y266D02*
X4711Y266D01*
X0Y265D02*
X7Y265D01*
X4704Y265D02*
X4711Y265D01*
X0Y264D02*
X7Y264D01*
X4704Y264D02*
X4711Y264D01*
X0Y263D02*
X7Y263D01*
X4704Y263D02*
X4711Y263D01*
X0Y262D02*
X7Y262D01*
X4704Y262D02*
X4711Y262D01*
X0Y261D02*
X7Y261D01*
X4704Y261D02*
X4711Y261D01*
X0Y260D02*
X7Y260D01*
X4704Y260D02*
X4711Y260D01*
X0Y259D02*
X7Y259D01*
X4704Y259D02*
X4711Y259D01*
X0Y258D02*
X7Y258D01*
X4704Y258D02*
X4711Y258D01*
X0Y257D02*
X7Y257D01*
X4704Y257D02*
X4711Y257D01*
X0Y256D02*
X7Y256D01*
X4704Y256D02*
X4711Y256D01*
X0Y255D02*
X7Y255D01*
X4704Y255D02*
X4711Y255D01*
X0Y254D02*
X7Y254D01*
X4704Y254D02*
X4711Y254D01*
X0Y253D02*
X7Y253D01*
X4704Y253D02*
X4711Y253D01*
X0Y252D02*
X7Y252D01*
X4704Y252D02*
X4711Y252D01*
X0Y251D02*
X7Y251D01*
X4704Y251D02*
X4711Y251D01*
X0Y250D02*
X7Y250D01*
X4704Y250D02*
X4711Y250D01*
X0Y249D02*
X7Y249D01*
X4704Y249D02*
X4711Y249D01*
X0Y248D02*
X7Y248D01*
X4704Y248D02*
X4711Y248D01*
X0Y247D02*
X7Y247D01*
X4704Y247D02*
X4711Y247D01*
X0Y246D02*
X7Y246D01*
X4704Y246D02*
X4711Y246D01*
X0Y245D02*
X7Y245D01*
X4704Y245D02*
X4711Y245D01*
X0Y244D02*
X7Y244D01*
X4704Y244D02*
X4711Y244D01*
X0Y243D02*
X7Y243D01*
X4704Y243D02*
X4711Y243D01*
X0Y242D02*
X7Y242D01*
X4704Y242D02*
X4711Y242D01*
X0Y241D02*
X7Y241D01*
X4704Y241D02*
X4711Y241D01*
X0Y240D02*
X7Y240D01*
X4704Y240D02*
X4711Y240D01*
X0Y239D02*
X7Y239D01*
X4704Y239D02*
X4711Y239D01*
X0Y238D02*
X7Y238D01*
X4704Y238D02*
X4711Y238D01*
X0Y237D02*
X7Y237D01*
X4704Y237D02*
X4711Y237D01*
X0Y236D02*
X7Y236D01*
X4704Y236D02*
X4711Y236D01*
X0Y235D02*
X7Y235D01*
X4704Y235D02*
X4711Y235D01*
X0Y234D02*
X7Y234D01*
X4704Y234D02*
X4711Y234D01*
X0Y233D02*
X7Y233D01*
X4704Y233D02*
X4711Y233D01*
X0Y232D02*
X7Y232D01*
X4704Y232D02*
X4711Y232D01*
X0Y231D02*
X7Y231D01*
X4704Y231D02*
X4711Y231D01*
X0Y230D02*
X7Y230D01*
X4704Y230D02*
X4711Y230D01*
X0Y229D02*
X7Y229D01*
X4704Y229D02*
X4711Y229D01*
X0Y228D02*
X7Y228D01*
X4704Y228D02*
X4711Y228D01*
X0Y227D02*
X7Y227D01*
X4704Y227D02*
X4711Y227D01*
X0Y226D02*
X7Y226D01*
X4704Y226D02*
X4711Y226D01*
X0Y225D02*
X7Y225D01*
X4704Y225D02*
X4711Y225D01*
X0Y224D02*
X7Y224D01*
X4704Y224D02*
X4711Y224D01*
X0Y223D02*
X7Y223D01*
X4704Y223D02*
X4711Y223D01*
X0Y222D02*
X7Y222D01*
X4704Y222D02*
X4711Y222D01*
X0Y221D02*
X7Y221D01*
X4704Y221D02*
X4711Y221D01*
X0Y220D02*
X7Y220D01*
X4704Y220D02*
X4711Y220D01*
X0Y219D02*
X7Y219D01*
X4704Y219D02*
X4711Y219D01*
X0Y218D02*
X7Y218D01*
X4704Y218D02*
X4711Y218D01*
X0Y217D02*
X7Y217D01*
X4704Y217D02*
X4711Y217D01*
X0Y216D02*
X7Y216D01*
X4704Y216D02*
X4711Y216D01*
X0Y215D02*
X7Y215D01*
X4704Y215D02*
X4711Y215D01*
X0Y214D02*
X7Y214D01*
X4704Y214D02*
X4711Y214D01*
X0Y213D02*
X7Y213D01*
X4704Y213D02*
X4711Y213D01*
X0Y212D02*
X7Y212D01*
X4704Y212D02*
X4711Y212D01*
X0Y211D02*
X7Y211D01*
X4704Y211D02*
X4711Y211D01*
X0Y210D02*
X7Y210D01*
X4704Y210D02*
X4711Y210D01*
X0Y209D02*
X7Y209D01*
X4704Y209D02*
X4711Y209D01*
X0Y208D02*
X7Y208D01*
X4704Y208D02*
X4711Y208D01*
X0Y207D02*
X7Y207D01*
X4704Y207D02*
X4711Y207D01*
X0Y206D02*
X7Y206D01*
X4704Y206D02*
X4711Y206D01*
X0Y205D02*
X7Y205D01*
X4704Y205D02*
X4711Y205D01*
X0Y204D02*
X7Y204D01*
X4704Y204D02*
X4711Y204D01*
X0Y203D02*
X7Y203D01*
X4704Y203D02*
X4711Y203D01*
X0Y202D02*
X7Y202D01*
X4704Y202D02*
X4711Y202D01*
X0Y201D02*
X7Y201D01*
X4704Y201D02*
X4711Y201D01*
X0Y200D02*
X7Y200D01*
X4704Y200D02*
X4711Y200D01*
X0Y199D02*
X7Y199D01*
X4704Y199D02*
X4711Y199D01*
X0Y198D02*
X7Y198D01*
X4704Y198D02*
X4711Y198D01*
X0Y197D02*
X7Y197D01*
X4704Y197D02*
X4711Y197D01*
X0Y196D02*
X7Y196D01*
X4704Y196D02*
X4711Y196D01*
X0Y195D02*
X7Y195D01*
X4704Y195D02*
X4711Y195D01*
X0Y194D02*
X7Y194D01*
X4704Y194D02*
X4711Y194D01*
X0Y193D02*
X7Y193D01*
X4704Y193D02*
X4711Y193D01*
X0Y192D02*
X7Y192D01*
X4704Y192D02*
X4711Y192D01*
X0Y191D02*
X7Y191D01*
X4704Y191D02*
X4711Y191D01*
X0Y190D02*
X7Y190D01*
X4704Y190D02*
X4711Y190D01*
X0Y189D02*
X7Y189D01*
X4704Y189D02*
X4711Y189D01*
X0Y188D02*
X7Y188D01*
X4704Y188D02*
X4711Y188D01*
X0Y187D02*
X7Y187D01*
X4704Y187D02*
X4711Y187D01*
X0Y186D02*
X7Y186D01*
X4704Y186D02*
X4711Y186D01*
X0Y185D02*
X7Y185D01*
X4704Y185D02*
X4711Y185D01*
X0Y184D02*
X7Y184D01*
X4704Y184D02*
X4711Y184D01*
X0Y183D02*
X7Y183D01*
X4704Y183D02*
X4711Y183D01*
X0Y182D02*
X7Y182D01*
X4704Y182D02*
X4711Y182D01*
X0Y181D02*
X7Y181D01*
X4704Y181D02*
X4711Y181D01*
X0Y180D02*
X7Y180D01*
X4704Y180D02*
X4711Y180D01*
X0Y179D02*
X7Y179D01*
X4704Y179D02*
X4711Y179D01*
X0Y178D02*
X7Y178D01*
X4704Y178D02*
X4711Y178D01*
X0Y177D02*
X7Y177D01*
X4704Y177D02*
X4711Y177D01*
X0Y176D02*
X7Y176D01*
X4704Y176D02*
X4711Y176D01*
X0Y175D02*
X7Y175D01*
X4704Y175D02*
X4711Y175D01*
X0Y174D02*
X7Y174D01*
X4704Y174D02*
X4711Y174D01*
X0Y173D02*
X7Y173D01*
X4704Y173D02*
X4711Y173D01*
X0Y172D02*
X7Y172D01*
X4704Y172D02*
X4711Y172D01*
X0Y171D02*
X7Y171D01*
X4704Y171D02*
X4711Y171D01*
X0Y170D02*
X7Y170D01*
X4704Y170D02*
X4711Y170D01*
X0Y169D02*
X7Y169D01*
X4704Y169D02*
X4711Y169D01*
X0Y168D02*
X7Y168D01*
X4704Y168D02*
X4711Y168D01*
X0Y167D02*
X7Y167D01*
X4704Y167D02*
X4711Y167D01*
X0Y166D02*
X7Y166D01*
X4704Y166D02*
X4711Y166D01*
X0Y165D02*
X7Y165D01*
X4704Y165D02*
X4711Y165D01*
X0Y164D02*
X7Y164D01*
X4704Y164D02*
X4711Y164D01*
X0Y163D02*
X7Y163D01*
X4704Y163D02*
X4711Y163D01*
X0Y162D02*
X7Y162D01*
X4704Y162D02*
X4711Y162D01*
X0Y161D02*
X7Y161D01*
X4704Y161D02*
X4711Y161D01*
X0Y160D02*
X7Y160D01*
X4704Y160D02*
X4711Y160D01*
X0Y159D02*
X7Y159D01*
X4704Y159D02*
X4711Y159D01*
X0Y158D02*
X7Y158D01*
X4704Y158D02*
X4711Y158D01*
X0Y157D02*
X7Y157D01*
X4704Y157D02*
X4711Y157D01*
X0Y156D02*
X7Y156D01*
X4704Y156D02*
X4711Y156D01*
X0Y155D02*
X7Y155D01*
X4704Y155D02*
X4711Y155D01*
X0Y154D02*
X7Y154D01*
X4704Y154D02*
X4711Y154D01*
X0Y153D02*
X7Y153D01*
X4704Y153D02*
X4711Y153D01*
X0Y152D02*
X7Y152D01*
X4704Y152D02*
X4711Y152D01*
X0Y151D02*
X7Y151D01*
X4704Y151D02*
X4711Y151D01*
X0Y150D02*
X7Y150D01*
X4704Y150D02*
X4711Y150D01*
X0Y149D02*
X7Y149D01*
X4704Y149D02*
X4711Y149D01*
X0Y148D02*
X7Y148D01*
X4704Y148D02*
X4711Y148D01*
X0Y147D02*
X7Y147D01*
X4704Y147D02*
X4711Y147D01*
X0Y146D02*
X7Y146D01*
X4704Y146D02*
X4711Y146D01*
X0Y145D02*
X7Y145D01*
X4704Y145D02*
X4711Y145D01*
X0Y144D02*
X7Y144D01*
X4704Y144D02*
X4711Y144D01*
X0Y143D02*
X7Y143D01*
X4704Y143D02*
X4711Y143D01*
X0Y142D02*
X7Y142D01*
X4704Y142D02*
X4711Y142D01*
X0Y141D02*
X7Y141D01*
X4704Y141D02*
X4711Y141D01*
X0Y140D02*
X7Y140D01*
X4704Y140D02*
X4711Y140D01*
X0Y139D02*
X7Y139D01*
X4704Y139D02*
X4711Y139D01*
X0Y138D02*
X7Y138D01*
X4704Y138D02*
X4711Y138D01*
X0Y137D02*
X7Y137D01*
X4704Y137D02*
X4711Y137D01*
X0Y136D02*
X7Y136D01*
X4704Y136D02*
X4711Y136D01*
X0Y135D02*
X7Y135D01*
X4704Y135D02*
X4711Y135D01*
X0Y134D02*
X7Y134D01*
X4704Y134D02*
X4711Y134D01*
X0Y133D02*
X7Y133D01*
X4704Y133D02*
X4711Y133D01*
X0Y132D02*
X7Y132D01*
X4704Y132D02*
X4711Y132D01*
X0Y131D02*
X7Y131D01*
X4704Y131D02*
X4711Y131D01*
X0Y130D02*
X7Y130D01*
X4704Y130D02*
X4711Y130D01*
X0Y129D02*
X7Y129D01*
X4704Y129D02*
X4711Y129D01*
X0Y128D02*
X7Y128D01*
X4704Y128D02*
X4711Y128D01*
X0Y127D02*
X7Y127D01*
X4704Y127D02*
X4711Y127D01*
X0Y126D02*
X7Y126D01*
X4704Y126D02*
X4711Y126D01*
X0Y125D02*
X7Y125D01*
X4704Y125D02*
X4711Y125D01*
X0Y124D02*
X7Y124D01*
X4704Y124D02*
X4711Y124D01*
X0Y123D02*
X7Y123D01*
X4704Y123D02*
X4711Y123D01*
X0Y122D02*
X7Y122D01*
X4704Y122D02*
X4711Y122D01*
X0Y121D02*
X7Y121D01*
X4704Y121D02*
X4711Y121D01*
X0Y120D02*
X7Y120D01*
X4704Y120D02*
X4711Y120D01*
X0Y119D02*
X7Y119D01*
X4704Y119D02*
X4711Y119D01*
X0Y118D02*
X7Y118D01*
X4704Y118D02*
X4711Y118D01*
X0Y117D02*
X7Y117D01*
X4704Y117D02*
X4711Y117D01*
X0Y116D02*
X7Y116D01*
X4704Y116D02*
X4711Y116D01*
X0Y115D02*
X7Y115D01*
X4704Y115D02*
X4711Y115D01*
X0Y114D02*
X7Y114D01*
X4704Y114D02*
X4711Y114D01*
X0Y113D02*
X7Y113D01*
X4704Y113D02*
X4711Y113D01*
X0Y112D02*
X7Y112D01*
X4704Y112D02*
X4711Y112D01*
X0Y111D02*
X7Y111D01*
X4704Y111D02*
X4711Y111D01*
X0Y110D02*
X7Y110D01*
X4704Y110D02*
X4711Y110D01*
X0Y109D02*
X7Y109D01*
X4704Y109D02*
X4711Y109D01*
X0Y108D02*
X7Y108D01*
X4704Y108D02*
X4711Y108D01*
X0Y107D02*
X7Y107D01*
X4704Y107D02*
X4711Y107D01*
X0Y106D02*
X7Y106D01*
X4704Y106D02*
X4711Y106D01*
X0Y105D02*
X7Y105D01*
X4704Y105D02*
X4711Y105D01*
X0Y104D02*
X7Y104D01*
X4704Y104D02*
X4711Y104D01*
X0Y103D02*
X7Y103D01*
X4704Y103D02*
X4711Y103D01*
X0Y102D02*
X7Y102D01*
X4704Y102D02*
X4711Y102D01*
X0Y101D02*
X7Y101D01*
X4704Y101D02*
X4711Y101D01*
X0Y100D02*
X7Y100D01*
X4704Y100D02*
X4711Y100D01*
X0Y99D02*
X7Y99D01*
X4704Y99D02*
X4711Y99D01*
X0Y98D02*
X7Y98D01*
X4704Y98D02*
X4711Y98D01*
X0Y97D02*
X7Y97D01*
X4704Y97D02*
X4711Y97D01*
X0Y96D02*
X7Y96D01*
X4704Y96D02*
X4711Y96D01*
X0Y95D02*
X7Y95D01*
X4704Y95D02*
X4711Y95D01*
X0Y94D02*
X7Y94D01*
X4704Y94D02*
X4711Y94D01*
X0Y93D02*
X7Y93D01*
X4704Y93D02*
X4711Y93D01*
X0Y92D02*
X7Y92D01*
X4704Y92D02*
X4711Y92D01*
X0Y91D02*
X7Y91D01*
X4704Y91D02*
X4711Y91D01*
X0Y90D02*
X7Y90D01*
X4704Y90D02*
X4711Y90D01*
X0Y89D02*
X7Y89D01*
X4704Y89D02*
X4711Y89D01*
X0Y88D02*
X7Y88D01*
X4704Y88D02*
X4711Y88D01*
X0Y87D02*
X7Y87D01*
X4704Y87D02*
X4711Y87D01*
X0Y86D02*
X7Y86D01*
X4704Y86D02*
X4711Y86D01*
X0Y85D02*
X7Y85D01*
X4704Y85D02*
X4711Y85D01*
X0Y84D02*
X7Y84D01*
X4704Y84D02*
X4711Y84D01*
X0Y83D02*
X7Y83D01*
X4704Y83D02*
X4711Y83D01*
X0Y82D02*
X7Y82D01*
X4704Y82D02*
X4711Y82D01*
X0Y81D02*
X7Y81D01*
X4704Y81D02*
X4711Y81D01*
X0Y80D02*
X7Y80D01*
X4704Y80D02*
X4711Y80D01*
X0Y79D02*
X7Y79D01*
X4704Y79D02*
X4711Y79D01*
X0Y78D02*
X7Y78D01*
X4704Y78D02*
X4711Y78D01*
X0Y77D02*
X7Y77D01*
X4704Y77D02*
X4711Y77D01*
X0Y76D02*
X7Y76D01*
X4704Y76D02*
X4711Y76D01*
X0Y75D02*
X7Y75D01*
X4704Y75D02*
X4711Y75D01*
X0Y74D02*
X7Y74D01*
X4704Y74D02*
X4711Y74D01*
X0Y73D02*
X7Y73D01*
X4704Y73D02*
X4711Y73D01*
X0Y72D02*
X7Y72D01*
X4704Y72D02*
X4711Y72D01*
X0Y71D02*
X7Y71D01*
X4704Y71D02*
X4711Y71D01*
X0Y70D02*
X7Y70D01*
X4704Y70D02*
X4711Y70D01*
X0Y69D02*
X7Y69D01*
X4704Y69D02*
X4711Y69D01*
X0Y68D02*
X7Y68D01*
X4704Y68D02*
X4711Y68D01*
X0Y67D02*
X7Y67D01*
X4704Y67D02*
X4711Y67D01*
X0Y66D02*
X7Y66D01*
X4704Y66D02*
X4711Y66D01*
X0Y65D02*
X7Y65D01*
X4704Y65D02*
X4711Y65D01*
X0Y64D02*
X7Y64D01*
X4704Y64D02*
X4711Y64D01*
X0Y63D02*
X7Y63D01*
X4704Y63D02*
X4711Y63D01*
X0Y62D02*
X7Y62D01*
X4704Y62D02*
X4711Y62D01*
X0Y61D02*
X7Y61D01*
X4704Y61D02*
X4711Y61D01*
X0Y60D02*
X7Y60D01*
X4704Y60D02*
X4711Y60D01*
X0Y59D02*
X7Y59D01*
X4704Y59D02*
X4711Y59D01*
X0Y58D02*
X7Y58D01*
X4704Y58D02*
X4711Y58D01*
X0Y57D02*
X7Y57D01*
X4704Y57D02*
X4711Y57D01*
X0Y56D02*
X7Y56D01*
X4704Y56D02*
X4711Y56D01*
X0Y55D02*
X7Y55D01*
X4704Y55D02*
X4711Y55D01*
X0Y54D02*
X7Y54D01*
X4704Y54D02*
X4711Y54D01*
X0Y53D02*
X7Y53D01*
X4704Y53D02*
X4711Y53D01*
X0Y52D02*
X7Y52D01*
X4704Y52D02*
X4711Y52D01*
X0Y51D02*
X7Y51D01*
X4704Y51D02*
X4711Y51D01*
X0Y50D02*
X7Y50D01*
X4704Y50D02*
X4711Y50D01*
X0Y49D02*
X7Y49D01*
X4704Y49D02*
X4711Y49D01*
X0Y48D02*
X7Y48D01*
X4704Y48D02*
X4711Y48D01*
X0Y47D02*
X7Y47D01*
X4704Y47D02*
X4711Y47D01*
X0Y46D02*
X7Y46D01*
X4704Y46D02*
X4711Y46D01*
X0Y45D02*
X7Y45D01*
X4704Y45D02*
X4711Y45D01*
X0Y44D02*
X7Y44D01*
X4704Y44D02*
X4711Y44D01*
X0Y43D02*
X7Y43D01*
X4704Y43D02*
X4711Y43D01*
X0Y42D02*
X7Y42D01*
X4704Y42D02*
X4711Y42D01*
X0Y41D02*
X7Y41D01*
X4704Y41D02*
X4711Y41D01*
X0Y40D02*
X7Y40D01*
X4704Y40D02*
X4711Y40D01*
X0Y39D02*
X7Y39D01*
X4704Y39D02*
X4711Y39D01*
X0Y38D02*
X7Y38D01*
X4704Y38D02*
X4711Y38D01*
X0Y37D02*
X7Y37D01*
X4704Y37D02*
X4711Y37D01*
X0Y36D02*
X7Y36D01*
X4704Y36D02*
X4711Y36D01*
X0Y35D02*
X7Y35D01*
X4704Y35D02*
X4711Y35D01*
X0Y34D02*
X7Y34D01*
X4704Y34D02*
X4711Y34D01*
X0Y33D02*
X7Y33D01*
X4704Y33D02*
X4711Y33D01*
X0Y32D02*
X7Y32D01*
X4704Y32D02*
X4711Y32D01*
X0Y31D02*
X7Y31D01*
X4704Y31D02*
X4711Y31D01*
X0Y30D02*
X7Y30D01*
X4704Y30D02*
X4711Y30D01*
X0Y29D02*
X7Y29D01*
X4704Y29D02*
X4711Y29D01*
X0Y28D02*
X7Y28D01*
X4704Y28D02*
X4711Y28D01*
X0Y27D02*
X7Y27D01*
X4704Y27D02*
X4711Y27D01*
X0Y26D02*
X7Y26D01*
X4704Y26D02*
X4711Y26D01*
X0Y25D02*
X7Y25D01*
X4704Y25D02*
X4711Y25D01*
X0Y24D02*
X7Y24D01*
X4704Y24D02*
X4711Y24D01*
X0Y23D02*
X7Y23D01*
X4704Y23D02*
X4711Y23D01*
X0Y22D02*
X7Y22D01*
X4704Y22D02*
X4711Y22D01*
X0Y21D02*
X7Y21D01*
X4704Y21D02*
X4711Y21D01*
X0Y20D02*
X7Y20D01*
X4704Y20D02*
X4711Y20D01*
X0Y19D02*
X7Y19D01*
X4704Y19D02*
X4711Y19D01*
X0Y18D02*
X7Y18D01*
X4704Y18D02*
X4711Y18D01*
X0Y17D02*
X7Y17D01*
X4704Y17D02*
X4711Y17D01*
X0Y16D02*
X7Y16D01*
X4704Y16D02*
X4711Y16D01*
X0Y15D02*
X7Y15D01*
X4704Y15D02*
X4711Y15D01*
X0Y14D02*
X7Y14D01*
X4704Y14D02*
X4711Y14D01*
X0Y13D02*
X7Y13D01*
X4704Y13D02*
X4711Y13D01*
X0Y12D02*
X7Y12D01*
X4704Y12D02*
X4711Y12D01*
X0Y11D02*
X7Y11D01*
X4704Y11D02*
X4711Y11D01*
X0Y10D02*
X7Y10D01*
X4704Y10D02*
X4711Y10D01*
X0Y9D02*
X7Y9D01*
X4704Y9D02*
X4711Y9D01*
X0Y8D02*
X526Y8D01*
X585Y8D02*
X1476Y8D01*
X1534Y8D02*
X2426Y8D01*
X2484Y8D02*
X3376Y8D01*
X3434Y8D02*
X4711Y8D01*
X0Y7D02*
X529Y7D01*
X582Y7D02*
X1479Y7D01*
X1531Y7D02*
X2429Y7D01*
X2481Y7D02*
X3379Y7D01*
X3431Y7D02*
X4711Y7D01*
X0Y6D02*
X532Y6D01*
X579Y6D02*
X1482Y6D01*
X1528Y6D02*
X2432Y6D01*
X2478Y6D02*
X3382Y6D01*
X3427Y6D02*
X4711Y6D01*
X0Y5D02*
X536Y5D01*
X575Y5D02*
X1486Y5D01*
X1524Y5D02*
X2436Y5D01*
X2474Y5D02*
X3386Y5D01*
X3423Y5D02*
X4711Y5D01*
X0Y4D02*
X540Y4D01*
X570Y4D02*
X1491Y4D01*
X1519Y4D02*
X2441Y4D01*
X2469Y4D02*
X3391Y4D01*
X3418Y4D02*
X4711Y4D01*
X0Y3D02*
X546Y3D01*
X564Y3D02*
X1498Y3D01*
X1512Y3D02*
X2448Y3D01*
X2462Y3D02*
X3398Y3D01*
X3411Y3D02*
X4711Y3D01*
X0Y2D02*
X4711Y2D01*
X0Y1D02*
X4711Y1D01*
D02*
G04 End of Silk0*
M02*