; NON-PLATED HOLES START AT T1
; THROUGH (PLATED) HOLES START AT T100
M48
INCH
T100C0.050000
T101C0.015748
T102C0.038000
%
T100
X015056Y017321
X043557Y027818
X034056Y004821
X024556Y017321
X024556Y023821
X015056Y004821
X005558Y021819
X034056Y000821
X043557Y029818
X005559Y034316
X034056Y015321
X005558Y023819
X005558Y000819
X005559Y029816
X015057Y036318
X043557Y032318
X043557Y036318
X015057Y025818
X015056Y015321
X024557Y034318
X034056Y009321
X043556Y019821
X005558Y011319
X015056Y023821
X015056Y000821
X005558Y009319
X005558Y019819
X034056Y019821
X015056Y007321
X015056Y013321
X024557Y029818
X024557Y032318
X043556Y023821
X024556Y011321
X015057Y034318
X034057Y027818
X024556Y015321
X015056Y019821
X015056Y002821
X005559Y025816
X024556Y000821
X005558Y007319
X043557Y025818
X005558Y002819
X015057Y032318
X034056Y007321
X024556Y013321
X034056Y011321
X043556Y021821
X005558Y017319
X005558Y015319
X005559Y036316
X034057Y025818
X043556Y017321
X043556Y013321
X005559Y027816
X034056Y023821
X034057Y034318
X034057Y029818
X024556Y019821
X015056Y009321
X034056Y017321
X024557Y027818
X034056Y002821
X043556Y015321
X024557Y025818
X034056Y021821
X024557Y036318
X015056Y011321
X024556Y009321
X034057Y036318
X043557Y034318
X034056Y013321
X005559Y032316
X024556Y002821
X015057Y027818
X034057Y032318
X015057Y029818
X015056Y021821
X024556Y021821
X024556Y004821
X024556Y007321
X005558Y004819
X005558Y013319
T101
X028556Y024821
X028556Y012321
X037556Y012321
X009056Y024821
X009556Y024821
X028056Y012321
X019056Y024821
X028056Y024821
X019056Y012321
X037556Y024821
X018556Y024821
X038056Y024821
X009556Y012321
X009056Y012321
X018556Y012321
T102
X036056Y021321
X036056Y005821
X045556Y021321
X007558Y016319
X007559Y033816
X017057Y028818
X045556Y017321
X007558Y005819
X036056Y020321
X036056Y003821
X017056Y017321
X045557Y028818
X026557Y031818
X036057Y028818
X017056Y005821
X017056Y021321
X017057Y031818
X026556Y008821
X045556Y020321
X026556Y007821
X017057Y029818
X036056Y007821
X026557Y030818
X026557Y033818
X036056Y006821
X026556Y016321
X017057Y032818
X026557Y032818
X017056Y004821
X007558Y021319
X045556Y016321
X007559Y028816
X036057Y031818
X026557Y029818
X007559Y029816
X036057Y032818
X017056Y008821
X026556Y019321
X045557Y031818
X017056Y016321
X036056Y019321
X045557Y033818
X007558Y004819
X007558Y006819
X017056Y003821
X026556Y004821
X026556Y005821
X007558Y017319
X007559Y032816
X036057Y033818
X026556Y021321
X026556Y003821
X007558Y003819
X017056Y006821
X036057Y030818
X007559Y030816
X036056Y004821
X026556Y018321
X036056Y017321
X007558Y019319
X045557Y032818
X017056Y018321
X017057Y033818
X007558Y008819
X026556Y017321
X045556Y018321
X017056Y019321
X007558Y020319
X036057Y029818
X007558Y018319
X045556Y019321
X045557Y030818
X036056Y008821
X017056Y007821
X026556Y006821
X026556Y020321
X017056Y020321
X026557Y028818
X045557Y029818
X036056Y016321
X007559Y031816
X017057Y030818
X007558Y007819
X036056Y018321
T00
M30
