<?xml version='1.0' encoding='UTF-8' standalone='no'?>
<!-- Created with Fritzing (http://www.fritzing.org/) -->
<svg xmlns:svg='http://www.w3.org/2000/svg' xmlns='http://www.w3.org/2000/svg' version='1.2' baseProfile='tiny' x='0in' y='0in' width='1.3575in' height='1.98745in' viewBox='0 0 97.7396 143.097' >
<g partID='854114450'><g transform='translate(29.1601,35.5731)' ><g id="schematic">
<rect class="interior rect" fill="#FFFFFF" stroke="#000000" height="56.7" stroke-width="0.9" width="35.1" x="14.85" stroke-linecap="round" y="14.85"/>
<line class="pin" fill="none" stroke="#787878" id="connector2pin" stroke-width="0.699999" y1="43.2" y2="43.2" x1="50.0499" stroke-linecap="round" x2="64.4499"/>
<text class="text" fill="#8c8c8c" text-anchor="middle" stroke="none" font-size="2.5" stroke-width="0" font-family="'Droid Sans'" x="57.2499" y="42.15">3</text>
<text class="text" fill="#8c8c8c" text-anchor="end" stroke="none" font-size="3.49999" stroke-width="0" font-family="'Droid Sans'" x="48.6499" y="43.8999">Pin 3</text>
<g class="terminal" fill="none" stroke="none" height="0.699999" id="connector2terminal" stroke-width="0" width="0.699999" x="64.4499" y="42.8499"/>
<line class="pin" fill="none" stroke="#787878" id="connector5pin" stroke-width="0.699999" y1="36" y2="36" x1="0.349999" stroke-linecap="round" x2="14.75"/>
<text class="text" fill="#8c8c8c" text-anchor="middle" stroke="none" font-size="2.5" stroke-width="0" font-family="'Droid Sans'" x="7.54999" y="34.95">7</text>
<text class="text" fill="#8c8c8c" text-anchor="start" stroke="none" font-size="3.49999" stroke-width="0" font-family="'Droid Sans'" x="16.15" y="36.6999">Pin 7</text>
<g class="terminal" fill="none" stroke="none" height="0.699999" id="connector5terminal" stroke-width="0" width="0.699999" x="-0.349999" y="35.6499"/>
<line class="pin" fill="none" stroke="#787878" id="connector6pin" stroke-width="0.699999" y1="43.2" y2="43.2" x1="0.349999" stroke-linecap="round" x2="14.75"/>
<text class="text" fill="#8c8c8c" text-anchor="middle" stroke="none" font-size="2.5" stroke-width="0" font-family="'Droid Sans'" x="7.54999" y="42.15">6</text>
<text class="text" fill="#8c8c8c" text-anchor="start" stroke="none" font-size="3.49999" stroke-width="0" font-family="'Droid Sans'" x="16.15" y="43.8999">Pin 6</text>
<g class="terminal" fill="none" stroke="none" height="0.699999" id="connector6terminal" stroke-width="0" width="0.699999" x="-0.349999" y="42.8499"/>
<line class="pin" fill="none" stroke="#787878" id="connector1pin" stroke-width="0.699999" y1="50.4" y2="50.4" x1="0.349999" stroke-linecap="round" x2="14.75"/>
<text class="text" fill="#8c8c8c" text-anchor="middle" stroke="none" font-size="2.5" stroke-width="0" font-family="'Droid Sans'" x="7.54999" y="49.35">2</text>
<text class="text" fill="#8c8c8c" text-anchor="start" stroke="none" font-size="3.49999" stroke-width="0" font-family="'Droid Sans'" x="16.15" y="51.0999">Pin 2</text>
<g class="terminal" fill="none" stroke="none" height="0.699999" id="connector1terminal" stroke-width="0" width="0.699999" x="-0.349999" y="50.0499"/>
<line class="pin" fill="none" stroke="#787878" id="connector0pin" stroke-width="0.699999" y1="71.6499" y2="86.0499" x1="28.8" stroke-linecap="round" x2="28.8"/>
<g transform="matrix(1, 0, 0, 1, 27.75, 78.8499)">
<g>
<g transform="rotate(270)">
<g>
<text class="text" fill="#8c8c8c" text-anchor="middle" stroke="none" font-size="2.5" stroke-width="0" font-family="'Droid Sans'" x="0" y="0">1</text>
</g>
</g>
</g>
</g>
<g transform="matrix(1, 0, 0, 1, 29.4999, 70.2499)">
<g>
<g transform="rotate(270)">
<g>
<text class="text" fill="#8c8c8c" text-anchor="start" stroke="none" font-size="3.49999" stroke-width="0" font-family="'Droid Sans'" x="0" y="0">Pin 1</text>
</g>
</g>
</g>
</g>
<g class="terminal" fill="none" stroke="none" height="0.699999" id="connector0terminal" stroke-width="0" width="0.699999" x="28.4499" y="86.0499"/>
<line class="pin" fill="none" stroke="#787878" id="connector4pin" stroke-width="0.699999" y1="71.6499" y2="86.0499" x1="36" stroke-linecap="round" x2="36"/>
<g transform="matrix(1, 0, 0, 1, 34.95, 78.8499)">
<g>
<g transform="rotate(270)">
<g>
<text class="text" fill="#8c8c8c" text-anchor="middle" stroke="none" font-size="2.5" stroke-width="0" font-family="'Droid Sans'" x="0" y="0">5</text>
</g>
</g>
</g>
</g>
<g transform="matrix(1, 0, 0, 1, 36.6999, 70.2499)">
<g>
<g transform="rotate(270)">
<g>
<text class="text" fill="#8c8c8c" text-anchor="start" stroke="none" font-size="3.49999" stroke-width="0" font-family="'Droid Sans'" x="0" y="0">Pin 5</text>
</g>
</g>
</g>
</g>
<g class="terminal" fill="none" stroke="none" height="0.699999" id="connector4terminal" stroke-width="0" width="0.699999" x="35.6499" y="86.0499"/>
<line class="pin" fill="none" stroke="#787878" id="connector7pin" stroke-width="0.699999" y1="0.349999" y2="14.75" x1="28.8" stroke-linecap="round" x2="28.8"/>
<g transform="matrix(1, 0, 0, 1, 27.75, 7.54999)">
<g>
<g transform="rotate(270)">
<g>
<text class="text" fill="#8c8c8c" text-anchor="middle" stroke="none" font-size="2.5" stroke-width="0" font-family="'Droid Sans'" x="0" y="0">8</text>
</g>
</g>
</g>
</g>
<g transform="matrix(1, 0, 0, 1, 29.4999, 16.15)">
<g>
<g transform="rotate(270)">
<g>
<text class="text" fill="#8c8c8c" text-anchor="end" stroke="none" font-size="3.49999" stroke-width="0" font-family="'Droid Sans'" x="0" y="0">Pin 8</text>
</g>
</g>
</g>
</g>
<g class="terminal" fill="none" stroke="none" height="0.699999" id="connector7terminal" stroke-width="0" width="0.699999" x="28.4499" y="-0.349999"/>
<line class="pin" fill="none" stroke="#787878" id="connector3pin" stroke-width="0.699999" y1="0.349999" y2="14.75" x1="36" stroke-linecap="round" x2="36"/>
<g transform="matrix(1, 0, 0, 1, 34.95, 7.54999)">
<g>
<g transform="rotate(270)">
<g>
<text class="text" fill="#8c8c8c" text-anchor="middle" stroke="none" font-size="2.5" stroke-width="0" font-family="'Droid Sans'" x="0" y="0">4</text>
</g>
</g>
</g>
</g>
<g transform="matrix(1, 0, 0, 1, 36.6999, 16.15)">
<g>
<g transform="rotate(270)">
<g>
<text class="text" fill="#8c8c8c" text-anchor="end" stroke="none" font-size="3.49999" stroke-width="0" font-family="'Droid Sans'" x="0" y="0">Pin 4</text>
</g>
</g>
</g>
</g>
<g class="terminal" fill="none" stroke="none" height="0.699999" id="connector3terminal" stroke-width="0" width="0.699999" x="35.6499" y="-0.349999"/>
<text class="text" fill="#000000" text-anchor="middle" stroke="none" font-size="4.25001" id="label" stroke-width="0" font-family="'Droid Sans'" x="32.8501" y="39.1164">555</text>
<text class="text" fill="#000000" text-anchor="middle" stroke="none" font-size="4.25001" id="label" stroke-width="0" font-family="'Droid Sans'" x="32.8501" y="43.6501">Timer</text>
</g>
</g></g><g partID='854114470'><g transform='translate(50.7786,0)' ><g id="schematic">
<line fill="none" stroke="#787878" id="connector0pin" stroke-miterlimit="10" stroke-width="0.75" y1="6.78" y2="13.98" stroke-linecap="round" x1="7.2" x2="7.2"/>
<g fill="none" points="6.817,13.567,7.546,13.546,7.546,14.4,6.859,14.359" id="connector0terminal"/>
<path fill="none" stroke="#000000" stroke-width="0.9" d="M0.45,6.564l13.5,0" stroke-linecap="round"/>
<g transform="matrix(1, 0, 0, 1, 1.4985, 4.9878)">
<text font-size="4.4991" id="label" font-family="'DroidSans'">5V</text>
</g>
</g>
</g></g><g partID='854114600'><g transform='translate(50.7596,128.697)' ><g xmlns="http://www.w3.org/2000/svg" id="schematic">
<path fill="none" xmlns="http://www.w3.org/2000/svg" stroke="#787878" id="connector0pin" stroke-width="0.75" d="M7.201,7.575l0,-7.2" stroke-linecap="round"/>
<g fill="none" xmlns="http://www.w3.org/2000/svg" height="0.953" id="connector0terminal" width="0.945" x="6.728" y="0"/>
<path fill="none" xmlns="http://www.w3.org/2000/svg" stroke="#000000" id="path4098" stroke-width="0.9" d="M0.5,7.711L13.9,7.711" stroke-linecap="round"/>
<path fill="none" xmlns="http://www.w3.org/2000/svg" stroke="#000000" id="path4100" stroke-width="0.9" d="M2.732,10.456l8.935,0" stroke-linecap="round"/>
<path fill="none" xmlns="http://www.w3.org/2000/svg" stroke="#000000" id="path4102" stroke-width="0.9" d="M9.431,13.175L4.967,13.175" stroke-linecap="round"/>
</g>
</g></g><g partID='854114730'><g transform='translate(84.0596,78.5565)' ><g id="schematic">
<g>
<path d="M13.5,14.966L9.9,14.966c-0.193,0,-0.35,-0.156,-0.35,-0.35s0.156,-0.35,0.35,-0.35L13.5,14.266c0.193,0,0.35,0.156,0.35,0.35S13.694,14.966,13.5,14.966z"/>
</g>
<g>
<path d="M9.9,14.966L6.3,14.966c-0.193,0,-0.35,-0.156,-0.35,-0.35s0.157,-0.35,0.35,-0.35l3.6,0c0.193,0,0.35,0.156,0.35,0.35S10.093,14.966,9.9,14.966z"/>
</g>
<g>
<polygon fill="#FFFFFF" points="9.9,14.616,6.3,7.416,9.9,7.416,13.5,7.416"/>
<path d="M9.9,15.398L5.734,7.066l8.333,0L9.9,15.398zM6.866,7.766L9.9,13.834l3.034,-6.068L6.866,7.766z"/>
</g>
<g>
<path d="M9.9,14.841c-0.124,0,-0.225,-0.101,-0.225,-0.225l0,-7.2c0,-0.124,0.101,-0.225,0.225,-0.225s0.225,0.101,0.225,0.225l0,7.2C10.124,14.74,10.024,14.841,9.9,14.841z"/>
</g>
<g>
<path d="M1.8,12.141c-0.058,0,-0.115,-0.021,-0.159,-0.065c-0.088,-0.088,-0.088,-0.23,0,-0.318l2.34,-2.341c0.088,-0.088,0.23,-0.088,0.318,0s0.088,0.23,0,0.318l-2.34,2.341C1.915,12.12,1.858,12.141,1.8,12.141z"/>
</g>
<g>
<path d="M2.16,15.381c-0.058,0,-0.115,-0.021,-0.159,-0.065c-0.088,-0.088,-0.088,-0.23,0,-0.318l2.34,-2.34c0.088,-0.088,0.23,-0.088,0.318,0s0.088,0.23,0,0.318l-2.34,2.34C2.276,15.359,2.218,15.381,2.16,15.381z"/>
</g>
<g id="connector0pin">
<path fill="#787878" d="M9.9,22.166c-0.193,0,-0.35,-0.156,-0.35,-0.35l0,-7.2c0,-0.193,0.156,-0.35,0.35,-0.35s0.35,0.156,0.35,0.35l0,7.2C10.249,22.01,10.093,22.166,9.9,22.166z"/>
</g>
<g id="connector0terminal">
<rect fill="none" height="0.001" width="0.001" x="9.9" y="21.816"/>
</g>
<g transform="matrix(1, 0, 0, 1, 3.429, 6.4262)">
<g>
<g transform="rotate(270)">
<g>
<g enable-background="new    ">
<path fill="#787878" d="M-11.647,5.54l-0.891,0L-12.538,5.388l0.342,-0.372c0.049,-0.053,0.093,-0.101,0.131,-0.145s0.071,-0.086,0.099,-0.128c0.026,-0.042,0.047,-0.084,0.062,-0.125c0.015,-0.043,0.021,-0.088,0.021,-0.138c0,-0.038,-0.005,-0.072,-0.017,-0.102s-0.027,-0.054,-0.047,-0.075c-0.021,-0.02,-0.045,-0.035,-0.073,-0.046s-0.06,-0.016,-0.094,-0.016c-0.062,0,-0.118,0.013,-0.167,0.038c-0.051,0.024,-0.098,0.057,-0.143,0.096l-0.1,-0.116c0.025,-0.023,0.055,-0.046,0.084,-0.065c0.029,-0.021,0.063,-0.039,0.097,-0.054s0.071,-0.026,0.109,-0.036c0.038,-0.008,0.079,-0.013,0.121,-0.013c0.063,0,0.119,0.009,0.169,0.026c0.051,0.018,0.094,0.043,0.129,0.076c0.035,0.032,0.063,0.072,0.082,0.119c0.019,0.048,0.028,0.101,0.028,0.16c0,0.056,-0.009,0.108,-0.026,0.158c-0.017,0.05,-0.041,0.1,-0.07,0.148c-0.031,0.048,-0.066,0.097,-0.109,0.146c-0.041,0.049,-0.087,0.1,-0.136,0.152L-12.32,5.37l0,0.008l0.673,0L-11.647,5.54z"/>
</g>
</g>
</g>
</g>
</g>
<g id="connector1pin">
<path fill="#787878" d="M9.9,7.766c-0.193,0,-0.35,-0.157,-0.35,-0.35l0,-7.2c0,-0.193,0.156,-0.35,0.35,-0.35s0.35,0.157,0.35,0.35l0,7.2C10.249,7.609,10.093,7.766,9.9,7.766z"/>
</g>
<g id="connector1terminal">
<polygon fill="none" points="9.9,0.216,9.901,0.216,9.901,0.216"/>
</g>
<g transform="matrix(1, 0, 0, 1, 3.429, 1.3462)">
<g>
<g transform="rotate(270)">
<g>
<g enable-background="new    ">
<path fill="#787878" d="M-2.616,5.54l-0.172,0L-2.788,4.648c0,-0.028,0,-0.058,0,-0.09s0.001,-0.063,0.002,-0.095c0.001,-0.032,0.002,-0.063,0.003,-0.092c0.001,-0.028,0.002,-0.054,0.002,-0.076c-0.011,0.012,-0.021,0.021,-0.029,0.03s-0.017,0.017,-0.026,0.024s-0.018,0.016,-0.028,0.025c-0.01,0.008,-0.021,0.019,-0.035,0.03l-0.145,0.118l-0.094,-0.12l0.374,-0.292l0.146,0L-2.618,5.54z"/>
</g>
</g>
</g>
</g>
</g>
<g>
<path d="M0.18,13.536l1.08,-2.521l1.44,1.438L0.18,13.536z"/>
</g>
<g>
<path d="M0.54,16.776l1.08,-2.521l1.438,1.438L0.54,16.776z"/>
</g>
</g>
</g></g><g partID='854116020'><g transform='translate(10.6563,49.6229)' ><g transform='matrix(0,1,-1,0,0,0)'  ><g xmlns="http://www.w3.org/2000/svg" id="schematic">
<line class="other" xmlns="http://www.w3.org/2000/svg" stroke="#000000" stroke-width="0.432002" y1="3.096" y2="0.216" x1="7.55002" stroke-linecap="round" x2="8.63003"/>
<line class="other" xmlns="http://www.w3.org/2000/svg" stroke="#000000" stroke-width="0.432002" y1="0.216" y2="5.976" x1="8.63003" stroke-linecap="round" x2="10.43"/>
<line class="other" xmlns="http://www.w3.org/2000/svg" stroke="#000000" stroke-width="0.432002" y1="5.976" y2="0.216" x1="10.43" stroke-linecap="round" x2="12.23"/>
<line class="other" xmlns="http://www.w3.org/2000/svg" stroke="#000000" stroke-width="0.432002" y1="0.216" y2="5.976" x1="12.23" stroke-linecap="round" x2="14.03"/>
<line class="other" xmlns="http://www.w3.org/2000/svg" stroke="#000000" stroke-width="0.432002" y1="5.976" y2="0.216" x1="14.03" stroke-linecap="round" x2="15.8301"/>
<line class="other" xmlns="http://www.w3.org/2000/svg" stroke="#000000" stroke-width="0.432002" y1="0.216" y2="5.976" x1="15.8301" stroke-linecap="round" x2="17.6301"/>
<line class="other" xmlns="http://www.w3.org/2000/svg" stroke="#000000" stroke-width="0.432002" y1="5.976" y2="0.216" x1="17.6301" stroke-linecap="round" x2="19.4301"/>
<line class="other" xmlns="http://www.w3.org/2000/svg" stroke="#000000" stroke-width="0.432002" y1="0.216" y2="5.976" x1="19.4301" stroke-linecap="round" x2="21.2301"/>
<line class="other" xmlns="http://www.w3.org/2000/svg" stroke="#000000" stroke-width="0.432002" y1="5.976" y2="3.096" x1="21.2301" stroke-linecap="round" x2="21.9501"/>
<line class="pin" xmlns="http://www.w3.org/2000/svg" stroke="#787878" id="connector1pin" connectorname="2" stroke-width="0.700001" y1="3.096" y2="3.096" x1="29.1502" stroke-linecap="round" x2="21.9501"/>
<g class="terminal" fill="none" xmlns="http://www.w3.org/2000/svg" stroke="none" height="0.000283465" id="connector1terminal" stroke-width="0" width="0.000283466" x="29.1502" y="3.096"/>
<text class="text" fill="#8c8c8c" xmlns="http://www.w3.org/2000/svg" text-anchor="middle" stroke="none" font-size="2.50001" stroke-width="0" font-family="'Droid Sans'" x="25.5501" y="2.046">2</text>
<line class="pin" xmlns="http://www.w3.org/2000/svg" stroke="#787878" id="connector0pin" connectorname="1" stroke-width="0.700001" y1="3.096" y2="3.096" x1="0.350001" stroke-linecap="round" x2="7.55002"/>
<g class="terminal" fill="none" xmlns="http://www.w3.org/2000/svg" stroke="none" height="0.000283465" id="connector0terminal" stroke-width="0" width="0.000283466" x="0.350001" y="3.096"/>
<text class="text" fill="#8c8c8c" xmlns="http://www.w3.org/2000/svg" text-anchor="middle" stroke="none" font-size="2.50001" stroke-width="0" font-family="'Droid Sans'" x="3.95001" y="2.046">1</text>
</g>
</g></g></g><g partID='854114760'><g transform='translate(97.0563,100.023)' ><g transform='matrix(0,1,-1,0,0,0)'  ><g xmlns="http://www.w3.org/2000/svg" id="schematic">
<line class="other" xmlns="http://www.w3.org/2000/svg" stroke="#000000" stroke-width="0.432002" y1="3.096" y2="0.216" x1="7.55002" stroke-linecap="round" x2="8.63003"/>
<line class="other" xmlns="http://www.w3.org/2000/svg" stroke="#000000" stroke-width="0.432002" y1="0.216" y2="5.976" x1="8.63003" stroke-linecap="round" x2="10.43"/>
<line class="other" xmlns="http://www.w3.org/2000/svg" stroke="#000000" stroke-width="0.432002" y1="5.976" y2="0.216" x1="10.43" stroke-linecap="round" x2="12.23"/>
<line class="other" xmlns="http://www.w3.org/2000/svg" stroke="#000000" stroke-width="0.432002" y1="0.216" y2="5.976" x1="12.23" stroke-linecap="round" x2="14.03"/>
<line class="other" xmlns="http://www.w3.org/2000/svg" stroke="#000000" stroke-width="0.432002" y1="5.976" y2="0.216" x1="14.03" stroke-linecap="round" x2="15.8301"/>
<line class="other" xmlns="http://www.w3.org/2000/svg" stroke="#000000" stroke-width="0.432002" y1="0.216" y2="5.976" x1="15.8301" stroke-linecap="round" x2="17.6301"/>
<line class="other" xmlns="http://www.w3.org/2000/svg" stroke="#000000" stroke-width="0.432002" y1="5.976" y2="0.216" x1="17.6301" stroke-linecap="round" x2="19.4301"/>
<line class="other" xmlns="http://www.w3.org/2000/svg" stroke="#000000" stroke-width="0.432002" y1="0.216" y2="5.976" x1="19.4301" stroke-linecap="round" x2="21.2301"/>
<line class="other" xmlns="http://www.w3.org/2000/svg" stroke="#000000" stroke-width="0.432002" y1="5.976" y2="3.096" x1="21.2301" stroke-linecap="round" x2="21.9501"/>
<line class="pin" xmlns="http://www.w3.org/2000/svg" stroke="#787878" id="connector1pin" connectorname="2" stroke-width="0.700001" y1="3.096" y2="3.096" x1="29.1502" stroke-linecap="round" x2="21.9501"/>
<g class="terminal" fill="none" xmlns="http://www.w3.org/2000/svg" stroke="none" height="0.000283465" id="connector1terminal" stroke-width="0" width="0.000283466" x="29.1502" y="3.096"/>
<text class="text" fill="#8c8c8c" xmlns="http://www.w3.org/2000/svg" text-anchor="middle" stroke="none" font-size="2.50001" stroke-width="0" font-family="'Droid Sans'" x="25.5501" y="2.046">2</text>
<line class="pin" xmlns="http://www.w3.org/2000/svg" stroke="#787878" id="connector0pin" connectorname="1" stroke-width="0.700001" y1="3.096" y2="3.096" x1="0.350001" stroke-linecap="round" x2="7.55002"/>
<g class="terminal" fill="none" xmlns="http://www.w3.org/2000/svg" stroke="none" height="0.000283465" id="connector0terminal" stroke-width="0" width="0.000283466" x="0.350001" y="3.096"/>
<text class="text" fill="#8c8c8c" xmlns="http://www.w3.org/2000/svg" text-anchor="middle" stroke="none" font-size="2.50001" stroke-width="0" font-family="'Droid Sans'" x="3.95001" y="2.046">1</text>
</g>
</g></g></g><g partID='854116000'><g transform='translate(10.6563,13.6229)' ><g transform='matrix(0,1,-1,0,0,0)'  ><g xmlns="http://www.w3.org/2000/svg" id="schematic">
<line class="other" xmlns="http://www.w3.org/2000/svg" stroke="#000000" stroke-width="0.432002" y1="3.096" y2="0.216" x1="7.55002" stroke-linecap="round" x2="8.63003"/>
<line class="other" xmlns="http://www.w3.org/2000/svg" stroke="#000000" stroke-width="0.432002" y1="0.216" y2="5.976" x1="8.63003" stroke-linecap="round" x2="10.43"/>
<line class="other" xmlns="http://www.w3.org/2000/svg" stroke="#000000" stroke-width="0.432002" y1="5.976" y2="0.216" x1="10.43" stroke-linecap="round" x2="12.23"/>
<line class="other" xmlns="http://www.w3.org/2000/svg" stroke="#000000" stroke-width="0.432002" y1="0.216" y2="5.976" x1="12.23" stroke-linecap="round" x2="14.03"/>
<line class="other" xmlns="http://www.w3.org/2000/svg" stroke="#000000" stroke-width="0.432002" y1="5.976" y2="0.216" x1="14.03" stroke-linecap="round" x2="15.8301"/>
<line class="other" xmlns="http://www.w3.org/2000/svg" stroke="#000000" stroke-width="0.432002" y1="0.216" y2="5.976" x1="15.8301" stroke-linecap="round" x2="17.6301"/>
<line class="other" xmlns="http://www.w3.org/2000/svg" stroke="#000000" stroke-width="0.432002" y1="5.976" y2="0.216" x1="17.6301" stroke-linecap="round" x2="19.4301"/>
<line class="other" xmlns="http://www.w3.org/2000/svg" stroke="#000000" stroke-width="0.432002" y1="0.216" y2="5.976" x1="19.4301" stroke-linecap="round" x2="21.2301"/>
<line class="other" xmlns="http://www.w3.org/2000/svg" stroke="#000000" stroke-width="0.432002" y1="5.976" y2="3.096" x1="21.2301" stroke-linecap="round" x2="21.9501"/>
<line class="pin" xmlns="http://www.w3.org/2000/svg" stroke="#787878" id="connector1pin" connectorname="2" stroke-width="0.700001" y1="3.096" y2="3.096" x1="29.1502" stroke-linecap="round" x2="21.9501"/>
<g class="terminal" fill="none" xmlns="http://www.w3.org/2000/svg" stroke="none" height="0.000283465" id="connector1terminal" stroke-width="0" width="0.000283466" x="29.1502" y="3.096"/>
<text class="text" fill="#8c8c8c" xmlns="http://www.w3.org/2000/svg" text-anchor="middle" stroke="none" font-size="2.50001" stroke-width="0" font-family="'Droid Sans'" x="25.5501" y="2.046">2</text>
<line class="pin" xmlns="http://www.w3.org/2000/svg" stroke="#787878" id="connector0pin" connectorname="1" stroke-width="0.700001" y1="3.096" y2="3.096" x1="0.350001" stroke-linecap="round" x2="7.55002"/>
<g class="terminal" fill="none" xmlns="http://www.w3.org/2000/svg" stroke="none" height="0.000283465" id="connector0terminal" stroke-width="0" width="0.000283466" x="0.350001" y="3.096"/>
<text class="text" fill="#8c8c8c" xmlns="http://www.w3.org/2000/svg" text-anchor="middle" stroke="none" font-size="2.50001" stroke-width="0" font-family="'Droid Sans'" x="3.95001" y="2.046">1</text>
</g>
</g></g></g><g partID='854114950'><g transform='translate(0,100.023)' ><g id="schematic">
<line class="other" stroke="#000000" stroke-width="0.72" y1="7.54999" y2="7.54999" x1="0.36" stroke-linecap="round" x2="14.76"/>
<line class="other" stroke="#000000" stroke-width="0.432" y1="10.43" y2="14.75" x1="7.56" stroke-linecap="round" x2="7.56"/>
<path class="other" fill="none" stroke="#000000" stroke-width="0.72" d="M7.56,10.3846A11.4922,11.4922,0,0,1,14.616,12.806"/>
<path class="other" fill="none" stroke="#000000" stroke-width="0.72" d="M0.567213,12.7952A11.5191,11.5191,0,0,1,7.56,10.4303"/>
<rect class="other" fill="#000000" stroke="none" height="0.36" stroke-width="0" width="2.52" x="1.17354" stroke-linecap="round" y="5.29645"/>
<rect class="other" fill="#000000" stroke="none" height="2.52" stroke-width="0" width="0.36" x="2.25354" stroke-linecap="round" y="4.21645"/>
<line class="pin" stroke="#787878" id="connector1pin" connectorname="+" stroke-width="0.699999" y1="0.349999" y2="7.54999" x1="7.56" stroke-linecap="round" x2="7.56"/>
<g class="terminal" fill="none" stroke="none" height="0.000283465" id="connector1terminal" stroke-width="0" width="0.000283465" x="7.56" y="0.349999"/>
<g transform="matrix(1, 0, 0, 1, 6.50999, 3.94999)">
<g>
<g transform="rotate(270)">
<g>
<text class="text" fill="#8c8c8c" text-anchor="middle" stroke="none" font-size="2.5" stroke-width="0" font-family="'Droid Sans'" x="0" y="0">2</text>
</g>
</g>
</g>
</g>
<line class="pin" stroke="#787878" id="connector0pin" connectorname="-" stroke-width="0.699999" y1="21.95" y2="14.75" x1="7.56" stroke-linecap="round" x2="7.56"/>
<g class="terminal" fill="none" stroke="none" height="0.000283465" id="connector0terminal" stroke-width="0" width="0.000283465" x="7.56" y="21.95"/>
<g transform="matrix(1, 0, 0, 1, 6.50999, 18.35)">
<g>
<g transform="rotate(270)">
<g>
<text class="text" fill="#8c8c8c" text-anchor="middle" stroke="none" font-size="2.5" stroke-width="0" font-family="'Droid Sans'" x="0" y="0">1</text>
</g>
</g>
</g>
</g>
</g>
</g></g><g partID='854114500'><line stroke-linecap='round' stroke='#404040' x1='57.9601' y1='35.5731' x2='57.9601' y2='13.973' stroke-width='0.699998' /></g><circle  fill="black" cx="57.9601" cy="35.5731" r="1.44" stroke-width="0" stroke="none" /><circle  fill="black" cx="57.9601" cy="13.973" r="1.44" stroke-width="0" stroke="none" /><g partID='854114530'><line stroke-linecap='round' stroke='#404040' x1='57.9601' y1='35.5731' x2='65.1601' y2='35.5731' stroke-width='0.699998' /></g><circle  fill="black" cx="57.9601" cy="35.5731" r="1.44" stroke-width="0" stroke="none" /><g partID='854114630'><line stroke-linecap='round' stroke='#404040' x1='57.9601' y1='129.173' x2='57.9601' y2='121.973' stroke-width='0.699998' /></g><circle  fill="black" cx="57.9601" cy="129.173" r="1.44" stroke-width="0" stroke="none" /><g partID='854114790'><line stroke-linecap='round' stroke='#404040' x1='93.9601' y1='100.373' x2='93.9601' y2='100.373' stroke-width='0.699998' /></g><g partID='854114860'><line stroke-linecap='round' stroke='#404040' x1='93.9601' y1='78.7725' x2='93.9601' y2='78.773' stroke-width='0.699998' /></g><g partID='854115170'><line stroke-linecap='round' stroke='#404040' x1='65.1601' y1='129.173' x2='93.9601' y2='129.173' stroke-width='0.699998' /></g><g partID='854114980'><line stroke-linecap='round' stroke='#404040' x1='57.9601' y1='129.173' x2='65.1601' y2='129.173' stroke-width='0.699998' /></g><circle  fill="black" cx="57.9601" cy="129.173" r="1.44" stroke-width="0" stroke="none" /><circle  fill="black" cx="65.1601" cy="129.173" r="1.44" stroke-width="0" stroke="none" /><g partID='854115230'><line stroke-linecap='round' stroke='#404040' x1='65.1601' y1='129.173' x2='65.1601' y2='121.973' stroke-width='0.699998' /></g><g partID='854115340'><line stroke-linecap='round' stroke='#404040' x1='57.9601' y1='129.173' x2='7.56014' y2='129.173' stroke-width='0.699998' /></g><circle  fill="black" cx="57.9601" cy="129.173" r="1.44" stroke-width="0" stroke="none" /><g partID='854115490'><line stroke-linecap='round' stroke='#404040' x1='7.56014' y1='129.173' x2='7.56014' y2='121.973' stroke-width='0.699998' /></g><g partID='854115710'><line stroke-linecap='round' stroke='#404040' x1='7.56014' y1='85.973' x2='7.56014' y2='100.373' stroke-width='0.699998' /></g><circle  fill="black" cx="7.56014" cy="85.973" r="1.44" stroke-width="0" stroke="none" /><g partID='854115640'><line stroke-linecap='round' stroke='#404040' x1='29.1601' y1='85.973' x2='7.56014' y2='85.973' stroke-width='0.699998' /></g><g partID='854115780'><line stroke-linecap='round' stroke='#404040' x1='7.56014' y1='85.973' x2='7.56014' y2='78.773' stroke-width='0.699998' /></g><circle  fill="black" cx="7.56014" cy="85.973" r="1.44" stroke-width="0" stroke="none" /><g partID='854115890'><line stroke-linecap='round' stroke='#404040' x1='7.56014' y1='78.773' x2='29.1601' y2='78.773' stroke-width='0.699998' /></g><g partID='854116110'><line stroke-linecap='round' stroke='#404040' x1='29.1601' y1='49.973' x2='29.1601' y2='71.573' stroke-width='0.699998' /></g><g partID='854116040'><line stroke-linecap='round' stroke='#404040' x1='7.56014' y1='49.973' x2='29.1601' y2='49.973' stroke-width='0.699998' /></g><circle  fill="black" cx="7.56014" cy="49.973" r="1.44" stroke-width="0" stroke="none" /><g partID='854116180'><line stroke-linecap='round' stroke='#404040' x1='7.56014' y1='85.973' x2='7.56014' y2='78.7732' stroke-width='0.699998' /></g><g partID='854116330'><line stroke-linecap='round' stroke='#404040' x1='7.56014' y1='49.973' x2='7.56014' y2='42.7732' stroke-width='0.699998' /></g><circle  fill="black" cx="7.56014" cy="49.973" r="1.44" stroke-width="0" stroke="none" /><g partID='854116440'><line stroke-linecap='round' stroke='#404040' x1='57.9601' y1='13.973' x2='7.56014' y2='13.973' stroke-width='0.699998' /></g><circle  fill="black" cx="57.9601" cy="13.973" r="1.44" stroke-width="0" stroke="none" /></svg>